<svg xmlns="http://www.w3.org/2000/svg" width="220" height="220" viewBox="0 0 220 220">
  <g id="Grupo_9875" data-name="Grupo 9875" transform="translate(-390 -1117)">
    <g id="Elipse_559" data-name="Elipse 559" transform="translate(390 1117)" fill="#f4f4f4" stroke="#fdac29" stroke-width="2">
      <circle cx="110" cy="110" r="110" stroke="none"/>
      <circle cx="110" cy="110" r="109" fill="none"/>
    </g>
    <g id="Grupo_9668" data-name="Grupo 9668" transform="translate(407.424 1158)">
      <g id="Grupo_8724" data-name="Grupo 8724" transform="translate(0 53.262)">
        <path id="Trazado_14285" data-name="Trazado 14285" d="M291.118,1338.111c-4.088-.473-9.809-4.193-5.915-8.547,3.151-3.167,9.146-1.841,11.729,1.44C299.486,1334.91,295.143,1338.945,291.118,1338.111Z" transform="translate(-260.637 -1298.607)" fill="#513636"/>
        <path id="Trazado_14286" data-name="Trazado 14286" d="M328.941,1320.225c-8.048,2.248-11.11-9.2-2.823-10.844C334.332,1307.026,338.758,1321.279,328.941,1320.225Z" transform="translate(-286.325 -1285.772)" fill="#513636"/>
        <path id="Trazado_14287" data-name="Trazado 14287" d="M360.932,1312.376c-4.513-1.083-3.358-8.045,1.182-7.861C368.514,1304.667,367.2,1315.234,360.932,1312.376Z" transform="translate(-311.707 -1282.6)" fill="#513636"/>
        <path id="Trazado_14288" data-name="Trazado 14288" d="M383.807,1283.5a3.961,3.961,0,0,1-2.807-1.653c-3.524-2.128-.795-7.705.908-10.374,2.906-4.79,8.458-8.048,14.127-7.5,9.143.346,9.517,12.027,1.591,14.88C389.985,1279.118,390.217,1283.7,383.807,1283.5Z" transform="translate(-326.314 -1254.65)" fill="#513636"/>
        <path id="Trazado_14289" data-name="Trazado 14289" d="M452.856,1253.564a3.185,3.185,0,0,1-1.409-.472c-8.3-.569-7.824-12.031.22-12.645C460.527,1239.576,462.066,1253.625,452.856,1253.564Z" transform="translate(-371.858 -1238.459)" fill="#513636"/>
        <path id="Trazado_14290" data-name="Trazado 14290" d="M478.45,1244.309a5.921,5.921,0,0,1-1.935-2.971c-4.917-1.2,1.041-8.36,4.5-7.02C488.45,1235.828,486.277,1248.908,478.45,1244.309Z" transform="translate(-391.978 -1234.152)" fill="#513636"/>
        <path id="Trazado_14291" data-name="Trazado 14291" d="M497.337,1257.446a1.222,1.222,0,0,1,2.443,0A1.222,1.222,0,0,1,497.337,1257.446Z" transform="translate(-407.602 -1249.375)" fill="#513636"/>
        <path id="Trazado_14292" data-name="Trazado 14292" d="M509.123,1246.366c-4.333-1.594-2.473-9.787,2.522-8.086C517.231,1239.517,514.177,1247.739,509.123,1246.366Z" transform="translate(-414.048 -1236.835)" fill="#513636"/>
        <path id="Trazado_14293" data-name="Trazado 14293" d="M526.344,1255.65a1.847,1.847,0,0,1-.285-2.214c-2.2-.952-.305-2.884,1.409-2.055C530.435,1252.268,529.667,1257.912,526.344,1255.65Z" transform="translate(-426.694 -1245.877)" fill="#513636"/>
        <path id="Trazado_14294" data-name="Trazado 14294" d="M541.434,1261.513c-1.709-.813-2.458-2.819-4.119-3.76-1.254-.9-3.473-1.25-3.16-3.26a5.951,5.951,0,0,1,7.705-4.059C547.025,1251.487,548.036,1263.275,541.434,1261.513Z" transform="translate(-432.934 -1245.155)" fill="#513636"/>
        <path id="Trazado_14295" data-name="Trazado 14295" d="M565.309,1271.069c-2.107-.167-4.506-2.028-3.365-4.308-.392-3.362,3.829-6.02,6.7-4.258C573.953,1265.688,571.256,1271.864,565.309,1271.069Z" transform="translate(-451.886 -1253.288)" fill="#513636"/>
        <path id="Trazado_14296" data-name="Trazado 14296" d="M594.534,1276.081a2.2,2.2,0,0,1-1.459-1.247c-3.907-1.11-.948-6.3,2.3-5.6C600.731,1269.142,599.66,1277.645,594.534,1276.081Z" transform="translate(-472.243 -1258.266)" fill="#513636"/>
        <path id="Trazado_14297" data-name="Trazado 14297" d="M612.359,1289.59c-3.876-.3-11.2-3.718-8.365-8.485,1.927-5.584,10.818-3.163,13.447.749C619.769,1285.4,616.489,1290.176,612.359,1289.59Z" transform="translate(-480.605 -1264.223)" fill="#513636"/>
        <path id="Trazado_14298" data-name="Trazado 14298" d="M648.346,1300.732c-1.791-.2-3.524-2.208-2.541-3.969-.257-2.46,2.516-3.938,4.686-3.462C655.611,1294.975,653.483,1301.688,648.346,1300.732Z" transform="translate(-509.638 -1274.819)" fill="#513636"/>
        <path id="Trazado_14299" data-name="Trazado 14299" d="M677.281,1310.856c-.536-.43-.435-1.151-.647-1.7a2.056,2.056,0,0,1-3.292-1.057,1.592,1.592,0,0,0-.838.08.806.806,0,0,1-1,.215l.017.008c-2.986-1.851,2.207-5.244,4.072-3.077C680.693,1302.523,683.032,1313.469,677.281,1310.856Z" transform="translate(-526.916 -1282.675)" fill="#513636"/>
        <path id="Trazado_14300" data-name="Trazado 14300" d="M667.38,1313.828a2.821,2.821,0,0,1-1.194-.689c.038.034.076.067.113.1a1.339,1.339,0,0,0-1.053-.411c.1.006.209.014.315.019-2.078.084-3.392-1.718-5.192-2.416-2.246.39-4.1-2.315-1.915-3.765h0c2.04-1.064,9.037,1.631,10.884,2.911C671.159,1311.154,669.9,1314.5,667.38,1313.828Z" transform="translate(-517.872 -1283.916)" fill="#513636"/>
        <path id="Trazado_14301" data-name="Trazado 14301" d="M696.784,1316.056c-9.281-2.375-2.427-11.831,4.155-7.967C705.971,1310.87,702.116,1319.395,696.784,1316.056Z" transform="translate(-541.825 -1284.432)" fill="#513636"/>
        <path id="Trazado_14302" data-name="Trazado 14302" d="M505.517,1282.616c-12.141-1.912-11.992-18,1.271-17.783C521.116,1265.319,519.583,1284.176,505.517,1282.616Z" transform="translate(-407.108 -1255.276)" fill="#513636"/>
        <path id="Trazado_14303" data-name="Trazado 14303" d="M415.584,1326.284c-9.536-2.758-5.524-15.951,3.641-14.962C429.2,1313.059,424.876,1328.573,415.584,1326.284Z" transform="translate(-347.537 -1287.253)" fill="#513636"/>
        <path id="Trazado_14304" data-name="Trazado 14304" d="M408.729,1314.717a8.647,8.647,0,0,0-.485-2.43q-.232-.06-.465-.115a2.488,2.488,0,0,0-.471.467A3.411,3.411,0,0,0,408.729,1314.717Zm1.686,3.028c-7.656-.006-10.682-10.012-2-10.9,4.284-.183,7.31,6.343,4.506,9.463a.914.914,0,0,1-.845,1.383,1.032,1.032,0,0,0,.192,0A6.766,6.766,0,0,1,410.415,1317.745Z" transform="translate(-342.745 -1284.205)" fill="#513636"/>
        <path id="Trazado_14305" data-name="Trazado 14305" d="M511.312,1257.434c-6.777-1.048-2.268-12.1,2.686-6.581C518.968,1252.126,515.395,1258.52,511.312,1257.434Z" transform="translate(-414.858 -1244.593)" fill="#634343"/>
        <path id="Trazado_14306" data-name="Trazado 14306" d="M488.1,1266.114c-2.181-2.2-1.006-6.893,2.534-6.071,2.1-1.872,5.963-.068,5.381,2.836C495.228,1265.848,490.586,1269.179,488.1,1266.114Z" transform="translate(-400.481 -1251.453)" fill="#634343"/>
        <path id="Trazado_14307" data-name="Trazado 14307" d="M466.873,1286.48c-.24-.852,1.161-1.243,1.388-.386S467.1,1287.343,466.873,1286.48Z" transform="translate(-386.606 -1269.588)" fill="#634343"/>
        <path id="Trazado_14308" data-name="Trazado 14308" d="M449.315,1288.81c-3.367-.379-6.014-4.023-6.04-7.25,0,.029,0,.059-.006.088-1.132-5.048,1.852-11.032,7.636-10.476,7.495-5.635,16.22,7.051,8.92,11.917C458.579,1287.452,453.5,1289.362,449.315,1288.81Z" transform="translate(-370.209 -1258.669)" fill="#634343"/>
        <path id="Trazado_14309" data-name="Trazado 14309" d="M555.386,1294.383c-8.383-2.339-5.385-17.284,3.763-14.478C568.594,1283.407,565.574,1296.389,555.386,1294.383Z" transform="translate(-444.177 -1265.416)" fill="#634343"/>
        <path id="Trazado_14310" data-name="Trazado 14310" d="M585.484,1289.307a2.753,2.753,0,0,1-.764-2.335c-5.6-2.825,1.524-8.894,5.208-5.076C594.236,1284.781,590.026,1292.941,585.484,1289.307Z" transform="translate(-466.346 -1266.184)" fill="#634343"/>
        <path id="Trazado_14311" data-name="Trazado 14311" d="M432.5,1308.525c-2.9-5.234,6.727-7.08,5.048-1.163C438.2,1310.446,433.668,1310.925,432.5,1308.525Z" transform="translate(-362.581 -1282.032)" fill="#634343"/>
        <path id="Trazado_14312" data-name="Trazado 14312" d="M375.8,1326.219c-8.325.822-12.942-9.586-3-11.259C379.83,1313.9,387.577,1327.526,375.8,1326.219Z" transform="translate(-317.97 -1289.754)" fill="#634343"/>
        <path id="Trazado_14313" data-name="Trazado 14313" d="M356.028,1329.165a2.7,2.7,0,0,1,.453-3.558l-.143.126c.06-.055.121-.107.182-.16l-.029.025C362.381,1322.459,360.405,1333.149,356.028,1329.165Z" transform="translate(-309.971 -1296.717)" fill="#634343"/>
        <path id="Trazado_14314" data-name="Trazado 14314" d="M643.242,1317.277c-2.179-.144-4.193-1.132-6.267-1.737l.161.058-.286-.1h0c-8.06-1.661-7.377-8.679.745-7.657,2.8.877,5.854,1.986,7.773,4.319,1.709,1.521,2.138,5.321-1.038,4.9A2.618,2.618,0,0,1,643.242,1317.277Z" transform="translate(-499.739 -1284.823)" fill="#634343"/>
        <path id="Trazado_14315" data-name="Trazado 14315" d="M511.743,1341.695c-3.812-1.325,1.578-5.39,1.7-1.3l.007-.036c-.013.066-.024.131-.041.2l.014-.069A1.528,1.528,0,0,1,511.743,1341.695Z" transform="translate(-416.584 -1306.085)" fill="#3f2828"/>
        <path id="Trazado_14316" data-name="Trazado 14316" d="M477.849,1316.965c-11.488-2.539-6.726-18.219,3.853-16.763C492.31,1302.965,491.511,1322.08,477.849,1316.965Z" transform="translate(-389.6 -1279.567)" fill="#3f2828"/>
        <path id="Trazado_14317" data-name="Trazado 14317" d="M436.233,1337.075a7.842,7.842,0,0,1-5.549-2.594c-12.861-2.051,8.4-24.074,13.448-8.355C448.59,1331.254,441.9,1338.07,436.233,1337.075Z" transform="translate(-358.903 -1293.613)" fill="#3f2828"/>
        <path id="Trazado_14318" data-name="Trazado 14318" d="M474.5,1355.472c-5.608-.886-4.823-8.022-.625-10.337C482.53,1341.522,484.694,1356.2,474.5,1355.472Z" transform="translate(-389.132 -1310.178)" fill="#3f2828"/>
        <path id="Trazado_14319" data-name="Trazado 14319" d="M530.257,1318.665c-13.112-1.74-6.74-15.584,3.586-12.971C540.879,1308.626,537.881,1319.762,530.257,1318.665Z" transform="translate(-425.191 -1283.189)" fill="#3f2828"/>
        <path id="Trazado_14320" data-name="Trazado 14320" d="M586.089,1315.717c-5.083-1.248-13.265-.79-16.786-4.786l.048.093c-.026-.053-.051-.106-.074-.161v0c-1.076-3.168,4.313-3.131,5.154-6.01l-.037.056c.055-.081.111-.161.166-.242l-.026.036a7.451,7.451,0,0,1,5.035-3.712l-.324.114c4.5-1.725,10.816,1.954,11.41,6.683C596.922,1312.053,591.881,1316.434,586.089,1315.717Z" transform="translate(-457.042 -1279.958)" fill="#3f2828"/>
        <path id="Trazado_14321" data-name="Trazado 14321" d="M659.883,1328.723c-9.964-1.977-12.4-13.3.6-10.949-.1-.007-.194-.014-.29-.019a5.264,5.264,0,0,0,.582,0l-.126.007a8.049,8.049,0,0,1,1.084,0c-.109-.008-.218-.014-.327-.022,3.058.07,5.849,1.579,8.444,3.07l-.162-.11c2.238.924,3.317,4.2,1.192,5.809C667.595,1328.141,663.5,1328.482,659.883,1328.723Z" transform="translate(-513.796 -1291.512)" fill="#3f2828"/>
        <path id="Trazado_14322" data-name="Trazado 14322" d="M325.613,1346.178c-14.207.564-10.364-13.981,1.729-10.714a3.807,3.807,0,0,1,6.216,1.708l-.114-.223C336.079,1342.567,331.427,1347.39,325.613,1346.178Z" transform="translate(-283.086 -1303.231)" fill="#3f2828"/>
        <path id="Trazado_14323" data-name="Trazado 14323" d="M412.8,1367.235c.2-.059.4-.123.6-.188A.973.973,0,0,0,412.8,1367.235Zm-1.36,5.9c-1.716-.549-3.625.077-5.233-.824-10.585.849-4.876-14.489,3.085-8.116,1.7-2.382,5.384-2.859,7.925-1.7C422.553,1366.27,416.856,1373.978,411.445,1373.134Z" transform="translate(-340.873 -1322.11)" fill="#3f2828"/>
        <path id="Trazado_14324" data-name="Trazado 14324" d="M509.3,1341.757c-10.812-2.061-4.629-16.687,4.808-12.415C522.98,1332.279,516.656,1342.894,509.3,1341.757Z" transform="translate(-411.904 -1299.163)" fill="#634343"/>
        <path id="Trazado_14325" data-name="Trazado 14325" d="M550.986,1340.534c-2.137-.329-4.45-1.6-5.139-3.77-5.651-7.428,7.113-13.922,13.448-11.347,4.611,1.486,14.426,7,9.277,12.505-2.31,1.452-5.224,1.071-7.823,1.046C557.49,1339.437,554.325,1340.708,550.986,1340.534Z" transform="translate(-440.035 -1296.6)" fill="#634343"/>
        <path id="Trazado_14326" data-name="Trazado 14326" d="M632.493,1336.758c-3.811.059-5.4-5.353-2.208-7.432,3.04-2.444,9.524-1.219,10.682,2.734C641.034,1335.837,635.511,1337.026,632.493,1336.758Z" transform="translate(-497.97 -1298.82)" fill="#634343"/>
        <path id="Trazado_14327" data-name="Trazado 14327" d="M361.868,1352.5c-3.336-.552-4.059-3.877-5.977-6.022-4.795-4.737.994-10.367,6.468-9.411,5,.528,11.189.373,15.114,3.849,3.9,4.818-2.009,9.467-6.551,10.462C369.395,1352.546,363.968,1352.939,361.868,1352.5Z" transform="translate(-308.976 -1304.942)" fill="#4c3333"/>
        <path id="Trazado_14328" data-name="Trazado 14328" d="M421.768,1360.6c-3.394-.305-3.027-5.957.559-4.974C426.472,1354.469,425.427,1361.37,421.768,1360.6Z" transform="translate(-353.949 -1317.704)" fill="#4c3333"/>
        <path id="Trazado_14329" data-name="Trazado 14329" d="M620.279,1363.535c-4.967.32-9.437-4.706-4.7-8.563,4.374-3.084,13.663-2.568,14.907,3.606C630.307,1363.555,624.067,1363.916,620.279,1363.535Z" transform="translate(-487.635 -1316.076)" fill="#4c3333"/>
        <path id="Trazado_14330" data-name="Trazado 14330" d="M539.674,1370.771a5.415,5.415,0,0,1-3.492-.9c-4.8,1.708-11.376.028-10.289-6.246,2.17-4.267,9.787-4.693,12.364-.6C547.22,1359.013,549.665,1371.951,539.674,1370.771Z" transform="translate(-427.183 -1320.929)" fill="#4c3333"/>
        <path id="Trazado_14331" data-name="Trazado 14331" d="M726.769,1364.17a6.022,6.022,0,0,1-3.27-.87c-3.855-.032-3.44-4.591-.4-5.749-.065.044-.13.087-.2.134,2.6-1.617,7.729-2.631,8.368,1.534C735.376,1362.691,730.25,1365.1,726.769,1364.17Z" transform="translate(-561.414 -1318.246)" fill="#4c3333"/>
        <path id="Trazado_14332" data-name="Trazado 14332" d="M749.231,1330.125c-1.841-.273-4.553-.556-5.281-2.562-2.674-3.526,3.776-5.162,6.2-3.522h0C756.845,1324.218,755.183,1330.653,749.231,1330.125Z" transform="translate(-576.976 -1295.607)" fill="#634343"/>
        <path id="Trazado_14333" data-name="Trazado 14333" d="M790.492,1338.4c-2.069-2.189,1.727-5.042,3.632-3.083C796.252,1337.584,792.422,1340.837,790.492,1338.4Z" transform="translate(-609.049 -1303.364)" fill="#634343"/>
        <path id="Trazado_14334" data-name="Trazado 14334" d="M726.287,1342.686c-3.389-1.571.563-6.156,2.8-3.581C731.853,1340.492,728.423,1343.992,726.287,1342.686Z" transform="translate(-564.344 -1305.89)" fill="#634343"/>
        <path id="Trazado_14335" data-name="Trazado 14335" d="M616.985,1414.723c-5.182.176-4.808-5.123-.087-5.3l-.079-.006c1.2.034,2.443-.449,3.6-.017h0C624.858,1411.735,620.584,1415.325,616.985,1414.723Z" transform="translate(-487.402 -1354.696)" fill="#634343"/>
        <path id="Trazado_14336" data-name="Trazado 14336" d="M530.05,1386.4a2.869,2.869,0,0,1-1.757-.854c-6.372-3.593,4.681-9.848,8.173-6.095C539.479,1383.1,533.656,1387.375,530.05,1386.4Z" transform="translate(-427.581 -1333.402)" fill="#634343"/>
        <path id="Trazado_14337" data-name="Trazado 14337" d="M535.292,1421.6c-3.162-.694-.665-4.656,1.771-3.678C539.749,1418.905,537.542,1422.2,535.292,1421.6Z" transform="translate(-432.713 -1360.584)" fill="#634343"/>
        <path id="Trazado_14338" data-name="Trazado 14338" d="M509.044,1419.36c-.556-1.184.6-2.848,1.916-2.269C514.618,1417.794,510.709,1422.395,509.044,1419.36Z" transform="translate(-415.565 -1360.038)" fill="#634343"/>
        <path id="Trazado_14339" data-name="Trazado 14339" d="M484.737,1400.956c-4.8-2.442,1.084-6.7,4.405-6.413l-.2.014a2.841,2.841,0,0,1,2.172,5.237.6.6,0,0,0,.081-.037A14.464,14.464,0,0,1,484.737,1400.956Z" transform="translate(-397.679 -1344.509)" fill="#634343"/>
        <path id="Trazado_14340" data-name="Trazado 14340" d="M458.821,1407.173c-1.681-2.09,1.827-4.465,3.665-3.064,1.649,1.07.609,4.2-1.408,3.681A2.372,2.372,0,0,1,458.821,1407.173Z" transform="translate(-380.776 -1350.891)" fill="#634343"/>
        <path id="Trazado_14341" data-name="Trazado 14341" d="M413.961,1443.324c-4.359-.562.365-4.789,2.565-2.618C417.982,1442.314,415.453,1443.762,413.961,1443.324Z" transform="translate(-348.963 -1375.957)" fill="#634343"/>
        <path id="Trazado_14342" data-name="Trazado 14342" d="M391.207,1424.345c-.645-2.911,6.143-5.361,6.865-2.006C398.639,1424.893,392.131,1426.512,391.207,1424.345Z" transform="translate(-334.493 -1362.618)" fill="#634343"/>
        <path id="Trazado_14343" data-name="Trazado 14343" d="M408.041,1394.4c-11.312-.84-3.087-11.735,4.256-8.222C416.824,1389.065,412.8,1395.626,408.041,1394.4Z" transform="translate(-342.276 -1338.355)" fill="#634343"/>
        <path id="Trazado_14344" data-name="Trazado 14344" d="M364.61,1383.025c-12.1-2.1,3.992-17.579,8.222-7.52C375.356,1380.991,368.9,1383.025,364.61,1383.025Z" transform="translate(-313.16 -1329.165)" fill="#634343"/>
        <path id="Trazado_14345" data-name="Trazado 14345" d="M315.666,1362.693c-2.443.492-4.1-2.824-2.7-4.664,2.341-2.846,10.273-3.118,8.427,2.12-1.174,2.2-3.771,2.583-6.032,2.565C315.462,1362.706,315.563,1362.7,315.666,1362.693Z" transform="translate(-280.295 -1318.066)" fill="#634343"/>
        <path id="Trazado_14346" data-name="Trazado 14346" d="M291.629,1375.181c-1.561-1.661,1.554-3.806,2.691-1.945C295.279,1374.94,292.958,1376.3,291.629,1375.181Z" transform="translate(-265.66 -1329.427)" fill="#634343"/>
        <path id="Trazado_14347" data-name="Trazado 14347" d="M279.347,1391.57a5.893,5.893,0,0,1-2.245-.651l.1.054c-2.618-1.075-.988-4.327,1.277-4.595,1.831.049,3.768-.867,5.512-.1C287.2,1388.891,281.84,1391.718,279.347,1391.57Z" transform="translate(-255.098 -1338.691)" fill="#634343"/>
        <path id="Trazado_14348" data-name="Trazado 14348" d="M235.735,1343.683a4.785,4.785,0,0,1-2.81-.726,1.847,1.847,0,0,1-1.8-2.27c.39-2.164,2.953-2.35,4.642-3.025l-.031.01c7.587-3.49,8.639,6.472.732,6.024l.256-.016A5.829,5.829,0,0,1,235.735,1343.683Z" transform="translate(-224.269 -1304.922)" fill="#634343"/>
        <path id="Trazado_14349" data-name="Trazado 14349" d="M241.383,1315.414c-1.586-.572-3.2.159-4.766-.161-5.191.793-3.284-3.7.2-4.717l-.12.058C246.044,1304.469,251.09,1314.344,241.383,1315.414Z" transform="translate(-225.872 -1285.418)" fill="#634343"/>
        <path id="Trazado_14350" data-name="Trazado 14350" d="M312.482,1302.325c-.84-2,2.574-3.47,3.924-2.185C318.346,1302.456,313.687,1304.219,312.482,1302.325Z" transform="translate(-280.224 -1279.258)" fill="#634343"/>
        <path id="Trazado_14351" data-name="Trazado 14351" d="M209.94,1333.269c-1.312-.419-.729-2.143.446-2.288l-.024.007a1.265,1.265,0,0,1,1.626.46.79.79,0,0,1,.281.122l-.032-.017.045.025h0C213.773,1332.954,210.965,1333.5,209.94,1333.269Z" transform="translate(-209.191 -1300.749)" fill="#634343"/>
        <path id="Trazado_14352" data-name="Trazado 14352" d="M711.336,1354.586c-1.823-.544-.355-3.247,1.122-2.3C715.086,1352.467,713.214,1355.335,711.336,1354.586Z" transform="translate(-554.373 -1315.358)" fill="#634343"/>
        <path id="Trazado_14353" data-name="Trazado 14353" d="M677.152,1361.191c-3.046-.316-.706-4.114,1.437-2.522C679.983,1359.584,678.436,1361.367,677.152,1361.191Z" transform="translate(-530.414 -1319.624)" fill="#634343"/>
        <path id="Trazado_14354" data-name="Trazado 14354" d="M693.3,1363.425c-.151-.062-.3-.124-.445-.2.027.014.055.028.084.041a.951.951,0,0,1-.182-.1l.01,0c-.851-.739.33-1.665,1.144-1.233-.035-.005-.068-.013-.1-.019C695.974,1361.921,694.713,1365.023,693.3,1363.425Z" transform="translate(-541.968 -1322.065)" fill="#634343"/>
        <path id="Trazado_14355" data-name="Trazado 14355" d="M693.7,1365.181c-1.454-.094-.829-2.239.476-1.646l-.03-.005.109.022-.025-.006.125.026h-.005c.108.024.217.042.325.062h-.005C696.265,1364.245,694.882,1365.437,693.7,1365.181Z" transform="translate(-542.235 -1323.171)" fill="#634343"/>
        <path id="Trazado_14356" data-name="Trazado 14356" d="M604.692,1384.045c-1.231-.358-.619-2.077.472-2.091l-.088.006a1,1,0,0,1,.381,1.97c.036-.016.071-.035.106-.054A1.078,1.078,0,0,1,604.692,1384.045Z" transform="translate(-481.056 -1335.916)" fill="#634343"/>
        <path id="Trazado_14357" data-name="Trazado 14357" d="M465.863,1386.755l.05.009a1.007,1.007,0,0,1-.5-1.772h0a1,1,0,0,1,.342-.169C467.993,1382.94,468.705,1387.643,465.863,1386.755Z" transform="translate(-385.36 -1337.592)" fill="#634343"/>
        <path id="Trazado_14358" data-name="Trazado 14358" d="M452.428,1395.551c.187-3.216,6.669-1.067,2.43.969l.013-.006A1.6,1.6,0,0,1,452.428,1395.551Z" transform="translate(-376.679 -1344.156)" fill="#634343"/>
        <path id="Trazado_14359" data-name="Trazado 14359" d="M338.2,1381.789c-1.889-.794.178-2.242,1.418-1.736C341.046,1380.974,339.3,1382.094,338.2,1381.789Z" transform="translate(-297.497 -1334.544)" fill="#634343"/>
        <path id="Trazado_14360" data-name="Trazado 14360" d="M355.492,1377.652c-.275-1.058,1.552-1.791,1.983-.7C357.993,1378.135,355.848,1378.858,355.492,1377.652Z" transform="translate(-309.911 -1332.108)" fill="#634343"/>
        <path id="Trazado_14361" data-name="Trazado 14361" d="M341.166,1381.266a1.655,1.655,0,0,1-.7-.211c-1.537-.082-.778-2.368.546-1.9C342.61,1378.856,342.826,1381.433,341.166,1381.266Z" transform="translate(-298.994 -1333.953)" fill="#634343"/>
        <path id="Trazado_14362" data-name="Trazado 14362" d="M338.919,1381.362c-2.4-.317-.585-3.942,1.056-2.125h0C341.784,1379.5,340.139,1381.671,338.919,1381.362Z" transform="translate(-297.72 -1333.705)" fill="#634343"/>
        <path id="Trazado_14363" data-name="Trazado 14363" d="M347.859,1389.725c-1.984-.506-.195-3.108,1.228-1.83A1.106,1.106,0,0,1,347.859,1389.725Z" transform="translate(-304.068 -1339.775)" fill="#634343"/>
        <path id="Trazado_14364" data-name="Trazado 14364" d="M267.533,1366.35a.972.972,0,1,1,1.943,0A.972.972,0,0,1,267.533,1366.35Z" transform="translate(-249.364 -1324.494)" fill="#634343"/>
        <path id="Trazado_14365" data-name="Trazado 14365" d="M431.192,1262.56c-3.661-1.768-.026-6.364,3.067-5.719C440.643,1258.617,435.657,1264.089,431.192,1262.56Z" transform="translate(-360.998 -1249.733)" fill="#634343"/>
        <path id="Trazado_14366" data-name="Trazado 14366" d="M372.92,1296.521l.064,0c-5.466,0-3.154-6.346.505-7.345,3.385-2.063,9.283,1.022,7.24,5.187C379.221,1297.016,375.548,1296.614,372.92,1296.521Z" transform="translate(-319.739 -1271.59)" fill="#634343"/>
        <path id="Trazado_14367" data-name="Trazado 14367" d="M562.724,1266.375a.727.727,0,0,1,1.453,0A.727.727,0,0,1,562.724,1266.375Z" transform="translate(-452.626 -1255.854)" fill="#634343"/>
        <path id="Trazado_14368" data-name="Trazado 14368" d="M558.593,1257.967c-4.456-.887-5.928-10.432.471-5.431-.03-.027-.06-.052-.087-.079a4.088,4.088,0,0,1,1.26,1.488c-.012-.026-.025-.051-.038-.076l.023.045-.026-.055.069.139-.042-.081a2.879,2.879,0,0,1,.374,1.212C561.7,1256.488,560.084,1258.18,558.593,1257.967Z" transform="translate(-447.135 -1245.818)" fill="#634343"/>
        <path id="Trazado_14369" data-name="Trazado 14369" d="M580.915,1267.85c-1.16-.843-3.451-2.211-2.356-3.876-1.482-2.213,2.392-.887,3.18-.213C584.01,1264.728,583.991,1269.166,580.915,1267.85Z" transform="translate(-463.299 -1253.843)" fill="#634343"/>
        <path id="Trazado_14370" data-name="Trazado 14370" d="M605.9,1273.953c-1.22-.5-3.1-1.375-3.5-2.688a.7.7,0,0,1-.157-.821l-.017.025c.758-1.242,2.8-.409,3.779.2-.038-.027-.079-.054-.117-.079a3.951,3.951,0,0,1,1.254,1.156l-.022-.024A1.355,1.355,0,0,1,605.9,1273.953Z" transform="translate(-479.79 -1258.717)" fill="#634343"/>
        <path id="Trazado_14371" data-name="Trazado 14371" d="M633.466,1286.841a15.5,15.5,0,0,1-3.075-2.364c.044.052.09.1.133.152-.666-.765-2-1.431-1.47-2.647-.347-1.89,2.425-.442,3.354-.327l-.057-.011.008,0-.081-.015a5.056,5.056,0,0,1,3.624,2.468l-.027-.039a3.217,3.217,0,0,1,.474,1.3l-.013-.063C636.709,1286.936,634.669,1287.8,633.466,1286.841Z" transform="translate(-498.217 -1266.422)" fill="#634343"/>
        <path id="Trazado_14372" data-name="Trazado 14372" d="M662.894,1299.8a2.874,2.874,0,0,1-1.434-1.243c.032.052.068.1.1.152-.513-.844-1.759-1.717-1.222-2.813a.744.744,0,0,1-.136-1.31l-.029.019.042-.025-.009,0a.822.822,0,0,1,.245-.083l-.018.006.031,0,0,0a5.638,5.638,0,0,1,3.624,2.091l-.012-.013C665.649,1297.632,664.912,1300.286,662.894,1299.8Z" transform="translate(-519.515 -1275.705)" fill="#634343"/>
        <path id="Trazado_14373" data-name="Trazado 14373" d="M704.965,1315.446c-1.193-2.2,2.5-2.583-1.254-5.945l.048.057c-.052-.047-.107-.094-.161-.142l.042.038-.008-.007a1.47,1.47,0,0,1,.2.193,5.222,5.222,0,0,0-4.166-.868l.1-.022a2.036,2.036,0,0,1-.547.057h0c-.03,0-.06,0-.09-.008l.09.008.008-.005c-2.615-1.324,2.732-2.669,3.869-2.269l-.169-.011c3.819.018,7.182,5.248,4.008,8.188C706.45,1315.233,705.7,1316.011,704.965,1315.446Z" transform="translate(-546.131 -1283.942)" fill="#634343"/>
        <path id="Trazado_14374" data-name="Trazado 14374" d="M514.874,1243.434a3.278,3.278,0,0,1-1.083-1.551l.03.057c-.021-.04-.04-.079-.06-.12l.022.046c-.806-1.628-2.541-3.191-4.475-2.771l.051-.011c-.044.01-.089.019-.133.027l.058-.011a1.861,1.861,0,0,0-1.262.711.674.674,0,0,1-1.145.573.641.641,0,0,0,.125.1c-2.257-5.6,9.129-4.126,8.93,1.581-.008-.041-.019-.082-.027-.122C516.333,1242.744,515.97,1244.069,514.874,1243.434Z" transform="translate(-414.054 -1236.082)" fill="#634343"/>
        <path id="Trazado_14375" data-name="Trazado 14375" d="M460.934,1242.371c-.223-.112-.454-.207-.675-.321.038.022.079.041.12.062a6.616,6.616,0,0,0-3.129-.658l.091-.007a10.645,10.645,0,0,0-2.819.515.761.761,0,0,1-1.389-.6.715.715,0,0,0-.029.112c1.282-2.175,5.1-2.784,7.327-1.747l-.128-.066C461.809,1239.979,463.484,1242.6,460.934,1242.371Z" transform="translate(-377.133 -1237.653)" fill="#634343"/>
        <path id="Trazado_14376" data-name="Trazado 14376" d="M402.83,1266.057a.649.649,0,0,1,.128-.917l0,0,.019-.013-.015.009a15.792,15.792,0,0,1,7.405-2.976c2.025-.442,5.419,1.959,2.109,2.864h.027a18.058,18.058,0,0,0-4.242-.226l.15-.008a10.3,10.3,0,0,0-2.609.6c.035-.014.071-.025.106-.038-.747.274-1.5.541-2.229.862l.028-.017A.655.655,0,0,1,402.83,1266.057Z" transform="translate(-342.435 -1253.403)" fill="#634343"/>
        <path id="Trazado_14377" data-name="Trazado 14377" d="M336.223,1312.354a6.076,6.076,0,0,0-5.792-1.788l.062-.013c-.036.007-.073.016-.109.022l.044-.008a11.729,11.729,0,0,0-1.239.329l.09-.033c-.611.408-1.876.792-1.619-.425.94-1.341,2.887-1.649,4.411-1.915C337.54,1307.453,340.9,1312.894,336.223,1312.354Z" transform="translate(-290.743 -1285.266)" fill="#634343"/>
        <path id="Trazado_14378" data-name="Trazado 14378" d="M298.371,1330.918c-1.473-.6-2.769-1.643-4.38-1.883l.152.033a7.14,7.14,0,0,0-3.345.273l.017-.006c-.034.013-.069.023-.1.035l.073-.024c-.1.039-.2.081-.3.128l.065-.033c-.468.322-1.177.473-1.453-.166-.013-1.862,2.988-2.164,4.429-2.517,2.217-.13,4.959-.182,6.585,1.57A1.657,1.657,0,0,1,298.371,1330.918Z" transform="translate(-264.214 -1297.88)" fill="#634343"/>
        <path id="Trazado_14379" data-name="Trazado 14379" d="M438.482,1340.462a6.189,6.189,0,0,1-1.245-.306l.027.01c-5.921-1.208-5.5-9.642-.865-12.156l-.014.012c1.677-.83,1.744.974.836,1.96l.023-.068c-.017.05-.034.1-.052.147.009-.024.018-.047.026-.071a5.053,5.053,0,0,0,1.033,4.587c-.065-.1-.131-.2-.2-.294a23.776,23.776,0,0,0,1.888,2.413l-.036-.041C442.686,1338.667,442.2,1341.277,438.482,1340.462Z" transform="translate(-363.211 -1298.642)" fill="#392626"/>
        <path id="Trazado_14380" data-name="Trazado 14380" d="M476.136,1318.831c-8.684-3.672-.617-13.957-.263-9.357a20.852,20.852,0,0,0,.22,5.559c0-.033,0-.066-.006-.1.09.75.832,1.19,1.374,1.624A1.331,1.331,0,0,1,476.136,1318.831Z" transform="translate(-390.241 -1285.217)" fill="#392626"/>
        <path id="Trazado_14381" data-name="Trazado 14381" d="M475.893,1363.62a.64.64,0,0,1,1.224-.376A.64.64,0,0,1,475.893,1363.62Z" transform="translate(-392.811 -1322.729)" fill="#392626"/>
        <path id="Trazado_14382" data-name="Trazado 14382" d="M474.43,1357.5c-1.958-1.756-1.887-5.074-1.024-7.358.352-.869,1.962-1.131,1.908.074-.525,1.205.188,2.53.765,3.6s1.925.892,2.813.339C484.656,1354.142,478.438,1360.726,474.43,1357.5Z" transform="translate(-390.726 -1313.507)" fill="#392626"/>
        <path id="Trazado_14383" data-name="Trazado 14383" d="M317.206,1341.96c.027-3.6,4.068-5.67,7.316-5.028l-.014,0a.724.724,0,0,1-.09,1.441l.009,0,.1-.008-.01,0c.022,0,.047-.009.07-.016l-.008,0,.03-.006a10.075,10.075,0,0,0-1.382.612c.044-.019.084-.041.128-.063C321.416,1339.543,318.892,1345.319,317.206,1341.96Z" transform="translate(-283.568 -1304.844)" fill="#392626"/>
        <path id="Trazado_14384" data-name="Trazado 14384" d="M643.284,1334.67a.6.6,0,0,1-.3-.721v0a3.542,3.542,0,0,0-2.865-4.029c.029.009.058.019.087.029l-.005,0,.024.008a12.088,12.088,0,0,0-1.728-.5c.033.008.065.014.1.022a9.788,9.788,0,0,0-2.732-.174l.063,0-.49.032c.016,0,.036,0,.055-.005a6.56,6.56,0,0,0-.738.093h.015c-.506.278-1.234.07-.49-.327l-.027.008c3.07-1.936,9.445-1.621,10.255,2.645C644.7,1332.718,644.629,1334.76,643.284,1334.67Z" transform="translate(-501.677 -1298.752)" fill="#704c4c"/>
        <path id="Trazado_14385" data-name="Trazado 14385" d="M576.4,1332.763a2.1,2.1,0,0,1-.427-.512l.01.01c-.081-.093-.134-.206-.211-.3l.007.007a14.714,14.714,0,0,0-3.485-3.035c.044.03.09.06.136.09-3.248-1.959-6.789-4.047-10.718-3.844l.04,0-.116.008.1-.008c-.949.089-1.9.207-2.833.389l.057-.014c-.6.129-1.19.285-1.8.39h.007a6.129,6.129,0,0,0-.72.21l.021-.009c-.391.152-.789.288-1.173.451.011,0,.019-.008.027-.011-1.447.1.9-.937,1.52-1.042l-.01.005.027-.011h0c3.513-1.734,7.409-3.239,11.237-1.508l-.08-.03c3.8,1.228,8.391,3.538,8.783,7.989,0-.019,0-.041,0-.063a2.281,2.281,0,0,0,.058.3v0c0,.017.007.035.011.052l0-.009C577,1332.595,576.769,1333.027,576.4,1332.763Z" transform="translate(-447.218 -1295.509)" fill="#704c4c"/>
        <path id="Trazado_14386" data-name="Trazado 14386" d="M522.809,1331.871c-.035-.006-.07-.013-.1-.021l.028,0c-.136-.025-.264-.071-.4-.1l.025,0a1.686,1.686,0,0,1-.181-.051h0c-.192-.067-.389-.117-.58-.185.033.013.068.024.1.035-2.881-.681-5.745-2.043-8.779-1.466-.345.11-1.715.533-1.044-.174h0a9.805,9.805,0,0,1,3.6-1.366c-.033.008-.065.013-.1.022a7.593,7.593,0,0,1,6.732,1.244l-.034-.028.111.1-.012-.012.087.076-.013-.011a5.179,5.179,0,0,1,.57.568l0,0a2.831,2.831,0,0,1,.207.248l-.009-.012c.016.023.032.045.046.068l-.014-.023C523.486,1331.133,523.479,1331.9,522.809,1331.871Z" transform="translate(-417.49 -1298.968)" fill="#704c4c"/>
        <path id="Trazado_14387" data-name="Trazado 14387" d="M377.98,1379.016a1.471,1.471,0,0,0,.207-1.311c0,.019.006.036.008.055-.008-.049-.019-.1-.03-.15v0a3.884,3.884,0,0,0-.349-.922l.041.087a3.974,3.974,0,0,0-2.324-2.342c.052.016.1.035.155.052a4.466,4.466,0,0,1-.477-.194l.039.02a.46.46,0,0,0-.133-.044l.029.006-.161-.035.062.014a9.222,9.222,0,0,0-2.353-.244l.071,0a15.625,15.625,0,0,0-3.507.637h0l-.161.055.007,0-.046.016.008,0a3.809,3.809,0,0,0-.387.151l.006-.009a.171.171,0,0,1-.019.022l.005,0-.023.03a.182.182,0,0,1,.013-.021l-.009.013a.1.1,0,0,0,0-.01.127.127,0,0,1-.01.021l0,0a.092.092,0,0,0-.006.011l0-.007c-1.262.63.557-1.595,1.012-1.716l-.032.022.071-.049-.006,0,.035-.024-.011.007c3.871-3.006,10.284-1.116,9.33,4.381.008-.022.014-.041.022-.06-.092.267-.166.542-.259.811,0-.011.008-.025.011-.035-.014.041-.027.081-.044.122.005-.011.008-.021.014-.032a2.014,2.014,0,0,1-.116.286l0,0C378.655,1379.006,377.937,1379.8,377.98,1379.016Z" transform="translate(-318.688 -1328.884)" fill="#704c4c"/>
        <path id="Trazado_14388" data-name="Trazado 14388" d="M420.033,1389.894a1.335,1.335,0,0,1-.207-.544c.005.03.011.057.016.084a1.724,1.724,0,0,0-.484-.982l.059.052a16.543,16.543,0,0,0-4.8-2.117l.034.007a3.712,3.712,0,0,0-.487-.057l.063,0c-.329-.015-.66-.025-.988-.046l.011,0c-.108.027-.213.056-.319.09l.013-.005-.021.008h0l-.032.014h0c-1.5-.137,2.211-1.391,2.635-1.442l-.062.012c1.9-.627,4.236-.3,5.249,1.605-.027-.043-.057-.084-.084-.128C421.428,1387.2,421.692,1390.711,420.033,1389.894Z" transform="translate(-349.213 -1337.799)" fill="#704c4c"/>
        <path id="Trazado_14389" data-name="Trazado 14389" d="M382.168,1322.142c-.013-.033-.024-.066-.038-.1.006.008.008.016.014.025a2.768,2.768,0,0,0-.164-.261l.007.011a5.142,5.142,0,0,0-.335-.444h0l-.03-.036.006.01c-1.555-1.234-2.921-2.7-4.49-3.911l.1.065a5.738,5.738,0,0,0-.642-.37l.111.055a5.288,5.288,0,0,0-2.808-.539l.114-.008c-.421.028-.841.058-1.262.081h.01a11.379,11.379,0,0,0-2.846.542c.022-.005.041-.013.063-.019a5.713,5.713,0,0,0-.669.278l.046-.022c-5.418,3.236,5.662-8.317,11.839,1.277l0-.007c.017.034.035.067.052.1l-.012-.022c.254.56.547,1.1.791,1.66-.008-.019-.017-.036-.025-.052a6.426,6.426,0,0,1,.561,1.437l-.006-.014C382.752,1322.16,382.324,1322.461,382.168,1322.142Z" transform="translate(-318.48 -1289.74)" fill="#704c4c"/>
        <path id="Trazado_14390" data-name="Trazado 14390" d="M469.727,1278.114a5.819,5.819,0,0,1-.373-.836l.005.012c-.267-.552-.485-1.121-.762-1.668.016.033.033.068.052.1-.163-.315-.316-.634-.474-.952.019.038.038.079.057.117a10.5,10.5,0,0,0-.653-1.17c.027.038.052.077.079.114a5.422,5.422,0,0,0-4.315-2.329l.15.008a30.2,30.2,0,0,0-5.782.536c.033-.008.065-.014.1-.022a19.917,19.917,0,0,0-3.223.8l.012-.012-.022.019.009-.008c-.44.469-.626-.278-.143-.474-.005.009-.014.016-.019.025a12.9,12.9,0,0,1,11.136-2.757l-.048-.009.007,0-.048-.009c.05.009.1.02.15.03l-.073-.016c3.035.358,4.8,3.633,4.78,6.459,0-.035.005-.068.008-.1,0,.283-.016.569-.041.852,0-.007,0-.014,0-.021C470.2,1277.191,470.467,1278.571,469.727,1278.114Z" transform="translate(-377.87 -1258.347)" fill="#704c4c"/>
        <path id="Trazado_14391" data-name="Trazado 14391" d="M508.272,1252.677c-.194-.142-.139-.41-.275-.6l.024.049c-.038-.076-.071-.155-.109-.231.011.022.022.043.033.063-1.076-4.221,5.787-4.605,7.419-1.471l-.024-.033a5.376,5.376,0,0,1,.408.686c0-.012-.01-.022-.016-.033.58.7.266,1.731-.64.935l0,0-.057-.038a.447.447,0,0,1,.039.026l-.189-.136.025.015c-.022-.013-.042-.028-.063-.044a.245.245,0,0,0,.027.021c-1.854-1.1-4.784-1.79-6.186.333v0l-.006.008,0,0c-.007.012-.016.023-.023.034l.007-.009a1.294,1.294,0,0,1-.09.122A.227.227,0,0,1,508.272,1252.677Z" transform="translate(-414.828 -1243.977)" fill="#704c4c"/>
        <path id="Trazado_14392" data-name="Trazado 14392" d="M385.932,1296.873c-3.514-.411.312-.868,1.043-1.782l-.017.014a2.689,2.689,0,0,0-1.118-4.285l.084.057a6.08,6.08,0,0,0-1.551-.484l.073.016-.348-.071.014,0a3.881,3.881,0,0,0-.536-.076h.007c-.381-.019-.761-.016-1.142-.008h0a.92.92,0,0,0-.123.02l.03-.008c-.276.058-.552.111-.818.195l.007,0c-.317.324-.875-.016-.389-.31l-.017.013a4.555,4.555,0,0,1,1.244-.37l0,0a6.653,6.653,0,0,1,3.894-.409l-.1-.022c3.67.172,5.422,5.4,1.752,7.012l.041-.02-.065.032.014-.007A4.879,4.879,0,0,1,385.932,1296.873Z" transform="translate(-327.468 -1272.08)" fill="#704c4c"/>
        <path id="Trazado_14393" data-name="Trazado 14393" d="M437.129,1260.483a2.8,2.8,0,0,0-1.385-1.023l.106.036a5.172,5.172,0,0,0-3.319-.49l.036-.008a2.444,2.444,0,0,0-.668.211l.007,0-.027.014h0a4.107,4.107,0,0,0-.7.433l.022-.022c-.025.025-.049.047-.071.071h0a.5.5,0,0,0-.044.057l.017-.025c-.149.369-.669.062-.4-.22a3.128,3.128,0,0,1,1.2-.807h0C437.76,1255.057,440.051,1262.349,437.129,1260.483Z" transform="translate(-361.669 -1250.345)" fill="#704c4c"/>
        <path id="Trazado_14394" data-name="Trazado 14394" d="M573.042,1284.8a6.052,6.052,0,0,0-.851-1.39l.011.013c-1.39-1.477-3.656-1.156-5.477-1.3a.483.483,0,0,1-.684,0h0c-.37-.1-.725-.248-1.094-.36.03.011.057.019.084.03a4.212,4.212,0,0,0-.494-.131l.066.014c-1.509-.068-2.869-.923-4.409-.73l.026,0c-.032,0-.063,0-.1.006l.055,0-.388.029h.015c-.428.036-.851.1-1.282.112l.013,0a7.42,7.42,0,0,0-.849.1l.011,0a.983.983,0,0,0-.273.1l.012-.008a1.866,1.866,0,0,0-.45.3h0l-.022.019,0,0c-.009.008-.017.017-.026.026h0l0,0c-2.549.173,6.963-4.735,8.518-1.245l-.015-.016.014.016-.035-.039c.157.2.351.363.509.557,1.875-3.289,7.692-.852,7.759,2.7C573.93,1284.11,573.815,1285.634,573.042,1284.8Z" transform="translate(-448.35 -1265.117)" fill="#704c4c"/>
        <path id="Trazado_14395" data-name="Trazado 14395" d="M644.743,1309.915c-.173-.079-.338-.168-.508-.254l.016.009a8.2,8.2,0,0,0-.947-.416l.044.016a9.712,9.712,0,0,0-1.1-.324c.019.005.038.008.06.013l-.269-.057c.019.005.041.008.063.013a15.206,15.206,0,0,0-1.548-.248h.014l-.48-.033.092.008a16.03,16.03,0,0,1-2.715-.06h.006l-.01,0,.015,0-.049-.01.011,0a15,15,0,0,0-1.5-.179l.06.006a1.992,1.992,0,0,0-.5.035l.041-.008c-.088.021-.174.028-.262.042a.236.236,0,0,1-.456-.072c.683-1.084,2.286-1.358,3.485-1.513l-.031,0C639.306,1306.7,646.185,1309.041,644.743,1309.915Z" transform="translate(-502.274 -1284.231)" fill="#704c4c"/>
        <path id="Trazado_14396" data-name="Trazado 14396" d="M636.339,1285.338c-.18-.2-.315-.435-.493-.63l.028.028a10.289,10.289,0,0,0-.715-.764l.016.013-.052-.046.02.018c-.345-.3-.726-.554-1.1-.815.022.016.044.03.065.046a25.577,25.577,0,0,0-3.8-1.808l.022.006-.079-.027h0c-.274-.094-.548-.184-.819-.284l.045.017a3.242,3.242,0,0,1-.385-.13.227.227,0,1,1-.238-.387c2.475-1.609,6.287,1.346,7.658,3.533C636.8,1284.456,637.161,1285.724,636.339,1285.338Z" transform="translate(-498.086 -1265.802)" fill="#704c4c"/>
        <path id="Trazado_14397" data-name="Trazado 14397" d="M708.6,1311.349l-.025-.049.025.049a3.1,3.1,0,0,0-.185-.3c.013.017.024.036.038.052a4.006,4.006,0,0,0-1.666-1.258l.031.017a17.171,17.171,0,0,0-3.924-1.5l.073.017a6.7,6.7,0,0,0-1.254-.1c-.084.535-.727.034-.438-.32,2.1-1.716,6.045-.474,7.583,1.584-.016-.027-.033-.052-.049-.076C709.382,1309.912,709.785,1312.313,708.6,1311.349Z" transform="translate(-547.981 -1284.414)" fill="#704c4c"/>
        <path id="Trazado_14398" data-name="Trazado 14398" d="M745.618,1327.5h0a2.211,2.211,0,0,0-.163-.3l.008.01c-.006-.009-.013-.018-.019-.027l0,.007a1.24,1.24,0,0,1-.271-.638l.005.022c-.005-.021-.01-.043-.014-.065,0,0,0,.009,0,.015a1.622,1.622,0,0,1,.322-1.337c-.017.027-.033.052-.049.076,1.126-2.429,8.749-.979,9.409,1.322.424.936-.2,1.343-.87.55l.035.024a3.232,3.232,0,0,0-.822-.348l.005,0c-.443-.142-.9-.23-1.346-.356l.021.008-.114-.038.046.015-.157-.056.026.008-.112-.038.048.017c-.46-.135-.932-.24-1.379-.417l.059.02c-1.513-.685-3.7-.807-4.341,1.078.008-.01.013-.024.021-.037C745.933,1327.136,746.228,1327.979,745.618,1327.5Z" transform="translate(-578.224 -1296.025)" fill="#704c4c"/>
        <path id="Trazado_14399" data-name="Trazado 14399" d="M529.621,1383.872c-1.084-1.248.266-3.051,1.113-4.1l-.1.114c1.995-2.933,8.019-2.98,8.462,1.058v-.013c.245.874-.69,1.91-1.278.838l.049.074a4.26,4.26,0,0,1-.348-.577c.017.033.03.063.046.1-.212-.6-.9-.483-1.4-.411l.172-.036c-1.521.422-3.191.15-4.61.906l.051-.026a10.545,10.545,0,0,0-1.7,1.444c.019-.014.035-.03.051-.044-.055.059-.147.106-.147.2v-.008c0,.061-.009.122-.014.183C530.2,1383.826,529.807,1384.157,529.621,1383.872Z" transform="translate(-429.554 -1333.059)" fill="#704c4c"/>
        <path id="Trazado_14400" data-name="Trazado 14400" d="M493.541,1398.391c0-.059-.008-.118-.012-.178-1.947-1.506-4.567-.168-6.773-.062-1.5.537,1.068-1.73,1.52-1.773l-.014.01a3.662,3.662,0,0,1,1.187-.541l-.117.041C496.21,1394.2,495.526,1400.493,493.541,1398.391Z" transform="translate(-399.995 -1345.319)" fill="#704c4c"/>
        <path id="Trazado_14401" data-name="Trazado 14401" d="M622.673,1413.317c-.624-.538.044-1.159-.012-1.749a3.476,3.476,0,0,0-1.033-.289l.011,0a14.35,14.35,0,0,0-4.237-.186.229.229,0,0,1-.445-.072.144.144,0,0,0,0,.021.81.81,0,0,1,.286-.655l-.032.038a3.37,3.37,0,0,1,.936-.677l-.068.049a6.22,6.22,0,0,1,5.736,0C625.576,1410.635,624.721,1414.563,622.673,1413.317Z" transform="translate(-489.968 -1354.617)" fill="#704c4c"/>
      </g>
      <g id="Grupo_9665" data-name="Grupo 9665" transform="translate(83.306 53.837)">
        <path id="Trazado_16635" data-name="Trazado 16635" d="M1048.538,784.906a9.458,9.458,0,0,0,18.909,0,9.02,9.02,0,0,0-2.278-5.988c-1.734-1.965-6.94-7.088-6.94-10.813,0,3.725-5.719,8.866-7.453,10.857A9.015,9.015,0,0,0,1048.538,784.906Z" transform="translate(-1048.538 -768.105)" fill="#b6f5ff"/>
        <path id="Trazado_16636" data-name="Trazado 16636" d="M1072.7,778.918a9.069,9.069,0,0,1,2.337,5.988,9.292,9.292,0,0,1-9.4,9.2v-26C1065.638,771.83,1070.962,776.952,1072.7,778.918Z" transform="translate(-1055.947 -768.105)" fill="#7de7ff"/>
      </g>
      <g id="Grupo_9666" data-name="Grupo 9666" transform="translate(48.483 0)">
        <path id="Trazado_14730" data-name="Trazado 14730" d="M1491.412,5070.006V5039.3a4.907,4.907,0,0,0-5.168-4.477c-3.174,0-5.168,2.313-5.168,4.477v30.708a10.5,10.5,0,0,0-6.234,10.006,11.4,11.4,0,0,0,22.8,0C1497.646,5075.094,1495.022,5071.444,1491.412,5070.006Z" transform="translate(-1471.137 -5034.821)" fill="#dae6ea"/>
        <g id="Grupo_9224" data-name="Grupo 9224" transform="translate(0 6.172)">
          <path id="Trazado_14731" data-name="Trazado 14731" d="M1448.228,5087.7h-2.851a1.036,1.036,0,0,1,0-2.072h2.851a1.036,1.036,0,0,1,0,2.072Z" transform="translate(-1444.341 -5085.629)" fill="#8791c1"/>
        </g>
        <g id="Grupo_9225" data-name="Grupo 9225" transform="translate(0 13.013)">
          <path id="Trazado_14732" data-name="Trazado 14732" d="M1448.228,5144.016h-2.851a1.035,1.035,0,1,1,0-2.071h2.851a1.035,1.035,0,1,1,0,2.071Z" transform="translate(-1444.341 -5141.945)" fill="#8791c1"/>
        </g>
        <g id="Grupo_9226" data-name="Grupo 9226" transform="translate(0 19.854)">
          <path id="Trazado_14733" data-name="Trazado 14733" d="M1448.228,5200.33h-2.851a1.036,1.036,0,1,1,0-2.072h2.851a1.036,1.036,0,0,1,0,2.072Z" transform="translate(-1444.341 -5198.258)" fill="#8791c1"/>
        </g>
        <g id="Grupo_9227" data-name="Grupo 9227" transform="translate(0 26.696)">
          <path id="Trazado_14734" data-name="Trazado 14734" d="M1448.228,5256.647h-2.851a1.036,1.036,0,1,1,0-2.072h2.851a1.036,1.036,0,0,1,0,2.072Z" transform="translate(-1444.341 -5254.575)" fill="#8791c1"/>
        </g>
        <circle id="Elipse_533" data-name="Elipse 533" cx="6.77" cy="6.77" r="6.77" transform="matrix(0.23, -0.973, 0.973, 0.23, 6.963, 49.867)" fill="#f45151"/>
        <g id="Grupo_9228" data-name="Grupo 9228" transform="translate(13.035 10.514)">
          <path id="Trazado_14735" data-name="Trazado 14735" d="M1553.719,5253.229a2.072,2.072,0,0,1-2.072-2.072v-26.111a2.072,2.072,0,0,1,4.144,0v26.111A2.072,2.072,0,0,1,1553.719,5253.229Z" transform="translate(-1551.647 -5222.975)" fill="#f45151"/>
        </g>
      </g>
      <path id="Trazado_16637" data-name="Trazado 16637" d="M4.084-17.088a4.056,4.056,0,0,1,3.128,1.217,4.967,4.967,0,0,1,1.129,3.5,5.913,5.913,0,0,1-.605,2.775A4.116,4.116,0,0,1,6.029-7.839a5.244,5.244,0,0,1-2.543.6,6.093,6.093,0,0,1-1.455-.17A3.917,3.917,0,0,1,.847-7.894l.816-1.619a3.084,3.084,0,0,0,1.782.476A2.577,2.577,0,0,0,5.363-9.75a2.987,2.987,0,0,0,.762-2.061,3.2,3.2,0,0,1-2.367.857A3.714,3.714,0,0,1,2.1-11.321a2.9,2.9,0,0,1-1.183-1.04A2.8,2.8,0,0,1,.48-13.919a2.966,2.966,0,0,1,.476-1.673,3.105,3.105,0,0,1,1.3-1.108A4.239,4.239,0,0,1,4.084-17.088ZM4.247-12.6A1.715,1.715,0,0,0,5.424-13a1.307,1.307,0,0,0,.456-1.027,1.3,1.3,0,0,0-.442-1.02,1.763,1.763,0,0,0-1.217-.394,1.7,1.7,0,0,0-1.149.381,1.294,1.294,0,0,0-.442,1.034,1.314,1.314,0,0,0,.442,1.04A1.72,1.72,0,0,0,4.247-12.6Zm8.419-.748a4.572,4.572,0,0,1,2.972.8A2.659,2.659,0,0,1,16.6-10.4a2.985,2.985,0,0,1-.435,1.585,3.04,3.04,0,0,1-1.326,1.142,5.046,5.046,0,0,1-2.2.428,7.488,7.488,0,0,1-1.979-.265,5.1,5.1,0,0,1-1.653-.755l.87-1.687a4.166,4.166,0,0,0,1.251.632,4.783,4.783,0,0,0,1.455.224,2.28,2.28,0,0,0,1.306-.326,1.044,1.044,0,0,0,.476-.911,1.024,1.024,0,0,0-.5-.925,3.426,3.426,0,0,0-1.721-.313H9.715l.49-5.359h5.808v1.768H12.041l-.15,1.809Zm7.045.966a2.437,2.437,0,0,1-1.2-.306,2.287,2.287,0,0,1-.87-.843,2.259,2.259,0,0,1-.32-1.176,2.259,2.259,0,0,1,.32-1.176,2.338,2.338,0,0,1,.87-.85,2.4,2.4,0,0,1,1.2-.313,2.359,2.359,0,0,1,1.2.313,2.353,2.353,0,0,1,.864.85,2.259,2.259,0,0,1,.32,1.176,2.259,2.259,0,0,1-.32,1.176,2.3,2.3,0,0,1-.864.843A2.4,2.4,0,0,1,19.712-12.382Zm0-1.047a1.215,1.215,0,0,0,.9-.367,1.25,1.25,0,0,0,.36-.911,1.25,1.25,0,0,0-.36-.911,1.215,1.215,0,0,0-.9-.367,1.215,1.215,0,0,0-.9.367,1.25,1.25,0,0,0-.36.911,1.25,1.25,0,0,0,.36.911A1.215,1.215,0,0,0,19.712-13.429Zm8.664,6.188a5.469,5.469,0,0,1-2.632-.632,4.72,4.72,0,0,1-1.85-1.755,4.834,4.834,0,0,1-.673-2.537,4.834,4.834,0,0,1,.673-2.537,4.72,4.72,0,0,1,1.85-1.755,5.5,5.5,0,0,1,2.645-.632,5.549,5.549,0,0,1,2.237.435,4.481,4.481,0,0,1,1.68,1.251L30.892-14.1A3.041,3.041,0,0,0,28.5-15.211a3.179,3.179,0,0,0-1.578.388,2.756,2.756,0,0,0-1.081,1.081,3.179,3.179,0,0,0-.388,1.578,3.179,3.179,0,0,0,.388,1.578A2.756,2.756,0,0,0,26.92-9.505a3.179,3.179,0,0,0,1.578.388,3.027,3.027,0,0,0,2.394-1.129l1.415,1.306A4.409,4.409,0,0,1,30.62-7.676,5.6,5.6,0,0,1,28.376-7.241Z" transform="translate(76.864 34.039)" fill="#f45151"/>
      <g id="Grupo_9667" data-name="Grupo 9667" transform="translate(88.276 32.84)">
        <path id="Trazado_16635-2" data-name="Trazado 16635" d="M1048.538,776.155a4.532,4.532,0,0,0,9.06,0,4.322,4.322,0,0,0-1.091-2.869c-.831-.942-3.325-3.4-3.325-5.181,0,1.785-2.74,4.248-3.571,5.2A4.319,4.319,0,0,0,1048.538,776.155Z" transform="translate(-1048.538 -768.105)" fill="#b6f5ff"/>
        <path id="Trazado_16636-2" data-name="Trazado 16636" d="M1069.02,773.286a4.346,4.346,0,0,1,1.12,2.869,4.452,4.452,0,0,1-4.5,4.407V768.1C1065.638,769.89,1068.189,772.344,1069.02,773.286Z" transform="translate(-1060.995 -768.105)" fill="#7de7ff"/>
      </g>
    </g>
  </g>
</svg>
