<svg xmlns="http://www.w3.org/2000/svg" xmlns:xlink="http://www.w3.org/1999/xlink" width="220" height="220" viewBox="0 0 220 220">
  <defs>
    <linearGradient id="linear-gradient" x1="-83.7" y1="26.917" x2="-85.009" y2="26.756" gradientUnits="objectBoundingBox">
      <stop offset="0.241" stop-color="#cce6f8"/>
      <stop offset="1" stop-color="#40a1e6"/>
    </linearGradient>
    <linearGradient id="linear-gradient-2" x1="-96.189" y1="29.267" x2="-97.688" y2="29.092" xlink:href="#linear-gradient"/>
  </defs>
  <g id="Grupo_9877" data-name="Grupo 9877" transform="translate(-390 -1811)">
    <g id="Elipse_561" data-name="Elipse 561" transform="translate(390 1811)" fill="#f4f4f4" stroke="#fdac29" stroke-width="2">
      <circle cx="110" cy="110" r="110" stroke="none"/>
      <circle cx="110" cy="110" r="109" fill="none"/>
    </g>
    <g id="Grupo_9678" data-name="Grupo 9678" transform="translate(-396 -255.707)">
      <g id="Grupo_9672" data-name="Grupo 9672" transform="translate(796 2151.362)">
        <path id="Trazado_14285" data-name="Trazado 14285" d="M291.638,1338.858c-4.383-.507-10.517-4.5-6.342-9.163,3.379-3.4,9.806-1.974,12.576,1.544C300.61,1335.426,295.953,1339.752,291.638,1338.858Z" transform="translate(-258.958 -1296.504)" fill="#513636"/>
        <path id="Trazado_14286" data-name="Trazado 14286" d="M329.5,1321.026c-8.629,2.41-11.912-9.861-3.026-11.626C335.279,1306.875,340.024,1322.156,329.5,1321.026Z" transform="translate(-283.808 -1284.088)" fill="#513636"/>
        <path id="Trazado_14287" data-name="Trazado 14287" d="M361.138,1312.944c-4.839-1.162-3.6-8.625,1.267-8.428C369.268,1304.678,367.853,1316.007,361.138,1312.944Z" transform="translate(-308.362 -1281.019)" fill="#513636"/>
        <path id="Trazado_14288" data-name="Trazado 14288" d="M384.133,1284.916a4.246,4.246,0,0,1-3.01-1.772c-3.778-2.281-.852-8.261.974-11.122,3.116-5.135,9.068-8.629,15.146-8.037,9.8.372,10.2,12.895,1.706,15.954C390.757,1280.215,391.006,1285.125,384.133,1284.916Z" transform="translate(-322.492 -1253.981)" fill="#513636"/>
        <path id="Trazado_14289" data-name="Trazado 14289" d="M453.392,1254.513a3.412,3.412,0,0,1-1.511-.506c-8.9-.61-8.388-12.9.236-13.558C461.617,1239.516,463.267,1254.579,453.392,1254.513Z" transform="translate(-366.55 -1238.319)" fill="#513636"/>
        <path id="Trazado_14290" data-name="Trazado 14290" d="M478.724,1245.042a6.349,6.349,0,0,1-2.074-3.185c-5.272-1.282,1.116-8.963,4.819-7.526C489.446,1235.948,487.116,1249.972,478.724,1245.042Z" transform="translate(-386.014 -1234.152)" fill="#513636"/>
        <path id="Trazado_14291" data-name="Trazado 14291" d="M497.337,1257.531a1.31,1.31,0,0,1,2.62,0A1.31,1.31,0,0,1,497.337,1257.531Z" transform="translate(-401.128 -1248.878)" fill="#513636"/>
        <path id="Trazado_14292" data-name="Trazado 14292" d="M509.3,1246.966c-4.646-1.709-2.651-10.493,2.7-8.67C517.991,1239.624,514.717,1248.438,509.3,1246.966Z" transform="translate(-407.364 -1236.748)" fill="#513636"/>
        <path id="Trazado_14293" data-name="Trazado 14293" d="M526.436,1255.972a1.98,1.98,0,0,1-.305-2.374c-2.361-1.021-.327-3.092,1.511-2.2C530.823,1252.347,530,1258.4,526.436,1255.972Z" transform="translate(-419.597 -1245.494)" fill="#513636"/>
        <path id="Trazado_14294" data-name="Trazado 14294" d="M541.961,1262.334c-1.832-.872-2.636-3.023-4.416-4.031-1.345-.968-3.724-1.34-3.388-3.5a6.38,6.38,0,0,1,8.261-4.352C547.956,1251.585,549.039,1264.223,541.961,1262.334Z" transform="translate(-425.633 -1244.796)" fill="#513636"/>
        <path id="Trazado_14295" data-name="Trazado 14295" d="M565.573,1271.727c-2.259-.179-4.831-2.174-3.608-4.619-.421-3.6,4.105-6.454,7.187-4.565C574.84,1265.958,571.949,1272.579,565.573,1271.727Z" transform="translate(-443.967 -1252.663)" fill="#513636"/>
        <path id="Trazado_14296" data-name="Trazado 14296" d="M594.773,1276.579a2.362,2.362,0,0,1-1.564-1.337c-4.189-1.19-1.016-6.751,2.465-6C601.418,1269.14,600.269,1278.256,594.773,1276.579Z" transform="translate(-463.66 -1257.479)" fill="#513636"/>
        <path id="Trazado_14297" data-name="Trazado 14297" d="M613.008,1290.439c-4.155-.32-12.007-3.986-8.969-9.1,2.066-5.987,11.6-3.391,14.417.8C620.953,1285.944,617.436,1291.067,613.008,1290.439Z" transform="translate(-471.749 -1263.241)" fill="#513636"/>
        <path id="Trazado_14298" data-name="Trazado 14298" d="M648.55,1301.275c-1.921-.217-3.778-2.367-2.725-4.255-.276-2.638,2.7-4.222,5.024-3.712C656.339,1295.1,654.058,1302.3,648.55,1301.275Z" transform="translate(-499.834 -1273.493)" fill="#513636"/>
        <path id="Trazado_14299" data-name="Trazado 14299" d="M677.762,1311.306c-.574-.461-.466-1.234-.693-1.828a2.2,2.2,0,0,1-3.53-1.134,1.708,1.708,0,0,0-.9.086.864.864,0,0,1-1.075.23l.018.008c-3.2-1.984,2.367-5.622,4.366-3.3C681.42,1302.371,683.928,1314.107,677.762,1311.306Z" transform="translate(-516.549 -1281.092)" fill="#513636"/>
        <path id="Trazado_14300" data-name="Trazado 14300" d="M668.094,1314.362a3.026,3.026,0,0,1-1.28-.739c.041.036.082.072.122.109a1.437,1.437,0,0,0-1.129-.441c.111.006.224.015.338.021-2.228.09-3.636-1.842-5.567-2.591-2.408.418-4.4-2.483-2.054-4.036h0c2.188-1.141,9.689,1.749,11.669,3.12C672.146,1311.495,670.8,1315.085,668.094,1314.362Z" transform="translate(-507.8 -1282.292)" fill="#513636"/>
        <path id="Trazado_14301" data-name="Trazado 14301" d="M697.11,1316.7c-9.951-2.546-2.6-12.684,4.455-8.542C706.959,1311.137,702.827,1320.276,697.11,1316.7Z" transform="translate(-530.972 -1282.792)" fill="#513636"/>
        <path id="Trazado_14302" data-name="Trazado 14302" d="M506.159,1283.9c-13.017-2.05-12.857-19.3,1.363-19.067C522.883,1265.355,521.24,1285.572,506.159,1283.9Z" transform="translate(-400.65 -1254.587)" fill="#513636"/>
        <path id="Trazado_14303" data-name="Trazado 14303" d="M415.979,1327.368c-10.224-2.957-5.923-17.1,3.9-16.042C430.578,1313.189,425.941,1329.821,415.979,1327.368Z" transform="translate(-343.023 -1285.521)" fill="#513636"/>
        <path id="Trazado_14304" data-name="Trazado 14304" d="M409.132,1315.285a9.272,9.272,0,0,0-.52-2.606q-.248-.064-.5-.123a2.663,2.663,0,0,0-.5.5A3.658,3.658,0,0,0,409.132,1315.285Zm1.807,3.246c-8.208-.007-11.452-10.734-2.147-11.684,4.593-.2,7.838,6.8,4.831,10.146a.98.98,0,0,1-.906,1.483,1.087,1.087,0,0,0,.206,0A7.25,7.25,0,0,1,410.94,1318.531Z" transform="translate(-338.387 -1282.572)" fill="#513636"/>
        <path id="Trazado_14305" data-name="Trazado 14305" d="M511.56,1258.02c-7.266-1.124-2.432-12.978,2.88-7.055C519.768,1252.328,515.937,1259.184,511.56,1258.02Z" transform="translate(-408.147 -1244.253)" fill="#634343"/>
        <path id="Trazado_14306" data-name="Trazado 14306" d="M488.175,1266.607c-2.339-2.356-1.078-7.39,2.717-6.509,2.253-2.008,6.393-.073,5.769,3.04C495.822,1266.322,490.845,1269.894,488.175,1266.607Z" transform="translate(-394.24 -1250.889)" fill="#634343"/>
        <path id="Trazado_14307" data-name="Trazado 14307" d="M466.875,1286.543c-.257-.913,1.245-1.333,1.488-.414S467.123,1287.468,466.875,1286.543Z" transform="translate(-380.817 -1268.432)" fill="#634343"/>
        <path id="Trazado_14308" data-name="Trazado 14308" d="M449.768,1290.185c-3.61-.406-6.448-4.313-6.476-7.773q0,.047-.006.094c-1.213-5.413,1.985-11.828,8.187-11.232,8.035-6.042,17.39,7.559,9.564,12.777C459.7,1288.728,454.253,1290.777,449.768,1290.185Z" transform="translate(-364.955 -1257.869)" fill="#634343"/>
        <path id="Trazado_14309" data-name="Trazado 14309" d="M555.742,1295.452c-8.987-2.508-5.774-18.531,4.035-15.522C569.9,1283.685,566.664,1297.6,555.742,1295.452Z" transform="translate(-436.51 -1264.396)" fill="#634343"/>
        <path id="Trazado_14310" data-name="Trazado 14310" d="M585.688,1289.93a2.951,2.951,0,0,1-.819-2.5c-6-3.029,1.634-9.535,5.583-5.442C595.072,1285.078,590.559,1293.826,585.688,1289.93Z" transform="translate(-457.955 -1265.138)" fill="#634343"/>
        <path id="Trazado_14311" data-name="Trazado 14311" d="M432.542,1308.873c-3.109-5.612,7.212-7.591,5.413-1.247C438.652,1310.934,433.792,1311.447,432.542,1308.873Z" transform="translate(-357.576 -1280.469)" fill="#634343"/>
        <path id="Trazado_14312" data-name="Trazado 14312" d="M376.427,1327.036c-8.925.881-13.876-10.277-3.214-12.072C380.743,1313.824,389.049,1328.437,376.427,1327.036Z" transform="translate(-314.421 -1287.94)" fill="#634343"/>
        <path id="Trazado_14313" data-name="Trazado 14313" d="M356.062,1329.465a2.889,2.889,0,0,1,.486-3.814l-.154.136c.065-.06.13-.115.2-.172l-.031.027C362.873,1322.275,360.756,1333.736,356.062,1329.465Z" transform="translate(-306.683 -1294.676)" fill="#634343"/>
        <path id="Trazado_14314" data-name="Trazado 14314" d="M644.115,1317.965c-2.336-.154-4.5-1.214-6.719-1.862l.173.062-.306-.108h0c-8.641-1.78-7.909-9.3.8-8.21,3.006.94,6.276,2.129,8.334,4.63,1.833,1.63,2.292,5.7-1.113,5.252A2.8,2.8,0,0,1,644.115,1317.965Z" transform="translate(-490.258 -1283.169)" fill="#634343"/>
        <path id="Trazado_14315" data-name="Trazado 14315" d="M511.841,1341.917c-4.087-1.421,1.691-5.779,1.821-1.391l.008-.039c-.013.07-.025.141-.044.21l.015-.074A1.639,1.639,0,0,1,511.841,1341.917Z" transform="translate(-409.817 -1303.738)" fill="#3f2828"/>
        <path id="Trazado_14316" data-name="Trazado 14316" d="M478.329,1318.181c-12.317-2.722-7.211-19.534,4.131-17.973C493.833,1303.171,492.976,1323.665,478.329,1318.181Z" transform="translate(-383.714 -1278.085)" fill="#3f2828"/>
        <path id="Trazado_14317" data-name="Trazado 14317" d="M436.927,1338.27a8.407,8.407,0,0,1-5.949-2.781c-13.789-2.2,9.009-25.811,14.418-8.958C450.176,1332.03,443,1339.337,436.927,1338.27Z" transform="translate(-354.018 -1291.672)" fill="#3f2828"/>
        <path id="Trazado_14318" data-name="Trazado 14318" d="M474.792,1356.259c-6.013-.95-5.171-8.6-.67-11.082C483.4,1341.3,485.717,1357.041,474.792,1356.259Z" transform="translate(-383.261 -1307.697)" fill="#3f2828"/>
        <path id="Trazado_14319" data-name="Trazado 14319" d="M530.789,1319.624c-14.058-1.866-7.226-16.708,3.845-13.907C542.177,1308.861,538.963,1320.8,530.789,1319.624Z" transform="translate(-418.143 -1281.589)" fill="#3f2828"/>
        <path id="Trazado_14320" data-name="Trazado 14320" d="M587.312,1316.8c-5.449-1.338-14.222-.847-18-5.131l.051.1c-.028-.056-.055-.114-.079-.173v0c-1.154-3.4,4.624-3.357,5.526-6.444l-.04.06c.059-.087.119-.173.178-.26l-.027.038a7.988,7.988,0,0,1,5.4-3.98l-.347.123c4.823-1.85,11.6,2.094,12.233,7.165C598.927,1312.874,593.521,1317.57,587.312,1316.8Z" transform="translate(-448.955 -1278.464)" fill="#3f2828"/>
        <path id="Trazado_14321" data-name="Trazado 14321" d="M660.484,1329.536c-10.682-2.12-13.29-14.259.643-11.738-.1-.008-.208-.016-.31-.021a5.549,5.549,0,0,0,.624,0l-.136.008a8.626,8.626,0,0,1,1.162,0l-.35-.023c3.279.075,6.271,1.693,9.054,3.292l-.174-.118c2.4.991,3.556,4.5,1.277,6.228C668.751,1328.912,664.364,1329.278,660.484,1329.536Z" transform="translate(-503.857 -1289.641)" fill="#3f2828"/>
        <path id="Trazado_14322" data-name="Trazado 14322" d="M326.27,1347.022c-15.232.605-11.112-14.989,1.854-11.487a4.082,4.082,0,0,1,6.664,1.831l-.123-.239C337.491,1343.151,332.5,1348.321,326.27,1347.022Z" transform="translate(-280.675 -1300.977)" fill="#3f2828"/>
        <path id="Trazado_14323" data-name="Trazado 14323" d="M413.7,1367.621c.216-.064.431-.132.645-.2A1.042,1.042,0,0,0,413.7,1367.621Zm-1.458,6.325c-1.84-.589-3.886.083-5.611-.884-11.348.91-5.227-15.535,3.308-8.7,1.818-2.553,5.772-3.066,8.5-1.821C424.149,1366.586,418.041,1374.85,412.239,1373.946Z" transform="translate(-336.577 -1319.24)" fill="#3f2828"/>
        <path id="Trazado_14324" data-name="Trazado 14324" d="M509.716,1342.709c-11.592-2.21-4.963-17.89,5.155-13.31C524.379,1332.547,517.6,1343.928,509.716,1342.709Z" transform="translate(-405.29 -1297.042)" fill="#634343"/>
        <path id="Trazado_14325" data-name="Trazado 14325" d="M551.459,1341.667c-2.291-.353-4.771-1.721-5.51-4.042-6.058-7.964,7.626-14.927,14.419-12.166,4.944,1.594,15.466,7.5,9.946,13.407-2.477,1.556-5.6,1.148-8.388,1.122C558.432,1340.489,555.038,1341.853,551.459,1341.667Z" transform="translate(-432.503 -1294.562)" fill="#634343"/>
        <path id="Trazado_14326" data-name="Trazado 14326" d="M632.775,1337.385c-4.086.063-5.789-5.739-2.367-7.968,3.259-2.621,10.211-1.307,11.453,2.931C641.933,1336.4,636.011,1337.672,632.775,1337.385Z" transform="translate(-488.548 -1296.71)" fill="#634343"/>
        <path id="Trazado_14327" data-name="Trazado 14327" d="M362.428,1353.62c-3.577-.592-4.352-4.156-6.409-6.456-5.141-5.079,1.065-11.115,6.934-10.09,5.358.566,12,.4,16.2,4.126,4.186,5.165-2.154,10.15-7.024,11.217C370.5,1353.67,364.679,1354.092,362.428,1353.62Z" transform="translate(-305.72 -1302.633)" fill="#4c3333"/>
        <path id="Trazado_14328" data-name="Trazado 14328" d="M421.938,1360.964c-3.639-.327-3.245-6.387.6-5.332C426.981,1354.395,425.861,1361.793,421.938,1360.964Z" transform="translate(-349.226 -1314.978)" fill="#4c3333"/>
        <path id="Trazado_14329" data-name="Trazado 14329" d="M620.763,1364.286c-5.326.343-10.118-5.046-5.038-9.181,4.689-3.307,14.649-2.753,15.983,3.866C631.514,1364.307,624.824,1364.694,620.763,1364.286Z" transform="translate(-478.55 -1313.403)" fill="#4c3333"/>
        <path id="Trazado_14330" data-name="Trazado 14330" d="M540.677,1371.535a5.806,5.806,0,0,1-3.744-.968c-5.149,1.831-12.2.03-11.032-6.7,2.327-4.575,10.493-5.032,13.256-.642C548.767,1358.93,551.389,1372.8,540.677,1371.535Z" transform="translate(-420.07 -1318.098)" fill="#4c3333"/>
        <path id="Trazado_14331" data-name="Trazado 14331" d="M727.206,1364.74a6.455,6.455,0,0,1-3.506-.933c-4.133-.034-3.688-4.922-.43-6.164-.07.047-.14.094-.21.143,2.791-1.734,8.287-2.82,8.972,1.645C736.434,1363.154,730.938,1365.741,727.206,1364.74Z" transform="translate(-549.921 -1315.502)" fill="#4c3333"/>
        <path id="Trazado_14332" data-name="Trazado 14332" d="M749.658,1330.609c-1.973-.292-4.882-.6-5.662-2.747-2.866-3.78,4.048-5.534,6.649-3.776h0C757.821,1324.276,756.04,1331.176,749.658,1330.609Z" transform="translate(-564.976 -1293.602)" fill="#634343"/>
        <path id="Trazado_14333" data-name="Trazado 14333" d="M790.535,1338.673c-2.218-2.347,1.851-5.406,3.894-3.305C796.711,1337.794,792.6,1341.282,790.535,1338.673Z" transform="translate(-596.002 -1301.105)" fill="#634343"/>
        <path id="Trazado_14334" data-name="Trazado 14334" d="M726.382,1343c-3.634-1.684.6-6.6,3-3.84C732.349,1340.648,728.673,1344.4,726.382,1343Z" transform="translate(-552.756 -1303.55)" fill="#634343"/>
        <path id="Trazado_14335" data-name="Trazado 14335" d="M617.257,1415.12c-5.556.188-5.155-5.493-.093-5.688l-.085-.006c1.284.036,2.619-.482,3.864-.018h0C625.7,1411.917,621.115,1415.766,617.257,1415.12Z" transform="translate(-478.324 -1350.763)" fill="#634343"/>
        <path id="Trazado_14336" data-name="Trazado 14336" d="M530.317,1386.982a3.077,3.077,0,0,1-1.884-.915c-6.832-3.852,5.019-10.559,8.762-6.535C540.426,1383.442,534.183,1388.031,530.317,1386.982Z" transform="translate(-420.455 -1330.163)" fill="#634343"/>
        <path id="Trazado_14337" data-name="Trazado 14337" d="M535.4,1421.874c-3.39-.744-.713-4.992,1.9-3.944C540.178,1418.988,537.811,1422.518,535.4,1421.874Z" transform="translate(-425.42 -1356.458)" fill="#634343"/>
        <path id="Trazado_14338" data-name="Trazado 14338" d="M509.054,1419.532c-.6-1.27.639-3.053,2.054-2.432C515.03,1417.853,510.839,1422.786,509.054,1419.532Z" transform="translate(-408.831 -1355.93)" fill="#634343"/>
        <path id="Trazado_14339" data-name="Trazado 14339" d="M484.867,1401.428c-5.141-2.618,1.162-7.184,4.723-6.876l-.219.014a3.046,3.046,0,0,1,2.329,5.614.616.616,0,0,0,.086-.039A15.509,15.509,0,0,1,484.867,1401.428Z" transform="translate(-391.529 -1340.908)" fill="#634343"/>
        <path id="Trazado_14340" data-name="Trazado 14340" d="M458.853,1407.424c-1.8-2.24,1.959-4.788,3.93-3.285,1.768,1.148.653,4.5-1.509,3.946A2.542,2.542,0,0,1,458.853,1407.424Z" transform="translate(-375.177 -1347.082)" fill="#634343"/>
        <path id="Trazado_14341" data-name="Trazado 14341" d="M414.09,1443.557c-4.673-.6.392-5.135,2.751-2.807C418.4,1442.474,415.689,1444.027,414.09,1443.557Z" transform="translate(-344.402 -1371.33)" fill="#634343"/>
        <path id="Trazado_14342" data-name="Trazado 14342" d="M391.21,1424.606c-.692-3.121,6.587-5.748,7.36-2.15C399.179,1425.194,392.2,1426.929,391.21,1424.606Z" transform="translate(-330.405 -1358.427)" fill="#634343"/>
        <path id="Trazado_14343" data-name="Trazado 14343" d="M408.443,1395.044c-12.128-.9-3.31-12.581,4.563-8.816C417.86,1389.323,413.551,1396.358,408.443,1395.044Z" transform="translate(-337.934 -1334.955)" fill="#634343"/>
        <path id="Trazado_14344" data-name="Trazado 14344" d="M364.929,1383.81c-12.977-2.252,4.28-18.847,8.815-8.062C376.451,1381.63,369.53,1383.81,364.929,1383.81Z" transform="translate(-309.768 -1326.065)" fill="#634343"/>
        <path id="Trazado_14345" data-name="Trazado 14345" d="M315.9,1363.174c-2.619.528-4.4-3.027-2.894-5,2.51-3.051,11.014-3.343,9.035,2.273-1.258,2.364-4.043,2.769-6.467,2.75C315.679,1363.189,315.787,1363.183,315.9,1363.174Z" transform="translate(-277.975 -1315.328)" fill="#634343"/>
        <path id="Trazado_14346" data-name="Trazado 14346" d="M291.66,1375.374c-1.674-1.781,1.666-4.08,2.885-2.086C295.573,1375.115,293.085,1376.575,291.66,1375.374Z" transform="translate(-263.818 -1326.318)" fill="#634343"/>
        <path id="Trazado_14347" data-name="Trazado 14347" d="M279.6,1391.974a6.315,6.315,0,0,1-2.407-.7l.11.058c-2.807-1.152-1.059-4.639,1.369-4.926,1.963.053,4.039-.929,5.91-.109C288.023,1389.1,282.271,1392.132,279.6,1391.974Z" transform="translate(-253.6 -1335.28)" fill="#634343"/>
        <path id="Trazado_14348" data-name="Trazado 14348" d="M236.07,1344.17a5.127,5.127,0,0,1-3.012-.778,1.98,1.98,0,0,1-1.927-2.434c.418-2.32,3.166-2.519,4.977-3.243l-.033.011c8.134-3.742,9.263,6.939.785,6.458l.274-.017A6.192,6.192,0,0,1,236.07,1344.17Z" transform="translate(-223.777 -1302.613)" fill="#634343"/>
        <path id="Trazado_14349" data-name="Trazado 14349" d="M241.958,1315.906c-1.7-.613-3.428.17-5.11-.173-5.566.85-3.521-3.971.218-5.057l-.128.062C246.954,1304.171,252.365,1314.758,241.958,1315.906Z" transform="translate(-225.328 -1283.746)" fill="#634343"/>
        <path id="Trazado_14350" data-name="Trazado 14350" d="M312.491,1302.518c-.9-2.144,2.759-3.72,4.207-2.342C318.779,1302.658,313.783,1304.548,312.491,1302.518Z" transform="translate(-277.907 -1277.786)" fill="#634343"/>
        <path id="Trazado_14351" data-name="Trazado 14351" d="M209.993,1333.443c-1.407-.45-.781-2.3.478-2.454l-.026.008a1.357,1.357,0,0,1,1.743.493.848.848,0,0,1,.3.13l-.035-.018.048.026h0C214.1,1333.1,211.093,1333.689,209.993,1333.443Z" transform="translate(-209.191 -1298.576)" fill="#634343"/>
        <path id="Trazado_14352" data-name="Trazado 14352" d="M711.4,1354.766c-1.955-.583-.381-3.481,1.2-2.469C715.417,1352.494,713.41,1355.569,711.4,1354.766Z" transform="translate(-543.111 -1312.708)" fill="#634343"/>
        <path id="Trazado_14353" data-name="Trazado 14353" d="M677.257,1361.4c-3.266-.339-.757-4.411,1.541-2.7C680.293,1359.678,678.634,1361.59,677.257,1361.4Z" transform="translate(-519.933 -1316.836)" fill="#634343"/>
        <path id="Trazado_14354" data-name="Trazado 14354" d="M693.36,1363.541c-.161-.067-.322-.133-.477-.212l.09.044a1.019,1.019,0,0,1-.2-.111l.011,0c-.913-.792.354-1.784,1.226-1.322-.038-.005-.073-.014-.111-.02C696.227,1361.929,694.875,1365.254,693.36,1363.541Z" transform="translate(-531.11 -1319.196)" fill="#634343"/>
        <path id="Trazado_14355" data-name="Trazado 14355" d="M693.757,1365.308c-1.559-.1-.889-2.4.511-1.765l-.032-.006.117.023-.027-.006.135.028h-.006c.116.025.232.045.349.067H694.8C696.51,1364.3,695.028,1365.581,693.757,1365.308Z" transform="translate(-531.368 -1320.266)" fill="#634343"/>
        <path id="Trazado_14356" data-name="Trazado 14356" d="M604.741,1384.2c-1.32-.384-.663-2.227.506-2.241l-.095.007a1.076,1.076,0,0,1,.408,2.112c.038-.018.076-.038.114-.058A1.156,1.156,0,0,1,604.741,1384.2Z" transform="translate(-472.185 -1332.596)" fill="#634343"/>
        <path id="Trazado_14357" data-name="Trazado 14357" d="M465.922,1386.927l.053.01a1.079,1.079,0,0,1-.54-1.9h0a1.08,1.08,0,0,1,.366-.182C468.207,1382.837,468.97,1387.879,465.922,1386.927Z" transform="translate(-379.612 -1334.216)" fill="#634343"/>
        <path id="Trazado_14358" data-name="Trazado 14358" d="M452.428,1395.669c.2-3.448,7.15-1.144,2.6,1.038l.014-.007C454.113,1397.272,452.556,1396.89,452.428,1395.669Z" transform="translate(-371.214 -1340.566)" fill="#634343"/>
        <path id="Trazado_14359" data-name="Trazado 14359" d="M338.252,1381.922c-2.026-.851.191-2.4,1.52-1.861C341.307,1381.048,339.435,1382.249,338.252,1381.922Z" transform="translate(-294.616 -1331.269)" fill="#634343"/>
        <path id="Trazado_14360" data-name="Trazado 14360" d="M355.494,1377.742c-.294-1.135,1.664-1.921,2.127-.756C358.176,1378.26,355.876,1379.035,355.494,1377.742Z" transform="translate(-306.625 -1328.912)" fill="#634343"/>
        <path id="Trazado_14361" data-name="Trazado 14361" d="M341.278,1381.423a1.772,1.772,0,0,1-.754-.226c-1.648-.088-.834-2.538.585-2.04C342.827,1378.839,343.058,1381.6,341.278,1381.423Z" transform="translate(-296.064 -1330.697)" fill="#634343"/>
        <path id="Trazado_14362" data-name="Trazado 14362" d="M339,1381.552c-2.576-.339-.627-4.227,1.132-2.278h0C342.074,1379.555,340.31,1381.883,339,1381.552Z" transform="translate(-294.831 -1330.457)" fill="#634343"/>
        <path id="Trazado_14363" data-name="Trazado 14363" d="M347.923,1389.882c-2.127-.543-.209-3.332,1.316-1.962A1.186,1.186,0,0,1,347.923,1389.882Z" transform="translate(-300.972 -1336.329)" fill="#634343"/>
        <path id="Trazado_14364" data-name="Trazado 14364" d="M267.533,1366.422a1.042,1.042,0,1,1,2.083,0A1.042,1.042,0,0,1,267.533,1366.422Z" transform="translate(-248.053 -1321.546)" fill="#634343"/>
        <path id="Trazado_14365" data-name="Trazado 14365" d="M431.3,1262.977c-3.926-1.9-.027-6.823,3.288-6.132C441.436,1258.75,436.09,1264.616,431.3,1262.977Z" transform="translate(-356.045 -1249.224)" fill="#634343"/>
        <path id="Trazado_14366" data-name="Trazado 14366" d="M373.15,1297.1l.068,0c-5.861,0-3.381-6.8.542-7.875,3.629-2.212,9.953,1.1,7.763,5.561C379.906,1297.628,375.967,1297.2,373.15,1297.1Z" transform="translate(-316.132 -1270.369)" fill="#634343"/>
        <path id="Trazado_14367" data-name="Trazado 14367" d="M562.724,1266.425a.779.779,0,0,1,1.558,0A.779.779,0,0,1,562.724,1266.425Z" transform="translate(-444.683 -1255.146)" fill="#634343"/>
        <path id="Trazado_14368" data-name="Trazado 14368" d="M558.87,1258.462c-4.778-.951-6.356-11.185.5-5.823-.032-.029-.064-.056-.094-.085a4.383,4.383,0,0,1,1.351,1.6l-.041-.082.024.048-.028-.059.074.149-.045-.087a3.084,3.084,0,0,1,.4,1.3C562.2,1256.877,560.469,1258.691,558.87,1258.462Z" transform="translate(-439.371 -1245.437)" fill="#634343"/>
        <path id="Trazado_14369" data-name="Trazado 14369" d="M581.109,1268.218c-1.243-.9-3.7-2.37-2.526-4.156-1.589-2.372,2.565-.951,3.409-.229C584.428,1264.87,584.407,1269.628,581.109,1268.218Z" transform="translate(-455.008 -1253.2)" fill="#634343"/>
        <path id="Trazado_14370" data-name="Trazado 14370" d="M606.168,1274.251c-1.308-.536-3.326-1.474-3.751-2.882a.748.748,0,0,1-.168-.88l-.018.027c.813-1.332,3-.439,4.051.22-.041-.029-.084-.058-.125-.084a4.234,4.234,0,0,1,1.345,1.24l-.023-.026A1.453,1.453,0,0,1,606.168,1274.251Z" transform="translate(-470.96 -1257.915)" fill="#634343"/>
        <path id="Trazado_14371" data-name="Trazado 14371" d="M633.793,1287.261a16.631,16.631,0,0,1-3.3-2.535c.047.055.1.111.143.163-.714-.82-2.14-1.534-1.577-2.838-.372-2.027,2.6-.473,3.6-.35l-.062-.012.008,0-.087-.016a5.42,5.42,0,0,1,3.886,2.646l-.029-.042a3.449,3.449,0,0,1,.508,1.389l-.014-.068C637.27,1287.363,635.082,1288.29,633.793,1287.261Z" transform="translate(-488.786 -1265.369)" fill="#634343"/>
        <path id="Trazado_14372" data-name="Trazado 14372" d="M663.113,1300.182a3.083,3.083,0,0,1-1.537-1.333c.035.055.073.108.108.163-.55-.9-1.886-1.84-1.31-3.016a.8.8,0,0,1-.146-1.4l-.031.021.045-.026-.009,0a.874.874,0,0,1,.262-.089l-.019.006.034,0-.005,0a6.045,6.045,0,0,1,3.886,2.241l-.013-.014C666.066,1297.858,665.276,1300.7,663.113,1300.182Z" transform="translate(-509.39 -1274.349)" fill="#634343"/>
        <path id="Trazado_14373" data-name="Trazado 14373" d="M705.431,1316.094c-1.279-2.355,2.679-2.769-1.345-6.374l.052.061c-.056-.051-.115-.1-.173-.152l.045.04-.009-.008a1.587,1.587,0,0,1,.213.207,5.6,5.6,0,0,0-4.466-.931l.111-.023a2.19,2.19,0,0,1-.587.061h0c-.032,0-.064,0-.1-.009l.1.009.009-.005c-2.8-1.42,2.929-2.861,4.148-2.433l-.181-.012c4.094.019,7.7,5.626,4.3,8.778C707.022,1315.866,706.222,1316.7,705.431,1316.094Z" transform="translate(-535.137 -1282.317)" fill="#634343"/>
        <path id="Trazado_14374" data-name="Trazado 14374" d="M515.463,1243.9a3.515,3.515,0,0,1-1.161-1.663l.032.062c-.022-.042-.043-.085-.064-.129l.023.049c-.864-1.746-2.724-3.422-4.8-2.971l.055-.012-.143.029.062-.012a2,2,0,0,0-1.353.763.723.723,0,0,1-1.227.614.693.693,0,0,0,.134.1c-2.42-6,9.788-4.423,9.574,1.695-.009-.044-.02-.087-.029-.131C517.028,1243.162,516.639,1244.582,515.463,1243.9Z" transform="translate(-407.369 -1236.019)" fill="#634343"/>
        <path id="Trazado_14375" data-name="Trazado 14375" d="M461.5,1242.6c-.239-.12-.487-.222-.723-.344.041.023.084.044.128.067a7.094,7.094,0,0,0-3.355-.705l.1-.008a11.412,11.412,0,0,0-3.023.552.815.815,0,0,1-1.489-.642.775.775,0,0,0-.031.12c1.374-2.332,5.465-2.985,7.856-1.873l-.137-.07C462.438,1240.033,464.234,1242.839,461.5,1242.6Z" transform="translate(-371.653 -1237.538)" fill="#634343"/>
        <path id="Trazado_14376" data-name="Trazado 14376" d="M402.84,1266.342a.7.7,0,0,1,.137-.983l0,0,.02-.014-.016.01a16.933,16.933,0,0,1,7.94-3.19c2.171-.474,5.81,2.1,2.261,3.07l.029,0a19.369,19.369,0,0,0-4.548-.242l.16-.009a11.057,11.057,0,0,0-2.8.642c.038-.015.076-.026.114-.041-.8.293-1.611.58-2.389.925l.03-.018A.7.7,0,0,1,402.84,1266.342Z" transform="translate(-338.087 -1252.775)" fill="#634343"/>
        <path id="Trazado_14377" data-name="Trazado 14377" d="M336.843,1312.64a6.515,6.515,0,0,0-6.21-1.917l.066-.014c-.039.008-.078.017-.117.023l.047-.009a12.619,12.619,0,0,0-1.328.353l.1-.035c-.655.437-2.012.849-1.736-.455,1.008-1.437,3.095-1.768,4.729-2.054C338.255,1307.385,341.857,1313.219,336.843,1312.64Z" transform="translate(-288.082 -1283.598)" fill="#634343"/>
        <path id="Trazado_14378" data-name="Trazado 14378" d="M299.04,1331.223c-1.579-.638-2.969-1.762-4.7-2.019l.163.035a7.656,7.656,0,0,0-3.586.293l.018-.007c-.036.014-.074.025-.111.038l.078-.026c-.109.042-.215.086-.32.137l.069-.035c-.5.345-1.261.507-1.558-.178-.014-2,3.2-2.32,4.749-2.7,2.377-.139,5.317-.2,7.06,1.683A1.776,1.776,0,0,1,299.04,1331.223Z" transform="translate(-262.419 -1295.8)" fill="#634343"/>
        <path id="Trazado_14379" data-name="Trazado 14379" d="M438.887,1341.374a6.615,6.615,0,0,1-1.335-.328l.028.01c-6.348-1.3-5.9-10.338-.927-13.033l-.015.013c1.8-.889,1.87,1.044.9,2.1l.025-.073c-.018.053-.036.105-.055.158.01-.025.019-.051.028-.076a5.418,5.418,0,0,0,1.107,4.918c-.07-.1-.14-.21-.213-.315a25.52,25.52,0,0,0,2.024,2.587l-.039-.044C443.394,1339.45,442.873,1342.249,438.887,1341.374Z" transform="translate(-358.186 -1296.538)" fill="#392626"/>
        <path id="Trazado_14380" data-name="Trazado 14380" d="M476.425,1319.59c-9.31-3.937-.662-14.964-.282-10.032a22.358,22.358,0,0,0,.236,5.96c0-.035,0-.07-.006-.105.1.8.892,1.276,1.473,1.741A1.427,1.427,0,0,1,476.425,1319.59Z" transform="translate(-384.334 -1283.55)" fill="#392626"/>
        <path id="Trazado_14381" data-name="Trazado 14381" d="M475.9,1363.681a.687.687,0,0,1,1.313-.4A.687.687,0,0,1,475.9,1363.681Z" transform="translate(-386.82 -1319.839)" fill="#392626"/>
        <path id="Trazado_14382" data-name="Trazado 14382" d="M474.545,1358.08c-2.1-1.883-2.024-5.44-1.1-7.888.378-.931,2.1-1.212,2.045.079-.563,1.292.2,2.713.82,3.858s2.064.956,3.016.363C485.51,1354.485,478.842,1361.544,474.545,1358.08Z" transform="translate(-384.803 -1310.917)" fill="#392626"/>
        <path id="Trazado_14383" data-name="Trazado 14383" d="M317.206,1342.331c.029-3.865,4.362-6.079,7.844-5.391l-.015,0a.776.776,0,0,1-.1,1.545l.009,0,.1-.008-.011,0c.024,0,.051-.009.075-.017l-.009,0,.032-.006a10.8,10.8,0,0,0-1.482.656c.047-.02.09-.044.137-.067C321.72,1339.74,319.013,1345.932,317.206,1342.331Z" transform="translate(-281.141 -1302.537)" fill="#392626"/>
        <path id="Trazado_14384" data-name="Trazado 14384" d="M643.957,1335.153a.643.643,0,0,1-.321-.773v0c.419-2.13-1.1-3.79-3.072-4.32.031.009.062.021.093.031l-.005,0,.026.009a12.905,12.905,0,0,0-1.852-.531c.035.009.07.015.105.023a10.491,10.491,0,0,0-2.929-.187c.02,0,.044,0,.067,0l-.525.035c.018,0,.038,0,.058-.006a7.024,7.024,0,0,0-.792.1h.016c-.543.3-1.323.075-.525-.35a.194.194,0,0,1-.029.009c3.292-2.075,10.127-1.738,10.995,2.836C645.47,1333.06,645.4,1335.249,643.957,1335.153Z" transform="translate(-492.134 -1296.645)" fill="#704c4c"/>
        <path id="Trazado_14385" data-name="Trazado 14385" d="M577.957,1333.448a2.249,2.249,0,0,1-.458-.549l.01.011c-.087-.1-.143-.22-.226-.323l.008.007a15.777,15.777,0,0,0-3.736-3.254c.047.032.1.064.146.1-3.483-2.1-7.279-4.338-11.491-4.122l.043,0-.125.009.111-.009c-1.017.1-2.033.222-3.037.417l.061-.015c-.645.138-1.276.3-1.927.418h.007a6.541,6.541,0,0,0-.772.225l.022-.009c-.419.163-.846.309-1.257.484.012,0,.02-.009.029-.012-1.551.107.964-1,1.63-1.117l-.011.005.029-.012h0c3.766-1.859,7.944-3.473,12.047-1.617l-.085-.032c4.069,1.317,9,3.793,9.417,8.565,0-.021,0-.044,0-.067a2.431,2.431,0,0,0,.062.318v0c0,.019.008.037.012.056l0-.01C578.6,1333.268,578.349,1333.732,577.957,1333.448Z" transform="translate(-439.452 -1293.507)" fill="#704c4c"/>
        <path id="Trazado_14386" data-name="Trazado 14386" d="M523.61,1332.13c-.038-.006-.075-.014-.112-.022l.03.005c-.146-.026-.283-.076-.426-.105l.027,0a1.8,1.8,0,0,1-.194-.055h0c-.206-.072-.417-.126-.621-.2.035.014.073.026.108.038-3.089-.73-6.159-2.19-9.412-1.572-.37.118-1.839.571-1.119-.186h0a10.506,10.506,0,0,1,3.855-1.465c-.035.009-.07.014-.1.023a8.141,8.141,0,0,1,7.218,1.334l-.036-.03.119.1-.013-.012.094.082-.014-.011a5.573,5.573,0,0,1,.611.609l0,0a3.049,3.049,0,0,1,.222.266l-.009-.012c.017.024.034.048.05.073l-.015-.025C524.336,1331.338,524.329,1332.165,523.61,1332.13Z" transform="translate(-410.693 -1296.853)" fill="#704c4c"/>
        <path id="Trazado_14387" data-name="Trazado 14387" d="M378.684,1379.541a1.577,1.577,0,0,0,.222-1.406c0,.02.006.038.009.058-.009-.052-.02-.108-.032-.161v.005a4.166,4.166,0,0,0-.375-.988l.044.093a4.262,4.262,0,0,0-2.491-2.512c.055.017.111.038.166.055a4.777,4.777,0,0,1-.512-.208l.042.021a.5.5,0,0,0-.142-.047l.031.006-.172-.038.066.016a9.883,9.883,0,0,0-2.523-.262l.076,0a16.753,16.753,0,0,0-3.76.683h0l-.172.059.007,0-.05.017.009,0a4.022,4.022,0,0,0-.415.161l.007-.01a.206.206,0,0,1-.021.023l.005,0-.025.032a.207.207,0,0,1,.014-.022l-.01.014a.1.1,0,0,0,0-.011.125.125,0,0,1-.011.022l0,0a.1.1,0,0,0-.007.012l0-.008c-1.353.676.6-1.71,1.085-1.84l-.034.024.076-.052-.006,0,.038-.025-.011.007c4.151-3.223,11.026-1.2,10,4.7.009-.023.015-.044.023-.064-.1.286-.178.581-.277.869,0-.012.009-.026.012-.038-.015.044-.029.088-.047.131.006-.011.009-.023.015-.035a2.139,2.139,0,0,1-.125.307l0,0C379.409,1379.531,378.638,1380.378,378.684,1379.541Z" transform="translate(-315.116 -1325.793)" fill="#704c4c"/>
        <path id="Trazado_14388" data-name="Trazado 14388" d="M420.574,1390.27a1.432,1.432,0,0,1-.222-.583c.006.032.012.061.017.09a1.848,1.848,0,0,0-.519-1.053l.063.056a17.739,17.739,0,0,0-5.143-2.27l.036.008a3.953,3.953,0,0,0-.522-.061c.023,0,.044,0,.067,0-.352-.016-.707-.026-1.059-.05l.012,0c-.116.029-.229.06-.342.1l.014-.006-.022.009h0l-.035.015h0c-1.613-.147,2.37-1.492,2.825-1.546l-.066.013c2.034-.672,4.542-.327,5.627,1.721-.029-.046-.061-.09-.09-.137C422.069,1387.379,422.352,1391.146,420.574,1390.27Z" transform="translate(-344.644 -1334.417)" fill="#704c4c"/>
        <path id="Trazado_14389" data-name="Trazado 14389" d="M383.2,1322.666c-.014-.035-.026-.07-.041-.105.006.009.009.017.015.026a2.967,2.967,0,0,0-.176-.281l.007.012a5.526,5.526,0,0,0-.359-.476h0l-.032-.038.007.01c-1.667-1.323-3.132-2.9-4.814-4.193l.108.07a6.152,6.152,0,0,0-.688-.4l.12.058a5.671,5.671,0,0,0-3.01-.578l.123-.009c-.451.03-.9.062-1.353.087h.011a12.216,12.216,0,0,0-3.051.58c.023-.005.044-.014.067-.02a6.151,6.151,0,0,0-.717.3c.014-.006.032-.014.049-.023-5.809,3.47,6.07-8.917,12.693,1.37l0-.007c.018.036.037.072.055.108l-.013-.024c.272.6.586,1.174.848,1.78-.009-.021-.018-.038-.026-.056a6.891,6.891,0,0,1,.6,1.541l-.006-.015C383.823,1322.685,383.365,1323.007,383.2,1322.666Z" transform="translate(-314.914 -1287.926)" fill="#704c4c"/>
        <path id="Trazado_14390" data-name="Trazado 14390" d="M470.85,1278.751a6.23,6.23,0,0,1-.4-.9l.006.013c-.286-.592-.52-1.2-.817-1.788.017.035.035.073.055.108-.175-.338-.339-.679-.508-1.021.021.041.041.085.061.126a11.254,11.254,0,0,0-.7-1.254c.029.041.055.082.085.123-.917-1.634-2.856-2.307-4.627-2.5l.16.009a32.372,32.372,0,0,0-6.2.575c.035-.009.07-.015.105-.023a21.332,21.332,0,0,0-3.455.858l.013-.013-.023.021.01-.008c-.472.5-.671-.3-.153-.508-.006.009-.015.018-.02.026a13.835,13.835,0,0,1,11.94-2.955l-.052-.009.007,0-.052-.01c.054.009.106.022.161.032l-.078-.017c3.254.384,5.15,3.9,5.125,6.925,0-.038.006-.073.009-.108,0,.3-.017.61-.044.913,0-.008,0-.015,0-.022C471.354,1277.761,471.643,1279.24,470.85,1278.751Z" transform="translate(-372.366 -1257.557)" fill="#704c4c"/>
        <path id="Trazado_14391" data-name="Trazado 14391" d="M508.3,1252.984c-.208-.152-.149-.44-.295-.642l.026.052c-.041-.082-.076-.166-.117-.248.012.023.023.046.035.067-1.154-4.526,6.2-4.937,7.954-1.578l-.026-.036a5.772,5.772,0,0,1,.438.735l-.017-.035c.622.749.285,1.856-.686,1l.005,0-.061-.041c.014.008.028.017.042.027l-.2-.146.026.017c-.023-.014-.045-.03-.067-.047l.029.022c-1.987-1.18-5.129-1.919-6.632.357l0,0-.006.009,0,0c-.008.012-.017.025-.025.037l.008-.01a1.407,1.407,0,0,1-.1.131A.244.244,0,0,1,508.3,1252.984Z" transform="translate(-408.119 -1243.657)" fill="#704c4c"/>
        <path id="Trazado_14392" data-name="Trazado 14392" d="M386.29,1297.424c-3.768-.441.334-.931,1.118-1.911l-.018.015a2.883,2.883,0,0,0-1.2-4.594l.09.061a6.517,6.517,0,0,0-1.663-.519l.079.017-.374-.076.015,0a4.153,4.153,0,0,0-.575-.082h.008c-.408-.02-.816-.017-1.224-.009h0a1.01,1.01,0,0,0-.132.021l.032-.009c-.3.062-.592.12-.877.209l.007,0c-.34.347-.938-.017-.417-.333l-.018.014a4.893,4.893,0,0,1,1.334-.4l0,0a7.133,7.133,0,0,1,4.175-.439l-.1-.023c3.935.184,5.814,5.792,1.879,7.518l.043-.021-.07.034.015-.007A5.234,5.234,0,0,1,386.29,1297.424Z" transform="translate(-323.608 -1270.842)" fill="#704c4c"/>
        <path id="Trazado_14393" data-name="Trazado 14393" d="M437.6,1260.686a3,3,0,0,0-1.485-1.1l.114.038a5.544,5.544,0,0,0-3.559-.525l.038-.009a2.615,2.615,0,0,0-.716.226l.007,0-.029.015h0a4.389,4.389,0,0,0-.749.465l.024-.023c-.026.026-.053.05-.076.076h0a.531.531,0,0,0-.047.061l.018-.026c-.16.4-.718.066-.426-.236a3.357,3.357,0,0,1,1.289-.866h0C438.275,1254.869,440.73,1262.686,437.6,1260.686Z" transform="translate(-356.694 -1249.816)" fill="#704c4c"/>
        <path id="Trazado_14394" data-name="Trazado 14394" d="M574.234,1285.21a6.49,6.49,0,0,0-.913-1.49l.011.014c-1.491-1.583-3.92-1.24-5.872-1.4a.518.518,0,0,1-.733,0h0c-.4-.108-.777-.266-1.173-.386.032.012.061.02.091.032a4.488,4.488,0,0,0-.529-.141l.071.015c-1.618-.073-3.076-.989-4.727-.782l.027,0c-.034,0-.068,0-.1.006l.059,0c-.137.011-.276.022-.416.031h.016c-.458.038-.912.109-1.374.12l.014,0a7.883,7.883,0,0,0-.91.109l.012,0a1.055,1.055,0,0,0-.293.11l.013-.008a2,2,0,0,0-.482.322h0l-.023.02,0,0a.332.332,0,0,0-.028.027h0l0,0c-2.733.185,7.465-5.077,9.133-1.334l-.016-.017.015.018-.037-.042c.168.21.377.39.546.6,2.011-3.526,8.247-.913,8.319,2.891C575.186,1284.47,575.063,1286.1,574.234,1285.21Z" transform="translate(-440.547 -1264.107)" fill="#704c4c"/>
        <path id="Trazado_14395" data-name="Trazado 14395" d="M645.459,1310.134c-.186-.084-.363-.18-.545-.273l.017.01a8.776,8.776,0,0,0-1.015-.446l.047.017a10.41,10.41,0,0,0-1.176-.347l.064.015-.289-.061c.02.006.044.009.067.014a16.314,16.314,0,0,0-1.66-.266h.015l-.514-.035.1.009a17.17,17.17,0,0,1-2.911-.064h.006l-.011,0,.016,0-.053-.011.011,0a16.142,16.142,0,0,0-1.6-.192c.023,0,.044,0,.064.006a2.147,2.147,0,0,0-.537.038l.044-.009c-.095.022-.187.03-.281.045a.253.253,0,0,1-.489-.078c.732-1.162,2.45-1.456,3.737-1.622l-.033,0C639.629,1306.691,647,1309.2,645.459,1310.134Z" transform="translate(-492.711 -1282.597)" fill="#704c4c"/>
        <path id="Trazado_14396" data-name="Trazado 14396" d="M636.887,1285.714c-.193-.21-.337-.467-.529-.675l.03.03a11.024,11.024,0,0,0-.766-.819l.017.014-.055-.049.021.019c-.37-.318-.779-.594-1.176-.874.023.017.047.032.07.049a27.442,27.442,0,0,0-4.07-1.938l.023.007-.084-.029h0c-.294-.1-.587-.2-.878-.3l.048.019a3.516,3.516,0,0,1-.413-.14.244.244,0,1,1-.255-.415c2.653-1.725,6.741,1.443,8.21,3.788C637.385,1284.769,637.768,1286.129,636.887,1285.714Z" transform="translate(-488.66 -1264.77)" fill="#704c4c"/>
        <path id="Trazado_14397" data-name="Trazado 14397" d="M709.137,1311.652l-.026-.053.026.053a3.328,3.328,0,0,0-.2-.318c.014.018.026.038.041.055a4.3,4.3,0,0,0-1.786-1.348l.033.018a18.4,18.4,0,0,0-4.207-1.61l.079.018a7.185,7.185,0,0,0-1.345-.11c-.09.573-.779.036-.47-.343,2.248-1.84,6.481-.509,8.13,1.7-.018-.029-.035-.056-.052-.082C709.972,1310.111,710.4,1312.685,709.137,1311.652Z" transform="translate(-536.927 -1282.774)" fill="#704c4c"/>
        <path id="Trazado_14398" data-name="Trazado 14398" d="M745.654,1327.75h0a2.377,2.377,0,0,0-.175-.317l.008.01c-.007-.01-.014-.019-.02-.029l0,.007a1.33,1.33,0,0,1-.29-.685l.006.024q-.009-.035-.015-.07l0,.015a1.739,1.739,0,0,1,.345-1.433c-.018.029-.035.056-.052.081,1.207-2.6,9.38-1.049,10.088,1.417.455,1-.217,1.439-.933.59l.037.026a3.462,3.462,0,0,0-.881-.373l.006,0c-.474-.152-.964-.247-1.443-.381l.022.008-.123-.041.049.016-.168-.06.028.009-.12-.041.052.018c-.493-.144-1-.257-1.478-.447l.064.021c-1.622-.734-3.966-.865-4.655,1.156.008-.011.014-.026.023-.04C745.991,1327.362,746.308,1328.265,745.654,1327.75Z" transform="translate(-566.183 -1294.006)" fill="#704c4c"/>
        <path id="Trazado_14399" data-name="Trazado 14399" d="M529.65,1384.31c-1.162-1.339.285-3.271,1.193-4.391l-.1.123c2.139-3.145,8.6-3.2,9.072,1.135v-.014c.262.937-.74,2.048-1.37.9l.053.079a4.557,4.557,0,0,1-.374-.618c.018.035.032.067.05.1-.227-.64-.964-.518-1.5-.44l.185-.039c-1.631.452-3.421.161-4.943.972l.055-.028a11.285,11.285,0,0,0-1.819,1.547c.02-.015.038-.032.055-.047-.059.063-.157.114-.157.21v-.008c0,.065-.01.13-.015.2C530.271,1384.261,529.849,1384.616,529.65,1384.31Z" transform="translate(-422.364 -1329.832)" fill="#704c4c"/>
        <path id="Trazado_14400" data-name="Trazado 14400" d="M494.064,1398.592c-.005-.063-.009-.126-.012-.191-2.088-1.614-4.9-.18-7.262-.066-1.613.576,1.145-1.854,1.63-1.9l-.015.011a3.925,3.925,0,0,1,1.273-.58l-.125.044C496.926,1394.1,496.192,1400.846,494.064,1398.592Z" transform="translate(-393.769 -1341.692)" fill="#704c4c"/>
        <path id="Trazado_14401" data-name="Trazado 14401" d="M623.086,1413.622c-.669-.577.047-1.243-.013-1.875a3.718,3.718,0,0,0-1.107-.31l.012,0a15.38,15.38,0,0,0-4.543-.2.246.246,0,0,1-.477-.077.157.157,0,0,0,0,.023.869.869,0,0,1,.307-.7l-.035.041a3.617,3.617,0,0,1,1-.726l-.073.053a6.668,6.668,0,0,1,6.149,0C626.2,1410.746,625.281,1414.957,623.086,1413.622Z" transform="translate(-480.806 -1350.686)" fill="#704c4c"/>
      </g>
      <g id="Grupo_9677" data-name="Grupo 9677" transform="translate(864.05 2131.818)">
        <g id="Grupo_9674" data-name="Grupo 9674" transform="translate(2.036 59.528)">
          <path id="Trazado_16641" data-name="Trazado 16641" d="M351.76,87.026c2.643,1.157,4.536,2.808,3.057,5.062a5.885,5.885,0,0,1-2.6,1.818c-6.667,2.618-9.78.355-9.993,3.283s-6.648,4.437-23.184,1.855-16.266-.485-24.341.764-5.652-.23-4.07-1.46-11.061-2.857-1.258-5.358,6.75-3.7,4.358-5.231,4.222-6.063,22.135-6.177a126.324,126.324,0,0,1,19.014,1.562c3.6.523,7.107,1.307,10.63,2.033A33.209,33.209,0,0,1,351.76,87.026Z" transform="translate(-285.607 -81.58)" fill="url(#linear-gradient)"/>
          <g id="Grupo_9673" data-name="Grupo 9673" transform="translate(6.058)" opacity="0.5" style="mix-blend-mode: multiply;isolation: isolate">
            <path id="Trazado_16642" data-name="Trazado 16642" d="M346.878,94.344c10.309-1.011,12.819-3.877,9.7-4.877-3.008-.965-3.46,2.484-8.808,3.341s-21.167.078-13.183,2.437,1.305,2.683-13.179,2.008-21.14-2.5-13.44-2.234,19.381-.54,5.474-1.843,10.267-.684,3.168-3.722,3.385-6.22-8.131-6.3a32.006,32.006,0,0,0-13.346,2.4c2.636-1.817,9.88-3.9,22.478-3.971a139.255,139.255,0,0,1,26.618,2.645c4.36.83,9.819,1.642,12.994,3.766a3.368,3.368,0,0,1,1.4,2.989,5.171,5.171,0,0,1-3.01,2.924c-6.969,2.618-10.224.355-10.447,3.283a2.212,2.212,0,0,1-1.083,1.661C344.471,97.355,340.672,94.952,346.878,94.344Z" transform="translate(-295.134 -81.58)" fill="url(#linear-gradient-2)"/>
          </g>
          <path id="Trazado_16643" data-name="Trazado 16643" d="M300.727,86.622s-8.866.543-5.447,2.713.65,4.448-3.728,5.831,2.515,2.384,6.419-.914C304.194,88.995,292.38,88.86,300.727,86.622Z" transform="translate(-287.26 -83.416)" fill="#fafcfe" opacity="0.43"/>
        </g>
        <g id="Grupo_9675" data-name="Grupo 9675" transform="translate(0 0)">
          <path id="Trazado_16644" data-name="Trazado 16644" d="M315.757,13.98a2.369,2.369,0,0,0-1.026-.622c2.083-1.946,2.938-5.747.481-7.795a5.115,5.115,0,0,0-4.41-.9,4.286,4.286,0,0,0-.421.135c.345-2.839-2.344-4.292-4.85-4.357A4.8,4.8,0,0,0,303.885.7a2.643,2.643,0,0,0-2.344-1.5,3.241,3.241,0,0,0-1.682.454A4.078,4.078,0,0,0,298.339-2.1a4.013,4.013,0,0,0-4.078.15,5.041,5.041,0,0,0-2.373,3.636,2.91,2.91,0,0,0,.017.795,3.465,3.465,0,0,0-2.023-.607,4.572,4.572,0,0,0-3.413,1.6,4.768,4.768,0,0,0-.75,5.023,3.1,3.1,0,0,0-2.978,2.136c-.6,1.459-.532,4.228,1.32,4.742a4.826,4.826,0,0,0-.715,4.189c.635,2.7,3.291,3.677,5.779,3.3.015.041.034.082.052.122a1.988,1.988,0,0,0-.261,1.207,3.268,3.268,0,0,0,1.473,2.824,3.681,3.681,0,0,0,5.192-1.038,2.745,2.745,0,0,0,.116.31,4.327,4.327,0,0,0,2.9,2.19c1.66.409,3.884-.279,4.6-1.916a2.74,2.74,0,0,0,2.732.343,5.992,5.992,0,0,0,2.911-2.381,4.9,4.9,0,0,0,.9-2.821c2.68,1.3,6-1.1,6.8-3.756A3.953,3.953,0,0,0,315.757,13.98Z" transform="translate(-282.405 2.585)" fill="#aea4a2"/>
          <path id="Trazado_16645" data-name="Trazado 16645" d="M316.206,18.488a5.8,5.8,0,0,1-2.393,2.842,4.267,4.267,0,0,1-3.819.175c-.013-.074-.028-.147-.046-.22a1.557,1.557,0,0,0-1.307-1.218,2.335,2.335,0,0,1,.4.309c.676.647.587,2.041.354,2.846a4.864,4.864,0,0,1-1.6,2.435c-1.141,1.02-2.84,1.663-4.2.928a2.692,2.692,0,0,0,.1-.443.13.13,0,0,0,0-.027,4.16,4.16,0,0,1-4.441,2.3,4.274,4.274,0,0,1-2.943-2.219,3.281,3.281,0,0,1-.434-1.714v0a3.046,3.046,0,0,0-.039,1.616,3.4,3.4,0,0,1-4.115,1.016,3.349,3.349,0,0,1-1.8-1.782,4.681,4.681,0,0,1-.327-1.836,1.448,1.448,0,0,0,.921.649.152.152,0,0,0,.079-.008,2.383,2.383,0,0,1-.9-1,3.278,3.278,0,0,1-.095-1.924,3.012,3.012,0,0,0-.253,1.722,6.973,6.973,0,0,1-2.542-.485,3.713,3.713,0,0,1-2.863-2.5c-.715-1.925.206-3.72,1.553-5.064a2.851,2.851,0,0,0-.862.5,3.791,3.791,0,0,1-1.344-3.636,3,3,0,0,1,2.844-2.722,4.473,4.473,0,0,0,2.036,1.907,2.635,2.635,0,0,0,1.006,2.129,4.291,4.291,0,0,1-.134-4.506,3.1,3.1,0,0,0-.88,1.81,7.5,7.5,0,0,1-1.738-2.055,4.2,4.2,0,0,1,.067-3.584,4.306,4.306,0,0,1,3.358-2.364,3.1,3.1,0,0,1,2.378.576,5.031,5.031,0,0,0,.535,1.375c.1.2.217.414.348.619-.029-.057-.055-.1-.074-.139a4.455,4.455,0,0,1-.561-2.65,4.262,4.262,0,0,1,1.883-3.159,3.5,3.5,0,0,1,.5-.309,4.025,4.025,0,0,1,3.537-.16,3.3,3.3,0,0,1,1.473,1.6,2.305,2.305,0,0,0-.8,1.059,2.93,2.93,0,0,1,2.935-1.15A2.026,2.026,0,0,1,303.6,1.21a5.125,5.125,0,0,0-1.956,1.611A5.626,5.626,0,0,1,303.337,1.6a4.316,4.316,0,0,1,2.507-.355c.106,0,.21,0,.315.012,1.984.158,4.42,1.623,4.336,3.886A3.5,3.5,0,0,0,308.983,6.3a3.86,3.86,0,0,1,1.5-.988,5.651,5.651,0,0,1,4.116.219,4.132,4.132,0,0,1,1.859,4.735,5.03,5.03,0,0,1-1.618,3.323,2.788,2.788,0,0,0-2.269.512,1.692,1.692,0,0,0-1.111-.5,1.978,1.978,0,0,1,.933.737,2.742,2.742,0,0,1,.5,1.384,1.667,1.667,0,0,0-.256-1.546A2.65,2.65,0,0,1,316,15.24,3.731,3.731,0,0,1,316.206,18.488Z" transform="translate(-282.71 2.31)" fill="#fff"/>
          <path id="Trazado_16646" data-name="Trazado 16646" d="M312.836,20.135a2.788,2.788,0,0,1,2.269-.512,5.03,5.03,0,0,0,1.618-3.323,5.022,5.022,0,0,0,.121-1.545,3.791,3.791,0,0,1-.318.7,6.855,6.855,0,0,1-1.85,1.943,6.322,6.322,0,0,1-2.18,1.1,4.53,4.53,0,0,1-1.981.1c.057.048.111.1.165.147a2.1,2.1,0,0,1,.8,1.026,4.833,4.833,0,0,1,.32.676,3.5,3.5,0,0,1-1.675,4.177,5.71,5.71,0,0,1-2.678.723,3.093,3.093,0,0,1-2.307-.967,6.526,6.526,0,0,1-1.49,3.46,5.177,5.177,0,0,1-6.416.965,4.792,4.792,0,0,1-1.108-.883c-.1.073-.2.144-.308.207a4.334,4.334,0,0,1-5.773-1.243,5.145,5.145,0,0,1-2.65.159,3.319,3.319,0,0,1-1.438-.535,3.273,3.273,0,0,1-1.589-2.753,2.89,2.89,0,0,1,.18-1.228,4.059,4.059,0,0,0-.324,3.457,3.714,3.714,0,0,0,2.863,2.5,6.973,6.973,0,0,0,2.542.485,3.012,3.012,0,0,1,.253-1.722,3.278,3.278,0,0,0,.095,1.924,2.382,2.382,0,0,0,.9,1,.152.152,0,0,1-.079.008,1.448,1.448,0,0,1-.921-.649,4.681,4.681,0,0,0,.327,1.836,3.349,3.349,0,0,0,1.8,1.782,3.4,3.4,0,0,0,4.115-1.016,3.046,3.046,0,0,1,.039-1.616v0a3.282,3.282,0,0,0,.434,1.714,4.274,4.274,0,0,0,2.943,2.219,4.16,4.16,0,0,0,4.441-2.3.132.132,0,0,1,0,.027,2.7,2.7,0,0,1-.1.443c1.362.736,3.061.092,4.2-.928a4.864,4.864,0,0,0,1.6-2.435c.233-.8.322-2.2-.354-2.846a2.335,2.335,0,0,0-.4-.309,1.557,1.557,0,0,1,1.307,1.218c.018.073.033.146.046.22a4.267,4.267,0,0,0,3.819-.175,5.805,5.805,0,0,0,2.393-2.842,3.731,3.731,0,0,0-.2-3.249,2.65,2.65,0,0,0-3.367-1.064,1.667,1.667,0,0,1,.256,1.546,2.742,2.742,0,0,0-.5-1.384,1.978,1.978,0,0,0-.933-.737A1.692,1.692,0,0,1,312.836,20.135Z" transform="translate(-282.976 -3.73)" fill="#d2d1c9" opacity="0.6" style="mix-blend-mode: multiply;isolation: isolate"/>
          <path id="Trazado_16647" data-name="Trazado 16647" d="M309.048.826a3.946,3.946,0,0,0-.406-.684,3.858,3.858,0,0,1-.245,1.42A2.4,2.4,0,0,1,309.048.826Z" transform="translate(-291.87 1.592)" fill="#d2d1c9" opacity="0.6" style="mix-blend-mode: multiply;isolation: isolate"/>
          <path id="Trazado_16648" data-name="Trazado 16648" d="M289.531,16.8a6.469,6.469,0,0,1,.343-4.092,4.227,4.227,0,0,1-2.215.062,2.925,2.925,0,0,1-1.593-1.1,3.532,3.532,0,0,0,.371,1.551,7.5,7.5,0,0,0,1.738,2.055,3.1,3.1,0,0,1,.88-1.81,4.291,4.291,0,0,0,.134,4.506,2.635,2.635,0,0,1-1.006-2.129,4.473,4.473,0,0,1-2.036-1.907A3,3,0,0,0,283.3,16.66a3.791,3.791,0,0,0,1.344,3.636,2.8,2.8,0,0,1,.533-.353,3.724,3.724,0,0,1,.346-.324,5.383,5.383,0,0,1,3.292-1.426,2.389,2.389,0,0,1,1.426.387A6.606,6.606,0,0,1,289.531,16.8Z" transform="translate(-282.71 -2.606)" fill="#d2d1c9" opacity="0.6" style="mix-blend-mode: multiply;isolation: isolate"/>
          <path id="Trazado_16649" data-name="Trazado 16649" d="M298.187,6.456a3.7,3.7,0,0,1,.762-1.37c-.061-.024-.123-.049-.186-.077a2.58,2.58,0,0,1-1.32-2.381c0-.066.007-.132.013-.2a5.23,5.23,0,0,0-.331,1.262,4.455,4.455,0,0,0,.561,2.65c.019.034.044.083.074.139-.131-.205-.244-.424-.348-.619a5.031,5.031,0,0,1-.535-1.375,3.351,3.351,0,0,0-.9-.467,3.328,3.328,0,0,1,.394.535A3.477,3.477,0,0,1,296.78,7,5.827,5.827,0,0,1,298.187,6.456Z" transform="translate(-287.345 0.759)" fill="#d2d1c9" opacity="0.6" style="mix-blend-mode: multiply;isolation: isolate"/>
          <path id="Trazado_16650" data-name="Trazado 16650" d="M309.869,2.125a4.754,4.754,0,0,1,1.963.507l.041.021a5.526,5.526,0,0,1,.738-.427,2.026,2.026,0,0,0-1.574-1.193,2.92,2.92,0,0,0-2.91,1.119c-.043.092-.088.18-.137.269A4.738,4.738,0,0,1,309.869,2.125Z" transform="translate(-291.722 1.295)" fill="#d2d1c9" opacity="0.6" style="mix-blend-mode: multiply;isolation: isolate"/>
          <path id="Trazado_16651" data-name="Trazado 16651" d="M324.3,7.853a3.86,3.86,0,0,0-1.5.988,3.5,3.5,0,0,1,1.512-1.148,3.226,3.226,0,0,0-1.157-2.531,3.58,3.58,0,0,1-.04,1.166,3.116,3.116,0,0,1-.491,1.206A7.174,7.174,0,0,1,321.189,9a7.569,7.569,0,0,1,.518,1.594,6.251,6.251,0,0,1,2.24-2.29,8.724,8.724,0,0,1,1.275-.671A4.961,4.961,0,0,0,324.3,7.853Z" transform="translate(-296.528 -0.236)" fill="#d2d1c9" opacity="0.6" style="mix-blend-mode: multiply;isolation: isolate"/>
          <path id="Trazado_16652" data-name="Trazado 16652" d="M299.582,40.2a4.194,4.194,0,0,1-3.088,1.426,4,4,0,0,1-2.227-.682,6.161,6.161,0,0,1-.6-.468c.023.069.045.123.059.156a3.349,3.349,0,0,0,1.8,1.782,3.4,3.4,0,0,0,4.115-1.016A3.155,3.155,0,0,1,299.582,40.2Z" transform="translate(-286.507 -12.996)" fill="#d2d1c9" opacity="0.6" style="mix-blend-mode: multiply;isolation: isolate"/>
          <path id="Trazado_16653" data-name="Trazado 16653" d="M288.552,31.594a8.1,8.1,0,0,1-1.16-.1,3.319,3.319,0,0,1-1.438-.535,3.273,3.273,0,0,1-1.589-2.753,2.89,2.89,0,0,1,.18-1.228,4.059,4.059,0,0,0-.324,3.457,3.714,3.714,0,0,0,2.863,2.5,6.432,6.432,0,0,0,1.721.432A6.6,6.6,0,0,1,288.552,31.594Z" transform="translate(-282.976 -8.182)" fill="#d2d1c9" opacity="0.6" style="mix-blend-mode: multiply;isolation: isolate"/>
          <path id="Trazado_16654" data-name="Trazado 16654" d="M315.921,32.654a3.445,3.445,0,0,1-.239,1.629,4.441,4.441,0,0,1-1.963,2.45,3.507,3.507,0,0,1-2.751.262c-.06-.024-.12-.048-.179-.074a4.326,4.326,0,0,1-.432.692,4.72,4.72,0,0,1-2.508,1.848,3.823,3.823,0,0,1-4.53-1.971c-.036-.084-.07-.169-.1-.254-.035.039-.069.08-.1.118a3.768,3.768,0,0,0,.437,1.4,4.274,4.274,0,0,0,2.943,2.219,4.16,4.16,0,0,0,4.441-2.3.13.13,0,0,1,0,.027,2.7,2.7,0,0,1-.1.443c1.362.736,3.061.092,4.2-.928a4.864,4.864,0,0,0,1.6-2.435c.233-.8.322-2.2-.354-2.846A2.427,2.427,0,0,0,315.921,32.654Z" transform="translate(-289.946 -10.248)" fill="#d2d1c9" opacity="0.6" style="mix-blend-mode: multiply;isolation: isolate"/>
          <path id="Trazado_16655" data-name="Trazado 16655" d="M333.953,15.189a9.5,9.5,0,0,1-.4,1.249,7.792,7.792,0,0,1-2.112,3.151,2.721,2.721,0,0,1,.947.034A5.03,5.03,0,0,0,334.01,16.3a5.021,5.021,0,0,0,.121-1.545A3.83,3.83,0,0,1,333.953,15.189Z" transform="translate(-300.264 -3.73)" fill="#d2d1c9" opacity="0.6" style="mix-blend-mode: multiply;isolation: isolate"/>
          <path id="Trazado_16656" data-name="Trazado 16656" d="M329.216,23.331a2.576,2.576,0,0,1,.4,3.474,5.6,5.6,0,0,1-2.259,1.782l.181-.076a5.077,5.077,0,0,1-2.155.581,4.057,4.057,0,0,1-1.826-.454,4.1,4.1,0,0,1-.579-.353l-.055.015a3.869,3.869,0,0,1,.211.937,1.559,1.559,0,0,1,1.265,1.211c.018.073.033.146.046.22a4.267,4.267,0,0,0,3.819-.175,5.805,5.805,0,0,0,2.393-2.842,3.731,3.731,0,0,0-.2-3.249A3.1,3.1,0,0,0,329.216,23.331Z" transform="translate(-297.159 -6.853)" fill="#d2d1c9" opacity="0.6" style="mix-blend-mode: multiply;isolation: isolate"/>
          <path id="Trazado_16657" data-name="Trazado 16657" d="M285.293,16.976a2.667,2.667,0,0,1,1.566-.774,4.347,4.347,0,0,1-.711-.966,3,3,0,0,0-2.844,2.722,3.791,3.791,0,0,0,1.344,3.636,2.7,2.7,0,0,1,.338-.242A3.561,3.561,0,0,1,285.293,16.976Z" transform="translate(-282.71 -3.905)" fill="#d2d1c9" opacity="0.6" style="mix-blend-mode: multiply;isolation: isolate"/>
        </g>
        <g id="Grupo_9676" data-name="Grupo 9676" transform="translate(53.325 19.287)">
          <path id="Trazado_16658" data-name="Trazado 16658" d="M353.345,37.027a1.484,1.484,0,0,0-.641-.389c1.3-1.216,1.836-3.591.3-4.871a3.2,3.2,0,0,0-2.756-.565,2.619,2.619,0,0,0-.263.085c.216-1.774-1.465-2.682-3.03-2.723a3,3,0,0,0-1.029.163,1.653,1.653,0,0,0-1.465-.94,2.031,2.031,0,0,0-1.05.284,2.557,2.557,0,0,0-.951-1.09,2.508,2.508,0,0,0-2.548.094,3.148,3.148,0,0,0-1.483,2.272,1.824,1.824,0,0,0,.01.5,2.167,2.167,0,0,0-1.265-.379,2.855,2.855,0,0,0-2.133,1,2.978,2.978,0,0,0-.469,3.138,1.934,1.934,0,0,0-1.861,1.335c-.374.912-.333,2.641.825,2.963a3.006,3.006,0,0,0,3.165,4.678c.01.026.022.051.033.076a1.241,1.241,0,0,0-.163.755,2.044,2.044,0,0,0,.921,1.765,2.3,2.3,0,0,0,3.245-.649,1.59,1.59,0,0,0,.073.194,2.7,2.7,0,0,0,1.813,1.368,2.556,2.556,0,0,0,2.873-1.2,1.709,1.709,0,0,0,1.707.214,3.742,3.742,0,0,0,1.819-1.488,3.058,3.058,0,0,0,.561-1.762c1.675.813,3.751-.685,4.247-2.348A2.468,2.468,0,0,0,353.345,37.027Z" transform="translate(-332.502 -26.675)" fill="#aea4a2"/>
          <path id="Trazado_16659" data-name="Trazado 16659" d="M353.625,39.844a3.631,3.631,0,0,1-1.5,1.776,2.666,2.666,0,0,1-2.387.11c-.008-.046-.017-.092-.029-.138a.974.974,0,0,0-.817-.761,1.494,1.494,0,0,1,.249.193,1.969,1.969,0,0,1,.221,1.779,3.04,3.04,0,0,1-1,1.522,2.393,2.393,0,0,1-2.625.579,1.807,1.807,0,0,0,.065-.276.154.154,0,0,0,0-.018,2.6,2.6,0,0,1-2.775,1.436,2.67,2.67,0,0,1-1.839-1.386,2.049,2.049,0,0,1-.271-1.071v0a1.906,1.906,0,0,0-.024,1.01,2.124,2.124,0,0,1-2.572.635,2.094,2.094,0,0,1-1.122-1.113,2.922,2.922,0,0,1-.2-1.147.9.9,0,0,0,.575.406.1.1,0,0,0,.05,0,1.492,1.492,0,0,1-.56-.627,2.051,2.051,0,0,1-.06-1.2,1.892,1.892,0,0,0-.158,1.076,4.376,4.376,0,0,1-1.588-.3,2.322,2.322,0,0,1-1.789-1.56,2.982,2.982,0,0,1,.97-3.165,1.807,1.807,0,0,0-.539.311,2.371,2.371,0,0,1-.839-2.273,1.873,1.873,0,0,1,1.777-1.7,2.8,2.8,0,0,0,1.272,1.192,1.648,1.648,0,0,0,.629,1.33,2.68,2.68,0,0,1-.084-2.815,1.934,1.934,0,0,0-.55,1.131,4.683,4.683,0,0,1-1.086-1.284,2.623,2.623,0,0,1,.042-2.24,2.693,2.693,0,0,1,2.1-1.477,1.936,1.936,0,0,1,1.487.36,3.151,3.151,0,0,0,.334.86c.066.122.136.259.218.387l-.046-.087a2.774,2.774,0,0,1-.35-1.656,2.66,2.66,0,0,1,1.177-1.974,2.141,2.141,0,0,1,.315-.193,2.516,2.516,0,0,1,2.21-.1,2.065,2.065,0,0,1,.921,1,1.439,1.439,0,0,0-.5.662,1.831,1.831,0,0,1,1.834-.718,1.266,1.266,0,0,1,.984.746,3.2,3.2,0,0,0-1.223,1.007,3.513,3.513,0,0,1,1.058-.76,2.7,2.7,0,0,1,1.567-.223c.066,0,.132,0,.2.008,1.24.1,2.762,1.014,2.709,2.428a2.188,2.188,0,0,0-.944.718,2.414,2.414,0,0,1,.937-.618,3.536,3.536,0,0,1,2.572.137,2.581,2.581,0,0,1,1.162,2.959,3.14,3.14,0,0,1-1.011,2.077,1.743,1.743,0,0,0-1.418.32,1.054,1.054,0,0,0-.694-.31,1.237,1.237,0,0,1,.583.46,1.722,1.722,0,0,1,.312.866,1.043,1.043,0,0,0-.16-.966,1.657,1.657,0,0,1,2.1.664A2.335,2.335,0,0,1,353.625,39.844Z" transform="translate(-332.693 -26.847)" fill="#fff"/>
          <path id="Trazado_16660" data-name="Trazado 16660" d="M351.519,40.873a1.743,1.743,0,0,1,1.418-.32,3.14,3.14,0,0,0,1.011-2.077,3.126,3.126,0,0,0,.076-.965,2.344,2.344,0,0,1-.2.436,4.27,4.27,0,0,1-1.156,1.215,3.981,3.981,0,0,1-1.362.688,2.828,2.828,0,0,1-1.239.063c.035.03.069.061.1.092a1.31,1.31,0,0,1,.5.641,2.988,2.988,0,0,1,.2.423,2.184,2.184,0,0,1-1.047,2.611,3.575,3.575,0,0,1-1.674.451,1.933,1.933,0,0,1-1.441-.6,4.08,4.08,0,0,1-.931,2.162,3.235,3.235,0,0,1-4.01.6,2.958,2.958,0,0,1-.692-.552c-.064.046-.128.09-.193.129a2.708,2.708,0,0,1-3.608-.776,3.208,3.208,0,0,1-1.656.1,2.077,2.077,0,0,1-.9-.334,2.14,2.14,0,0,1-.715-.725,2.113,2.113,0,0,1-.278-1,1.81,1.81,0,0,1,.113-.767,2.538,2.538,0,0,0-.2,2.161,2.322,2.322,0,0,0,1.789,1.56,4.376,4.376,0,0,0,1.588.3,1.892,1.892,0,0,1,.158-1.076,2.051,2.051,0,0,0,.06,1.2,1.492,1.492,0,0,0,.56.627.1.1,0,0,1-.05,0,.9.9,0,0,1-.575-.406,2.922,2.922,0,0,0,.2,1.147,2.093,2.093,0,0,0,1.122,1.113,2.124,2.124,0,0,0,2.572-.635,1.906,1.906,0,0,1,.024-1.01v0a2.049,2.049,0,0,0,.271,1.071A2.67,2.67,0,0,0,343.2,49.82a2.6,2.6,0,0,0,2.775-1.436.161.161,0,0,1,0,.018,1.8,1.8,0,0,1-.065.276,2.393,2.393,0,0,0,2.625-.579,3.04,3.04,0,0,0,1-1.522,1.969,1.969,0,0,0-.221-1.779,1.494,1.494,0,0,0-.249-.193.974.974,0,0,1,.817.761c.011.046.021.092.029.138a2.666,2.666,0,0,0,2.387-.11,3.631,3.631,0,0,0,1.5-1.776,2.335,2.335,0,0,0-.127-2.03,1.657,1.657,0,0,0-2.1-.664,1.043,1.043,0,0,1,.16.966,1.722,1.722,0,0,0-.312-.866,1.237,1.237,0,0,0-.583-.46A1.054,1.054,0,0,1,351.519,40.873Z" transform="translate(-332.859 -30.621)" fill="#d2d1c9" opacity="0.6" style="mix-blend-mode: multiply;isolation: isolate"/>
          <path id="Trazado_16661" data-name="Trazado 16661" d="M349.152,28.806a2.507,2.507,0,0,0-.254-.427,2.418,2.418,0,0,1-.153.888A1.492,1.492,0,0,1,349.152,28.806Z" transform="translate(-338.417 -27.295)" fill="#d2d1c9" opacity="0.6" style="mix-blend-mode: multiply;isolation: isolate"/>
          <path id="Trazado_16662" data-name="Trazado 16662" d="M336.955,38.788a4.039,4.039,0,0,1,.215-2.557,2.632,2.632,0,0,1-1.384.038,1.826,1.826,0,0,1-1-.685,2.2,2.2,0,0,0,.232.97,4.683,4.683,0,0,0,1.086,1.284,1.934,1.934,0,0,1,.55-1.131,2.68,2.68,0,0,0,.084,2.815,1.648,1.648,0,0,1-.629-1.33A2.8,2.8,0,0,1,334.841,37a1.873,1.873,0,0,0-1.777,1.7,2.371,2.371,0,0,0,.839,2.273,1.735,1.735,0,0,1,.334-.221,2.276,2.276,0,0,1,.216-.2,3.364,3.364,0,0,1,2.058-.892,1.492,1.492,0,0,1,.891.242A4.123,4.123,0,0,1,336.955,38.788Z" transform="translate(-332.693 -29.919)" fill="#d2d1c9" opacity="0.6" style="mix-blend-mode: multiply;isolation: isolate"/>
          <path id="Trazado_16663" data-name="Trazado 16663" d="M342.365,32.325a2.309,2.309,0,0,1,.476-.856l-.116-.048a1.612,1.612,0,0,1-.824-1.489q0-.062.008-.124a3.259,3.259,0,0,0-.207.788,2.774,2.774,0,0,0,.35,1.656l.046.087c-.082-.128-.152-.265-.218-.387a3.149,3.149,0,0,1-.334-.86,2.089,2.089,0,0,0-.566-.292,2.114,2.114,0,0,1,.247.334,2.172,2.172,0,0,1,.259,1.528A3.636,3.636,0,0,1,342.365,32.325Z" transform="translate(-335.589 -27.816)" fill="#d2d1c9" opacity="0.6" style="mix-blend-mode: multiply;isolation: isolate"/>
          <path id="Trazado_16664" data-name="Trazado 16664" d="M349.665,29.617a2.979,2.979,0,0,1,1.227.317l.025.014a3.364,3.364,0,0,1,.462-.267,1.266,1.266,0,0,0-.984-.746,1.823,1.823,0,0,0-1.818.7c-.027.057-.056.112-.086.168A2.973,2.973,0,0,1,349.665,29.617Z" transform="translate(-338.325 -27.481)" fill="#d2d1c9" opacity="0.6" style="mix-blend-mode: multiply;isolation: isolate"/>
          <path id="Trazado_16665" data-name="Trazado 16665" d="M358.683,33.2a2.414,2.414,0,0,0-.937.618,2.188,2.188,0,0,1,.944-.718,2.012,2.012,0,0,0-.723-1.581,2.249,2.249,0,0,1-.025.729,1.941,1.941,0,0,1-.308.753,4.466,4.466,0,0,1-.9.914,4.72,4.72,0,0,1,.324,1,3.91,3.91,0,0,1,1.4-1.431,5.434,5.434,0,0,1,.8-.419A3.058,3.058,0,0,0,358.683,33.2Z" transform="translate(-341.328 -28.438)" fill="#d2d1c9" opacity="0.6" style="mix-blend-mode: multiply;isolation: isolate"/>
          <path id="Trazado_16666" data-name="Trazado 16666" d="M343.236,53.414a2.62,2.62,0,0,1-1.929.891,2.5,2.5,0,0,1-1.392-.426,3.908,3.908,0,0,1-.374-.292c.015.043.028.077.037.1A2.093,2.093,0,0,0,340.7,54.8a2.124,2.124,0,0,0,2.572-.635A1.984,1.984,0,0,1,343.236,53.414Z" transform="translate(-335.065 -36.412)" fill="#d2d1c9" opacity="0.6" style="mix-blend-mode: multiply;isolation: isolate"/>
          <path id="Trazado_16667" data-name="Trazado 16667" d="M336.344,48.034a5.037,5.037,0,0,1-.725-.06,2.078,2.078,0,0,1-.9-.334,2.14,2.14,0,0,1-.715-.725,2.113,2.113,0,0,1-.278-1,1.81,1.81,0,0,1,.113-.767,2.538,2.538,0,0,0-.2,2.161,2.322,2.322,0,0,0,1.789,1.56,4.023,4.023,0,0,0,1.076.27A4.115,4.115,0,0,1,336.344,48.034Z" transform="translate(-332.859 -33.403)" fill="#d2d1c9" opacity="0.6" style="mix-blend-mode: multiply;isolation: isolate"/>
          <path id="Trazado_16668" data-name="Trazado 16668" d="M353.447,48.7a2.158,2.158,0,0,1-.149,1.018,2.778,2.778,0,0,1-1.227,1.531,2.192,2.192,0,0,1-1.719.164l-.112-.046a2.719,2.719,0,0,1-.27.432A2.944,2.944,0,0,1,348.4,52.95a2.388,2.388,0,0,1-2.831-1.232c-.022-.053-.044-.106-.064-.159l-.065.074a2.356,2.356,0,0,0,.273.873,2.67,2.67,0,0,0,1.84,1.386,2.6,2.6,0,0,0,2.775-1.436.161.161,0,0,1,0,.018,1.8,1.8,0,0,1-.065.276,2.393,2.393,0,0,0,2.625-.579,3.04,3.04,0,0,0,1-1.522,1.969,1.969,0,0,0-.221-1.779A1.483,1.483,0,0,0,353.447,48.7Z" transform="translate(-337.214 -34.694)" fill="#d2d1c9" opacity="0.6" style="mix-blend-mode: multiply;isolation: isolate"/>
          <path id="Trazado_16669" data-name="Trazado 16669" d="M364.716,37.782a5.9,5.9,0,0,1-.247.781,4.869,4.869,0,0,1-1.319,1.969,1.694,1.694,0,0,1,.591.021,3.14,3.14,0,0,0,1.011-2.077,3.125,3.125,0,0,0,.076-.965A2.325,2.325,0,0,1,364.716,37.782Z" transform="translate(-343.662 -30.621)" fill="#d2d1c9" opacity="0.6" style="mix-blend-mode: multiply;isolation: isolate"/>
          <path id="Trazado_16670" data-name="Trazado 16670" d="M361.755,42.87A1.61,1.61,0,0,1,362,45.041a3.5,3.5,0,0,1-1.412,1.113l.113-.048a3.163,3.163,0,0,1-1.347.363,2.647,2.647,0,0,1-1.5-.5l-.034.01a2.426,2.426,0,0,1,.132.586.973.973,0,0,1,.79.756c.011.046.021.092.029.138a2.666,2.666,0,0,0,2.387-.11,3.631,3.631,0,0,0,1.5-1.776,2.335,2.335,0,0,0-.127-2.03A1.94,1.94,0,0,0,361.755,42.87Z" transform="translate(-341.722 -32.572)" fill="#d2d1c9" opacity="0.6" style="mix-blend-mode: multiply;isolation: isolate"/>
          <path id="Trazado_16671" data-name="Trazado 16671" d="M334.307,38.9a1.663,1.663,0,0,1,.979-.484,2.718,2.718,0,0,1-.445-.6,1.873,1.873,0,0,0-1.777,1.7,2.371,2.371,0,0,0,.839,2.273,1.838,1.838,0,0,1,.211-.152A2.224,2.224,0,0,1,334.307,38.9Z" transform="translate(-332.693 -30.731)" fill="#d2d1c9" opacity="0.6" style="mix-blend-mode: multiply;isolation: isolate"/>
        </g>
        <path id="Trazado_16672" data-name="Trazado 16672" d="M310.3,51.913c.079-.086.045-.241-.069-.127a5.054,5.054,0,0,0-1.843,2.9,3.4,3.4,0,0,0,.477,1.741c1.113,2.648,2.562,4.916,1.05,7.872-2.4,4.692-.854,9.869.142,14.828.055.277.447-.113.415-.3-.346-2.09-.8-4.16-1.156-6.248a13.187,13.187,0,0,1,1.237-8.978C312.666,59.442,306.574,55.915,310.3,51.913Z" transform="translate(-284.866 -13.011)" fill="#fff"/>
        <path id="Trazado_16673" data-name="Trazado 16673" d="M322.488,47.173C319.051,51,320.8,55.188,321.841,59.7c.785,3.409-.063,6.9-.586,10.281a27.213,27.213,0,0,0,.6,10.04c.062.307.494-.125.458-.336-.49-2.939-1.188-5.7-.893-8.712.245-2.507.882-4.96,1.069-7.483.411-5.545-4.275-11.2.037-16.241C322.569,47.195,322.549,47.1,322.488,47.173Z" transform="translate(-286.121 -11.336)" fill="#fff"/>
        <path id="Trazado_16674" data-name="Trazado 16674" d="M332.935,55.024c.1-.083.156-.37-.036-.237-1.418.98-2.682,1.394-3.5,3.013-.884,1.757-.133,3.692.4,5.425,1.08,3.527-.274,7.181-1.038,10.612a33.715,33.715,0,0,0-.825,8.218c.011.4.621-.138.635-.381.265-4.689,1.381-9.019,2.187-13.611a14.152,14.152,0,0,0-.235-5.37c-.184-.879-.537-1.738-.743-2.618C329.113,57.216,331.438,56.3,332.935,55.024Z" transform="translate(-286.092 -14.105)" fill="#fff"/>
      </g>
    </g>
  </g>
</svg>
