<svg xmlns="http://www.w3.org/2000/svg" width="220" height="220" viewBox="0 0 220 220">
  <g id="Grupo_9878" data-name="Grupo 9878" transform="translate(-390 -2158)">
    <g id="Elipse_562" data-name="Elipse 562" transform="translate(390 2158)" fill="#f4f4f4" stroke="#fdac29" stroke-width="2">
      <circle cx="110" cy="110" r="110" stroke="none"/>
      <circle cx="110" cy="110" r="109" fill="none"/>
    </g>
    <g id="Grupo_9680" data-name="Grupo 9680" transform="translate(-388 -287.65)">
      <g id="Grupo_9679" data-name="Grupo 9679" transform="translate(796 2544.158)">
        <path id="Trazado_14285" data-name="Trazado 14285" d="M291.016,1337.964c-4.03-.466-9.671-4.133-5.831-8.426,3.107-3.122,9.017-1.815,11.563,1.419C299.266,1334.808,294.983,1338.787,291.016,1337.964Z" transform="translate(-260.967 -1299.02)" fill="#513636"/>
        <path id="Trazado_14286" data-name="Trazado 14286" d="M328.832,1320.067c-7.934,2.216-10.953-9.067-2.783-10.69C334.146,1307.055,338.51,1321.107,328.832,1320.067Z" transform="translate(-286.819 -1286.102)" fill="#513636"/>
        <path id="Trazado_14287" data-name="Trazado 14287" d="M360.891,1312.265c-4.45-1.068-3.311-7.931,1.165-7.75C368.367,1304.664,367.066,1315.082,360.891,1312.265Z" transform="translate(-312.364 -1282.91)" fill="#513636"/>
        <path id="Trazado_14288" data-name="Trazado 14288" d="M383.743,1283.226a3.9,3.9,0,0,1-2.768-1.629c-3.474-2.1-.784-7.6.9-10.227,2.865-4.722,8.338-7.934,13.927-7.39,9.014.342,9.383,11.857,1.569,14.67C389.833,1278.9,390.063,1283.418,383.743,1283.226Z" transform="translate(-327.064 -1254.781)" fill="#513636"/>
        <path id="Trazado_14289" data-name="Trazado 14289" d="M452.751,1253.377a3.137,3.137,0,0,1-1.389-.466c-8.181-.561-7.713-11.86.217-12.466C460.313,1239.588,461.831,1253.438,452.751,1253.377Z" transform="translate(-372.9 -1238.487)" fill="#513636"/>
        <path id="Trazado_14290" data-name="Trazado 14290" d="M478.4,1244.165a5.837,5.837,0,0,1-1.907-2.928c-4.848-1.178,1.026-8.242,4.431-6.92C488.255,1235.8,486.112,1248.7,478.4,1244.165Z" transform="translate(-393.149 -1234.152)" fill="#513636"/>
        <path id="Trazado_14291" data-name="Trazado 14291" d="M497.337,1257.429a1.2,1.2,0,0,1,2.409,0A1.2,1.2,0,0,1,497.337,1257.429Z" transform="translate(-408.873 -1249.473)" fill="#513636"/>
        <path id="Trazado_14292" data-name="Trazado 14292" d="M509.089,1246.248c-4.272-1.572-2.438-9.649,2.487-7.972C517.082,1239.5,514.071,1247.6,509.089,1246.248Z" transform="translate(-415.36 -1236.852)" fill="#513636"/>
        <path id="Trazado_14293" data-name="Trazado 14293" d="M526.326,1255.586a1.82,1.82,0,0,1-.281-2.183c-2.171-.939-.3-2.843,1.389-2.026C530.359,1252.253,529.6,1257.816,526.326,1255.586Z" transform="translate(-428.087 -1245.952)" fill="#513636"/>
        <path id="Trazado_14294" data-name="Trazado 14294" d="M541.33,1261.351c-1.685-.8-2.424-2.779-4.06-3.707-1.237-.89-3.424-1.232-3.115-3.214a5.867,5.867,0,0,1,7.6-4C546.842,1251.468,547.839,1263.088,541.33,1261.351Z" transform="translate(-434.367 -1245.226)" fill="#513636"/>
        <path id="Trazado_14295" data-name="Trazado 14295" d="M565.257,1270.94c-2.078-.164-4.442-2-3.318-4.247-.387-3.314,3.775-5.935,6.609-4.2C573.778,1265.635,571.12,1271.723,565.257,1270.94Z" transform="translate(-453.441 -1253.41)" fill="#513636"/>
        <path id="Trazado_14296" data-name="Trazado 14296" d="M594.487,1275.983a2.172,2.172,0,0,1-1.438-1.23c-3.851-1.094-.935-6.207,2.267-5.517C600.6,1269.143,599.54,1277.525,594.487,1275.983Z" transform="translate(-473.928 -1258.421)" fill="#513636"/>
        <path id="Trazado_14297" data-name="Trazado 14297" d="M612.231,1289.423c-3.821-.295-11.041-3.665-8.247-8.365,1.9-5.505,10.665-3.118,13.257.738C619.537,1285.291,616.3,1290,612.231,1289.423Z" transform="translate(-482.344 -1264.415)" fill="#513636"/>
        <path id="Trazado_14298" data-name="Trazado 14298" d="M648.306,1300.625c-1.766-.2-3.474-2.176-2.505-3.913-.253-2.426,2.48-3.882,4.619-3.413C655.468,1294.95,653.37,1301.568,648.306,1300.625Z" transform="translate(-511.562 -1275.08)" fill="#513636"/>
        <path id="Trazado_14299" data-name="Trazado 14299" d="M677.186,1310.768c-.528-.424-.429-1.135-.637-1.681a2.027,2.027,0,0,1-3.245-1.043,1.57,1.57,0,0,0-.826.079.8.8,0,0,1-.989.212l.016.008c-2.944-1.825,2.176-5.169,4.015-3.033C680.55,1302.552,682.856,1313.343,677.186,1310.768Z" transform="translate(-528.951 -1282.986)" fill="#513636"/>
        <path id="Trazado_14300" data-name="Trazado 14300" d="M667.24,1313.723a2.779,2.779,0,0,1-1.177-.68c.038.033.075.066.112.1a1.32,1.32,0,0,0-1.038-.405c.1.006.206.014.311.019-2.048.083-3.344-1.693-5.118-2.382-2.214.384-4.043-2.283-1.888-3.712h0c2.012-1.049,8.909,1.608,10.73,2.869C670.965,1311.087,669.724,1314.387,667.24,1313.723Z" transform="translate(-519.849 -1284.235)" fill="#513636"/>
        <path id="Trazado_14301" data-name="Trazado 14301" d="M696.72,1315.93c-9.15-2.341-2.392-11.663,4.1-7.854C705.776,1310.818,701.977,1319.221,696.72,1315.93Z" transform="translate(-543.956 -1284.754)" fill="#513636"/>
        <path id="Trazado_14302" data-name="Trazado 14302" d="M505.391,1282.364c-11.969-1.885-11.822-17.746,1.253-17.532C520.769,1265.312,519.258,1283.9,505.391,1282.364Z" transform="translate(-408.375 -1255.411)" fill="#513636"/>
        <path id="Trazado_14303" data-name="Trazado 14303" d="M415.506,1326.072c-9.4-2.719-5.446-15.725,3.59-14.75C428.93,1313.034,424.666,1328.328,415.506,1326.072Z" transform="translate(-348.423 -1287.594)" fill="#513636"/>
        <path id="Trazado_14304" data-name="Trazado 14304" d="M408.65,1314.6a8.529,8.529,0,0,0-.478-2.4q-.228-.059-.459-.113a2.452,2.452,0,0,0-.464.46A3.363,3.363,0,0,0,408.65,1314.6Zm1.662,2.985c-7.547-.006-10.53-9.87-1.974-10.744,4.224-.181,7.207,6.253,4.442,9.329a.9.9,0,0,1-.833,1.364,1,1,0,0,0,.189,0A6.667,6.667,0,0,1,410.312,1317.59Z" transform="translate(-343.6 -1284.526)" fill="#513636"/>
        <path id="Trazado_14305" data-name="Trazado 14305" d="M511.264,1257.319c-6.681-1.033-2.236-11.933,2.648-6.488C518.811,1252.086,515.288,1258.39,511.264,1257.319Z" transform="translate(-416.176 -1244.66)" fill="#634343"/>
        <path id="Trazado_14306" data-name="Trazado 14306" d="M488.08,1266.017c-2.15-2.166-.991-6.8,2.5-5.985,2.072-1.846,5.878-.068,5.3,2.8C495.111,1265.755,490.535,1269.039,488.08,1266.017Z" transform="translate(-401.707 -1251.564)" fill="#634343"/>
        <path id="Trazado_14307" data-name="Trazado 14307" d="M466.873,1286.468c-.237-.84,1.145-1.226,1.368-.381S467.1,1287.319,466.873,1286.468Z" transform="translate(-387.743 -1269.815)" fill="#634343"/>
        <path id="Trazado_14308" data-name="Trazado 14308" d="M449.226,1288.54c-3.319-.373-5.929-3.966-5.954-7.147,0,.029,0,.058-.005.087-1.116-4.977,1.825-10.876,7.528-10.327,7.389-5.555,15.99,6.951,8.794,11.748C458.358,1287.2,453.349,1289.085,449.226,1288.54Z" transform="translate(-371.24 -1258.826)" fill="#634343"/>
        <path id="Trazado_14309" data-name="Trazado 14309" d="M555.316,1294.173c-8.264-2.306-5.309-17.039,3.71-14.272C568.337,1283.353,565.359,1296.15,555.316,1294.173Z" transform="translate(-445.682 -1265.616)" fill="#634343"/>
        <path id="Trazado_14310" data-name="Trazado 14310" d="M585.444,1289.184a2.713,2.713,0,0,1-.753-2.3c-5.518-2.785,1.5-8.768,5.134-5C594.072,1284.723,589.922,1292.767,585.444,1289.184Z" transform="translate(-467.993 -1266.389)" fill="#634343"/>
        <path id="Trazado_14311" data-name="Trazado 14311" d="M432.495,1308.456c-2.859-5.16,6.631-6.98,4.977-1.147C438.112,1310.35,433.644,1310.822,432.495,1308.456Z" transform="translate(-363.563 -1282.339)" fill="#634343"/>
        <path id="Trazado_14312" data-name="Trazado 14312" d="M375.682,1326.059c-8.207.81-12.759-9.45-2.956-11.1C379.651,1313.911,387.288,1327.347,375.682,1326.059Z" transform="translate(-318.667 -1290.11)" fill="#634343"/>
        <path id="Trazado_14313" data-name="Trazado 14313" d="M356.021,1329.107a2.656,2.656,0,0,1,.447-3.507l-.141.125c.06-.055.119-.106.18-.158l-.029.025C362.284,1322.5,360.337,1333.034,356.021,1329.107Z" transform="translate(-310.617 -1297.118)" fill="#634343"/>
        <path id="Trazado_14314" data-name="Trazado 14314" d="M643.071,1317.142c-2.148-.142-4.133-1.116-6.178-1.712l.159.057-.282-.1h0c-7.946-1.637-7.272-8.556.735-7.549,2.764.865,5.771,1.958,7.663,4.257,1.685,1.5,2.108,5.246-1.024,4.829A2.58,2.58,0,0,1,643.071,1317.142Z" transform="translate(-501.6 -1285.147)" fill="#634343"/>
        <path id="Trazado_14315" data-name="Trazado 14315" d="M511.724,1341.651c-3.758-1.306,1.555-5.313,1.674-1.279l.007-.036c-.012.065-.023.13-.04.193l.014-.068A1.507,1.507,0,0,1,511.724,1341.651Z" transform="translate(-417.912 -1306.545)" fill="#3f2828"/>
        <path id="Trazado_14316" data-name="Trazado 14316" d="M477.754,1316.726c-11.325-2.5-6.631-17.961,3.8-16.526C492.011,1302.924,491.223,1321.769,477.754,1316.726Z" transform="translate(-390.756 -1279.857)" fill="#3f2828"/>
        <path id="Trazado_14317" data-name="Trazado 14317" d="M436.1,1336.84a7.731,7.731,0,0,1-5.47-2.557c-12.679-2.021,8.283-23.733,13.258-8.237C448.279,1331.1,441.682,1337.821,436.1,1336.84Z" transform="translate(-359.862 -1293.993)" fill="#3f2828"/>
        <path id="Trazado_14318" data-name="Trazado 14318" d="M474.447,1355.317c-5.529-.874-4.754-7.909-.616-10.19C482.359,1341.565,484.493,1356.037,474.447,1355.317Z" transform="translate(-390.285 -1310.665)" fill="#3f2828"/>
        <path id="Trazado_14319" data-name="Trazado 14319" d="M530.152,1318.476c-12.927-1.716-6.645-15.363,3.535-12.787C540.624,1308.58,537.668,1319.558,530.152,1318.476Z" transform="translate(-426.574 -1283.503)" fill="#3f2828"/>
        <path id="Trazado_14320" data-name="Trazado 14320" d="M585.849,1315.5c-5.011-1.23-13.077-.779-16.548-4.718l.047.091c-.026-.052-.051-.1-.073-.159v0c-1.061-3.124,4.252-3.087,5.081-5.925l-.037.055c.054-.08.109-.159.164-.239l-.025.035a7.344,7.344,0,0,1,4.964-3.659l-.319.113c4.434-1.7,10.663,1.926,11.249,6.588C596.529,1311.892,591.558,1316.21,585.849,1315.5Z" transform="translate(-458.629 -1280.252)" fill="#3f2828"/>
        <path id="Trazado_14321" data-name="Trazado 14321" d="M659.765,1328.563c-9.823-1.949-12.22-13.111.591-10.793-.095-.007-.191-.014-.286-.019a5.118,5.118,0,0,0,.574,0l-.125.007a7.963,7.963,0,0,1,1.069,0l-.322-.021c3.015.069,5.766,1.557,8.325,3.027l-.16-.108c2.206.911,3.27,4.137,1.175,5.727C667.367,1327.99,663.334,1328.326,659.765,1328.563Z" transform="translate(-515.748 -1291.88)" fill="#3f2828"/>
        <path id="Trazado_14322" data-name="Trazado 14322" d="M325.484,1346.012c-14.006.556-10.217-13.782,1.7-10.563a3.753,3.753,0,0,1,6.128,1.684l-.113-.22C335.8,1342.452,331.215,1347.207,325.484,1346.012Z" transform="translate(-283.559 -1303.674)" fill="#3f2828"/>
        <path id="Trazado_14323" data-name="Trazado 14323" d="M412.629,1367.159c.2-.059.4-.122.593-.186A.958.958,0,0,0,412.629,1367.159Zm-1.34,5.816c-1.692-.541-3.574.076-5.159-.813-10.435.837-4.807-14.284,3.042-8,1.671-2.348,5.307-2.819,7.813-1.675C422.239,1366.208,416.624,1373.807,411.289,1372.975Z" transform="translate(-341.717 -1322.673)" fill="#3f2828"/>
        <path id="Trazado_14324" data-name="Trazado 14324" d="M509.222,1341.571c-10.659-2.032-4.563-16.45,4.74-12.239C522.705,1332.226,516.471,1342.691,509.222,1341.571Z" transform="translate(-413.202 -1299.579)" fill="#634343"/>
        <path id="Trazado_14325" data-name="Trazado 14325" d="M550.893,1340.312c-2.107-.325-4.387-1.582-5.067-3.717-5.571-7.323,7.013-13.725,13.258-11.186,4.546,1.465,14.221,6.9,9.145,12.328-2.277,1.431-5.15,1.055-7.712,1.031C557.305,1339.23,554.185,1340.484,550.893,1340.312Z" transform="translate(-441.514 -1297)" fill="#634343"/>
        <path id="Trazado_14326" data-name="Trazado 14326" d="M632.437,1336.635c-3.757.058-5.323-5.277-2.176-7.327,3-2.41,9.389-1.2,10.531,2.7C640.858,1335.727,635.413,1336.9,632.437,1336.635Z" transform="translate(-499.82 -1299.234)" fill="#634343"/>
        <path id="Trazado_14327" data-name="Trazado 14327" d="M361.758,1352.279c-3.289-.545-4-3.822-5.893-5.937-4.727-4.67.98-10.22,6.376-9.278,4.926.521,11.031.367,14.9,3.794,3.849,4.749-1.981,9.333-6.458,10.314C369.178,1352.325,363.828,1352.713,361.758,1352.279Z" transform="translate(-309.615 -1305.396)" fill="#4c3333"/>
        <path id="Trazado_14328" data-name="Trazado 14328" d="M421.735,1360.523c-3.346-.3-2.984-5.872.551-4.9C426.372,1354.483,425.342,1361.286,421.735,1360.523Z" transform="translate(-354.877 -1318.239)" fill="#4c3333"/>
        <path id="Trazado_14329" data-name="Trazado 14329" d="M620.184,1363.387c-4.9.316-9.3-4.64-4.632-8.442,4.312-3.041,13.47-2.531,14.7,3.554C630.069,1363.407,623.918,1363.763,620.184,1363.387Z" transform="translate(-489.419 -1316.601)" fill="#4c3333"/>
        <path id="Trazado_14330" data-name="Trazado 14330" d="M539.477,1370.62a5.337,5.337,0,0,1-3.443-.89c-4.734,1.684-11.215.028-10.144-6.157,2.14-4.207,9.648-4.627,12.189-.59C546.916,1359.03,549.327,1371.784,539.477,1370.62Z" transform="translate(-428.579 -1321.485)" fill="#4c3333"/>
        <path id="Trazado_14331" data-name="Trazado 14331" d="M726.683,1364.058a5.936,5.936,0,0,1-3.224-.858c-3.8-.031-3.391-4.526-.4-5.668-.064.043-.129.086-.193.132,2.566-1.594,7.62-2.594,8.25,1.512C735.168,1362.6,730.115,1364.979,726.683,1364.058Z" transform="translate(-563.67 -1318.785)" fill="#4c3333"/>
        <path id="Trazado_14332" data-name="Trazado 14332" d="M749.148,1330.029c-1.814-.269-4.489-.548-5.206-2.526-2.636-3.476,3.723-5.089,6.114-3.472h0C756.653,1324.206,755.015,1330.551,749.148,1330.029Z" transform="translate(-579.332 -1296.001)" fill="#634343"/>
        <path id="Trazado_14333" data-name="Trazado 14333" d="M790.484,1338.351c-2.039-2.158,1.7-4.97,3.581-3.039C796.162,1337.542,792.386,1340.749,790.484,1338.351Z" transform="translate(-611.611 -1303.807)" fill="#634343"/>
        <path id="Trazado_14334" data-name="Trazado 14334" d="M726.269,1342.624c-3.342-1.549.555-6.069,2.761-3.531C731.755,1340.462,728.374,1343.912,726.269,1342.624Z" transform="translate(-566.619 -1306.35)" fill="#634343"/>
        <path id="Trazado_14335" data-name="Trazado 14335" d="M616.932,1414.645c-5.108.173-4.74-5.051-.086-5.23l-.078-.006c1.18.033,2.408-.443,3.553-.017h0C624.693,1411.7,620.48,1415.239,616.932,1414.645Z" transform="translate(-489.184 -1355.468)" fill="#634343"/>
        <path id="Trazado_14336" data-name="Trazado 14336" d="M530,1386.282a2.829,2.829,0,0,1-1.732-.842c-6.282-3.542,4.615-9.709,8.057-6.009C539.293,1383.027,533.552,1387.247,530,1386.282Z" transform="translate(-428.98 -1334.038)" fill="#634343"/>
        <path id="Trazado_14337" data-name="Trazado 14337" d="M535.271,1421.543c-3.117-.684-.656-4.59,1.746-3.626C539.665,1418.889,537.489,1422.135,535.271,1421.543Z" transform="translate(-434.145 -1361.393)" fill="#634343"/>
        <path id="Trazado_14338" data-name="Trazado 14338" d="M509.042,1419.326c-.548-1.167.588-2.807,1.889-2.237C514.537,1417.782,510.683,1422.318,509.042,1419.326Z" transform="translate(-416.887 -1360.844)" fill="#634343"/>
        <path id="Trazado_14339" data-name="Trazado 14339" d="M484.711,1400.864c-4.727-2.407,1.068-6.605,4.343-6.322l-.2.013a2.8,2.8,0,0,1,2.141,5.162.556.556,0,0,0,.08-.036A14.258,14.258,0,0,1,484.711,1400.864Z" transform="translate(-398.887 -1345.216)" fill="#634343"/>
        <path id="Trazado_14340" data-name="Trazado 14340" d="M458.815,1407.124c-1.657-2.06,1.8-4.4,3.613-3.021,1.625,1.055.6,4.137-1.388,3.628A2.337,2.337,0,0,1,458.815,1407.124Z" transform="translate(-381.875 -1351.639)" fill="#634343"/>
        <path id="Trazado_14341" data-name="Trazado 14341" d="M413.936,1443.279c-4.3-.554.36-4.722,2.529-2.581C417.9,1442.282,415.406,1443.71,413.936,1443.279Z" transform="translate(-349.858 -1376.865)" fill="#634343"/>
        <path id="Trazado_14342" data-name="Trazado 14342" d="M391.206,1424.293c-.636-2.87,6.056-5.285,6.767-1.977C398.533,1424.834,392.117,1426.43,391.206,1424.293Z" transform="translate(-335.296 -1363.441)" fill="#634343"/>
        <path id="Trazado_14343" data-name="Trazado 14343" d="M407.962,1394.274c-11.152-.828-3.043-11.569,4.2-8.106C416.621,1389.014,412.658,1395.483,407.962,1394.274Z" transform="translate(-343.129 -1339.022)" fill="#634343"/>
        <path id="Trazado_14344" data-name="Trazado 14344" d="M364.547,1382.87c-11.932-2.071,3.936-17.33,8.106-7.413C375.141,1380.865,368.778,1382.87,364.547,1382.87Z" transform="translate(-313.826 -1329.774)" fill="#634343"/>
        <path id="Trazado_14345" data-name="Trazado 14345" d="M315.621,1362.6c-2.409.485-4.045-2.784-2.661-4.6,2.308-2.805,10.127-3.074,8.307,2.09-1.157,2.173-3.718,2.546-5.947,2.529C315.42,1362.612,315.519,1362.607,315.621,1362.6Z" transform="translate(-280.75 -1318.604)" fill="#634343"/>
        <path id="Trazado_14346" data-name="Trazado 14346" d="M291.623,1375.144c-1.539-1.638,1.532-3.752,2.653-1.918C295.221,1374.906,292.933,1376.248,291.623,1375.144Z" transform="translate(-266.022 -1330.037)" fill="#634343"/>
        <path id="Trazado_14347" data-name="Trazado 14347" d="M279.3,1391.49a5.809,5.809,0,0,1-2.213-.641l.1.053c-2.581-1.059-.974-4.266,1.259-4.53,1.8.049,3.714-.855,5.434-.1C287.044,1388.849,281.755,1391.636,279.3,1391.49Z" transform="translate(-255.392 -1339.36)" fill="#634343"/>
        <path id="Trazado_14348" data-name="Trazado 14348" d="M235.669,1343.587a4.716,4.716,0,0,1-2.77-.716,1.821,1.821,0,0,1-1.771-2.238c.384-2.134,2.911-2.317,4.577-2.982l-.03.01c7.479-3.44,8.517,6.381.722,5.939l.252-.016A5.714,5.714,0,0,1,235.669,1343.587Z" transform="translate(-224.366 -1305.375)" fill="#634343"/>
        <path id="Trazado_14349" data-name="Trazado 14349" d="M241.27,1315.318c-1.564-.564-3.152.157-4.7-.159-5.118.781-3.238-3.652.2-4.65l-.118.057C245.865,1304.527,250.839,1314.263,241.27,1315.318Z" transform="translate(-225.979 -1285.747)" fill="#634343"/>
        <path id="Trazado_14350" data-name="Trazado 14350" d="M312.48,1302.287c-.828-1.971,2.537-3.421,3.868-2.154C318.261,1302.416,313.668,1304.154,312.48,1302.287Z" transform="translate(-280.679 -1279.547)" fill="#634343"/>
        <path id="Trazado_14351" data-name="Trazado 14351" d="M209.929,1333.235c-1.294-.413-.718-2.112.44-2.256l-.024.007a1.247,1.247,0,0,1,1.6.453.778.778,0,0,1,.277.12l-.032-.016.044.024h0C213.708,1332.925,210.94,1333.462,209.929,1333.235Z" transform="translate(-209.191 -1301.175)" fill="#634343"/>
        <path id="Trazado_14352" data-name="Trazado 14352" d="M711.324,1354.55c-1.8-.536-.35-3.2,1.106-2.27C715.021,1352.461,713.175,1355.289,711.324,1354.55Z" transform="translate(-556.584 -1315.878)" fill="#634343"/>
        <path id="Trazado_14353" data-name="Trazado 14353" d="M677.131,1361.15c-3-.311-.7-4.056,1.417-2.486C679.923,1359.565,678.4,1361.323,677.131,1361.15Z" transform="translate(-532.472 -1320.172)" fill="#634343"/>
        <path id="Trazado_14354" data-name="Trazado 14354" d="M693.288,1363.4c-.148-.061-.3-.122-.438-.195.027.014.054.027.083.04a.925.925,0,0,1-.18-.1l.01,0c-.839-.728.325-1.641,1.127-1.216-.035-.005-.067-.013-.1-.019C695.925,1361.92,694.681,1364.978,693.288,1363.4Z" transform="translate(-544.1 -1322.628)" fill="#634343"/>
        <path id="Trazado_14355" data-name="Trazado 14355" d="M693.685,1365.156c-1.433-.093-.818-2.207.47-1.623l-.03-.005.107.021-.025-.006.124.026h-.005c.106.023.214.042.321.061h-.005C696.217,1364.234,694.853,1365.408,693.685,1365.156Z" transform="translate(-544.368 -1323.741)" fill="#634343"/>
        <path id="Trazado_14356" data-name="Trazado 14356" d="M604.682,1384.015c-1.214-.353-.61-2.047.465-2.061l-.087.006a.989.989,0,0,1,.375,1.942c.035-.016.07-.035.1-.053A1.063,1.063,0,0,1,604.682,1384.015Z" transform="translate(-482.797 -1336.568)" fill="#634343"/>
        <path id="Trazado_14357" data-name="Trazado 14357" d="M465.851,1386.722l.049.009a.992.992,0,0,1-.5-1.747h0a.994.994,0,0,1,.337-.167C467.951,1382.96,468.653,1387.6,465.851,1386.722Z" transform="translate(-386.489 -1338.254)" fill="#634343"/>
        <path id="Trazado_14358" data-name="Trazado 14358" d="M452.428,1395.527c.184-3.17,6.574-1.052,2.4.955l.013-.006A1.575,1.575,0,0,1,452.428,1395.527Z" transform="translate(-377.752 -1344.86)" fill="#634343"/>
        <path id="Trazado_14359" data-name="Trazado 14359" d="M338.186,1381.763c-1.863-.782.176-2.21,1.4-1.711C340.995,1380.959,339.274,1382.064,338.186,1381.763Z" transform="translate(-298.063 -1335.188)" fill="#634343"/>
        <path id="Trazado_14360" data-name="Trazado 14360" d="M355.492,1377.635c-.271-1.043,1.53-1.766,1.955-.695C357.958,1378.111,355.843,1378.823,355.492,1377.635Z" transform="translate(-310.557 -1332.736)" fill="#634343"/>
        <path id="Trazado_14361" data-name="Trazado 14361" d="M341.144,1381.235a1.631,1.631,0,0,1-.694-.208c-1.515-.081-.767-2.334.538-1.876C342.568,1378.859,342.78,1381.4,341.144,1381.235Z" transform="translate(-299.569 -1334.592)" fill="#634343"/>
        <path id="Trazado_14362" data-name="Trazado 14362" d="M338.9,1381.325c-2.368-.312-.576-3.887,1.041-2.095h0C341.727,1379.489,340.1,1381.629,338.9,1381.325Z" transform="translate(-298.287 -1334.343)" fill="#634343"/>
        <path id="Trazado_14363" data-name="Trazado 14363" d="M347.846,1389.694c-1.956-.5-.192-3.064,1.211-1.8A1.091,1.091,0,0,1,347.846,1389.694Z" transform="translate(-304.676 -1340.452)" fill="#634343"/>
        <path id="Trazado_14364" data-name="Trazado 14364" d="M267.533,1366.336a.958.958,0,1,1,1.915,0A.958.958,0,0,1,267.533,1366.336Z" transform="translate(-249.621 -1325.073)" fill="#634343"/>
        <path id="Trazado_14365" data-name="Trazado 14365" d="M431.17,1262.478c-3.61-1.743-.025-6.273,3.023-5.638C440.488,1258.591,435.572,1263.985,431.17,1262.478Z" transform="translate(-361.97 -1249.833)" fill="#634343"/>
        <path id="Trazado_14366" data-name="Trazado 14366" d="M372.875,1296.407l.063,0c-5.389,0-3.109-6.256.5-7.241,3.337-2.034,9.152,1.007,7.138,5.113C379.087,1296.9,375.466,1296.5,372.875,1296.407Z" transform="translate(-320.447 -1271.83)" fill="#634343"/>
        <path id="Trazado_14367" data-name="Trazado 14367" d="M562.724,1266.365a.716.716,0,0,1,1.432,0A.716.716,0,0,1,562.724,1266.365Z" transform="translate(-454.185 -1255.993)" fill="#634343"/>
        <path id="Trazado_14368" data-name="Trazado 14368" d="M558.538,1257.869c-4.393-.875-5.844-10.285.464-5.354-.029-.027-.059-.051-.086-.078a4.031,4.031,0,0,1,1.242,1.467l-.038-.075.022.044-.026-.055.068.137-.041-.08a2.837,2.837,0,0,1,.368,1.195C561.6,1256.411,560.008,1258.08,558.538,1257.869Z" transform="translate(-448.659 -1245.892)" fill="#634343"/>
        <path id="Trazado_14369" data-name="Trazado 14369" d="M580.877,1267.778c-1.143-.831-3.4-2.18-2.322-3.821-1.461-2.181,2.358-.875,3.135-.21C583.928,1264.7,583.91,1269.074,580.877,1267.778Z" transform="translate(-464.927 -1253.969)" fill="#634343"/>
        <path id="Trazado_14370" data-name="Trazado 14370" d="M605.846,1273.894c-1.2-.493-3.059-1.355-3.449-2.65a.688.688,0,0,1-.155-.809l-.017.025c.748-1.224,2.759-.4,3.725.2-.037-.027-.078-.054-.115-.078a3.894,3.894,0,0,1,1.236,1.14l-.021-.024A1.336,1.336,0,0,1,605.846,1273.894Z" transform="translate(-481.523 -1258.874)" fill="#634343"/>
        <path id="Trazado_14371" data-name="Trazado 14371" d="M633.4,1286.758a15.3,15.3,0,0,1-3.031-2.331c.043.051.089.1.131.15-.657-.754-1.967-1.41-1.45-2.61-.342-1.864,2.391-.435,3.306-.322l-.057-.011.008,0-.08-.015a4.984,4.984,0,0,1,3.573,2.433l-.027-.038a3.172,3.172,0,0,1,.467,1.277l-.013-.062C636.6,1286.852,634.587,1287.7,633.4,1286.758Z" transform="translate(-500.068 -1266.628)" fill="#634343"/>
        <path id="Trazado_14372" data-name="Trazado 14372" d="M662.851,1299.724a2.834,2.834,0,0,1-1.413-1.226c.032.051.067.1.1.15-.506-.832-1.734-1.692-1.2-2.773a.733.733,0,0,1-.134-1.291l-.028.019.041-.024-.009,0a.806.806,0,0,1,.241-.082l-.018.006.031,0,0,0a5.559,5.559,0,0,1,3.573,2.061l-.012-.013C665.567,1297.587,664.84,1300.2,662.851,1299.724Z" transform="translate(-521.503 -1275.971)" fill="#634343"/>
        <path id="Trazado_14373" data-name="Trazado 14373" d="M704.874,1315.318c-1.176-2.165,2.464-2.546-1.237-5.861l.048.056c-.052-.046-.105-.093-.159-.14l.042.037-.008-.007a1.456,1.456,0,0,1,.2.191,5.148,5.148,0,0,0-4.107-.856l.1-.022a2.007,2.007,0,0,1-.539.056h0c-.029,0-.059,0-.089-.008l.089.008.008,0c-2.578-1.305,2.693-2.631,3.814-2.237l-.166-.011c3.765.017,7.08,5.173,3.951,8.071C706.338,1315.108,705.6,1315.876,704.874,1315.318Z" transform="translate(-548.289 -1284.261)" fill="#634343"/>
        <path id="Trazado_14374" data-name="Trazado 14374" d="M514.758,1243.342a3.233,3.233,0,0,1-1.067-1.529l.029.056q-.03-.059-.059-.118l.021.045c-.795-1.605-2.5-3.146-4.412-2.732l.05-.011-.131.027.057-.011a1.835,1.835,0,0,0-1.244.7.665.665,0,0,1-1.129.565.641.641,0,0,0,.123.094c-2.226-5.517,9-4.067,8.8,1.558-.008-.04-.019-.08-.027-.121C516.2,1242.662,515.839,1243.968,514.758,1243.342Z" transform="translate(-415.366 -1236.094)" fill="#634343"/>
        <path id="Trazado_14375" data-name="Trazado 14375" d="M460.823,1242.326c-.22-.11-.448-.2-.665-.317.037.021.078.04.118.061a6.521,6.521,0,0,0-3.085-.649l.089-.007a10.487,10.487,0,0,0-2.779.508.75.75,0,0,1-1.369-.59.72.72,0,0,0-.029.11c1.264-2.144,5.025-2.744,7.224-1.722l-.126-.065C461.685,1239.969,463.337,1242.549,460.823,1242.326Z" transform="translate(-378.209 -1237.675)" fill="#634343"/>
        <path id="Trazado_14376" data-name="Trazado 14376" d="M402.828,1266a.639.639,0,0,1,.126-.9l0,0,.018-.013-.014.009a15.57,15.57,0,0,1,7.3-2.933c2-.436,5.342,1.932,2.079,2.823l.027,0a17.8,17.8,0,0,0-4.182-.223l.147-.008a10.158,10.158,0,0,0-2.572.59c.035-.013.07-.024.1-.037-.736.27-1.481.533-2.2.85l.027-.017A.646.646,0,0,1,402.828,1266Z" transform="translate(-343.289 -1253.526)" fill="#634343"/>
        <path id="Trazado_14377" data-name="Trazado 14377" d="M336.1,1312.3a5.99,5.99,0,0,0-5.71-1.763l.061-.013c-.036.008-.072.016-.107.022l.044-.008a11.582,11.582,0,0,0-1.221.325l.088-.032c-.6.4-1.85.781-1.6-.418.927-1.322,2.846-1.626,4.348-1.888C337.4,1307.466,340.712,1312.83,336.1,1312.3Z" transform="translate(-291.265 -1285.593)" fill="#634343"/>
        <path id="Trazado_14378" data-name="Trazado 14378" d="M298.24,1330.859c-1.452-.587-2.73-1.62-4.318-1.856l.15.032a7.038,7.038,0,0,0-3.3.269l.017-.006c-.033.013-.068.023-.1.035l.072-.023c-.1.039-.2.079-.294.126l.064-.033c-.461.318-1.16.466-1.432-.164-.013-1.836,2.946-2.133,4.366-2.481,2.185-.128,4.889-.18,6.492,1.548A1.633,1.633,0,0,1,298.24,1330.859Z" transform="translate(-264.566 -1298.288)" fill="#634343"/>
        <path id="Trazado_14379" data-name="Trazado 14379" d="M438.4,1340.282a6.085,6.085,0,0,1-1.228-.3l.026.01c-5.837-1.192-5.424-9.506-.852-11.984l-.014.012c1.654-.818,1.72.96.825,1.932l.023-.067c-.016.049-.033.1-.051.145.009-.023.018-.047.026-.07a4.982,4.982,0,0,0,1.018,4.522c-.065-.1-.129-.193-.2-.29a23.447,23.447,0,0,0,1.861,2.379l-.036-.041C442.547,1338.513,442.067,1341.086,438.4,1340.282Z" transform="translate(-364.198 -1299.055)" fill="#392626"/>
        <path id="Trazado_14380" data-name="Trazado 14380" d="M476.079,1318.682c-8.561-3.62-.609-13.759-.26-9.224a20.557,20.557,0,0,0,.217,5.48c0-.033,0-.065-.006-.1.089.739.821,1.173,1.355,1.6A1.312,1.312,0,0,1,476.079,1318.682Z" transform="translate(-391.401 -1285.544)" fill="#392626"/>
        <path id="Trazado_14381" data-name="Trazado 14381" d="M475.892,1363.609a.631.631,0,0,1,1.207-.37A.631.631,0,0,1,475.892,1363.609Z" transform="translate(-393.987 -1323.296)" fill="#392626"/>
        <path id="Trazado_14382" data-name="Trazado 14382" d="M474.407,1357.381c-1.93-1.731-1.861-5-1.009-7.253.348-.856,1.934-1.115,1.881.073-.518,1.188.185,2.495.754,3.547s1.9.879,2.773.334C484.489,1354.075,478.358,1360.566,474.407,1357.381Z" transform="translate(-391.889 -1314.015)" fill="#392626"/>
        <path id="Trazado_14383" data-name="Trazado 14383" d="M317.206,1341.887c.026-3.554,4.01-5.59,7.213-4.957l-.014,0a.713.713,0,0,1-.089,1.421l.009,0,.094-.008-.01,0c.022,0,.047-.009.069-.015l-.008,0,.029-.005a9.913,9.913,0,0,0-1.363.6c.043-.019.083-.04.126-.062C321.356,1339.5,318.868,1345.2,317.206,1341.887Z" transform="translate(-284.044 -1305.297)" fill="#392626"/>
        <path id="Trazado_14384" data-name="Trazado 14384" d="M643.152,1334.575a.592.592,0,0,1-.3-.711v0a3.492,3.492,0,0,0-2.825-3.972l.086.029,0,0,.024.008a11.9,11.9,0,0,0-1.7-.488c.032.008.064.013.1.021a9.655,9.655,0,0,0-2.693-.172l.062,0-.483.032c.016,0,.035,0,.054-.005a6.489,6.489,0,0,0-.728.092h.014c-.5.274-1.217.069-.483-.322l-.027.008c3.027-1.908,9.311-1.6,10.11,2.607C644.543,1332.65,644.478,1334.663,643.152,1334.575Z" transform="translate(-503.551 -1299.166)" fill="#704c4c"/>
        <path id="Trazado_14385" data-name="Trazado 14385" d="M576.1,1332.628a2.071,2.071,0,0,1-.421-.5l.01.01c-.08-.092-.132-.2-.208-.3l.007.006a14.512,14.512,0,0,0-3.435-2.992c.043.029.089.059.134.088-3.2-1.932-6.693-3.989-10.566-3.79l.04,0-.115.008.1-.008c-.935.087-1.87.2-2.793.384l.056-.013c-.593.127-1.173.281-1.771.384h.006a5.963,5.963,0,0,0-.71.207l.02-.009c-.385.15-.778.284-1.156.445.011,0,.019-.008.027-.011-1.426.1.887-.924,1.5-1.027l-.01.005.027-.011h0c3.463-1.709,7.3-3.193,11.078-1.487l-.079-.029c3.742,1.211,8.272,3.488,8.659,7.875,0-.019,0-.04,0-.062a2.248,2.248,0,0,0,.057.293v0c0,.017.007.034.011.051l0-.009C576.687,1332.462,576.459,1332.889,576.1,1332.628Z" transform="translate(-448.743 -1295.902)" fill="#704c4c"/>
        <path id="Trazado_14386" data-name="Trazado 14386" d="M522.651,1331.82c-.035-.006-.069-.013-.1-.021l.028,0c-.134-.024-.26-.07-.391-.1l.025,0a1.692,1.692,0,0,1-.179-.051h0c-.19-.066-.384-.116-.571-.182.032.013.067.024.1.035-2.841-.671-5.663-2.014-8.654-1.446-.34.108-1.691.525-1.029-.171h0a9.663,9.663,0,0,1,3.545-1.347c-.032.008-.064.013-.094.021a7.485,7.485,0,0,1,6.637,1.226l-.033-.027.109.094-.012-.011.086.075-.013-.01a5.129,5.129,0,0,1,.562.56l0,0a2.778,2.778,0,0,1,.2.245l-.008-.011c.016.022.031.044.046.067l-.014-.023C523.319,1331.092,523.312,1331.852,522.651,1331.82Z" transform="translate(-418.824 -1299.383)" fill="#704c4c"/>
        <path id="Trazado_14387" data-name="Trazado 14387" d="M377.841,1378.912a1.45,1.45,0,0,0,.2-1.293c0,.019.006.035.008.054-.008-.048-.019-.1-.029-.148v0a3.835,3.835,0,0,0-.344-.909l.04.086a3.918,3.918,0,0,0-2.291-2.309l.153.051a4.382,4.382,0,0,1-.471-.191l.039.02a.456.456,0,0,0-.131-.044l.029.006-.158-.035.061.014a9.083,9.083,0,0,0-2.319-.241l.07,0a15.4,15.4,0,0,0-3.458.628h0l-.158.054.006,0-.046.016.008,0a3.706,3.706,0,0,0-.382.148l.006-.009a.174.174,0,0,1-.019.021l0,0-.023.029a.182.182,0,0,1,.013-.02l-.009.013,0-.01a.115.115,0,0,1-.01.02l0,0a.089.089,0,0,0-.006.011l0-.007c-1.244.621.549-1.572,1-1.691l-.031.022.07-.048-.006,0,.035-.023-.01.006c3.816-2.964,10.138-1.1,9.2,4.319.008-.021.013-.04.021-.059-.091.263-.164.534-.255.8,0-.011.008-.024.011-.035-.014.04-.027.08-.043.121.005-.01.008-.021.013-.032a1.98,1.98,0,0,1-.115.282l0,0C378.508,1378.9,377.8,1379.682,377.841,1378.912Z" transform="translate(-319.39 -1329.49)" fill="#704c4c"/>
        <path id="Trazado_14388" data-name="Trazado 14388" d="M419.927,1389.82a1.317,1.317,0,0,1-.2-.536c.005.029.011.056.016.083a1.7,1.7,0,0,0-.477-.968l.058.052a16.31,16.31,0,0,0-4.729-2.087l.033.007a3.648,3.648,0,0,0-.48-.057l.062,0c-.324-.014-.65-.024-.974-.046l.011,0c-.106.027-.21.055-.314.089l.013-.005-.021.008h0l-.032.014h0c-1.483-.135,2.179-1.371,2.6-1.422l-.061.012c1.871-.618,4.176-.3,5.174,1.582-.027-.043-.056-.083-.083-.126C421.3,1387.161,421.562,1390.625,419.927,1389.82Z" transform="translate(-350.11 -1338.463)" fill="#704c4c"/>
        <path id="Trazado_14389" data-name="Trazado 14389" d="M381.966,1322.039c-.013-.032-.024-.064-.037-.1.005.008.008.016.013.024a2.723,2.723,0,0,0-.162-.258l.006.011a5.059,5.059,0,0,0-.33-.438h0l-.029-.035.006.01c-1.533-1.216-2.88-2.664-4.427-3.856l.1.064a5.661,5.661,0,0,0-.633-.365l.11.054a5.214,5.214,0,0,0-2.768-.531l.113-.008c-.415.027-.829.057-1.244.08h.01a11.223,11.223,0,0,0-2.806.534c.021-.005.04-.013.062-.019a5.63,5.63,0,0,0-.66.274l.045-.022c-5.341,3.19,5.581-8.2,11.671,1.259l0-.006.051.1-.012-.022c.25.552.539,1.08.78,1.637-.008-.019-.016-.035-.024-.051a6.331,6.331,0,0,1,.553,1.417l-.005-.014C382.542,1322.057,382.12,1322.353,381.966,1322.039Z" transform="translate(-319.18 -1290.096)" fill="#704c4c"/>
        <path id="Trazado_14390" data-name="Trazado 14390" d="M469.506,1277.989a5.726,5.726,0,0,1-.367-.825l.005.012c-.263-.545-.478-1.1-.751-1.644.016.032.032.067.051.1-.161-.311-.311-.625-.467-.939.019.038.038.078.057.115a10.347,10.347,0,0,0-.644-1.153c.027.038.051.075.078.113a5.345,5.345,0,0,0-4.254-2.3l.147.008a29.783,29.783,0,0,0-5.7.528c.032-.008.065-.014.1-.021a19.615,19.615,0,0,0-3.177.789l.012-.012-.021.019.009-.007c-.434.462-.617-.275-.141-.467-.005.008-.014.016-.019.024a12.72,12.72,0,0,1,10.979-2.717l-.048-.009.007,0-.048-.009c.049.009.1.02.148.03l-.072-.015c2.992.353,4.735,3.581,4.712,6.367,0-.035.005-.067.008-.1,0,.278-.015.561-.04.84,0-.007,0-.014,0-.021C469.969,1277.079,470.236,1278.439,469.506,1277.989Z" transform="translate(-378.95 -1258.502)" fill="#704c4c"/>
        <path id="Trazado_14391" data-name="Trazado 14391" d="M508.265,1252.616c-.191-.14-.137-.4-.271-.59l.024.048c-.037-.075-.07-.153-.107-.228.011.022.021.043.032.062-1.061-4.161,5.705-4.54,7.314-1.451l-.024-.033a5.3,5.3,0,0,1,.4.676c0-.011-.01-.022-.015-.032.572.688.262,1.707-.631.922l0,0-.056-.037.039.025-.186-.135.024.015c-.021-.013-.042-.028-.062-.043a.265.265,0,0,0,.027.021c-1.827-1.085-4.716-1.765-6.1.328v0l-.005.008,0,0-.023.034.007-.009a1.3,1.3,0,0,1-.088.12A.224.224,0,0,1,508.265,1252.616Z" transform="translate(-416.146 -1244.04)" fill="#704c4c"/>
        <path id="Trazado_14392" data-name="Trazado 14392" d="M385.861,1296.765c-3.465-.405.307-.856,1.028-1.757l-.017.014a2.651,2.651,0,0,0-1.1-4.224l.083.056a6,6,0,0,0-1.529-.477l.072.016-.344-.07.013,0a3.81,3.81,0,0,0-.528-.075h.007c-.375-.019-.751-.016-1.126-.008h0a.933.933,0,0,0-.121.019l.03-.008c-.272.057-.544.11-.806.192l.007,0c-.313.319-.863-.016-.384-.306l-.017.013a4.492,4.492,0,0,1,1.227-.365l0,0a6.559,6.559,0,0,1,3.839-.4l-.094-.022c3.618.169,5.346,5.326,1.728,6.912l.04-.019-.065.032.014-.007A4.813,4.813,0,0,1,385.861,1296.765Z" transform="translate(-328.225 -1272.323)" fill="#704c4c"/>
        <path id="Trazado_14393" data-name="Trazado 14393" d="M437.037,1260.443a2.762,2.762,0,0,0-1.366-1.009l.1.035a5.1,5.1,0,0,0-3.272-.483l.035-.008a2.411,2.411,0,0,0-.658.208l.006,0-.027.013h0a4.052,4.052,0,0,0-.689.427l.022-.022c-.024.024-.048.046-.07.07h0a.465.465,0,0,0-.043.057l.016-.024c-.147.364-.66.061-.392-.217a3.087,3.087,0,0,1,1.185-.8h0C437.66,1255.094,439.917,1262.282,437.037,1260.443Z" transform="translate(-362.646 -1250.448)" fill="#704c4c"/>
        <path id="Trazado_14394" data-name="Trazado 14394" d="M572.808,1284.72a5.965,5.965,0,0,0-.839-1.37l.011.013c-1.371-1.456-3.6-1.14-5.4-1.285a.477.477,0,0,1-.674,0h0c-.364-.1-.714-.245-1.078-.355.029.011.056.019.083.029a4.1,4.1,0,0,0-.487-.13l.065.014c-1.488-.067-2.828-.91-4.346-.719l.025,0c-.031,0-.063,0-.094.006l.054,0-.382.029h.014c-.422.035-.839.1-1.263.11l.013,0a7.27,7.27,0,0,0-.837.1l.011,0a.972.972,0,0,0-.27.1l.012-.008a1.838,1.838,0,0,0-.444.3h0l-.021.019,0,0c-.009.008-.017.016-.025.025h0l0,0c-2.513.17,6.864-4.668,8.4-1.227l-.015-.016.014.016-.034-.038c.155.193.346.358.5.55,1.849-3.242,7.583-.839,7.65,2.659C573.683,1284.04,573.57,1285.541,572.808,1284.72Z" transform="translate(-449.882 -1265.316)" fill="#704c4c"/>
        <path id="Trazado_14395" data-name="Trazado 14395" d="M644.6,1309.872c-.171-.078-.334-.165-.5-.251l.016.009a8.083,8.083,0,0,0-.934-.41l.043.016a9.578,9.578,0,0,0-1.081-.319c.019.005.038.008.059.013l-.266-.056c.019.005.04.008.062.013a14.948,14.948,0,0,0-1.526-.244h.014l-.473-.032.091.008a15.818,15.818,0,0,1-2.677-.059h.005l-.01,0,.015,0-.048-.01.01,0a14.832,14.832,0,0,0-1.475-.177l.059.006a1.982,1.982,0,0,0-.494.035l.04-.008c-.087.02-.172.027-.259.042a.232.232,0,0,1-.449-.071c.673-1.069,2.253-1.339,3.436-1.492l-.03,0C639.242,1306.706,646.024,1309.01,644.6,1309.872Z" transform="translate(-504.151 -1284.552)" fill="#704c4c"/>
        <path id="Trazado_14396" data-name="Trazado 14396" d="M636.231,1285.264c-.177-.193-.31-.429-.486-.621l.027.028a10.2,10.2,0,0,0-.7-.753l.015.013-.051-.046.019.018c-.34-.293-.716-.546-1.082-.8.021.016.043.029.065.045a25.231,25.231,0,0,0-3.742-1.782l.021.006-.078-.027h0c-.27-.093-.54-.182-.807-.28l.044.017a3.22,3.22,0,0,1-.38-.128.224.224,0,1,1-.235-.381c2.44-1.586,6.2,1.327,7.549,3.483C636.69,1284.395,637.042,1285.645,636.231,1285.264Z" transform="translate(-499.936 -1266.005)" fill="#704c4c"/>
        <path id="Trazado_14397" data-name="Trazado 14397" d="M708.5,1311.29l-.024-.049.024.049a3.024,3.024,0,0,0-.182-.293c.013.016.024.035.037.051a3.951,3.951,0,0,0-1.642-1.24l.03.016a16.933,16.933,0,0,0-3.868-1.481l.072.016a6.621,6.621,0,0,0-1.236-.1c-.083.527-.716.033-.432-.315,2.067-1.692,5.959-.468,7.476,1.562-.016-.027-.032-.051-.048-.075C709.266,1309.873,709.663,1312.24,708.5,1311.29Z" transform="translate(-550.151 -1284.736)" fill="#704c4c"/>
        <path id="Trazado_14398" data-name="Trazado 14398" d="M745.611,1327.449h0a2.194,2.194,0,0,0-.161-.291l.008.01c-.006-.009-.013-.018-.019-.027l0,.007a1.223,1.223,0,0,1-.267-.63l.005.022c-.005-.021-.01-.043-.013-.064,0,0,0,.009,0,.014a1.6,1.6,0,0,1,.317-1.318c-.016.027-.032.051-.048.075,1.11-2.395,8.625-.965,9.275,1.3.418.923-.2,1.324-.857.543l.034.024a3.181,3.181,0,0,0-.81-.343l.005,0c-.436-.139-.887-.227-1.327-.35l.02.007-.113-.038.045.014-.154-.055.026.008-.11-.038.048.017c-.453-.133-.919-.236-1.359-.411l.059.02c-1.491-.675-3.646-.8-4.28,1.063.008-.01.013-.024.021-.037C745.922,1327.092,746.212,1327.923,745.611,1327.449Z" transform="translate(-580.588 -1296.421)" fill="#704c4c"/>
        <path id="Trazado_14399" data-name="Trazado 14399" d="M529.615,1383.786c-1.068-1.231.262-3.007,1.1-4.037l-.1.113c1.967-2.892,7.906-2.938,8.342,1.044v-.013c.241.861-.68,1.883-1.26.826l.048.072a4.2,4.2,0,0,1-.344-.569c.016.032.029.062.046.094-.209-.589-.887-.476-1.382-.4l.17-.036c-1.5.416-3.146.148-4.545.894l.05-.026a10.392,10.392,0,0,0-1.673,1.423c.019-.013.035-.029.051-.043-.054.058-.145.1-.145.193v-.008c0,.06-.009.12-.014.18C530.186,1383.74,529.8,1384.067,529.615,1383.786Z" transform="translate(-430.966 -1333.693)" fill="#704c4c"/>
        <path id="Trazado_14400" data-name="Trazado 14400" d="M493.438,1398.351c0-.057-.008-.116-.011-.175-1.92-1.484-4.5-.165-6.677-.061-1.483.529,1.053-1.705,1.5-1.748l-.014.01a3.606,3.606,0,0,1,1.17-.533l-.115.04C496.07,1394.219,495.4,1400.424,493.438,1398.351Z" transform="translate(-401.217 -1346.031)" fill="#704c4c"/>
        <path id="Trazado_14401" data-name="Trazado 14401" d="M622.592,1413.257c-.615-.53.044-1.143-.012-1.724a3.418,3.418,0,0,0-1.018-.285l.011,0a14.135,14.135,0,0,0-4.177-.184.226.226,0,0,1-.439-.071.159.159,0,0,0,0,.021.8.8,0,0,1,.282-.646l-.032.037a3.326,3.326,0,0,1,.923-.668l-.067.048a6.132,6.132,0,0,1,5.654,0C625.454,1410.613,624.611,1414.485,622.592,1413.257Z" transform="translate(-491.766 -1355.388)" fill="#704c4c"/>
      </g>
      <g id="Grupo_8581" data-name="Grupo 8581" transform="translate(883.13 2484.427)">
        <path id="Trazado_13940" data-name="Trazado 13940" d="M91.337,12a3.712,3.712,0,1,0,2.622,1.091A3.676,3.676,0,0,0,91.337,12Z" transform="translate(-47.238 -6.413)" fill="#3b5fbf"/>
        <path id="Trazado_13941" data-name="Trazado 13941" d="M112.472,7.947a4.675,4.675,0,0,0,0-6.584,4.621,4.621,0,0,0-6.536-.02l-.02.02a4.675,4.675,0,0,0,0,6.584,4.621,4.621,0,0,0,6.536.02Z" transform="translate(-56.288 0)" fill="#3b5fbf"/>
        <path id="Trazado_13942" data-name="Trazado 13942" d="M6.93,25.7a6.03,6.03,0,1,0,4.844,2.479l3.588-3.6a6.443,6.443,0,0,0,7.449-.774l2.567,2.579a5.144,5.144,0,0,0,.686,6.382,5.083,5.083,0,0,0,7.189.022l.022-.022a5.142,5.142,0,0,0,0-7.242,5.072,5.072,0,0,0-6.627-.5l-2.625-2.636A6.52,6.52,0,0,0,24.2,15.7l4.284-4.3a5.968,5.968,0,0,0,7.775-.6,6.006,6.006,0,1,0-9.086-.713l-4.116,4.134a6.452,6.452,0,0,0-7.982-.821l-2.162-2.171a5.14,5.14,0,0,0-.495-6.655,5.083,5.083,0,0,0-7.189-.022L5.2,4.569a5.143,5.143,0,0,0,0,7.242,5.078,5.078,0,0,0,6.355.689l2.1,2.113a6.517,6.517,0,0,0,.221,8.813l-3.421,3.436A5.938,5.938,0,0,0,6.93,25.7ZM29.082,3.591a4.134,4.134,0,0,1,5.846-.018l.018.018a4.177,4.177,0,0,1,0,5.889A4.134,4.134,0,0,1,29.1,9.5l-.018-.018A4.176,4.176,0,0,1,29.082,3.591ZM9.862,34.67a4.134,4.134,0,0,1-5.846.018L4,34.67a4.176,4.176,0,0,1,0-5.889,4.134,4.134,0,0,1,5.846-.018l.018.018A4.177,4.177,0,0,1,9.862,34.67Z" transform="translate(-0.869 -0.276)" fill="#3b5fbf"/>
        <path id="Trazado_13943" data-name="Trazado 13943" d="M74.6,33.862A.931.931,0,0,0,74.6,32H61.62a.931.931,0,0,0,0,1.862h1.46V50.73L50.613,72.507a2.793,2.793,0,0,0,2.412,4.185H83.2a2.793,2.793,0,0,0,2.412-4.185L73.14,50.73V33.862Zm1.8,26.3a15.291,15.291,0,0,1-16.586,0l5.117-8.938V33.862h6.351V51.227Z" transform="translate(-27.256 -17.102)" fill="#3b5fbf"/>
      </g>
    </g>
  </g>
</svg>
