<svg xmlns="http://www.w3.org/2000/svg" width="220" height="220" viewBox="0 0 220 220">
  <g id="Grupo_9879" data-name="Grupo 9879" transform="translate(-390 -2502)">
    <g id="Elipse_563" data-name="Elipse 563" transform="translate(390 2502)" fill="#f4f4f4" stroke="#fdac29" stroke-width="2">
      <circle cx="110" cy="110" r="110" stroke="none"/>
      <circle cx="110" cy="110" r="109" fill="none"/>
    </g>
    <g id="Grupo_9683" data-name="Grupo 9683" transform="translate(-402 -393.241)">
      <g id="Grupo_9681" data-name="Grupo 9681" transform="translate(810 2998.862)">
        <path id="Trazado_14285" data-name="Trazado 14285" d="M291,1337.947c-4.023-.465-9.654-4.126-5.821-8.411,3.1-3.117,9-1.812,11.544,1.417C299.24,1334.8,294.965,1338.768,291,1337.947Z" transform="translate(-261.005 -1299.069)" fill="#513636"/>
        <path id="Trazado_14286" data-name="Trazado 14286" d="M328.819,1320.049c-7.921,2.212-10.934-9.052-2.778-10.672C334.124,1307.059,338.48,1321.087,328.819,1320.049Z" transform="translate(-286.877 -1286.141)" fill="#513636"/>
        <path id="Trazado_14287" data-name="Trazado 14287" d="M360.887,1312.252c-4.442-1.066-3.305-7.917,1.163-7.737C368.349,1304.664,367.051,1315.064,360.887,1312.252Z" transform="translate(-312.441 -1282.947)" fill="#513636"/>
        <path id="Trazado_14288" data-name="Trazado 14288" d="M383.735,1283.193a3.9,3.9,0,0,1-2.763-1.627c-3.468-2.094-.782-7.583.894-10.209,2.86-4.714,8.324-7.921,13.9-7.377,9,.341,9.367,11.837,1.566,14.645C389.816,1278.878,390.044,1283.385,383.735,1283.193Z" transform="translate(-327.153 -1254.797)" fill="#513636"/>
        <path id="Trazado_14289" data-name="Trazado 14289" d="M452.739,1253.355a3.136,3.136,0,0,1-1.387-.465c-8.167-.56-7.7-11.84.217-12.445C460.288,1239.589,461.8,1253.416,452.739,1253.355Z" transform="translate(-373.022 -1238.49)" fill="#513636"/>
        <path id="Trazado_14290" data-name="Trazado 14290" d="M478.389,1244.148a5.828,5.828,0,0,1-1.9-2.924c-4.84-1.176,1.024-8.228,4.424-6.909C488.232,1235.8,486.093,1248.674,478.389,1244.148Z" transform="translate(-393.287 -1234.152)" fill="#513636"/>
        <path id="Trazado_14291" data-name="Trazado 14291" d="M497.337,1257.427a1.2,1.2,0,0,1,2.4,0A1.2,1.2,0,0,1,497.337,1257.427Z" transform="translate(-409.023 -1249.484)" fill="#513636"/>
        <path id="Trazado_14292" data-name="Trazado 14292" d="M509.085,1246.234c-4.265-1.569-2.434-9.632,2.482-7.958C517.065,1239.494,514.059,1247.586,509.085,1246.234Z" transform="translate(-415.515 -1236.854)" fill="#513636"/>
        <path id="Trazado_14293" data-name="Trazado 14293" d="M526.324,1255.579a1.818,1.818,0,0,1-.28-2.179c-2.168-.937-.3-2.838,1.387-2.022C530.35,1252.251,529.594,1257.805,526.324,1255.579Z" transform="translate(-428.252 -1245.96)" fill="#513636"/>
        <path id="Trazado_14294" data-name="Trazado 14294" d="M541.318,1261.332c-1.682-.8-2.419-2.775-4.053-3.7-1.234-.889-3.418-1.23-3.11-3.208a5.857,5.857,0,0,1,7.584-3.995C546.821,1251.466,547.815,1263.067,541.318,1261.332Z" transform="translate(-434.536 -1245.234)" fill="#513636"/>
        <path id="Trazado_14295" data-name="Trazado 14295" d="M565.251,1270.924c-2.074-.164-4.434-2-3.312-4.24-.386-3.309,3.768-5.925,6.6-4.19C573.758,1265.629,571.1,1271.707,565.251,1270.924Z" transform="translate(-453.624 -1253.425)" fill="#513636"/>
        <path id="Trazado_14296" data-name="Trazado 14296" d="M594.481,1275.972a2.169,2.169,0,0,1-1.436-1.228c-3.845-1.092-.933-6.2,2.263-5.508C600.581,1269.143,599.526,1277.511,594.481,1275.972Z" transform="translate(-474.126 -1258.439)" fill="#513636"/>
        <path id="Trazado_14297" data-name="Trazado 14297" d="M612.216,1289.4c-3.814-.294-11.022-3.659-8.233-8.35,1.9-5.5,10.647-3.113,13.234.737C619.509,1285.278,616.281,1289.98,612.216,1289.4Z" transform="translate(-482.549 -1264.438)" fill="#513636"/>
        <path id="Trazado_14298" data-name="Trazado 14298" d="M648.3,1300.613c-1.763-.2-3.468-2.173-2.5-3.906-.253-2.422,2.476-3.876,4.611-3.407C655.452,1294.947,653.357,1301.554,648.3,1300.613Z" transform="translate(-511.789 -1275.111)" fill="#513636"/>
        <path id="Trazado_14299" data-name="Trazado 14299" d="M677.175,1310.758c-.527-.423-.428-1.133-.636-1.678a2.023,2.023,0,0,1-3.24-1.041,1.567,1.567,0,0,0-.824.078.794.794,0,0,1-.987.211l.016.008c-2.939-1.822,2.172-5.16,4.008-3.028C680.533,1302.556,682.836,1313.329,677.175,1310.758Z" transform="translate(-529.19 -1283.022)" fill="#513636"/>
        <path id="Trazado_14300" data-name="Trazado 14300" d="M667.223,1313.71a2.777,2.777,0,0,1-1.175-.679c.038.033.075.066.112.1a1.318,1.318,0,0,0-1.036-.4c.1.005.206.014.31.019-2.045.083-3.338-1.691-5.11-2.378-2.21.383-4.036-2.279-1.885-3.705h0c2.008-1.047,8.894,1.605,10.712,2.864C670.942,1311.079,669.7,1314.374,667.223,1313.71Z" transform="translate(-520.082 -1284.273)" fill="#513636"/>
        <path id="Trazado_14301" data-name="Trazado 14301" d="M696.712,1315.915c-9.134-2.337-2.388-11.643,4.089-7.841C705.754,1310.812,701.96,1319.2,696.712,1315.915Z" transform="translate(-544.207 -1284.792)" fill="#513636"/>
        <path id="Trazado_14302" data-name="Trazado 14302" d="M505.376,1282.334c-11.949-1.882-11.8-17.715,1.251-17.5C520.728,1265.312,519.22,1283.87,505.376,1282.334Z" transform="translate(-408.525 -1255.427)" fill="#513636"/>
        <path id="Trazado_14303" data-name="Trazado 14303" d="M415.5,1326.047c-9.385-2.715-5.437-15.7,3.583-14.725C428.9,1313.031,424.642,1328.3,415.5,1326.047Z" transform="translate(-348.527 -1287.634)" fill="#513636"/>
        <path id="Trazado_14304" data-name="Trazado 14304" d="M408.641,1314.592a8.517,8.517,0,0,0-.478-2.392q-.228-.059-.458-.112a2.446,2.446,0,0,0-.463.459A3.357,3.357,0,0,0,408.641,1314.592Zm1.659,2.98c-7.535-.006-10.512-9.854-1.971-10.725,4.216-.18,7.195,6.242,4.434,9.313a.9.9,0,0,1-.832,1.361.99.99,0,0,0,.189,0A6.65,6.65,0,0,1,410.3,1317.572Z" transform="translate(-343.701 -1284.564)" fill="#513636"/>
        <path id="Trazado_14305" data-name="Trazado 14305" d="M511.258,1257.305c-6.67-1.031-2.232-11.913,2.644-6.476C518.792,1252.081,515.276,1258.375,511.258,1257.305Z" transform="translate(-416.331 -1244.668)" fill="#634343"/>
        <path id="Trazado_14306" data-name="Trazado 14306" d="M488.078,1266.005c-2.147-2.162-.99-6.784,2.494-5.975,2.068-1.843,5.868-.067,5.3,2.791C495.1,1265.744,490.529,1269.023,488.078,1266.005Z" transform="translate(-401.851 -1251.577)" fill="#634343"/>
        <path id="Trazado_14307" data-name="Trazado 14307" d="M466.873,1286.466c-.236-.839,1.143-1.224,1.366-.38S467.1,1287.316,466.873,1286.466Z" transform="translate(-387.877 -1269.841)" fill="#634343"/>
        <path id="Trazado_14308" data-name="Trazado 14308" d="M449.215,1288.509c-3.314-.373-5.919-3.959-5.944-7.135,0,.029,0,.058-.006.087-1.114-4.969,1.822-10.858,7.516-10.31,7.376-5.546,15.963,6.939,8.779,11.728C458.332,1287.171,453.332,1289.052,449.215,1288.509Z" transform="translate(-371.362 -1258.845)" fill="#634343"/>
        <path id="Trazado_14309" data-name="Trazado 14309" d="M555.308,1294.148c-8.25-2.3-5.3-17.01,3.7-14.248C568.307,1283.346,565.334,1296.122,555.308,1294.148Z" transform="translate(-445.859 -1265.64)" fill="#634343"/>
        <path id="Trazado_14310" data-name="Trazado 14310" d="M585.439,1289.17a2.709,2.709,0,0,1-.752-2.3c-5.509-2.78,1.5-8.753,5.125-5C594.052,1284.716,589.91,1292.746,585.439,1289.17Z" transform="translate(-468.187 -1266.413)" fill="#634343"/>
        <path id="Trazado_14311" data-name="Trazado 14311" d="M432.494,1308.448c-2.854-5.152,6.62-6.968,4.969-1.145C438.1,1310.339,433.641,1310.81,432.494,1308.448Z" transform="translate(-363.679 -1282.375)" fill="#634343"/>
        <path id="Trazado_14312" data-name="Trazado 14312" d="M375.667,1326.04c-8.193.809-12.737-9.434-2.951-11.081C379.629,1313.913,387.254,1327.327,375.667,1326.04Z" transform="translate(-318.749 -1290.152)" fill="#634343"/>
        <path id="Trazado_14313" data-name="Trazado 14313" d="M356.02,1329.1a2.652,2.652,0,0,1,.446-3.5l-.141.125c.059-.055.119-.106.179-.158l-.029.025C362.272,1322.5,360.328,1333.021,356.02,1329.1Z" transform="translate(-310.693 -1297.165)" fill="#634343"/>
        <path id="Trazado_14314" data-name="Trazado 14314" d="M643.051,1317.126c-2.144-.142-4.126-1.114-6.168-1.709l.159.057-.281-.1h0c-7.932-1.634-7.26-8.542.734-7.536,2.759.864,5.761,1.955,7.65,4.25,1.682,1.5,2.1,5.237-1.022,4.821A2.575,2.575,0,0,1,643.051,1317.126Z" transform="translate(-501.819 -1285.185)" fill="#634343"/>
        <path id="Trazado_14315" data-name="Trazado 14315" d="M511.721,1341.646c-3.752-1.3,1.553-5.3,1.672-1.276l.007-.036c-.012.065-.023.129-.04.193l.014-.068A1.5,1.5,0,0,1,511.721,1341.646Z" transform="translate(-418.069 -1306.6)" fill="#3f2828"/>
        <path id="Trazado_14316" data-name="Trazado 14316" d="M477.743,1316.7c-11.306-2.5-6.62-17.931,3.792-16.5C491.975,1302.92,491.189,1321.732,477.743,1316.7Z" transform="translate(-390.892 -1279.892)" fill="#3f2828"/>
        <path id="Trazado_14317" data-name="Trazado 14317" d="M436.081,1336.812a7.717,7.717,0,0,1-5.461-2.553c-12.657-2.018,8.269-23.693,13.235-8.223C448.242,1331.084,441.656,1337.792,436.081,1336.812Z" transform="translate(-359.975 -1294.038)" fill="#3f2828"/>
        <path id="Trazado_14318" data-name="Trazado 14318" d="M474.44,1355.3c-5.52-.872-4.746-7.9-.615-10.173C482.339,1341.57,484.469,1356.017,474.44,1355.3Z" transform="translate(-390.42 -1310.722)" fill="#3f2828"/>
        <path id="Trazado_14319" data-name="Trazado 14319" d="M530.14,1318.454c-12.9-1.713-6.633-15.337,3.53-12.766C540.594,1308.575,537.643,1319.534,530.14,1318.454Z" transform="translate(-426.737 -1283.54)" fill="#3f2828"/>
        <path id="Trazado_14320" data-name="Trazado 14320" d="M585.821,1315.478c-5-1.228-13.055-.777-16.521-4.71l.047.091c-.025-.052-.051-.1-.073-.159v0c-1.059-3.118,4.245-3.082,5.072-5.915l-.037.055c.054-.08.109-.159.163-.238l-.025.036a7.331,7.331,0,0,1,4.955-3.653l-.319.113c4.427-1.7,10.645,1.922,11.23,6.577C596.482,1311.873,591.521,1316.184,585.821,1315.478Z" transform="translate(-458.816 -1280.287)" fill="#3f2828"/>
        <path id="Trazado_14321" data-name="Trazado 14321" d="M659.751,1328.544c-9.806-1.946-12.2-13.089.59-10.775-.095-.007-.191-.014-.285-.019a5.043,5.043,0,0,0,.573,0l-.124.007a7.935,7.935,0,0,1,1.067,0l-.322-.021c3.01.069,5.756,1.554,8.311,3.022l-.159-.108c2.2.909,3.264,4.13,1.173,5.717C667.341,1327.972,663.314,1328.308,659.751,1328.544Z" transform="translate(-515.977 -1291.923)" fill="#3f2828"/>
        <path id="Trazado_14322" data-name="Trazado 14322" d="M325.469,1345.993c-13.982.555-10.2-13.759,1.7-10.545a3.747,3.747,0,0,1,6.117,1.681l-.112-.219C335.769,1342.438,331.19,1347.185,325.469,1345.993Z" transform="translate(-283.615 -1303.726)" fill="#3f2828"/>
        <path id="Trazado_14323" data-name="Trazado 14323" d="M412.608,1367.151c.2-.058.4-.121.593-.185A.957.957,0,0,0,412.608,1367.151Zm-1.338,5.806c-1.689-.54-3.568.076-5.151-.811-10.417.835-4.8-14.26,3.036-7.987,1.669-2.344,5.3-2.814,7.8-1.672C422.2,1366.2,416.6,1373.787,411.27,1372.956Z" transform="translate(-341.816 -1322.74)" fill="#3f2828"/>
        <path id="Trazado_14324" data-name="Trazado 14324" d="M509.213,1341.549c-10.641-2.028-4.556-16.423,4.732-12.218C522.673,1332.22,516.449,1342.667,509.213,1341.549Z" transform="translate(-413.355 -1299.628)" fill="#634343"/>
        <path id="Trazado_14325" data-name="Trazado 14325" d="M550.883,1340.286c-2.1-.324-4.379-1.58-5.058-3.71-5.561-7.31,7-13.7,13.236-11.167,4.538,1.463,14.2,6.885,9.13,12.307-2.273,1.428-5.141,1.053-7.7,1.03C557.283,1339.206,554.168,1340.457,550.883,1340.286Z" transform="translate(-441.688 -1297.047)" fill="#634343"/>
        <path id="Trazado_14326" data-name="Trazado 14326" d="M632.431,1336.62c-3.75.058-5.314-5.268-2.173-7.314,2.992-2.406,9.373-1.2,10.513,2.691C640.837,1335.714,635.4,1336.884,632.431,1336.62Z" transform="translate(-500.038 -1299.283)" fill="#634343"/>
        <path id="Trazado_14327" data-name="Trazado 14327" d="M361.745,1352.253c-3.283-.544-3.995-3.815-5.883-5.926-4.719-4.662.978-10.2,6.365-9.262,4.918.52,11.012.367,14.875,3.788,3.843,4.741-1.977,9.317-6.447,10.3C369.153,1352.3,363.811,1352.686,361.745,1352.253Z" transform="translate(-309.69 -1305.449)" fill="#4c3333"/>
        <path id="Trazado_14328" data-name="Trazado 14328" d="M421.731,1360.515c-3.341-.3-2.979-5.863.55-4.895C426.361,1354.485,425.332,1361.276,421.731,1360.515Z" transform="translate(-354.986 -1318.302)" fill="#4c3333"/>
        <path id="Trazado_14329" data-name="Trazado 14329" d="M620.173,1363.37c-4.889.315-9.288-4.632-4.624-8.427,4.3-3.036,13.447-2.527,14.671,3.548C630.042,1363.39,623.9,1363.745,620.173,1363.37Z" transform="translate(-489.629 -1316.663)" fill="#4c3333"/>
        <path id="Trazado_14330" data-name="Trazado 14330" d="M539.454,1370.6a5.328,5.328,0,0,1-3.437-.888c-4.726,1.681-11.2.027-10.127-6.147,2.136-4.2,9.632-4.619,12.168-.589C546.88,1359.032,549.287,1371.764,539.454,1370.6Z" transform="translate(-428.744 -1321.55)" fill="#4c3333"/>
        <path id="Trazado_14331" data-name="Trazado 14331" d="M726.673,1364.045a5.924,5.924,0,0,1-3.218-.857c-3.794-.031-3.385-4.519-.4-5.658-.064.043-.128.086-.193.132,2.562-1.591,7.607-2.589,8.236,1.51C735.144,1362.589,730.1,1364.965,726.673,1364.045Z" transform="translate(-563.936 -1318.848)" fill="#4c3333"/>
        <path id="Trazado_14332" data-name="Trazado 14332" d="M749.138,1330.018c-1.811-.269-4.481-.547-5.2-2.521-2.631-3.47,3.716-5.08,6.1-3.466h0C756.631,1324.2,755,1330.538,749.138,1330.018Z" transform="translate(-579.609 -1296.047)" fill="#634343"/>
        <path id="Trazado_14333" data-name="Trazado 14333" d="M790.483,1338.344c-2.036-2.154,1.7-4.962,3.575-3.034C796.152,1337.538,792.382,1340.739,790.483,1338.344Z" transform="translate(-611.912 -1303.859)" fill="#634343"/>
        <path id="Trazado_14334" data-name="Trazado 14334" d="M726.266,1342.617c-3.336-1.546.555-6.059,2.757-3.525C731.744,1340.458,728.369,1343.9,726.266,1342.617Z" transform="translate(-566.887 -1306.404)" fill="#634343"/>
        <path id="Trazado_14335" data-name="Trazado 14335" d="M616.926,1414.636c-5.1.173-4.732-5.042-.086-5.221l-.078-.006c1.178.033,2.4-.443,3.547-.017h0C624.674,1411.7,620.468,1415.228,616.926,1414.636Z" transform="translate(-489.394 -1355.559)" fill="#634343"/>
        <path id="Trazado_14336" data-name="Trazado 14336" d="M529.992,1386.269a2.824,2.824,0,0,1-1.729-.84c-6.271-3.536,4.607-9.693,8.043-6C539.271,1383.019,533.54,1387.231,529.992,1386.269Z" transform="translate(-429.144 -1334.112)" fill="#634343"/>
        <path id="Trazado_14337" data-name="Trazado 14337" d="M535.269,1421.536c-3.112-.682-.655-4.582,1.743-3.62C539.655,1418.887,537.482,1422.128,535.269,1421.536Z" transform="translate(-434.313 -1361.489)" fill="#634343"/>
        <path id="Trazado_14338" data-name="Trazado 14338" d="M509.042,1419.322c-.547-1.166.587-2.8,1.886-2.233C514.527,1417.781,510.68,1422.309,509.042,1419.322Z" transform="translate(-417.042 -1360.939)" fill="#634343"/>
        <path id="Trazado_14339" data-name="Trazado 14339" d="M484.708,1400.853c-4.719-2.4,1.067-6.594,4.335-6.311l-.2.013a2.8,2.8,0,0,1,2.138,5.154.564.564,0,0,0,.079-.036A14.229,14.229,0,0,1,484.708,1400.853Z" transform="translate(-399.029 -1345.299)" fill="#634343"/>
        <path id="Trazado_14340" data-name="Trazado 14340" d="M458.814,1407.118c-1.654-2.057,1.8-4.4,3.607-3.015,1.623,1.053.6,4.13-1.385,3.622A2.334,2.334,0,0,1,458.814,1407.118Z" transform="translate(-382.004 -1351.727)" fill="#634343"/>
        <path id="Trazado_14341" data-name="Trazado 14341" d="M413.933,1443.273c-4.29-.553.359-4.714,2.525-2.577C417.89,1442.278,415.4,1443.7,413.933,1443.273Z" transform="translate(-349.963 -1376.972)" fill="#634343"/>
        <path id="Trazado_14342" data-name="Trazado 14342" d="M391.206,1424.287c-.635-2.865,6.046-5.276,6.756-1.974C398.521,1424.827,392.115,1426.42,391.206,1424.287Z" transform="translate(-335.39 -1363.538)" fill="#634343"/>
        <path id="Trazado_14343" data-name="Trazado 14343" d="M407.953,1394.259c-11.133-.827-3.038-11.549,4.189-8.092C416.6,1389.008,412.641,1395.466,407.953,1394.259Z" transform="translate(-343.229 -1339.101)" fill="#634343"/>
        <path id="Trazado_14344" data-name="Trazado 14344" d="M364.539,1382.852c-11.912-2.067,3.929-17.3,8.092-7.4C375.116,1380.851,368.763,1382.852,364.539,1382.852Z" transform="translate(-313.905 -1329.846)" fill="#634343"/>
        <path id="Trazado_14345" data-name="Trazado 14345" d="M315.615,1362.587c-2.4.485-4.038-2.779-2.656-4.59,2.3-2.8,10.11-3.068,8.293,2.087-1.155,2.17-3.712,2.542-5.937,2.524C315.415,1362.6,315.514,1362.6,315.615,1362.587Z" transform="translate(-280.804 -1318.667)" fill="#634343"/>
        <path id="Trazado_14346" data-name="Trazado 14346" d="M291.622,1375.139c-1.536-1.635,1.529-3.746,2.648-1.915C295.214,1374.9,292.93,1376.242,291.622,1375.139Z" transform="translate(-266.065 -1330.109)" fill="#634343"/>
        <path id="Trazado_14347" data-name="Trazado 14347" d="M279.292,1391.481a5.8,5.8,0,0,1-2.209-.64l.1.053c-2.576-1.058-.972-4.258,1.257-4.522,1.8.048,3.708-.854,5.425-.1C287.025,1388.844,281.745,1391.627,279.292,1391.481Z" transform="translate(-255.427 -1339.439)" fill="#634343"/>
        <path id="Trazado_14348" data-name="Trazado 14348" d="M235.661,1343.576a4.705,4.705,0,0,1-2.765-.715,1.818,1.818,0,0,1-1.768-2.234c.384-2.13,2.906-2.313,4.569-2.977l-.03.01c7.466-3.435,8.5,6.37.721,5.928l.252-.016A5.707,5.707,0,0,1,235.661,1343.576Z" transform="translate(-224.377 -1305.429)" fill="#634343"/>
        <path id="Trazado_14349" data-name="Trazado 14349" d="M241.257,1315.306c-1.561-.563-3.147.157-4.691-.159-5.109.78-3.232-3.646.2-4.642l-.118.057C245.844,1304.534,250.81,1314.253,241.257,1315.306Z" transform="translate(-225.992 -1285.785)" fill="#634343"/>
        <path id="Trazado_14350" data-name="Trazado 14350" d="M312.48,1302.283c-.827-1.968,2.533-3.415,3.861-2.15C318.251,1302.412,313.666,1304.147,312.48,1302.283Z" transform="translate(-280.733 -1279.581)" fill="#634343"/>
        <path id="Trazado_14351" data-name="Trazado 14351" d="M209.928,1333.231c-1.292-.413-.717-2.109.439-2.252l-.024.007a1.245,1.245,0,0,1,1.6.452.776.776,0,0,1,.277.12l-.032-.016.044.024h0C213.7,1332.921,210.937,1333.458,209.928,1333.231Z" transform="translate(-209.191 -1301.225)" fill="#634343"/>
        <path id="Trazado_14352" data-name="Trazado 14352" d="M711.323,1354.546c-1.794-.535-.349-3.2,1.1-2.266C715.013,1352.461,713.171,1355.283,711.323,1354.546Z" transform="translate(-556.845 -1315.939)" fill="#634343"/>
        <path id="Trazado_14353" data-name="Trazado 14353" d="M677.129,1361.145c-3-.311-.694-4.049,1.414-2.482C679.915,1359.563,678.392,1361.318,677.129,1361.145Z" transform="translate(-532.714 -1320.236)" fill="#634343"/>
        <path id="Trazado_14354" data-name="Trazado 14354" d="M693.287,1363.4c-.148-.061-.3-.122-.438-.195l.083.04a.925.925,0,0,1-.179-.1l.01,0c-.838-.727.325-1.638,1.125-1.214-.035-.005-.067-.013-.1-.019C695.919,1361.92,694.677,1364.973,693.287,1363.4Z" transform="translate(-544.351 -1322.694)" fill="#634343"/>
        <path id="Trazado_14355" data-name="Trazado 14355" d="M693.683,1365.154c-1.431-.092-.816-2.2.469-1.62l-.03-.005.107.022-.025-.006.124.025h-.005c.106.023.213.042.32.061h-.005C696.211,1364.233,694.85,1365.4,693.683,1365.154Z" transform="translate(-544.62 -1323.809)" fill="#634343"/>
        <path id="Trazado_14356" data-name="Trazado 14356" d="M604.681,1384.012c-1.212-.352-.609-2.044.465-2.057l-.087.006a.988.988,0,0,1,.375,1.938c.035-.016.07-.034.1-.053A1.061,1.061,0,0,1,604.681,1384.012Z" transform="translate(-483.002 -1336.645)" fill="#634343"/>
        <path id="Trazado_14357" data-name="Trazado 14357" d="M465.85,1386.718l.049.009a.991.991,0,0,1-.5-1.744h0a.988.988,0,0,1,.336-.167C467.947,1382.963,468.647,1387.592,465.85,1386.718Z" transform="translate(-386.621 -1338.332)" fill="#634343"/>
        <path id="Trazado_14358" data-name="Trazado 14358" d="M452.428,1395.525c.184-3.165,6.563-1.05,2.391.953l.013-.006A1.573,1.573,0,0,1,452.428,1395.525Z" transform="translate(-377.878 -1344.943)" fill="#634343"/>
        <path id="Trazado_14359" data-name="Trazado 14359" d="M338.185,1381.76c-1.859-.781.175-2.206,1.4-1.708C340.989,1380.958,339.271,1382.06,338.185,1381.76Z" transform="translate(-298.129 -1335.263)" fill="#634343"/>
        <path id="Trazado_14360" data-name="Trazado 14360" d="M355.492,1377.633c-.27-1.042,1.528-1.763,1.952-.694C357.953,1378.108,355.842,1378.819,355.492,1377.633Z" transform="translate(-310.633 -1332.81)" fill="#634343"/>
        <path id="Trazado_14361" data-name="Trazado 14361" d="M341.141,1381.232a1.625,1.625,0,0,1-.692-.208c-1.512-.081-.766-2.33.537-1.873C342.563,1378.859,342.775,1381.4,341.141,1381.232Z" transform="translate(-299.637 -1334.668)" fill="#634343"/>
        <path id="Trazado_14362" data-name="Trazado 14362" d="M338.9,1381.321c-2.364-.312-.575-3.88,1.039-2.092h0C341.72,1379.487,340.1,1381.624,338.9,1381.321Z" transform="translate(-298.354 -1334.418)" fill="#634343"/>
        <path id="Trazado_14363" data-name="Trazado 14363" d="M347.845,1389.69c-1.952-.5-.192-3.058,1.208-1.8A1.089,1.089,0,0,1,347.845,1389.69Z" transform="translate(-304.747 -1340.531)" fill="#634343"/>
        <path id="Trazado_14364" data-name="Trazado 14364" d="M267.532,1366.335a.956.956,0,1,1,1.912,0A.956.956,0,0,1,267.532,1366.335Z" transform="translate(-249.651 -1325.141)" fill="#634343"/>
        <path id="Trazado_14365" data-name="Trazado 14365" d="M431.168,1262.469c-3.6-1.74-.025-6.263,3.018-5.628C440.469,1258.588,435.562,1263.973,431.168,1262.469Z" transform="translate(-362.085 -1249.844)" fill="#634343"/>
        <path id="Trazado_14366" data-name="Trazado 14366" d="M372.87,1296.394l.063,0c-5.38,0-3.1-6.246.5-7.229,3.331-2.03,9.136,1.005,7.126,5.1C379.071,1296.881,375.456,1296.486,372.87,1296.394Z" transform="translate(-320.53 -1271.858)" fill="#634343"/>
        <path id="Trazado_14367" data-name="Trazado 14367" d="M562.724,1266.363a.715.715,0,0,1,1.43,0A.715.715,0,0,1,562.724,1266.363Z" transform="translate(-454.369 -1256.009)" fill="#634343"/>
        <path id="Trazado_14368" data-name="Trazado 14368" d="M558.532,1257.858c-4.386-.873-5.834-10.267.463-5.345-.029-.027-.059-.051-.086-.078a4.025,4.025,0,0,1,1.24,1.465l-.038-.075.022.044-.026-.055.068.136-.041-.08a2.83,2.83,0,0,1,.368,1.193C561.589,1256.4,560,1258.068,558.532,1257.858Z" transform="translate(-448.838 -1245.901)" fill="#634343"/>
        <path id="Trazado_14369" data-name="Trazado 14369" d="M580.872,1267.77c-1.141-.83-3.4-2.176-2.318-3.815-1.459-2.178,2.354-.873,3.13-.21C583.919,1264.7,583.9,1269.064,580.872,1267.77Z" transform="translate(-465.119 -1253.984)" fill="#634343"/>
        <path id="Trazado_14370" data-name="Trazado 14370" d="M605.84,1273.888c-1.2-.492-3.054-1.353-3.443-2.645a.687.687,0,0,1-.155-.808l-.016.025c.746-1.222,2.754-.4,3.719.2-.037-.027-.078-.053-.115-.078a3.888,3.888,0,0,1,1.234,1.138l-.021-.024A1.334,1.334,0,0,1,605.84,1273.888Z" transform="translate(-481.727 -1258.893)" fill="#634343"/>
        <path id="Trazado_14371" data-name="Trazado 14371" d="M633.394,1286.749a15.27,15.27,0,0,1-3.026-2.327c.043.051.089.1.131.15-.656-.753-1.964-1.408-1.447-2.605-.341-1.86,2.386-.434,3.3-.321l-.056-.011.008,0-.08-.015a4.976,4.976,0,0,1,3.567,2.429l-.027-.038a3.167,3.167,0,0,1,.466,1.275l-.013-.062C636.586,1286.842,634.578,1287.694,633.394,1286.749Z" transform="translate(-500.286 -1266.653)" fill="#634343"/>
        <path id="Trazado_14372" data-name="Trazado 14372" d="M662.846,1299.716a2.83,2.83,0,0,1-1.411-1.224c.032.051.067.1.1.15-.505-.831-1.731-1.689-1.2-2.769a.732.732,0,0,1-.134-1.289l-.028.019.041-.024-.009,0a.8.8,0,0,1,.241-.082l-.018.006.031,0,0,0a5.548,5.548,0,0,1,3.567,2.057l-.012-.013C665.557,1297.582,664.832,1300.194,662.846,1299.716Z" transform="translate(-521.737 -1276.003)" fill="#634343"/>
        <path id="Trazado_14373" data-name="Trazado 14373" d="M704.863,1315.3c-1.174-2.161,2.46-2.542-1.235-5.851l.047.056c-.051-.046-.105-.093-.159-.14l.042.037-.008-.007a1.462,1.462,0,0,1,.2.19,5.14,5.14,0,0,0-4.1-.854l.1-.021a2.011,2.011,0,0,1-.539.056h0c-.029,0-.059,0-.089-.008l.089.008.008,0c-2.573-1.3,2.689-2.627,3.808-2.234l-.166-.011c3.758.017,7.068,5.164,3.944,8.058C706.324,1315.094,705.59,1315.86,704.863,1315.3Z" transform="translate(-548.544 -1284.298)" fill="#634343"/>
        <path id="Trazado_14374" data-name="Trazado 14374" d="M514.745,1243.331a3.225,3.225,0,0,1-1.065-1.526l.029.056q-.03-.058-.059-.118l.021.045c-.794-1.6-2.5-3.141-4.4-2.727l.05-.011-.131.027.057-.011a1.831,1.831,0,0,0-1.242.7.663.663,0,0,1-1.127.564.634.634,0,0,0,.123.094c-2.222-5.508,8.985-4.06,8.789,1.556-.008-.04-.019-.08-.027-.12C516.181,1242.652,515.824,1243.956,514.745,1243.331Z" transform="translate(-415.52 -1236.095)" fill="#634343"/>
        <path id="Trazado_14375" data-name="Trazado 14375" d="M460.81,1242.321c-.219-.11-.447-.2-.664-.316.037.021.078.04.118.061a6.513,6.513,0,0,0-3.079-.648l.089-.007a10.472,10.472,0,0,0-2.775.507.749.749,0,0,1-1.367-.589.717.717,0,0,0-.029.11c1.262-2.141,5.017-2.74,7.211-1.719l-.126-.064C461.671,1239.968,463.319,1242.543,460.81,1242.321Z" transform="translate(-378.336 -1237.678)" fill="#634343"/>
        <path id="Trazado_14376" data-name="Trazado 14376" d="M402.828,1265.995a.638.638,0,0,1,.126-.9l0,0,.018-.013-.014.009a15.544,15.544,0,0,1,7.288-2.928c1.993-.435,5.333,1.928,2.075,2.818l.027,0a17.776,17.776,0,0,0-4.175-.222l.147-.008a10.141,10.141,0,0,0-2.568.589c.035-.014.07-.024.1-.037-.735.269-1.479.532-2.193.849l.027-.017A.645.645,0,0,1,402.828,1265.995Z" transform="translate(-343.389 -1253.541)" fill="#634343"/>
        <path id="Trazado_14377" data-name="Trazado 14377" d="M336.086,1312.291a5.98,5.98,0,0,0-5.7-1.76l.061-.013c-.036.008-.071.016-.107.022l.044-.008a11.573,11.573,0,0,0-1.219.324l.088-.032c-.6.4-1.847.779-1.593-.418.926-1.32,2.841-1.623,4.341-1.885C337.383,1307.467,340.69,1312.823,336.086,1312.291Z" transform="translate(-291.327 -1285.632)" fill="#634343"/>
        <path id="Trazado_14378" data-name="Trazado 14378" d="M298.225,1330.852c-1.45-.586-2.725-1.617-4.311-1.853l.15.032a7.026,7.026,0,0,0-3.292.269l.017-.006c-.033.013-.068.023-.1.035l.072-.023c-.1.039-.2.079-.294.126l.064-.033c-.461.317-1.158.466-1.43-.164-.013-1.833,2.941-2.13,4.359-2.477,2.182-.127,4.88-.18,6.481,1.545A1.631,1.631,0,0,1,298.225,1330.852Z" transform="translate(-264.608 -1298.336)" fill="#634343"/>
        <path id="Trazado_14379" data-name="Trazado 14379" d="M438.393,1340.261a6.089,6.089,0,0,1-1.226-.3l.026.01c-5.827-1.19-5.415-9.49-.851-11.964l-.014.012c1.651-.817,1.717.959.823,1.929l.023-.067c-.016.049-.033.1-.051.145.009-.023.017-.047.025-.069a4.973,4.973,0,0,0,1.016,4.515c-.064-.1-.129-.193-.2-.289a23.391,23.391,0,0,0,1.858,2.375l-.036-.04C442.53,1338.495,442.052,1341.064,438.393,1340.261Z" transform="translate(-364.314 -1299.104)" fill="#392626"/>
        <path id="Trazado_14380" data-name="Trazado 14380" d="M476.072,1318.665c-8.546-3.614-.607-13.736-.259-9.209a20.525,20.525,0,0,0,.217,5.471c0-.032,0-.065-.005-.1.089.738.819,1.171,1.352,1.6A1.31,1.31,0,0,1,476.072,1318.665Z" transform="translate(-391.538 -1285.582)" fill="#392626"/>
        <path id="Trazado_14381" data-name="Trazado 14381" d="M475.892,1363.607a.63.63,0,0,1,1.2-.37A.63.63,0,0,1,475.892,1363.607Z" transform="translate(-394.126 -1323.363)" fill="#392626"/>
        <path id="Trazado_14382" data-name="Trazado 14382" d="M474.4,1357.367c-1.927-1.728-1.858-4.993-1.007-7.241.347-.855,1.931-1.113,1.878.072-.517,1.186.185,2.49.753,3.541s1.894.878,2.769.333C484.469,1354.067,478.349,1360.547,474.4,1357.367Z" transform="translate(-392.026 -1314.075)" fill="#392626"/>
        <path id="Trazado_14383" data-name="Trazado 14383" d="M317.206,1341.879c.026-3.548,4-5.58,7.2-4.949l-.014,0a.712.712,0,0,1-.089,1.418l.009,0,.094-.008-.01,0c.022,0,.047-.009.069-.015l-.008,0,.029-.005a9.911,9.911,0,0,0-1.36.6c.043-.019.083-.04.126-.062C321.349,1339.5,318.865,1345.184,317.206,1341.879Z" transform="translate(-284.1 -1305.35)" fill="#392626"/>
        <path id="Trazado_14384" data-name="Trazado 14384" d="M643.137,1334.564a.59.59,0,0,1-.294-.71v0a3.485,3.485,0,0,0-2.82-3.966c.029.008.057.019.085.028l0,0,.024.008a11.847,11.847,0,0,0-1.7-.487c.032.008.064.013.1.021a9.628,9.628,0,0,0-2.689-.171l.062,0-.482.032c.016,0,.035,0,.054-.005a6.465,6.465,0,0,0-.727.092h.014c-.5.274-1.215.069-.482-.321l-.027.008c3.022-1.905,9.3-1.6,10.093,2.6C644.525,1332.642,644.46,1334.652,643.137,1334.564Z" transform="translate(-503.772 -1299.215)" fill="#704c4c"/>
        <path id="Trazado_14385" data-name="Trazado 14385" d="M576.063,1332.612a2.067,2.067,0,0,1-.42-.5l.01.01c-.08-.092-.132-.2-.208-.3l.007.006a14.487,14.487,0,0,0-3.43-2.987c.043.029.089.059.134.088-3.2-1.928-6.682-3.982-10.548-3.784l.04,0-.115.008.1-.008c-.934.087-1.867.2-2.788.383l.056-.013c-.592.127-1.171.28-1.768.383h.006a6.035,6.035,0,0,0-.709.207l.02-.009c-.384.149-.777.283-1.154.444a.262.262,0,0,0,.027-.011c-1.424.1.885-.922,1.5-1.025l-.01.005.027-.011h0c3.457-1.706,7.292-3.188,11.059-1.484l-.078-.029c3.735,1.209,8.258,3.482,8.644,7.862,0-.019,0-.04,0-.062a2.228,2.228,0,0,0,.057.292v0c0,.017.007.034.011.051l0-.009C576.65,1332.447,576.422,1332.873,576.063,1332.612Z" transform="translate(-448.922 -1295.948)" fill="#704c4c"/>
        <path id="Trazado_14386" data-name="Trazado 14386" d="M522.633,1331.814c-.035-.006-.069-.013-.1-.021l.028,0c-.134-.024-.26-.07-.391-.1l.024,0a1.691,1.691,0,0,1-.178-.051h0c-.189-.066-.383-.115-.57-.182.032.013.067.024.1.035-2.836-.67-5.653-2.01-8.64-1.443-.34.108-1.688.524-1.027-.171h0a9.647,9.647,0,0,1,3.539-1.345c-.032.008-.064.013-.094.021a7.473,7.473,0,0,1,6.626,1.224l-.033-.027.109.094-.012-.011.086.075-.013-.01a5.1,5.1,0,0,1,.561.559l0,0a2.78,2.78,0,0,1,.2.244l-.009-.011c.016.022.032.044.046.067l-.014-.023C523.3,1331.088,523.292,1331.846,522.633,1331.814Z" transform="translate(-418.981 -1299.432)" fill="#704c4c"/>
        <path id="Trazado_14387" data-name="Trazado 14387" d="M377.825,1378.9a1.447,1.447,0,0,0,.2-1.291c0,.019.006.035.008.054-.008-.048-.019-.1-.029-.147v0a3.822,3.822,0,0,0-.344-.907l.04.085a3.911,3.911,0,0,0-2.287-2.305c.051.016.1.035.153.051a4.415,4.415,0,0,1-.47-.191l.039.02a.45.45,0,0,0-.131-.044l.029.006-.158-.035.061.014a9.059,9.059,0,0,0-2.316-.24l.07,0a15.379,15.379,0,0,0-3.452.627h0l-.158.054.007,0-.046.016.008,0a3.725,3.725,0,0,0-.381.148l.006-.009a.166.166,0,0,1-.019.021l0,0-.023.029a.2.2,0,0,1,.013-.02l-.009.013,0-.01a.127.127,0,0,1-.01.02l0,0a.107.107,0,0,0-.006.011l0-.007c-1.242.62.548-1.57,1-1.689l-.031.022.07-.048-.006,0,.035-.023-.01.006c3.81-2.959,10.121-1.1,9.182,4.311.008-.021.013-.04.021-.059-.091.263-.163.533-.254.8,0-.011.008-.024.011-.035-.013.04-.027.08-.043.12.005-.01.008-.021.014-.032a1.979,1.979,0,0,1-.114.281l0,0C378.49,1378.891,377.783,1379.668,377.825,1378.9Z" transform="translate(-319.472 -1329.562)" fill="#704c4c"/>
        <path id="Trazado_14388" data-name="Trazado 14388" d="M419.914,1389.812a1.316,1.316,0,0,1-.2-.535c.005.029.011.056.016.083a1.7,1.7,0,0,0-.477-.967l.058.052a16.284,16.284,0,0,0-4.721-2.083l.033.007a3.637,3.637,0,0,0-.479-.056c.021,0,.04,0,.062,0-.323-.015-.649-.024-.972-.046l.011,0c-.106.027-.21.055-.314.089l.013-.005-.021.008h0l-.032.014h0c-1.481-.135,2.176-1.369,2.593-1.419l-.061.012c1.867-.618,4.169-.3,5.166,1.58-.027-.043-.056-.083-.083-.126C421.287,1387.157,421.547,1390.615,419.914,1389.812Z" transform="translate(-350.216 -1338.542)" fill="#704c4c"/>
        <path id="Trazado_14389" data-name="Trazado 14389" d="M381.943,1322.027c-.013-.032-.024-.064-.037-.1.005.008.008.016.014.024a2.726,2.726,0,0,0-.162-.257l.006.011a5.055,5.055,0,0,0-.33-.437h0l-.029-.035.006.01c-1.53-1.214-2.875-2.66-4.419-3.849l.1.064a5.665,5.665,0,0,0-.632-.364l.11.054a5.2,5.2,0,0,0-2.763-.53l.112-.008c-.414.027-.828.057-1.242.08h.01a11.208,11.208,0,0,0-2.8.533c.021-.005.04-.013.062-.019a5.629,5.629,0,0,0-.659.273l.045-.021c-5.332,3.185,5.572-8.186,11.652,1.257l0-.006c.017.033.034.066.051.1l-.012-.022c.249.551.538,1.078.778,1.634-.008-.019-.016-.035-.024-.051a6.326,6.326,0,0,1,.552,1.414l-.006-.014C382.517,1322.045,382.1,1322.341,381.943,1322.027Z" transform="translate(-319.262 -1290.138)" fill="#704c4c"/>
        <path id="Trazado_14390" data-name="Trazado 14390" d="M469.48,1277.974a5.719,5.719,0,0,1-.367-.823l.005.012c-.263-.544-.477-1.1-.75-1.641.016.032.032.067.051.1-.161-.31-.311-.624-.466-.937l.056.115a10.306,10.306,0,0,0-.643-1.151c.027.038.051.075.078.112a5.336,5.336,0,0,0-4.247-2.292l.147.008a29.712,29.712,0,0,0-5.69.528c.032-.008.064-.014.1-.021a19.577,19.577,0,0,0-3.172.788l.012-.012-.021.019.009-.007c-.433.461-.616-.274-.14-.467-.005.008-.014.016-.019.024a12.7,12.7,0,0,1,10.96-2.713l-.048-.009.007,0-.048-.009c.049.009.1.02.147.03l-.071-.016c2.987.353,4.727,3.575,4.7,6.357,0-.035.005-.067.008-.1,0,.278-.015.56-.04.838,0-.007,0-.014,0-.021C469.943,1277.066,470.208,1278.424,469.48,1277.974Z" transform="translate(-379.077 -1258.52)" fill="#704c4c"/>
        <path id="Trazado_14391" data-name="Trazado 14391" d="M508.265,1252.609c-.191-.14-.136-.4-.27-.589l.024.048c-.037-.075-.07-.153-.107-.227.011.021.021.042.032.062-1.059-4.154,5.7-4.532,7.3-1.448l-.024-.033a5.28,5.28,0,0,1,.4.675c0-.011-.01-.022-.015-.032.571.687.262,1.7-.63.921l0,0-.056-.037a.385.385,0,0,1,.039.025l-.186-.134.024.015c-.021-.013-.042-.028-.062-.043l.027.021c-1.824-1.083-4.708-1.762-6.088.327v0l-.006.008,0,0-.023.034.007-.009a1.269,1.269,0,0,1-.088.12A.224.224,0,0,1,508.265,1252.609Z" transform="translate(-416.301 -1244.048)" fill="#704c4c"/>
        <path id="Trazado_14392" data-name="Trazado 14392" d="M385.853,1296.752c-3.459-.4.307-.854,1.026-1.754l-.017.014a2.647,2.647,0,0,0-1.1-4.217l.083.056a5.981,5.981,0,0,0-1.526-.476l.072.016-.343-.07.013,0a3.816,3.816,0,0,0-.527-.075h.007c-.374-.019-.749-.016-1.124-.008h0a.91.91,0,0,0-.121.019l.03-.008c-.272.057-.543.11-.8.192l.007,0c-.312.319-.861-.016-.383-.305l-.017.013a4.482,4.482,0,0,1,1.225-.364h0a6.549,6.549,0,0,1,3.832-.4l-.094-.021c3.612.169,5.337,5.317,1.725,6.9l.04-.019-.064.031.014-.007A4.808,4.808,0,0,1,385.853,1296.752Z" transform="translate(-328.314 -1272.351)" fill="#704c4c"/>
        <path id="Trazado_14393" data-name="Trazado 14393" d="M437.026,1260.438a2.756,2.756,0,0,0-1.363-1.007l.1.035a5.088,5.088,0,0,0-3.267-.482l.035-.008a2.412,2.412,0,0,0-.657.208l.006,0-.027.013h0a4.043,4.043,0,0,0-.688.427l.022-.022c-.024.024-.048.046-.07.07h0a.465.465,0,0,0-.043.056l.016-.024c-.147.363-.659.061-.391-.216a3.084,3.084,0,0,1,1.183-.795h0C437.648,1255.1,439.9,1262.275,437.026,1260.438Z" transform="translate(-362.761 -1250.46)" fill="#704c4c"/>
        <path id="Trazado_14394" data-name="Trazado 14394" d="M572.78,1284.71a5.955,5.955,0,0,0-.838-1.368l.01.012c-1.368-1.453-3.6-1.138-5.39-1.282a.476.476,0,0,1-.673,0h0c-.364-.1-.713-.244-1.076-.354.029.011.056.019.083.029a4.136,4.136,0,0,0-.486-.129l.065.014c-1.485-.067-2.823-.908-4.339-.718l.025,0c-.031,0-.062,0-.094.005l.054,0-.382.029h.014c-.421.035-.837.1-1.261.11l.013,0a7.328,7.328,0,0,0-.835.1l.011,0a.968.968,0,0,0-.269.1l.012-.008a1.838,1.838,0,0,0-.443.3h0l-.021.019,0,0a.35.35,0,0,0-.025.025h0v0c-2.509.17,6.853-4.66,8.383-1.225l-.015-.016.014.016-.034-.038c.154.193.346.358.5.549,1.846-3.237,7.57-.838,7.637,2.654C573.654,1284.031,573.541,1285.531,572.78,1284.71Z" transform="translate(-450.063 -1265.339)" fill="#704c4c"/>
        <path id="Trazado_14395" data-name="Trazado 14395" d="M644.586,1309.867c-.17-.078-.333-.165-.5-.25l.016.009a8.068,8.068,0,0,0-.932-.409l.043.016a9.517,9.517,0,0,0-1.079-.318c.019.005.038.008.059.013l-.265-.056c.019.005.04.008.062.013a14.968,14.968,0,0,0-1.524-.244h.014l-.472-.032.091.008a15.779,15.779,0,0,1-2.672-.059h.005l-.01,0,.015,0-.048-.01.01,0a14.781,14.781,0,0,0-1.472-.177c.021,0,.04,0,.059.006a1.975,1.975,0,0,0-.493.035l.04-.008c-.087.02-.172.028-.258.042a.232.232,0,0,1-.449-.071c.672-1.067,2.249-1.337,3.43-1.489l-.03,0C639.235,1306.706,646.006,1309.007,644.586,1309.867Z" transform="translate(-504.372 -1284.59)" fill="#704c4c"/>
        <path id="Trazado_14396" data-name="Trazado 14396" d="M636.219,1285.255c-.177-.193-.31-.429-.485-.62l.027.028a10.116,10.116,0,0,0-.7-.752l.015.013-.051-.045.019.018c-.34-.292-.715-.545-1.08-.8.021.016.043.029.064.045a25.2,25.2,0,0,0-3.736-1.779l.021.006-.078-.026h0c-.269-.093-.539-.182-.806-.28l.044.017a3.253,3.253,0,0,1-.379-.128.224.224,0,1,1-.234-.381c2.436-1.583,6.187,1.324,7.537,3.477C636.676,1284.387,637.028,1285.635,636.219,1285.255Z" transform="translate(-500.154 -1266.029)" fill="#704c4c"/>
        <path id="Trazado_14397" data-name="Trazado 14397" d="M708.486,1311.282l-.024-.048.024.048a3.025,3.025,0,0,0-.182-.292c.013.016.024.035.037.051a3.945,3.945,0,0,0-1.639-1.238l.03.017a16.888,16.888,0,0,0-3.861-1.478l.072.016a6.588,6.588,0,0,0-1.234-.1c-.082.526-.715.033-.431-.315,2.064-1.689,5.949-.467,7.463,1.559-.016-.027-.032-.051-.048-.075C709.252,1309.868,709.649,1312.231,708.486,1311.282Z" transform="translate(-550.407 -1284.774)" fill="#704c4c"/>
        <path id="Trazado_14398" data-name="Trazado 14398" d="M745.611,1327.443h0a2.2,2.2,0,0,0-.16-.291l.008.01c-.006-.009-.013-.018-.019-.027l0,.007a1.221,1.221,0,0,1-.266-.628l.005.022c-.005-.021-.01-.042-.013-.064,0,0,0,.009,0,.014a1.6,1.6,0,0,1,.317-1.315c-.016.027-.032.051-.048.075,1.108-2.391,8.61-.963,9.26,1.3.418.921-.2,1.321-.856.542l.034.024a3.176,3.176,0,0,0-.809-.342l.005,0c-.435-.139-.885-.226-1.324-.35l.02.007-.113-.038.045.014-.154-.055.026.008-.11-.037.048.017c-.452-.132-.918-.236-1.357-.411l.058.02c-1.489-.674-3.64-.794-4.273,1.061.008-.01.013-.024.021-.036C745.92,1327.086,746.211,1327.916,745.611,1327.443Z" transform="translate(-580.867 -1296.468)" fill="#704c4c"/>
        <path id="Trazado_14399" data-name="Trazado 14399" d="M529.614,1383.776c-1.067-1.229.262-3,1.1-4.03l-.1.113c1.963-2.887,7.892-2.933,8.328,1.042v-.013c.241.86-.679,1.88-1.258.824l.048.073a4.183,4.183,0,0,1-.343-.568c.016.032.029.061.046.094-.208-.588-.885-.476-1.379-.4l.17-.036c-1.5.415-3.141.147-4.537.892l.05-.025a10.38,10.38,0,0,0-1.67,1.421c.019-.013.035-.029.051-.043-.054.058-.144.1-.144.193v-.008c0,.06-.009.12-.014.18C530.185,1383.731,529.8,1384.056,529.614,1383.776Z" transform="translate(-431.132 -1333.767)" fill="#704c4c"/>
        <path id="Trazado_14400" data-name="Trazado 14400" d="M493.426,1398.346c0-.057-.008-.116-.011-.175-1.916-1.482-4.495-.165-6.666-.061-1.48.528,1.051-1.7,1.5-1.745l-.014.01a3.6,3.6,0,0,1,1.168-.532l-.115.04C496.053,1394.222,495.38,1400.415,493.426,1398.346Z" transform="translate(-401.361 -1346.115)" fill="#704c4c"/>
        <path id="Trazado_14401" data-name="Trazado 14401" d="M622.583,1413.25c-.614-.529.043-1.141-.012-1.721a3.413,3.413,0,0,0-1.017-.285l.011,0a14.112,14.112,0,0,0-4.17-.183.226.226,0,0,1-.438-.071.155.155,0,0,0,0,.021.8.8,0,0,1,.282-.645l-.032.037a3.323,3.323,0,0,1,.921-.667l-.067.048a6.121,6.121,0,0,1,5.645,0C625.44,1410.61,624.6,1414.476,622.583,1413.25Z" transform="translate(-491.978 -1355.479)" fill="#704c4c"/>
      </g>
      <g id="Grupo_9682" data-name="Grupo 9682" transform="translate(886.274 2916.286)">
        <circle id="Elipse_532" data-name="Elipse 532" cx="26.334" cy="26.334" r="26.334" transform="translate(0 37.242) rotate(-45)" fill="#ffdc48"/>
        <g id="Grupo_9220" data-name="Grupo 9220" transform="translate(3.561 36.166)">
          <path id="Trazado_14717" data-name="Trazado 14717" d="M534.474,1726.545a.54.54,0,0,0-.685.23l-5.5,8.865-2.838-3.065a.538.538,0,0,0-.9.2l-4.983,15.119a.537.537,0,0,0,.272.649.525.525,0,0,0,.07.029.537.537,0,0,0,.611-.206l5.881-8.729,2.431,2.935a.538.538,0,0,0,.924-.174l5.017-15.19A.537.537,0,0,0,534.474,1726.545Z" transform="translate(-514.612 -1717.58)" fill="#ff9750"/>
          <path id="Trazado_14718" data-name="Trazado 14718" d="M488.7,1652.219a.367.367,0,0,0-.467.156l-3.744,6.034-1.932-2.086a.366.366,0,0,0-.616.134l-3.392,10.292a.366.366,0,0,0,.185.442.376.376,0,0,0,.048.02.366.366,0,0,0,.416-.14l4-5.941,1.654,2a.366.366,0,0,0,.629-.118l3.415-10.34A.365.365,0,0,0,488.7,1652.219Z" transform="translate(-478.529 -1652.188)" fill="#ff9750"/>
        </g>
      </g>
    </g>
  </g>
</svg>
