<svg xmlns="http://www.w3.org/2000/svg" width="1920" height="311.179" viewBox="0 0 1920 311.179">
  <g id="Grupo_9880" data-name="Grupo 9880" transform="translate(0 -1350)">
    <g id="Grupo_9742" data-name="Grupo 9742" transform="translate(-55.885 503.987)">
      <g id="Grupo_9769" data-name="Grupo 9769" transform="translate(794.999 1071.116)">
        <g id="Grupo_9709" data-name="Grupo 9709" transform="translate(44.229 32.378)">
          <path id="Trazado_16695" data-name="Trazado 16695" d="M901.336,1107.2s-5.083,4.191-4.831,14.272,1.622,21.148,1.622,21.148l-9.626.211s3.989-20.314,1.836-25.859-7.065-11.042-7.065-11.042l3.4-1.77a24.309,24.309,0,0,1,3.921,4.517c1.137,1.95,2.512,5.356,2.66,5.446.39.237,1.668-8.275,6.4-11.062C902.478,1101.4,901.336,1107.2,901.336,1107.2Z" transform="translate(-883.272 -1102.763)" fill="#158c61"/>
        </g>
        <g id="Grupo_9710" data-name="Grupo 9710" transform="translate(58.432 0.309)">
          <path id="Trazado_16696" data-name="Trazado 16696" d="M898.54,1105.767c2.8,5.453,18.752,10.578,32.884-6.4,15.519-18.649,15.253-26.921,15.253-26.921s-18.678-3.4-29.914.678S893.3,1095.546,898.54,1105.767Z" transform="translate(-897.289 -1071.113)" fill="#158c61"/>
        </g>
        <g id="Grupo_9711" data-name="Grupo 9711" transform="translate(58.195 0.309)">
          <path id="Trazado_16697" data-name="Trazado 16697" d="M898.543,1105.767l48.137-33.324s-18.678-3.4-29.914.678S892.625,1093.52,898.543,1105.767Z" transform="translate(-897.056 -1071.113)" fill="#04bc7a"/>
        </g>
        <g id="Grupo_9712" data-name="Grupo 9712">
          <path id="Trazado_16698" data-name="Trazado 16698" d="M886.853,1106.354c-3.7,4.886-19.029,10.072-32.7-7.284-15.014-19.057-14.528-27.32-14.528-27.32s18.763-2.9,29.887,1.479S894.905,1095.72,886.853,1106.354Z" transform="translate(-839.621 -1070.808)" fill="#158c61"/>
        </g>
        <g id="Grupo_9713" data-name="Grupo 9713" transform="translate(0.002)">
          <path id="Trazado_16699" data-name="Trazado 16699" d="M886.853,1106.354l-47.23-34.6s18.763-2.9,29.887,1.479S894.905,1094.368,886.853,1106.354Z" transform="translate(-839.623 -1070.808)" fill="#04bc7a"/>
        </g>
      </g>
      <g id="Grupo_9690" data-name="Grupo 9690" transform="translate(86.843 1072.913)">
        <g id="Grupo_9685" data-name="Grupo 9685" transform="translate(44.229 32.377)">
          <path id="Trazado_16675" data-name="Trazado 16675" d="M148.153,1108.975s-5.083,4.192-4.831,14.274,1.622,21.147,1.622,21.147l-9.626.211s3.989-20.313,1.836-25.858-7.065-11.043-7.065-11.043l3.4-1.77a24.316,24.316,0,0,1,3.921,4.517c1.137,1.95,2.512,5.356,2.66,5.446.39.237,1.668-8.275,6.4-11.062C149.295,1103.169,148.153,1108.975,148.153,1108.975Z" transform="translate(-130.089 -1104.536)" fill="#158c61"/>
        </g>
        <g id="Grupo_9686" data-name="Grupo 9686" transform="translate(58.432 0.308)">
          <path id="Trazado_16676" data-name="Trazado 16676" d="M145.357,1107.54c2.8,5.453,18.752,10.578,32.884-6.4,15.519-18.649,15.253-26.921,15.253-26.921s-18.678-3.4-29.914.678S140.115,1097.319,145.357,1107.54Z" transform="translate(-144.106 -1072.886)" fill="#158c61"/>
        </g>
        <g id="Grupo_9687" data-name="Grupo 9687" transform="translate(58.195 0.308)">
          <path id="Trazado_16677" data-name="Trazado 16677" d="M145.36,1107.54l48.137-33.325s-18.678-3.4-29.914.678S139.442,1095.293,145.36,1107.54Z" transform="translate(-143.873 -1072.886)" fill="#04bc7a"/>
        </g>
        <g id="Grupo_9688" data-name="Grupo 9688">
          <path id="Trazado_16678" data-name="Trazado 16678" d="M133.67,1108.126c-3.7,4.886-19.029,10.072-32.7-7.284-15.014-19.057-14.528-27.319-14.528-27.319s18.764-2.9,29.887,1.478S141.722,1097.493,133.67,1108.126Z" transform="translate(-86.438 -1072.582)" fill="#158c61"/>
        </g>
        <g id="Grupo_9689" data-name="Grupo 9689" transform="translate(0.002)">
          <path id="Trazado_16679" data-name="Trazado 16679" d="M133.67,1108.126l-47.23-34.6s18.764-2.9,29.887,1.478S141.722,1096.141,133.67,1108.126Z" transform="translate(-86.44 -1072.582)" fill="#04bc7a"/>
        </g>
      </g>
      <g id="Grupo_9696" data-name="Grupo 9696" transform="translate(248.961 1047.581)">
        <g id="Grupo_9691" data-name="Grupo 9691" transform="translate(44.229 32.378)">
          <path id="Trazado_16680" data-name="Trazado 16680" d="M308.152,1083.974s-5.082,4.192-4.831,14.274,1.623,40.4,1.623,40.4l-9.626.211s3.989-39.565,1.836-45.11-7.065-11.042-7.065-11.042l3.4-1.77a24.316,24.316,0,0,1,3.921,4.517c1.136,1.951,2.512,5.356,2.66,5.446.39.237,1.668-8.275,6.4-11.062C309.295,1078.168,308.152,1083.974,308.152,1083.974Z" transform="translate(-290.089 -1079.536)" fill="#158c61"/>
        </g>
        <g id="Grupo_9692" data-name="Grupo 9692" transform="translate(58.432 0.309)">
          <path id="Trazado_16681" data-name="Trazado 16681" d="M305.357,1082.54c2.8,5.453,18.751,10.578,32.884-6.4,15.519-18.648,15.253-26.92,15.253-26.92s-18.678-3.4-29.914.678S300.115,1072.319,305.357,1082.54Z" transform="translate(-304.106 -1047.886)" fill="#158c61"/>
        </g>
        <g id="Grupo_9693" data-name="Grupo 9693" transform="translate(58.195 0.309)">
          <path id="Trazado_16682" data-name="Trazado 16682" d="M305.36,1082.54l48.137-33.325s-18.678-3.4-29.914.678S299.442,1070.293,305.36,1082.54Z" transform="translate(-303.873 -1047.886)" fill="#04bc7a"/>
        </g>
        <g id="Grupo_9694" data-name="Grupo 9694">
          <path id="Trazado_16683" data-name="Trazado 16683" d="M293.67,1083.126c-3.7,4.886-19.029,10.072-32.7-7.284-15.014-19.057-14.528-27.32-14.528-27.32s18.764-2.9,29.887,1.479S301.722,1072.492,293.67,1083.126Z" transform="translate(-246.438 -1047.581)" fill="#158c61"/>
        </g>
        <g id="Grupo_9695" data-name="Grupo 9695" transform="translate(0.002)">
          <path id="Trazado_16684" data-name="Trazado 16684" d="M293.67,1083.126l-47.23-34.6s18.764-2.9,29.887,1.479S301.722,1071.141,293.67,1083.126Z" transform="translate(-246.44 -1047.581)" fill="#04bc7a"/>
        </g>
      </g>
      <g id="Grupo_9702" data-name="Grupo 9702" transform="translate(412.093 1070.886)">
        <g id="Grupo_9697" data-name="Grupo 9697" transform="translate(44.229 32.377)">
          <path id="Trazado_16685" data-name="Trazado 16685" d="M469.153,1106.975s-5.083,4.192-4.831,14.274,1.622,21.147,1.622,21.147l-9.626.211s3.989-20.313,1.836-25.858-7.065-11.043-7.065-11.043l3.4-1.77a24.316,24.316,0,0,1,3.921,4.517c1.137,1.95,2.512,5.356,2.66,5.446.39.237,1.668-8.275,6.4-11.062C470.295,1101.169,469.153,1106.975,469.153,1106.975Z" transform="translate(-451.089 -1102.536)" fill="#158c61"/>
        </g>
        <g id="Grupo_9698" data-name="Grupo 9698" transform="translate(58.432 0.308)">
          <path id="Trazado_16686" data-name="Trazado 16686" d="M466.357,1105.54c2.8,5.453,18.752,10.578,32.884-6.4,15.519-18.649,15.253-26.921,15.253-26.921s-18.678-3.4-29.914.678S461.115,1095.319,466.357,1105.54Z" transform="translate(-465.106 -1070.886)" fill="#158c61"/>
        </g>
        <g id="Grupo_9699" data-name="Grupo 9699" transform="translate(58.195 0.308)">
          <path id="Trazado_16687" data-name="Trazado 16687" d="M466.36,1105.54l48.137-33.325s-18.678-3.4-29.914.678S460.442,1093.293,466.36,1105.54Z" transform="translate(-464.873 -1070.886)" fill="#04bc7a"/>
        </g>
        <g id="Grupo_9700" data-name="Grupo 9700">
          <path id="Trazado_16688" data-name="Trazado 16688" d="M454.67,1106.126c-3.7,4.886-19.029,10.072-32.7-7.284-15.014-19.057-14.528-27.319-14.528-27.319s18.764-2.9,29.887,1.478S462.722,1095.493,454.67,1106.126Z" transform="translate(-407.438 -1070.582)" fill="#158c61"/>
        </g>
        <g id="Grupo_9701" data-name="Grupo 9701" transform="translate(0.002)">
          <path id="Trazado_16689" data-name="Trazado 16689" d="M454.67,1106.126l-47.23-34.6s18.764-2.9,29.887,1.478S462.722,1094.141,454.67,1106.126Z" transform="translate(-407.44 -1070.582)" fill="#04bc7a"/>
        </g>
      </g>
      <g id="Grupo_9708" data-name="Grupo 9708" transform="translate(577.252 1047.581)">
        <g id="Grupo_9703" data-name="Grupo 9703" transform="translate(44.229 32.378)">
          <path id="Trazado_16690" data-name="Trazado 16690" d="M632.153,1083.975s-5.083,4.191-4.832,14.273,1.623,40.4,1.623,40.4l-9.626.211s3.989-39.565,1.836-45.11-7.065-11.042-7.065-11.042l3.4-1.77a24.315,24.315,0,0,1,3.921,4.517c1.137,1.951,2.512,5.356,2.66,5.446.39.237,1.668-8.275,6.4-11.062C633.295,1078.169,632.153,1083.975,632.153,1083.975Z" transform="translate(-614.089 -1079.536)" fill="#158c61"/>
        </g>
        <g id="Grupo_9704" data-name="Grupo 9704" transform="translate(58.432 0.309)">
          <path id="Trazado_16691" data-name="Trazado 16691" d="M629.357,1082.54c2.8,5.453,18.751,10.578,32.884-6.4,15.519-18.648,15.253-26.92,15.253-26.92s-18.678-3.4-29.914.678S624.115,1072.319,629.357,1082.54Z" transform="translate(-628.106 -1047.886)" fill="#158c61"/>
        </g>
        <g id="Grupo_9705" data-name="Grupo 9705" transform="translate(58.195 0.309)">
          <path id="Trazado_16692" data-name="Trazado 16692" d="M629.36,1082.54l48.137-33.325s-18.678-3.4-29.914.678S623.442,1070.293,629.36,1082.54Z" transform="translate(-627.873 -1047.886)" fill="#04bc7a"/>
        </g>
        <g id="Grupo_9706" data-name="Grupo 9706">
          <path id="Trazado_16693" data-name="Trazado 16693" d="M617.67,1083.126c-3.7,4.886-19.029,10.072-32.7-7.284-15.014-19.057-14.528-27.32-14.528-27.32s18.764-2.9,29.887,1.479S625.722,1072.493,617.67,1083.126Z" transform="translate(-570.438 -1047.581)" fill="#158c61"/>
        </g>
        <g id="Grupo_9707" data-name="Grupo 9707" transform="translate(0.002)">
          <path id="Trazado_16694" data-name="Trazado 16694" d="M617.67,1083.126l-47.23-34.6s18.764-2.9,29.887,1.479S625.722,1071.141,617.67,1083.126Z" transform="translate(-570.44 -1047.581)" fill="#04bc7a"/>
        </g>
      </g>
      <g id="Grupo_9714" data-name="Grupo 9714" transform="translate(1344.999 1071.116)">
        <g id="Grupo_9709-2" data-name="Grupo 9709" transform="translate(44.229 32.378)">
          <path id="Trazado_16695-2" data-name="Trazado 16695" d="M901.336,1107.2s-5.083,4.191-4.831,14.272,1.622,21.148,1.622,21.148l-9.626.211s3.989-20.314,1.836-25.859-7.065-11.042-7.065-11.042l3.4-1.77a24.309,24.309,0,0,1,3.921,4.517c1.137,1.95,2.512,5.356,2.66,5.446.39.237,1.668-8.275,6.4-11.062C902.478,1101.4,901.336,1107.2,901.336,1107.2Z" transform="translate(-883.272 -1102.763)" fill="#158c61"/>
        </g>
        <g id="Grupo_9710-2" data-name="Grupo 9710" transform="translate(58.432 0.309)">
          <path id="Trazado_16696-2" data-name="Trazado 16696" d="M898.54,1105.767c2.8,5.453,18.752,10.578,32.884-6.4,15.519-18.649,15.253-26.921,15.253-26.921s-18.678-3.4-29.914.678S893.3,1095.546,898.54,1105.767Z" transform="translate(-897.289 -1071.113)" fill="#158c61"/>
        </g>
        <g id="Grupo_9711-2" data-name="Grupo 9711" transform="translate(58.195 0.309)">
          <path id="Trazado_16697-2" data-name="Trazado 16697" d="M898.543,1105.767l48.137-33.324s-18.678-3.4-29.914.678S892.625,1093.52,898.543,1105.767Z" transform="translate(-897.056 -1071.113)" fill="#04bc7a"/>
        </g>
        <g id="Grupo_9712-2" data-name="Grupo 9712">
          <path id="Trazado_16698-2" data-name="Trazado 16698" d="M886.853,1106.354c-3.7,4.886-19.029,10.072-32.7-7.284-15.014-19.057-14.528-27.32-14.528-27.32s18.763-2.9,29.887,1.479S894.905,1095.72,886.853,1106.354Z" transform="translate(-839.621 -1070.808)" fill="#158c61"/>
        </g>
        <g id="Grupo_9713-2" data-name="Grupo 9713" transform="translate(0.002)">
          <path id="Trazado_16699-2" data-name="Trazado 16699" d="M886.853,1106.354l-47.23-34.6s18.763-2.9,29.887,1.479S894.905,1094.368,886.853,1106.354Z" transform="translate(-839.623 -1070.808)" fill="#04bc7a"/>
        </g>
      </g>
      <g id="Grupo_9720" data-name="Grupo 9720" transform="translate(1125.673 1049.339)">
        <g id="Grupo_9715" data-name="Grupo 9715" transform="translate(44.229 32.378)">
          <path id="Trazado_16700" data-name="Trazado 16700" d="M1063.857,1085.709s-5.083,4.192-4.831,14.274,1.622,38.373,1.622,38.373l-9.626.211s3.99-37.538,1.837-43.084-7.065-11.042-7.065-11.042l3.4-1.77a24.314,24.314,0,0,1,3.921,4.517c1.136,1.951,2.511,5.355,2.66,5.446.389.237,1.668-8.275,6.4-11.062C1065,1079.9,1063.857,1085.709,1063.857,1085.709Z" transform="translate(-1045.794 -1081.271)" fill="#158c61"/>
        </g>
        <g id="Grupo_9716" data-name="Grupo 9716" transform="translate(58.432 0.309)">
          <path id="Trazado_16701" data-name="Trazado 16701" d="M1061.062,1084.275c2.8,5.453,18.751,10.578,32.884-6.4,15.519-18.648,15.253-26.92,15.253-26.92s-18.678-3.4-29.914.678S1055.819,1074.054,1061.062,1084.275Z" transform="translate(-1059.811 -1049.621)" fill="#158c61"/>
        </g>
        <g id="Grupo_9717" data-name="Grupo 9717" transform="translate(58.195 0.309)">
          <path id="Trazado_16702" data-name="Trazado 16702" d="M1061.065,1084.275l48.137-33.324s-18.678-3.4-29.914.678S1055.147,1072.028,1061.065,1084.275Z" transform="translate(-1059.578 -1049.621)" fill="#04bc7a"/>
        </g>
        <g id="Grupo_9718" data-name="Grupo 9718">
          <path id="Trazado_16703" data-name="Trazado 16703" d="M1049.375,1084.861c-3.7,4.885-19.029,10.072-32.7-7.284-15.014-19.057-14.528-27.32-14.528-27.32s18.763-2.9,29.885,1.479S1057.427,1074.226,1049.375,1084.861Z" transform="translate(-1002.143 -1049.316)" fill="#158c61"/>
        </g>
        <g id="Grupo_9719" data-name="Grupo 9719" transform="translate(0.002)">
          <path id="Trazado_16704" data-name="Trazado 16704" d="M1049.375,1084.861l-47.23-34.6s18.763-2.9,29.885,1.479S1057.427,1072.876,1049.375,1084.861Z" transform="translate(-1002.145 -1049.316)" fill="#04bc7a"/>
        </g>
      </g>
      <g id="Grupo_9741" data-name="Grupo 9741" transform="translate(55.885 1138.03)">
        <g id="Grupo_9721" data-name="Grupo 9721" transform="translate(217.847)">
          <path id="Trazado_16705" data-name="Trazado 16705" d="M328.547,1156.01c-4.028-11.134-15.409-19.162-28.831-19.162s-24.8,8.029-28.831,19.162Z" transform="translate(-270.885 -1136.848)" fill="#a06948"/>
        </g>
        <g id="Grupo_9722" data-name="Grupo 9722" transform="translate(271.549)">
          <path id="Trazado_16706" data-name="Trazado 16706" d="M381.547,1156.01c-4.028-11.134-15.409-19.162-28.831-19.162s-24.8,8.029-28.831,19.162Z" transform="translate(-323.885 -1136.848)" fill="#906536"/>
        </g>
        <g id="Grupo_9723" data-name="Grupo 9723" transform="translate(328.29)">
          <path id="Trazado_16707" data-name="Trazado 16707" d="M437.547,1156.01c-4.028-11.134-15.409-19.162-28.831-19.162s-24.8,8.029-28.831,19.162Z" transform="translate(-379.885 -1136.848)" fill="#a4654a"/>
        </g>
        <g id="Grupo_9724" data-name="Grupo 9724" transform="translate(381.992)">
          <path id="Trazado_16708" data-name="Trazado 16708" d="M490.547,1156.01c-4.028-11.134-15.409-19.162-28.831-19.162s-24.8,8.029-28.831,19.162Z" transform="translate(-432.885 -1136.848)" fill="#945944"/>
        </g>
        <g id="Grupo_9725" data-name="Grupo 9725" transform="translate(436.707)">
          <path id="Trazado_16709" data-name="Trazado 16709" d="M544.547,1156.01c-4.028-11.134-15.409-19.162-28.831-19.162s-24.8,8.029-28.831,19.162Z" transform="translate(-486.885 -1136.848)" fill="#9a6338"/>
        </g>
        <g id="Grupo_9726" data-name="Grupo 9726" transform="translate(490.409)">
          <path id="Trazado_16710" data-name="Trazado 16710" d="M597.547,1156.01c-4.028-11.134-15.409-19.162-28.831-19.162s-24.8,8.029-28.831,19.162Z" transform="translate(-539.885 -1136.848)" fill="#94553c"/>
        </g>
        <g id="Grupo_9727" data-name="Grupo 9727" transform="translate(547.151)">
          <path id="Trazado_16711" data-name="Trazado 16711" d="M653.547,1156.01c-4.028-11.134-15.409-19.162-28.831-19.162s-24.8,8.029-28.831,19.162Z" transform="translate(-595.885 -1136.848)" fill="#8c5348"/>
        </g>
        <g id="Grupo_9728" data-name="Grupo 9728" transform="translate(600.852)">
          <path id="Trazado_16712" data-name="Trazado 16712" d="M706.547,1156.01c-4.028-11.134-15.409-19.162-28.831-19.162s-24.8,8.029-28.831,19.162Z" transform="translate(-648.885 -1136.848)" fill="#9a613c"/>
        </g>
        <g id="Grupo_9729" data-name="Grupo 9729" transform="translate(655.567)">
          <path id="Trazado_16713" data-name="Trazado 16713" d="M760.547,1156.01c-4.028-11.134-15.409-19.162-28.831-19.162s-24.8,8.029-28.831,19.162Z" transform="translate(-702.885 -1136.848)" fill="#966542"/>
        </g>
        <g id="Grupo_9730" data-name="Grupo 9730" transform="translate(709.269)">
          <path id="Trazado_16714" data-name="Trazado 16714" d="M813.547,1156.01c-4.028-11.134-15.409-19.162-28.831-19.162s-24.8,8.029-28.831,19.162Z" transform="translate(-755.885 -1136.848)" fill="#a26536"/>
        </g>
        <g id="Grupo_9731" data-name="Grupo 9731" transform="translate(766.011)">
          <path id="Trazado_16715" data-name="Trazado 16715" d="M869.547,1156.01c-4.028-11.134-15.409-19.162-28.831-19.162s-24.8,8.029-28.831,19.162Z" transform="translate(-811.885 -1136.848)" fill="#946b48"/>
        </g>
        <g id="Grupo_9732" data-name="Grupo 9732" transform="translate(819.713)">
          <path id="Trazado_16716" data-name="Trazado 16716" d="M922.547,1156.01c-4.028-11.134-15.409-19.162-28.831-19.162s-24.8,8.029-28.831,19.162Z" transform="translate(-864.885 -1136.848)" fill="#905342"/>
        </g>
        <g id="Grupo_9733" data-name="Grupo 9733" transform="translate(874.429)">
          <path id="Trazado_16717" data-name="Trazado 16717" d="M976.547,1156.01c-4.028-11.134-15.409-19.162-28.831-19.162s-24.8,8.029-28.83,19.162Z" transform="translate(-918.886 -1136.848)" fill="#8e6b42"/>
        </g>
        <g id="Grupo_9734" data-name="Grupo 9734" transform="translate(928.13)">
          <path id="Trazado_16718" data-name="Trazado 16718" d="M1029.547,1156.01c-4.028-11.134-15.409-19.162-28.831-19.162s-24.8,8.029-28.83,19.162Z" transform="translate(-971.886 -1136.848)" fill="#965934"/>
        </g>
        <g id="Grupo_9735" data-name="Grupo 9735" transform="translate(984.872)">
          <path id="Trazado_16719" data-name="Trazado 16719" d="M1085.547,1156.01c-4.028-11.134-15.409-19.162-28.831-19.162s-24.8,8.029-28.83,19.162Z" transform="translate(-1027.886 -1136.848)" fill="#9a534a"/>
        </g>
        <g id="Grupo_9736" data-name="Grupo 9736" transform="translate(1038.574)">
          <path id="Trazado_16720" data-name="Trazado 16720" d="M1138.547,1156.01c-4.028-11.134-15.409-19.162-28.831-19.162s-24.8,8.029-28.83,19.162Z" transform="translate(-1080.886 -1136.848)" fill="#9c6932"/>
        </g>
        <g id="Grupo_9737" data-name="Grupo 9737">
          <path id="Trazado_16721" data-name="Trazado 16721" d="M113.547,1156.01c-4.028-11.134-15.409-19.162-28.831-19.162s-24.8,8.029-28.831,19.162Z" transform="translate(-55.885 -1136.848)" fill="#94633c"/>
        </g>
        <g id="Grupo_9738" data-name="Grupo 9738" transform="translate(56.742)">
          <path id="Trazado_16722" data-name="Trazado 16722" d="M169.547,1156.01c-4.028-11.134-15.409-19.162-28.831-19.162s-24.8,8.029-28.831,19.162Z" transform="translate(-111.885 -1136.848)" fill="#906544"/>
        </g>
        <g id="Grupo_9739" data-name="Grupo 9739" transform="translate(110.443)">
          <path id="Trazado_16723" data-name="Trazado 16723" d="M222.547,1156.01c-4.028-11.134-15.409-19.162-28.831-19.162s-24.8,8.029-28.831,19.162Z" transform="translate(-164.885 -1136.848)" fill="#966b40"/>
        </g>
        <g id="Grupo_9740" data-name="Grupo 9740" transform="translate(165.158)">
          <path id="Trazado_16724" data-name="Trazado 16724" d="M276.547,1156.01c-4.028-11.134-15.409-19.162-28.831-19.162s-24.8,8.029-28.831,19.162Z" transform="translate(-218.885 -1136.848)" fill="#a05336"/>
        </g>
      </g>
      <g id="Grupo_9743" data-name="Grupo 9743" transform="translate(1152.213 1138.03)">
        <g id="Grupo_9721-2" data-name="Grupo 9721" transform="translate(217.847)">
          <path id="Trazado_16705-2" data-name="Trazado 16705" d="M328.547,1156.01c-4.028-11.134-15.409-19.162-28.831-19.162s-24.8,8.029-28.831,19.162Z" transform="translate(-270.885 -1136.848)" fill="#a06948"/>
        </g>
        <g id="Grupo_9722-2" data-name="Grupo 9722" transform="translate(271.549)">
          <path id="Trazado_16706-2" data-name="Trazado 16706" d="M381.547,1156.01c-4.028-11.134-15.409-19.162-28.831-19.162s-24.8,8.029-28.831,19.162Z" transform="translate(-323.885 -1136.848)" fill="#906536"/>
        </g>
        <g id="Grupo_9723-2" data-name="Grupo 9723" transform="translate(328.29)">
          <path id="Trazado_16707-2" data-name="Trazado 16707" d="M437.547,1156.01c-4.028-11.134-15.409-19.162-28.831-19.162s-24.8,8.029-28.831,19.162Z" transform="translate(-379.885 -1136.848)" fill="#a4654a"/>
        </g>
        <g id="Grupo_9724-2" data-name="Grupo 9724" transform="translate(381.992)">
          <path id="Trazado_16708-2" data-name="Trazado 16708" d="M490.547,1156.01c-4.028-11.134-15.409-19.162-28.831-19.162s-24.8,8.029-28.831,19.162Z" transform="translate(-432.885 -1136.848)" fill="#945944"/>
        </g>
        <g id="Grupo_9725-2" data-name="Grupo 9725" transform="translate(436.707)">
          <path id="Trazado_16709-2" data-name="Trazado 16709" d="M544.547,1156.01c-4.028-11.134-15.409-19.162-28.831-19.162s-24.8,8.029-28.831,19.162Z" transform="translate(-486.885 -1136.848)" fill="#9a6338"/>
        </g>
        <g id="Grupo_9726-2" data-name="Grupo 9726" transform="translate(490.409)">
          <path id="Trazado_16710-2" data-name="Trazado 16710" d="M597.547,1156.01c-4.028-11.134-15.409-19.162-28.831-19.162s-24.8,8.029-28.831,19.162Z" transform="translate(-539.885 -1136.848)" fill="#94553c"/>
        </g>
        <g id="Grupo_9727-2" data-name="Grupo 9727" transform="translate(547.151)">
          <path id="Trazado_16711-2" data-name="Trazado 16711" d="M653.547,1156.01c-4.028-11.134-15.409-19.162-28.831-19.162s-24.8,8.029-28.831,19.162Z" transform="translate(-595.885 -1136.848)" fill="#8c5348"/>
        </g>
        <g id="Grupo_9728-2" data-name="Grupo 9728" transform="translate(600.852)">
          <path id="Trazado_16712-2" data-name="Trazado 16712" d="M706.547,1156.01c-4.028-11.134-15.409-19.162-28.831-19.162s-24.8,8.029-28.831,19.162Z" transform="translate(-648.885 -1136.848)" fill="#9a613c"/>
        </g>
        <g id="Grupo_9729-2" data-name="Grupo 9729" transform="translate(655.567)">
          <path id="Trazado_16713-2" data-name="Trazado 16713" d="M760.547,1156.01c-4.028-11.134-15.409-19.162-28.831-19.162s-24.8,8.029-28.831,19.162Z" transform="translate(-702.885 -1136.848)" fill="#966542"/>
        </g>
        <g id="Grupo_9730-2" data-name="Grupo 9730" transform="translate(709.269)">
          <path id="Trazado_16714-2" data-name="Trazado 16714" d="M813.547,1156.01c-4.028-11.134-15.409-19.162-28.831-19.162s-24.8,8.029-28.831,19.162Z" transform="translate(-755.885 -1136.848)" fill="#a26536"/>
        </g>
        <g id="Grupo_9731-2" data-name="Grupo 9731" transform="translate(766.011)">
          <path id="Trazado_16715-2" data-name="Trazado 16715" d="M869.547,1156.01c-4.028-11.134-15.409-19.162-28.831-19.162s-24.8,8.029-28.831,19.162Z" transform="translate(-811.885 -1136.848)" fill="#946b48"/>
        </g>
        <g id="Grupo_9737-2" data-name="Grupo 9737" transform="translate(0)">
          <path id="Trazado_16721-2" data-name="Trazado 16721" d="M113.547,1156.01c-4.028-11.134-15.409-19.162-28.831-19.162s-24.8,8.029-28.831,19.162Z" transform="translate(-55.885 -1136.848)" fill="#94633c"/>
        </g>
        <g id="Grupo_9738-2" data-name="Grupo 9738" transform="translate(56.742)">
          <path id="Trazado_16722-2" data-name="Trazado 16722" d="M169.547,1156.01c-4.028-11.134-15.409-19.162-28.831-19.162s-24.8,8.029-28.831,19.162Z" transform="translate(-111.885 -1136.848)" fill="#906544"/>
        </g>
        <g id="Grupo_9739-2" data-name="Grupo 9739" transform="translate(110.443)">
          <path id="Trazado_16723-2" data-name="Trazado 16723" d="M222.547,1156.01c-4.028-11.134-15.409-19.162-28.831-19.162s-24.8,8.029-28.831,19.162Z" transform="translate(-164.885 -1136.848)" fill="#966b40"/>
        </g>
        <g id="Grupo_9740-2" data-name="Grupo 9740" transform="translate(165.158)">
          <path id="Trazado_16724-2" data-name="Trazado 16724" d="M276.547,1156.01c-4.028-11.134-15.409-19.162-28.831-19.162s-24.8,8.029-28.831,19.162Z" transform="translate(-218.885 -1136.848)" fill="#a05336"/>
        </g>
      </g>
      <g id="Grupo_9744" data-name="Grupo 9744" transform="translate(1510.064 1049.339)">
        <g id="Grupo_9715-2" data-name="Grupo 9715" transform="translate(44.229 32.378)">
          <path id="Trazado_16700-2" data-name="Trazado 16700" d="M1063.857,1085.709s-5.083,4.192-4.831,14.274,1.622,38.373,1.622,38.373l-9.626.211s3.99-37.538,1.837-43.084-7.065-11.042-7.065-11.042l3.4-1.77a24.314,24.314,0,0,1,3.921,4.517c1.136,1.951,2.511,5.355,2.66,5.446.389.237,1.668-8.275,6.4-11.062C1065,1079.9,1063.857,1085.709,1063.857,1085.709Z" transform="translate(-1045.794 -1081.271)" fill="#158c61"/>
        </g>
        <g id="Grupo_9716-2" data-name="Grupo 9716" transform="translate(58.432 0.309)">
          <path id="Trazado_16701-2" data-name="Trazado 16701" d="M1061.062,1084.275c2.8,5.453,18.751,10.578,32.884-6.4,15.519-18.648,15.253-26.92,15.253-26.92s-18.678-3.4-29.914.678S1055.819,1074.054,1061.062,1084.275Z" transform="translate(-1059.811 -1049.621)" fill="#158c61"/>
        </g>
        <g id="Grupo_9717-2" data-name="Grupo 9717" transform="translate(58.195 0.309)">
          <path id="Trazado_16702-2" data-name="Trazado 16702" d="M1061.065,1084.275l48.137-33.324s-18.678-3.4-29.914.678S1055.147,1072.028,1061.065,1084.275Z" transform="translate(-1059.578 -1049.621)" fill="#04bc7a"/>
        </g>
        <g id="Grupo_9718-2" data-name="Grupo 9718">
          <path id="Trazado_16703-2" data-name="Trazado 16703" d="M1049.375,1084.861c-3.7,4.885-19.029,10.072-32.7-7.284-15.014-19.057-14.528-27.32-14.528-27.32s18.763-2.9,29.885,1.479S1057.427,1074.226,1049.375,1084.861Z" transform="translate(-1002.143 -1049.316)" fill="#158c61"/>
        </g>
        <g id="Grupo_9719-2" data-name="Grupo 9719" transform="translate(0.002)">
          <path id="Trazado_16704-2" data-name="Trazado 16704" d="M1049.375,1084.861l-47.23-34.6s18.763-2.9,29.885,1.479S1057.427,1072.876,1049.375,1084.861Z" transform="translate(-1002.145 -1049.316)" fill="#04bc7a"/>
        </g>
      </g>
      <g id="Grupo_9745" data-name="Grupo 9745" transform="translate(1675.064 1049.339)">
        <g id="Grupo_9715-3" data-name="Grupo 9715" transform="translate(44.229 32.378)">
          <path id="Trazado_16700-3" data-name="Trazado 16700" d="M1063.857,1085.709s-5.083,4.192-4.831,14.274,1.622,38.373,1.622,38.373l-9.626.211s3.99-37.538,1.837-43.084-7.065-11.042-7.065-11.042l3.4-1.77a24.314,24.314,0,0,1,3.921,4.517c1.136,1.951,2.511,5.355,2.66,5.446.389.237,1.668-8.275,6.4-11.062C1065,1079.9,1063.857,1085.709,1063.857,1085.709Z" transform="translate(-1045.794 -1081.271)" fill="#158c61"/>
        </g>
        <g id="Grupo_9716-3" data-name="Grupo 9716" transform="translate(58.432 0.309)">
          <path id="Trazado_16701-3" data-name="Trazado 16701" d="M1061.062,1084.275c2.8,5.453,18.751,10.578,32.884-6.4,15.519-18.648,15.253-26.92,15.253-26.92s-18.678-3.4-29.914.678S1055.819,1074.054,1061.062,1084.275Z" transform="translate(-1059.811 -1049.621)" fill="#158c61"/>
        </g>
        <g id="Grupo_9717-3" data-name="Grupo 9717" transform="translate(58.195 0.309)">
          <path id="Trazado_16702-3" data-name="Trazado 16702" d="M1061.065,1084.275l48.137-33.324s-18.678-3.4-29.914.678S1055.147,1072.028,1061.065,1084.275Z" transform="translate(-1059.578 -1049.621)" fill="#04bc7a"/>
        </g>
        <g id="Grupo_9718-3" data-name="Grupo 9718">
          <path id="Trazado_16703-3" data-name="Trazado 16703" d="M1049.375,1084.861c-3.7,4.885-19.029,10.072-32.7-7.284-15.014-19.057-14.528-27.32-14.528-27.32s18.763-2.9,29.885,1.479S1057.427,1074.226,1049.375,1084.861Z" transform="translate(-1002.143 -1049.316)" fill="#158c61"/>
        </g>
        <g id="Grupo_9719-3" data-name="Grupo 9719" transform="translate(0.002)">
          <path id="Trazado_16704-3" data-name="Trazado 16704" d="M1049.375,1084.861l-47.23-34.6s18.763-2.9,29.885,1.479S1057.427,1072.876,1049.375,1084.861Z" transform="translate(-1002.145 -1049.316)" fill="#04bc7a"/>
        </g>
      </g>
    </g>
    <g id="Grupo_9758" data-name="Grupo 9758" transform="translate(166.57 511.828)">
      <g id="Grupo_9751" data-name="Grupo 9751">
        <g id="Grupo_9746" data-name="Grupo 9746">
          <path id="Trazado_16725" data-name="Trazado 16725" d="M721.427,951.08s-13.893-4.218-23.442-4.9c-9.5-.676-15.043,3.346-14.246,9.66.785,6.222,9.325,7.452,16.5,5.356C709.651,958.452,721.427,951.08,721.427,951.08Z" fill="#528f87"/>
        </g>
        <g id="Grupo_9747" data-name="Grupo 9747">
          <path id="Trazado_16726" data-name="Trazado 16726" d="M616.054,905.534s-12.386-7.577-21.459-10.637c-9.025-3.044-15.4-.545-16.222,5.767-.806,6.219,7.15,9.559,14.627,9.336C602.8,909.708,616.054,905.534,616.054,905.534Z" fill="#528f87"/>
        </g>
        <g id="Grupo_9748" data-name="Grupo 9748">
          <path id="Trazado_16727" data-name="Trazado 16727" d="M640.621,961.55s-16.893-5.01-28.487-5.76c-11.533-.745-18.226,4.18-17.2,11.839C595.934,975.174,606.306,976.6,615,974,626.394,970.591,640.621,961.55,640.621,961.55Z" fill="#528f87"/>
        </g>
        <g id="Grupo_9749" data-name="Grupo 9749">
          <path id="Trazado_16728" data-name="Trazado 16728" d="M564.2,939.076s-16.766-5.44-28.341-6.486c-11.515-1.04-18.335,3.713-17.512,11.394.811,7.569,11.148,9.261,19.909,6.883C549.742,947.751,564.2,939.076,564.2,939.076Z" fill="#09bab1"/>
        </g>
        <g id="Grupo_9750" data-name="Grupo 9750">
          <path id="Trazado_16729" data-name="Trazado 16729" d="M542.667,860.747s-17.061-13.291-29.976-19.34c-12.847-6.018-22.706-3.39-24.974,5.814-2.235,9.069,8.981,15.345,20.083,16.269C522.352,864.7,542.667,860.747,542.667,860.747Z" fill="#00aba5"/>
        </g>
      </g>
      <g id="Grupo_9757" data-name="Grupo 9757">
        <g id="Grupo_9752" data-name="Grupo 9752">
          <path id="Trazado_16730" data-name="Trazado 16730" d="M868.652,964.346s14.217,2.956,22.925,6.935c8.664,3.96,11.6,10.145,7.874,15.3-3.672,5.083-11.758,2.071-17.055-3.208C875.454,976.457,868.652,964.346,868.652,964.346Z" fill="#528f87"/>
        </g>
        <g id="Grupo_9753" data-name="Grupo 9753">
          <path id="Trazado_16731" data-name="Trazado 16731" d="M964.082,903.318s14-3.847,23.569-4.272c9.517-.423,14.955,3.746,13.992,10.038-.948,6.2-9.519,7.2-16.643,4.916C975.663,911,964.082,903.318,964.082,903.318Z" fill="#528f87"/>
        </g>
        <g id="Grupo_9754" data-name="Grupo 9754">
          <path id="Trazado_16732" data-name="Trazado 16732" d="M940.755,949.477s17.563,1.418,28.647,4.9c11.026,3.464,15.492,10.472,11.779,17.247-3.658,6.676-13.847,4.266-21.018-1.295C950.765,963.04,940.755,949.477,940.755,949.477Z" fill="#528f87"/>
        </g>
        <g id="Grupo_9755" data-name="Grupo 9755">
          <path id="Trazado_16733" data-name="Trazado 16733" d="M1025.389,927.574s17.484-2.233,29.053-1.111c11.508,1.117,17.329,7.054,15.095,14.451-2.2,7.287-12.673,7.03-20.841,3.066C1037.99,938.785,1025.389,927.574,1025.389,927.574Z" fill="#09bab1"/>
        </g>
        <g id="Grupo_9756" data-name="Grupo 9756">
          <path id="Trazado_16734" data-name="Trazado 16734" d="M1044.133,875.257s17.062-13.29,29.976-19.34c12.848-6.018,22.706-3.39,24.974,5.814,2.235,9.069-8.98,15.345-20.083,16.269C1064.448,879.211,1044.133,875.257,1044.133,875.257Z" fill="#00aba5"/>
        </g>
      </g>
    </g>
    <g id="Grupo_9768" data-name="Grupo 9768" transform="translate(80.244 40)">
      <g id="Grupo_9767" data-name="Grupo 9767" transform="translate(178.01 527.11)">
        <g id="Grupo_9763" data-name="Grupo 9763" transform="translate(510.746 800)">
          <path id="Trazado_16737" data-name="Trazado 16737" d="M700.139,906.8,892.076,800H510.746L685.338,906.843Z" transform="translate(-510.746 -800)" fill="#85e0d7"/>
        </g>
        <g id="Grupo_9764" data-name="Grupo 9764" transform="translate(553.865 800)">
          <path id="Trazado_16738" data-name="Trazado 16738" d="M868.849,800h-293.1l137.817,85.574Z" transform="translate(-575.746 -800)" fill="#18c9bc"/>
        </g>
        <g id="Grupo_9765" data-name="Grupo 9765" transform="translate(593.667 800)">
          <path id="Trazado_16739" data-name="Trazado 16739" d="M846.591,800H635.746l98.015,57.713Z" transform="translate(-635.746 -800)" fill="#09bab1"/>
        </g>
        <g id="Grupo_9766" data-name="Grupo 9766" transform="translate(636.122 800)">
          <path id="Trazado_16740" data-name="Trazado 16740" d="M825.681,800H699.746l55.559,32.5Z" transform="translate(-699.746 -800)" fill="#00aba5"/>
        </g>
      </g>
      <g id="Grupo_9762" data-name="Grupo 9762" transform="translate(85.207 474.5)">
        <g id="Grupo_9759" data-name="Grupo 9759">
          <rect id="Rectángulo_1907" data-name="Rectángulo 1907" width="14" height="163" transform="translate(778.167 981)" fill="#293b4f"/>
        </g>
        <g id="Grupo_9760" data-name="Grupo 9760">
          <path id="Trazado_16735" data-name="Trazado 16735" d="M796.5,986.375H773.625a1.8,1.8,0,0,1-1.824-1.992l2.02-22.891A2.224,2.224,0,0,1,776,959.5h18.133a2.224,2.224,0,0,1,2.175,1.992l2.02,22.891A1.8,1.8,0,0,1,796.5,986.375Z" fill="#ffc327"/>
        </g>
        <g id="Grupo_9761" data-name="Grupo 9761">
          <path id="Trazado_16736" data-name="Trazado 16736" d="M796.3,961.492a2.226,2.226,0,0,0-2.176-1.992H784.75v26.875H796.5a1.8,1.8,0,0,0,1.824-1.992Z" fill="#ff9d00"/>
        </g>
      </g>
    </g>
  </g>
</svg>
