<svg xmlns="http://www.w3.org/2000/svg" width="1140" height="249.917" viewBox="0 0 1140 249.917">
  <g id="Grupo_9883" data-name="Grupo 9883" transform="translate(-390 -1909.083)">
    <g id="Grupo_9839" data-name="Grupo 9839">
      <rect id="Rectángulo_1946" data-name="Rectángulo 1946" width="1140" height="79" transform="translate(390 2075)" fill="#efefef"/>
      <g id="Grupo_9816" data-name="Grupo 9816" transform="translate(460.202 1909.083)">
        <rect id="Rectángulo_1934" data-name="Rectángulo 1934" width="10.116" height="70.828" transform="translate(29.83 85.341)" fill="#bd8547"/>
        <rect id="Rectángulo_1935" data-name="Rectángulo 1935" width="5.107" height="70.828" transform="translate(34.84 85.341)" fill="#a44c00"/>
        <path id="Trazado_16851" data-name="Trazado 16851" d="M162.12,1447.325H131.609v-37.166a35.227,35.227,0,0,1,17.408-30.388l13.1-7.684Z" transform="translate(-127.28 -1372.087)" fill="#123e1e"/>
        <rect id="Rectángulo_1936" data-name="Rectángulo 1936" width="34.84" height="1.556" transform="translate(0 75.238)" fill="#123e1e"/>
        <path id="Trazado_16852" data-name="Trazado 16852" d="M226.606,1447.325h30.511v-37.166a35.227,35.227,0,0,0-17.408-30.388l-13.1-7.684Z" transform="translate(-191.766 -1372.087)" fill="#24753f"/>
        <rect id="Rectángulo_1937" data-name="Rectángulo 1937" width="34.84" height="1.556" transform="translate(70.246 76.794) rotate(180)" fill="#123e1e"/>
        <path id="Trazado_16853" data-name="Trazado 16853" d="M220.049,1551.347H207.858v-24.824a32.569,32.569,0,0,1,5.8-18.548l.143-.207h0a32.57,32.57,0,0,1,6.25,19.186Z" transform="translate(-179.039 -1464.191)" fill="#24753f"/>
        <path id="Trazado_16854" data-name="Trazado 16854" d="M193.925,1863.412l-15.21-15.21v-22.207H167.4V1848.2l-15.21,15.21a15.722,15.722,0,0,0-4.635,11.19v12.608h25.18v-6.225H153.778V1874.6a9.534,9.534,0,0,1,2.812-6.788l16.467-16.467,16.467,16.467a9.537,9.537,0,0,1,2.811,6.788v6.383H173.38v6.225h25.18V1874.6A15.721,15.721,0,0,0,193.925,1863.412Z" transform="translate(-138.103 -1680.208)" fill="#24753f"/>
        <path id="Trazado_16855" data-name="Trazado 16855" d="M232.379,1848.2v-22.207h-5.773v25.465l.113-.114,16.467,16.467A9.537,9.537,0,0,1,246,1874.6v6.383H227.043v6.225h25.18V1874.6a15.721,15.721,0,0,0-4.635-11.19Z" transform="translate(-191.766 -1680.208)" fill="#123e1e"/>
        <path id="Trazado_16856" data-name="Trazado 16856" d="M200.839,1989.106a4.918,4.918,0,0,1-2.841-.957,4.694,4.694,0,0,1-5.681,0,4.694,4.694,0,0,1-5.681,0,4.694,4.694,0,0,1-5.681,0,4.918,4.918,0,0,1-2.84.957,5.491,5.491,0,0,1-3.989-1.967h-2.287v11.154h35.278v-11.154h-2.288A5.491,5.491,0,0,1,200.839,1989.106Z" transform="translate(-154.589 -1789.596)" fill="#bd8547"/>
        <path id="Trazado_16857" data-name="Trazado 16857" d="M232.776,1527.2a32.568,32.568,0,0,0-6.17-19.069v43.462h6.17Z" transform="translate(-191.766 -1464.435)" fill="#123e1e"/>
        <rect id="Rectángulo_1938" data-name="Rectángulo 1938" width="35.278" height="4.747" transform="translate(17.25 203.95)" fill="#a44c00"/>
      </g>
      <g id="Grupo_9821" data-name="Grupo 9821" transform="translate(530.486 1909.083)">
        <path id="Trazado_16858" data-name="Trazado 16858" d="M471.634,1387.411l-12.982,25.214h-2.283l10.036-23.391.508-1.144-1.153-.513-10.748,25.048h-2.566l8.085-23.556.342-.978-.986-.348-8.542,24.882h-2.793l6.106-23.722.176-.812-.82-.182-6.365,24.717h-2.963l4.1-23.888.01-.647-.655-.017-4.216,24.551h-3.076l2.063-24.054-.156-.481-.488.149-2.1,24.385H437.04v-24.219l-.322-.315-.322.315,0,24.22h-3.133l-2.093-24.385-.488-.15-.157.48,2.062,24.054h-3.076l-4.215-24.551-.654.016.01.646,4.1,23.889h-2.963l-6.363-24.716-.821.182.176.812,6.105,23.723h-2.792l-8.541-24.882-.987.347.342.977,8.085,23.557H418.42l-10.747-25.048-1.153.513.508,1.143,10.036,23.392h-2.282L401.8,1387.411l-1.319.679,17.836,34.642,17.836,34.641.564-.291.564.291,17.836-34.641,17.836-34.642Zm-19.756,26.872H454.3l-2.849,6.638-.555,1.3-7.11,16.572h-.321l5.181-15.092.444-1.3Zm-3.752,0h2.65l-2.336,6.8-.444,1.3-5.631,16.407h-.548l3.929-15.256.332-1.3Zm-3.724,0h2.82l-1.794,6.968-.333,1.3-4.18,16.241H440.2l2.648-15.421.221-1.3Zm-3.7,0h2.934l-1.225,7.133-.221,1.3-2.758,16.076H438.6l1.339-15.585.109-1.3Zm-.676,0-.627,7.3-.109,1.3-1.365,15.911h-.888l0-15.75,0-1.3v-7.457Zm-3.639,0v7.462l0,1.3v15.746h-.888l-1.364-15.914-.114-1.3-.626-7.292Zm-3.667,0,.654,7.626.114,1.3,1.338,15.58H434l-2.758-16.079-.226-1.3-1.223-7.126Zm-3.7,0,1.336,7.791.225,1.3,2.646,15.415h-.718l-4.18-16.244-.337-1.3-1.792-6.961Zm-3.723,0,2.047,7.955.337,1.3,3.926,15.25h-.548l-5.631-16.408-.449-1.3-2.333-6.8Zm-3.752,0,2.787,8.119.448,1.3,5.178,15.084h-.321l-7.11-16.573-.56-1.3-2.845-6.63Zm-5.92,0h2.14l3.554,8.284.56,1.3,6.4,14.919h-.037l-8.618-16.738Zm38.163,7.77-8.618,16.738h-.037l6.405-14.927.555-1.3,3.554-8.284h2.14Z" transform="translate(-400.481 -1387.411)" fill="#123e1e"/>
        <g id="Grupo_9817" data-name="Grupo 9817" transform="translate(30.977 85.724)">
          <path id="Rectángulo_1939" data-name="Rectángulo 1939" d="M0,0H10.445a0,0,0,0,1,0,0V114.356a5.222,5.222,0,0,1-5.222,5.222h0A5.222,5.222,0,0,1,0,114.356V0A0,0,0,0,1,0,0Z" fill="#bd8547"/>
        </g>
        <g id="Grupo_9818" data-name="Grupo 9818" transform="translate(36.149 85.724)">
          <path id="Trazado_16859" data-name="Trazado 16859" d="M509.495,1765.508h.05a5.222,5.222,0,0,0,5.222-5.222V1645.93h-5.273Z" transform="translate(-509.495 -1645.93)" fill="#a44c00"/>
        </g>
        <g id="Grupo_9819" data-name="Grupo 9819" transform="translate(29.932 51.955)">
          <path id="Trazado_16860" data-name="Trazado 16860" d="M503.334,1579.735H490.748l3.147-27.026a13.856,13.856,0,0,1,2.992-8.523l.074-.095h0a13.894,13.894,0,0,1,3.227,8.816Z" transform="translate(-490.748 -1544.091)" fill="#24753f"/>
        </g>
        <g id="Grupo_9820" data-name="Grupo 9820" transform="translate(36.149 52.008)">
          <path id="Trazado_16861" data-name="Trazado 16861" d="M512.718,1553.014a13.887,13.887,0,0,0-3.185-8.764l-.038,35.591h6.37Z" transform="translate(-509.495 -1544.251)" fill="#123e1e"/>
        </g>
      </g>
      <g id="Grupo_9824" data-name="Grupo 9824" transform="translate(637.325 1909.083)">
        <path id="Trazado_16870" data-name="Trazado 16870" d="M1568.332,1492.911l-33.469-19.064Z" transform="translate(-1530.489 -1452.303)" fill="none" stroke="#22251a" stroke-miterlimit="10" stroke-width="4"/>
        <path id="Trazado_16871" data-name="Trazado 16871" d="M1651.53,1492.911,1685,1473.847Z" transform="translate(-1603.86 -1452.303)" fill="none" stroke="#22251a" stroke-miterlimit="10" stroke-width="4"/>
        <rect id="Rectángulo_1941" data-name="Rectángulo 1941" width="85.921" height="7.102" rx="3.551" transform="translate(0 16.113)" fill="#584c4a"/>
        <path id="Trazado_16872" data-name="Trazado 16872" d="M1523.076,1468.717a3.551,3.551,0,0,0,3.551,3.55h78.819a3.551,3.551,0,0,0,3.551-3.55c0-.013,0-.025,0-.037h-85.917C1523.078,1468.692,1523.076,1468.7,1523.076,1468.717Z" transform="translate(-1523.076 -1449.053)" fill="#22251a"/>
        <g id="Grupo_9823" data-name="Grupo 9823" transform="translate(35.918 23.232)">
          <path id="Rectángulo_1942" data-name="Rectángulo 1942" d="M0,0H11.689a0,0,0,0,1,0,0V156.735a5.844,5.844,0,0,1-5.844,5.844h0A5.844,5.844,0,0,1,0,156.735V0A0,0,0,0,1,0,0Z" transform="translate(1.169 22.886)" fill="#bd8547"/>
          <path id="Trazado_16873" data-name="Trazado 16873" d="M1638.609,1702.644h.056a5.845,5.845,0,0,0,5.845-5.845V1540.065h-5.9Z" transform="translate(-1631.652 -1517.179)" fill="#a44c00"/>
          <rect id="Rectángulo_1943" data-name="Rectángulo 1943" width="14.086" height="24.984" fill="#584c4a"/>
          <rect id="Rectángulo_1944" data-name="Rectángulo 1944" width="7.129" height="24.984" transform="translate(6.957)" fill="#22251a"/>
        </g>
        <path id="Trazado_16874" data-name="Trazado 16874" d="M1535.819,1415.792h-.5l-1.324,5.531-.131,10.74h3.412l-.132-10.747Z" transform="translate(-1529.86 -1415.792)" fill="#22251a"/>
        <path id="Trazado_16875" data-name="Trazado 16875" d="M1561.207,1415.792h-.5l-1.324,5.531-.131,10.74h3.412l-.132-10.747Z" transform="translate(-1545.826 -1415.792)" fill="#22251a"/>
        <path id="Trazado_16876" data-name="Trazado 16876" d="M1586.595,1415.792h-.5l-1.324,5.531-.131,10.74h3.411l-.132-10.747Z" transform="translate(-1561.792 -1415.792)" fill="#22251a"/>
        <path id="Trazado_16877" data-name="Trazado 16877" d="M1611.982,1415.792h-.5l-1.324,5.531-.131,10.74h3.411l-.132-10.747Z" transform="translate(-1577.759 -1415.792)" fill="#22251a"/>
        <path id="Trazado_16878" data-name="Trazado 16878" d="M1637.37,1415.792h-.5l-1.324,5.531-.131,10.74h3.411l-.132-10.747Z" transform="translate(-1593.725 -1415.792)" fill="#22251a"/>
        <path id="Trazado_16879" data-name="Trazado 16879" d="M1662.757,1415.792h-.5l-1.324,5.531-.131,10.74h3.411l-.132-10.747Z" transform="translate(-1609.691 -1415.792)" fill="#22251a"/>
        <path id="Trazado_16880" data-name="Trazado 16880" d="M1688.145,1415.792h-.5l-1.324,5.531-.131,10.74h3.411l-.132-10.747Z" transform="translate(-1625.657 -1415.792)" fill="#22251a"/>
        <path id="Trazado_16881" data-name="Trazado 16881" d="M1713.533,1415.792h-.5l-1.324,5.531-.131,10.74h3.411l-.132-10.747Z" transform="translate(-1641.623 -1415.792)" fill="#22251a"/>
        <path id="Trazado_16882" data-name="Trazado 16882" d="M1738.92,1415.792h-.5l-1.324,5.531-.131,10.74h3.411l-.131-10.747Z" transform="translate(-1657.589 -1415.792)" fill="#22251a"/>
      </g>
      <g id="Grupo_9832" data-name="Grupo 9832" transform="translate(653.303 1957.414)">
        <g id="Grupo_9831" data-name="Grupo 9831" transform="translate(52.782 0)">
          <g id="Grupo_9830" data-name="Grupo 9830">
            <path id="Trazado_16887" data-name="Trazado 16887" d="M2198.106,1660.287h0a5.561,5.561,0,0,1-5.561-5.561l-2.781-154.782h16.682l-2.781,154.782A5.561,5.561,0,0,1,2198.106,1660.287Z" transform="translate(-2189.765 -1499.943)" fill="#bd8547"/>
            <path id="Trazado_16888" data-name="Trazado 16888" d="M2213.187,1660.287h.054a5.561,5.561,0,0,0,5.561-5.561l2.78-154.782h-8.422Z" transform="translate(-2204.899 -1499.943)" fill="#a44c00"/>
          </g>
        </g>
        <path id="Trazado_16889" data-name="Trazado 16889" d="M2040.281,1522.271s12.756-12.809,61.124-12.809v17.483h-10.568v-7.723s-18.589-5.4-50.556,3.048Z" transform="translate(-2040.281 -1506.101)" fill="#24753f"/>
        <path id="Trazado_16890" data-name="Trazado 16890" d="M2213.388,1509.462v17.483h10.568v-7.723s14.5-6.456,45.374,1.038l5.182-.785S2257.526,1509.462,2213.388,1509.462Z" transform="translate(-2152.264 -1506.101)" fill="#123e1e"/>
      </g>
      <g id="Grupo_9834" data-name="Grupo 9834" transform="translate(989.869 1754.128)">
        <path id="Trazado_16891" data-name="Trazado 16891" d="M603.753,307.637H503.461A21.059,21.059,0,0,1,484.3,295.324l-17.331-37.963,221.692-15.109L625.4,299.318A32.314,32.314,0,0,1,603.753,307.637Z" transform="translate(-225.815 -17.625)" fill="#24753f"/>
        <path id="Trazado_16892" data-name="Trazado 16892" d="M662.405,244.041l-52.821,47.643a29.09,29.09,0,0,1-19.483,7.488H499.819a18.957,18.957,0,0,1-17.245-11.084L468.5,257.257l-1.526.1L484.3,295.324a21.059,21.059,0,0,0,19.157,12.313H603.753a32.314,32.314,0,0,0,21.643-8.319l63.269-57.066Z" transform="translate(-225.815 -17.625)" fill="#115d2e"/>
        <path id="Trazado_16893" data-name="Trazado 16893" d="M403.545,322.667H303.461L181.948,229.042a24.946,24.946,0,0,0-29.181-.942l-19.427,13.063a4.408,4.408,0,1,1-4.919-7.317l19.427-13.063a33.752,33.752,0,0,1,39.481,1.274L306.464,313.85h93.39l33.68-34.19A23.6,23.6,0,0,0,440.364,263V251.779a4.408,4.408,0,1,1,8.817,0V263a32.372,32.372,0,0,1-9.366,22.852Z" transform="translate(-5.399 0)" fill="#123e1e"/>
        <path id="Trazado_16894" data-name="Trazado 16894" d="M502.552,482.966a17.725,17.725,0,0,1-6.66-1.32A17.045,17.045,0,0,1,485.1,464.28V404.445h7.948v60.16l-.014.168a9.4,9.4,0,0,0,16.646,6.737l26.088-31.954,6.156,5.026-26.088,31.954A17.056,17.056,0,0,1,502.552,482.966Z" transform="translate(-237.516 -122.617)" fill="#123e1e"/>
        <circle id="Elipse_548" data-name="Elipse 548" cx="6.358" cy="6.358" r="6.358" transform="translate(370.37 328.028) rotate(-53.826)"/>
        <path id="Trazado_16895" data-name="Trazado 16895" d="M790.277,426.074a37.193,37.193,0,1,0,37.193,37.193A37.235,37.235,0,0,0,790.277,426.074Zm27.006,36.6c-5.28-.3-14.474-.506-25.07-.529,5.28-9.19,9.7-17.255,12.078-21.977A27.03,27.03,0,0,1,817.283,462.678Zm-14.012-23.094c-2.9,4.421-7.675,12.28-12.994,21.448-5.319-9.167-10.094-17.027-12.994-21.448a26.961,26.961,0,0,1,25.987,0Zm-27.007.588c2.379,4.722,6.8,12.787,12.078,21.977-10.6.023-19.791.228-25.07.529A27.03,27.03,0,0,1,776.264,440.172Zm-12.992,23.684c5.28.3,14.474.506,25.07.529-5.28,9.19-9.7,17.256-12.078,21.977A27.03,27.03,0,0,1,763.271,463.856Zm14.012,23.094c2.9-4.422,7.675-12.281,12.994-21.448,5.319,9.167,10.094,17.027,12.994,21.448a26.961,26.961,0,0,1-25.987,0Zm27.007-.588c-2.379-4.722-6.8-12.787-12.078-21.977,10.6-.023,19.791-.228,25.07-.529A27.03,27.03,0,0,1,804.29,486.362Z" transform="translate(-411.022 -136.618)"/>
        <path id="Trazado_16896" data-name="Trazado 16896" d="M460.773,254.539a3.376,3.376,0,0,1-.226-6.744l221.692-15.109a3.376,3.376,0,1,1,.459,6.736L461.006,254.531C460.928,254.537,460.85,254.539,460.773,254.539Z" transform="translate(-219.618 -11.428)" fill="#123e1e"/>
        <path id="Trazado_16897" data-name="Trazado 16897" d="M119.3,245.738h0a6.877,6.877,0,0,1,1.87-9.544l20.372-13.7a6.877,6.877,0,0,1,9.544,1.87h0a6.877,6.877,0,0,1-1.87,9.544l-20.372,13.7A6.877,6.877,0,0,1,119.3,245.738Z" transform="translate(0 -4.078)"/>
      </g>
      <g id="Grupo_9837" data-name="Grupo 9837" transform="translate(765 2031.172)">
        <path id="Trazado_16898" data-name="Trazado 16898" d="M884.133,823.026s-10.75,4.894-12.541,13.852-5.375,29.255-5.375,33.2,9.316,6.45,17.916,6.45Z" transform="translate(-866.217 -823.026)" fill="#333541"/>
        <path id="Trazado_16899" data-name="Trazado 16899" d="M941.213,823.026s10.75,4.894,12.541,13.852,5.375,29.255,5.375,33.2-9.316,6.45-17.916,6.45Z" transform="translate(-923.297 -823.026)" fill="#8ea6c3"/>
        <g id="Grupo_9836" data-name="Grupo 9836" transform="translate(11.015 45.813)">
          <path id="Trazado_16900" data-name="Trazado 16900" d="M948.107,1083.62l-1.333-22.877h-5.56V1080.7a3.451,3.451,0,1,1,0,6.9v3.235h0A6.9,6.9,0,0,0,948.107,1083.62Z" transform="translate(-934.312 -1049.767)" fill="#c57932"/>
          <path id="Trazado_16901" data-name="Trazado 16901" d="M915.777,1084.151a3.45,3.45,0,0,1,3.45-3.45v-19.957h-5.56l-1.333,22.877a6.9,6.9,0,0,0,6.893,7.216V1087.6A3.45,3.45,0,0,1,915.777,1084.151Z" transform="translate(-912.326 -1049.767)" fill="#e2a262"/>
          <g id="Grupo_9835" data-name="Grupo 9835" transform="translate(1.314)">
            <path id="Trazado_16902" data-name="Trazado 16902" d="M918.169,1019.809l-.341,5.965h5.587V1014.8A5.251,5.251,0,0,0,918.169,1019.809Z" transform="translate(-917.828 -1014.798)" fill="#8ea6c3"/>
            <path id="Trazado_16903" data-name="Trazado 16903" d="M963.513,1041.74h0l-.341-5.965Z" transform="translate(-952.339 -1030.764)" fill="#8ea6c3"/>
            <path id="Trazado_16904" data-name="Trazado 16904" d="M946.41,1019.291a5.222,5.222,0,0,0-.927-2.3q-.143-.2-.3-.385a5.241,5.241,0,0,0-3.965-1.809h0v10.976H946.8l-.341-5.965Q946.447,1019.547,946.41,1019.291Z" transform="translate(-935.627 -1014.798)" fill="#333541"/>
          </g>
        </g>
      </g>
      <g id="Grupo_9838" data-name="Grupo 9838" transform="translate(815.685 1941.436)">
        <path id="Trazado_16905" data-name="Trazado 16905" d="M2101.113,770.721v29.9a11.677,11.677,0,0,0,4.771,9.416l2.216,1.625v17.726a4.252,4.252,0,0,0,2.535,3.89l8.176,5.869L2123,854.051l8.719-2.172-2.488-10.2a22.861,22.861,0,0,0-3.245-7.348l-12.068-21.737V738.233l-2.767,2.685C2103.1,748.739,2101.113,759.491,2101.113,770.721Z" transform="translate(-2082.606 -738.233)" fill="#8ea6c3"/>
        <path id="Trazado_16906" data-name="Trazado 16906" d="M2116.668,770.721v29.9a11.677,11.677,0,0,1-4.771,9.416l-2.216,1.625v17.726a4.252,4.252,0,0,1-2.535,3.89l-8.176,5.869-4.192,14.907-8.719-2.172,2.489-10.2a22.866,22.866,0,0,1,3.245-7.348l12.068-21.737V738.233h0C2114.341,745.454,2116.668,759.491,2116.668,770.721Z" transform="translate(-2072.543 -738.233)" fill="#333541"/>
        <circle id="Elipse_549" data-name="Elipse 549" cx="2.604" cy="2.604" r="2.604" transform="translate(28.673 85.851)" fill="#cdd8e5"/>
        <path id="Trazado_16907" data-name="Trazado 16907" d="M2181.127,1142.348h0a5.565,5.565,0,0,1-6.745-4.054l-11.582-55.141,10.8-2.69,11.582,55.141A5.565,5.565,0,0,1,2181.127,1142.348Z" transform="translate(-2123.838 -966.977)" fill="#870700"/>
        <path id="Trazado_16908" data-name="Trazado 16908" d="M2049.524,1143.647h0a5.565,5.565,0,0,0,6.745-4.055l12.2-56.44-10.8-2.69-12.2,56.44A5.565,5.565,0,0,0,2049.524,1143.647Z" transform="translate(-2045.303 -966.977)" fill="#9d302a"/>
        <path id="Trazado_16909" data-name="Trazado 16909" d="M2143.312,741.254a23.738,23.738,0,0,0-3.572-3.021v74.2l3.572-6.673Z" transform="translate(-2108.424 -738.233)" fill="#cdd8e5"/>
        <path id="Rectángulo_1945" data-name="Rectángulo 1945" d="M.994,0h0a.994.994,0,0,1,.994.994V7.449a.994.994,0,0,1-.994.994h0A.994.994,0,0,1,0,7.449V.994A.994.994,0,0,1,.994,0Z" transform="matrix(0.707, 0.707, -0.707, 0.707, 33.559, 84.767)" fill="#cdd8e5"/>
      </g>
    </g>
    <rect id="Rectángulo_1947" data-name="Rectángulo 1947" width="1140" height="5" transform="translate(390 2154)" fill="#fdac29"/>
  </g>
</svg>
