<svg xmlns="http://www.w3.org/2000/svg" width="1140" height="358" viewBox="0 0 1140 358">
  <g id="Grupo_9881" data-name="Grupo 9881" transform="translate(-390 -2266)">
    <g id="Grupo_9770" data-name="Grupo 9770" transform="translate(-337.026 1636.458)">
      <path id="Trazado_16741" data-name="Trazado 16741" d="M853.245,678.356a2.578,2.578,0,1,0,2.578,2.578A2.579,2.579,0,0,0,853.245,678.356Z" fill="#009292"/>
      <path id="Trazado_16742" data-name="Trazado 16742" d="M853.245,662.085a3.34,3.34,0,1,0,3.34,3.34A3.34,3.34,0,0,0,853.245,662.085Z" fill="#009292"/>
      <circle id="Elipse_544" data-name="Elipse 544" cx="4.102" cy="4.102" r="4.102" transform="translate(847.878 647.711) rotate(-22.664)" fill="#009292"/>
      <path id="Trazado_16743" data-name="Trazado 16743" d="M853.245,639.271a4.865,4.865,0,1,0-4.865-4.865A4.865,4.865,0,0,0,853.245,639.271Z" fill="#009292"/>
      <path id="Trazado_16744" data-name="Trazado 16744" d="M868.794,687.32a2.578,2.578,0,1,0-.944-3.522A2.578,2.578,0,0,0,868.794,687.32Z" fill="#009292"/>
      <path id="Trazado_16745" data-name="Trazado 16745" d="M876.167,674.548a3.34,3.34,0,1,0-1.222-4.563A3.34,3.34,0,0,0,876.167,674.548Z" fill="#009292"/>
      <path id="Trazado_16746" data-name="Trazado 16746" d="M883.541,661.776a4.1,4.1,0,1,0-1.5-5.6A4.1,4.1,0,0,0,883.541,661.776Z" fill="#009292"/>
      <path id="Trazado_16747" data-name="Trazado 16747" d="M897.56,647.224a4.865,4.865,0,1,0-6.645,1.781A4.865,4.865,0,0,0,897.56,647.224Z" fill="#009292"/>
      <path id="Trazado_16748" data-name="Trazado 16748" d="M880.356,698.391a2.578,2.578,0,1,0,.944-3.522A2.579,2.579,0,0,0,880.356,698.391Z" fill="#009292"/>
      <path id="Trazado_16749" data-name="Trazado 16749" d="M894.35,686.454a3.34,3.34,0,1,0,4.563,1.223A3.341,3.341,0,0,0,894.35,686.454Z" fill="#009292"/>
      <path id="Trazado_16750" data-name="Trazado 16750" d="M907.4,678.04a4.1,4.1,0,1,0,5.6,1.5A4.1,4.1,0,0,0,907.4,678.04Z" fill="#009292"/>
      <path id="Trazado_16751" data-name="Trazado 16751" d="M920.451,669.625a4.865,4.865,0,1,0,6.645,1.781A4.865,4.865,0,0,0,920.451,669.625Z" fill="#009292"/>
      <path id="Trazado_16752" data-name="Trazado 16752" d="M887.412,711.182a2.578,2.578,0,1,0,2.578,2.578A2.579,2.579,0,0,0,887.412,711.182Z" fill="#009292"/>
      <path id="Trazado_16753" data-name="Trazado 16753" d="M902.921,710.42a3.341,3.341,0,1,0,3.34,3.34A3.34,3.34,0,0,0,902.921,710.42Z" fill="#009292"/>
      <path id="Trazado_16754" data-name="Trazado 16754" d="M918.43,709.658a4.1,4.1,0,1,0,4.1,4.1A4.1,4.1,0,0,0,918.43,709.658Z" fill="#009292"/>
      <path id="Trazado_16755" data-name="Trazado 16755" d="M933.94,708.9a4.865,4.865,0,1,0,4.864,4.864A4.865,4.865,0,0,0,933.94,708.9Z" fill="#009292"/>
      <path id="Trazado_16756" data-name="Trazado 16756" d="M837.875,687.99a2.578,2.578,0,1,0-3.521-.944A2.578,2.578,0,0,0,837.875,687.99Z" fill="#009292"/>
      <path id="Trazado_16757" data-name="Trazado 16757" d="M830.5,675.219A3.341,3.341,0,1,0,825.939,674,3.341,3.341,0,0,0,830.5,675.219Z" fill="#009292"/>
      <path id="Trazado_16758" data-name="Trazado 16758" d="M823.128,662.447a4.1,4.1,0,1,0-5.6-1.5A4.1,4.1,0,0,0,823.128,662.447Z" fill="#009292"/>
      <path id="Trazado_16759" data-name="Trazado 16759" d="M817.535,643.03a4.865,4.865,0,1,0-1.781,6.645A4.865,4.865,0,0,0,817.535,643.03Z" fill="#009292"/>
      <path id="Trazado_16760" data-name="Trazado 16760" d="M825.86,696.031a2.578,2.578,0,1,0,.944,3.521A2.578,2.578,0,0,0,825.86,696.031Z" fill="#009292"/>
      <path id="Trazado_16761" data-name="Trazado 16761" d="M812.81,687.616a3.34,3.34,0,1,0,1.222,4.563A3.34,3.34,0,0,0,812.81,687.616Z" fill="#009292"/>
      <path id="Trazado_16762" data-name="Trazado 16762" d="M799.759,679.2a4.1,4.1,0,1,0,1.5,5.6A4.1,4.1,0,0,0,799.759,679.2Z" fill="#009292"/>
      <path id="Trazado_16763" data-name="Trazado 16763" d="M788.489,677.431a4.864,4.864,0,1,0-6.645,1.781A4.865,4.865,0,0,0,788.489,677.431Z" fill="#009292"/>
      <path id="Trazado_16764" data-name="Trazado 16764" d="M823,715.1a2.578,2.578,0,1,0-2.578,2.578A2.578,2.578,0,0,0,823,715.1Z" fill="#009292"/>
      <path id="Trazado_16765" data-name="Trazado 16765" d="M804.909,711.761a3.341,3.341,0,1,0,3.341,3.34A3.341,3.341,0,0,0,804.909,711.761Z" fill="#009292"/>
      <path id="Trazado_16766" data-name="Trazado 16766" d="M789.4,711a4.1,4.1,0,1,0,4.1,4.1A4.1,4.1,0,0,0,789.4,711Z" fill="#009292"/>
      <path id="Trazado_16767" data-name="Trazado 16767" d="M773.89,710.237a4.865,4.865,0,1,0,4.865,4.864A4.864,4.864,0,0,0,773.89,710.237Z" fill="#009292"/>
      <path id="Trazado_16768" data-name="Trazado 16768" d="M869.038,717.473h7.489a2,2,0,0,0,2-2V705.155a8.364,8.364,0,0,0-8.364-8.364H837.637a8.364,8.364,0,0,0-8.364,8.364v10.318a2,2,0,0,0,2,2h7.5v6.6H823.505a2,2,0,0,0-2,2v6.464a5,5,0,0,0,1.464,3.536l8.27,8.269V780.7h45.322V744.342l8.268-8.27a5,5,0,0,0,1.464-3.535v-6.464a2,2,0,0,0-2-2H869.048Z" fill="#4c4240"/>
      <path id="Trazado_16769" data-name="Trazado 16769" d="M880.21,732.088l-9.732,9.734v.119H837.322v-.119l-9.734-9.734v-1.933H880.21Z" fill="#beeb9f"/>
      <rect id="Rectángulo_1908" data-name="Rectángulo 1908" width="33.156" height="30.393" transform="translate(837.322 744.222)" fill="#beeb9f"/>
      <path id="Trazado_16770" data-name="Trazado 16770" d="M835.356,705.155a2.283,2.283,0,0,1,2.281-2.281h32.526a2.283,2.283,0,0,1,2.281,2.281v6.235h-3.415c-.008-3.758-.007-2.876-.007-4.336H838.777v4.336h-3.421Z" fill="#fffcc2"/>
      <path id="Trazado_16771" data-name="Trazado 16771" d="M844.86,709.336h18.08v8.137h.015l.015,8.881H844.86Z" fill="#fffcc2"/>
    </g>
    <rect id="Rectángulo_1909" data-name="Rectángulo 1909" width="253" height="44" rx="5" transform="translate(390 2417)" fill="#70ad54"/>
    <path id="Trazado_16980" data-name="Trazado 16980" d="M-53.448,0l-1.782-4.956h-6.824L-63.8,0h-3.076L-60.2-17.92h3.174L-50.348,0ZM-56-7.471l-1.672-4.858q-.183-.488-.507-1.538t-.446-1.538a27.358,27.358,0,0,1-.964,3.284L-61.2-7.471Zm16.772,3.625a3.533,3.533,0,0,1-1.44,3.033A6.9,6.9,0,0,1-44.794.244a9.746,9.746,0,0,1-4.333-.818V-3.052a10.639,10.639,0,0,0,4.431,1.1q2.649,0,2.649-1.6a1.267,1.267,0,0,0-.293-.854,3.467,3.467,0,0,0-.964-.708,16.6,16.6,0,0,0-1.868-.83,8.639,8.639,0,0,1-3.156-1.807,3.343,3.343,0,0,1-.824-2.344,3.078,3.078,0,0,1,1.4-2.692,6.633,6.633,0,0,1,3.8-.958,10.77,10.77,0,0,1,4.5.964l-.928,2.161a10.018,10.018,0,0,0-3.674-.9q-2.271,0-2.271,1.294a1.3,1.3,0,0,0,.592,1.074,13.02,13.02,0,0,0,2.582,1.208,11.8,11.8,0,0,1,2.429,1.184,3.539,3.539,0,0,1,1.123,1.239A3.586,3.586,0,0,1-39.227-3.845ZM-29.279.244A4.729,4.729,0,0,1-33.258-1.6h-.171q.171,1.709.171,2.075v5.53h-2.869V-13.5h2.319q.1.378.4,1.807h.146a4.494,4.494,0,0,1,4.028-2.051,4.686,4.686,0,0,1,3.937,1.831,8.256,8.256,0,0,1,1.41,5.139,8.262,8.262,0,0,1-1.434,5.164A4.729,4.729,0,0,1-29.279.244Zm-.7-11.646a2.982,2.982,0,0,0-2.5,1,5.188,5.188,0,0,0-.787,3.2v.427A6.315,6.315,0,0,0-32.477-3.2a2.906,2.906,0,0,0,2.551,1.1A2.59,2.59,0,0,0-27.631-3.32,6.3,6.3,0,0,0-26.825-6.8a6.083,6.083,0,0,0-.8-3.436A2.667,2.667,0,0,0-29.974-11.4ZM-14.655.244A6.531,6.531,0,0,1-19.58-1.593a6.974,6.974,0,0,1-1.776-5.06,7.652,7.652,0,0,1,1.648-5.2,5.692,5.692,0,0,1,4.529-1.892,5.563,5.563,0,0,1,4.224,1.624,6.2,6.2,0,0,1,1.55,4.468V-6.1h-9A4.434,4.434,0,0,0-17.34-3.082a3.7,3.7,0,0,0,2.82,1.056,10.41,10.41,0,0,0,2.228-.226A11.677,11.677,0,0,0-10.077-3V-.671A8.808,8.808,0,0,1-12.2.037,13.024,13.024,0,0,1-14.655.244Zm-.525-11.816a2.882,2.882,0,0,0-2.191.867,4.13,4.13,0,0,0-.983,2.527h6.128a3.737,3.737,0,0,0-.806-2.533A2.756,2.756,0,0,0-15.179-11.572ZM.7-13.745a6.906,6.906,0,0,1,1.428.122L1.849-10.95A5.422,5.422,0,0,0,.58-11.1,3.674,3.674,0,0,0-2.209-9.973,4.059,4.059,0,0,0-3.278-7.056V0H-6.146V-13.5H-3.9l.378,2.38h.146a5.349,5.349,0,0,1,1.752-1.917A4.164,4.164,0,0,1,.7-13.745Zm13,9.9a3.533,3.533,0,0,1-1.44,3.033A6.9,6.9,0,0,1,8.136.244,9.746,9.746,0,0,1,3.8-.574V-3.052a10.639,10.639,0,0,0,4.431,1.1q2.649,0,2.649-1.6a1.267,1.267,0,0,0-.293-.854,3.467,3.467,0,0,0-.964-.708,16.6,16.6,0,0,0-1.868-.83A8.639,8.639,0,0,1,4.6-7.751,3.343,3.343,0,0,1,3.778-10.1a3.078,3.078,0,0,1,1.4-2.692,6.633,6.633,0,0,1,3.8-.958,10.77,10.77,0,0,1,4.5.964l-.928,2.161a10.018,10.018,0,0,0-3.674-.9q-2.271,0-2.271,1.294A1.3,1.3,0,0,0,7.2-9.155,13.02,13.02,0,0,0,9.784-7.947a11.8,11.8,0,0,1,2.429,1.184,3.539,3.539,0,0,1,1.123,1.239A3.586,3.586,0,0,1,13.7-3.845Zm15.076-2.93a7.369,7.369,0,0,1-1.7,5.164A6.08,6.08,0,0,1,22.357.244,6.473,6.473,0,0,1,19.012-.61a5.641,5.641,0,0,1-2.234-2.454A8.357,8.357,0,0,1,16-6.775,7.319,7.319,0,0,1,17.682-11.9a6.108,6.108,0,0,1,4.749-1.843,5.948,5.948,0,0,1,4.639,1.886A7.285,7.285,0,0,1,28.778-6.775Zm-9.827,0q0,4.675,3.455,4.675,3.418,0,3.418-4.675,0-4.626-3.442-4.626a2.935,2.935,0,0,0-2.618,1.2A6.088,6.088,0,0,0,18.951-6.775Zm19.971-6.97a6.906,6.906,0,0,1,1.428.122L40.07-10.95A5.422,5.422,0,0,0,38.8-11.1a3.674,3.674,0,0,0-2.789,1.123,4.059,4.059,0,0,0-1.068,2.917V0H32.074V-13.5H34.32l.378,2.38h.146A5.349,5.349,0,0,1,36.6-13.037,4.164,4.164,0,0,1,38.922-13.745ZM48.248.244a6.531,6.531,0,0,1-4.926-1.837,6.974,6.974,0,0,1-1.776-5.06,7.652,7.652,0,0,1,1.648-5.2,5.692,5.692,0,0,1,4.529-1.892,5.563,5.563,0,0,1,4.224,1.624A6.2,6.2,0,0,1,53.5-7.654V-6.1h-9a4.434,4.434,0,0,0,1.062,3.021,3.7,3.7,0,0,0,2.82,1.056,10.41,10.41,0,0,0,2.228-.226A11.677,11.677,0,0,0,52.826-3V-.671A8.808,8.808,0,0,1,50.7.037,13.024,13.024,0,0,1,48.248.244Zm-.525-11.816a2.882,2.882,0,0,0-2.191.867,4.13,4.13,0,0,0-.983,2.527h6.128a3.737,3.737,0,0,0-.806-2.533A2.756,2.756,0,0,0,47.723-11.572Zm18.1,7.727a3.533,3.533,0,0,1-1.44,3.033A6.9,6.9,0,0,1,60.26.244a9.746,9.746,0,0,1-4.333-.818V-3.052a10.639,10.639,0,0,0,4.431,1.1q2.649,0,2.649-1.6a1.267,1.267,0,0,0-.293-.854,3.467,3.467,0,0,0-.964-.708,16.6,16.6,0,0,0-1.868-.83,8.639,8.639,0,0,1-3.156-1.807A3.343,3.343,0,0,1,55.9-10.1a3.078,3.078,0,0,1,1.4-2.692,6.633,6.633,0,0,1,3.8-.958,10.77,10.77,0,0,1,4.5.964l-.928,2.161a10.018,10.018,0,0,0-3.674-.9q-2.271,0-2.271,1.294a1.3,1.3,0,0,0,.592,1.074,13.02,13.02,0,0,0,2.582,1.208,11.8,11.8,0,0,1,2.429,1.184A3.539,3.539,0,0,1,65.46-5.524,3.586,3.586,0,0,1,65.826-3.845Z" transform="translate(517 2447)" fill="#fff"/>
    <rect id="Rectángulo_1910" data-name="Rectángulo 1910" width="253" height="44" rx="5" transform="translate(834 2417)" fill="#70ad54"/>
    <path id="Trazado_16981" data-name="Trazado 16981" d="M-38.031-9.68h6.567V-.72a19.006,19.006,0,0,1-3.094.745,21.906,21.906,0,0,1-3.2.22,8.049,8.049,0,0,1-6.25-2.4,9.659,9.659,0,0,1-2.2-6.769,9.025,9.025,0,0,1,2.478-6.744A9.315,9.315,0,0,1-36.908-18.1a13.289,13.289,0,0,1,5.3,1.074L-32.635-14.6a10.31,10.31,0,0,0-4.346-1A5.852,5.852,0,0,0-41.5-13.806,6.945,6.945,0,0,0-43.158-8.9a7.326,7.326,0,0,0,1.5,4.974,5.421,5.421,0,0,0,4.3,1.7,14.142,14.142,0,0,0,3.027-.354v-4.6h-3.7Zm22.522,2.905a7.369,7.369,0,0,1-1.7,5.164A6.08,6.08,0,0,1-21.93.244,6.473,6.473,0,0,1-25.275-.61a5.641,5.641,0,0,1-2.234-2.454,8.357,8.357,0,0,1-.781-3.711A7.319,7.319,0,0,1-26.605-11.9a6.108,6.108,0,0,1,4.749-1.843,5.948,5.948,0,0,1,4.639,1.886A7.285,7.285,0,0,1-15.509-6.775Zm-9.827,0q0,4.675,3.455,4.675,3.418,0,3.418-4.675,0-4.626-3.442-4.626a2.935,2.935,0,0,0-2.618,1.2A6.088,6.088,0,0,0-25.336-6.775Zm18.152,4.7a6.976,6.976,0,0,0,2.1-.33V-.244A5.791,5.791,0,0,1-6.311.1a8.452,8.452,0,0,1-1.556.14q-4.077,0-4.077-4.3v-7.275h-1.843V-12.6l1.978-1.05.977-2.856h1.77v3h3.845v2.173H-9.064V-4.1A2.027,2.027,0,0,0-8.545-2.57,1.891,1.891,0,0,0-7.184-2.075ZM3.51.244A6.531,6.531,0,0,1-1.416-1.593a6.974,6.974,0,0,1-1.776-5.06,7.652,7.652,0,0,1,1.648-5.2,5.692,5.692,0,0,1,4.529-1.892,5.563,5.563,0,0,1,4.224,1.624,6.2,6.2,0,0,1,1.55,4.468V-6.1h-9A4.434,4.434,0,0,0,.824-3.082a3.7,3.7,0,0,0,2.82,1.056,10.41,10.41,0,0,0,2.228-.226A11.678,11.678,0,0,0,8.087-3V-.671A8.808,8.808,0,0,1,5.963.037,13.024,13.024,0,0,1,3.51.244ZM2.985-11.572a2.882,2.882,0,0,0-2.191.867A4.13,4.13,0,0,0-.189-8.179H5.939a3.737,3.737,0,0,0-.806-2.533A2.756,2.756,0,0,0,2.985-11.572Zm15.881-2.173a6.906,6.906,0,0,1,1.428.122l-.281,2.673a5.422,5.422,0,0,0-1.27-.146,3.674,3.674,0,0,0-2.789,1.123,4.059,4.059,0,0,0-1.068,2.917V0H12.018V-13.5h2.246l.378,2.38h.146a5.349,5.349,0,0,1,1.752-1.917A4.164,4.164,0,0,1,18.866-13.745Zm15.405,6.97a7.369,7.369,0,0,1-1.7,5.164A6.08,6.08,0,0,1,27.85.244,6.473,6.473,0,0,1,24.506-.61a5.641,5.641,0,0,1-2.234-2.454,8.357,8.357,0,0,1-.781-3.711A7.319,7.319,0,0,1,23.175-11.9a6.108,6.108,0,0,1,4.749-1.843,5.948,5.948,0,0,1,4.639,1.886A7.285,7.285,0,0,1,34.271-6.775Zm-9.827,0Q24.445-2.1,27.9-2.1q3.418,0,3.418-4.675,0-4.626-3.442-4.626a2.935,2.935,0,0,0-2.618,1.2A6.088,6.088,0,0,0,24.445-6.775Zm22.192,2.93A3.533,3.533,0,0,1,45.2-.812,6.9,6.9,0,0,1,41.071.244a9.746,9.746,0,0,1-4.333-.818V-3.052a10.639,10.639,0,0,0,4.431,1.1q2.649,0,2.649-1.6a1.267,1.267,0,0,0-.293-.854,3.467,3.467,0,0,0-.964-.708,16.6,16.6,0,0,0-1.868-.83,8.639,8.639,0,0,1-3.156-1.807,3.343,3.343,0,0,1-.824-2.344,3.078,3.078,0,0,1,1.4-2.692,6.633,6.633,0,0,1,3.8-.958,10.77,10.77,0,0,1,4.5.964L45.49-10.62a10.018,10.018,0,0,0-3.674-.9q-2.271,0-2.271,1.294a1.3,1.3,0,0,0,.592,1.074,13.02,13.02,0,0,0,2.582,1.208,11.8,11.8,0,0,1,2.429,1.184,3.539,3.539,0,0,1,1.123,1.239A3.586,3.586,0,0,1,46.637-3.845Z" transform="translate(961 2447)" fill="#fff"/>
    <g id="Grupo_9771" data-name="Grupo 9771" transform="translate(815.619 1648.368)">
      <path id="Trazado_16772" data-name="Trazado 16772" d="M211.929,708.627h-5.4v-1.385a2,2,0,0,0-2-2H188.464a2,2,0,0,0-2,2v4.051H102.7v-4.051a2,2,0,0,0-2-2H84.632a2,2,0,0,0-2,2v1.385h-5.4a8.85,8.85,0,0,0-8.851,8.85v17.679a8.85,8.85,0,0,0,8.851,8.85h5.4v21.607a3,3,0,0,0,3,3H131.38a2,2,0,0,0,1.414-3.415l-15.48-15.48a4,4,0,0,0-2.828-1.171H102.7v-7.205h83.768v7.205H174.675a4,4,0,0,0-2.828,1.171l-15.48,15.48a2,2,0,0,0,1.414,3.415h45.748a3,3,0,0,0,3-3V744.006h5.4a8.85,8.85,0,0,0,8.851-8.85V717.479A8.852,8.852,0,0,0,211.929,708.627Z" fill="#4c4240"/>
      <path id="Trazado_16773" data-name="Trazado 16773" d="M200.446,762.53H167.638l7.9-7.9h17.009v-43.3h7.9Z" fill="#beeb9f"/>
      <path id="Trazado_16774" data-name="Trazado 16774" d="M169.244,716.615h7.885A4.107,4.107,0,0,1,169.244,716.615Z" fill="#fffcc2"/>
      <path id="Trazado_16775" data-name="Trazado 16775" d="M150.174,716.615h7.885A4.106,4.106,0,0,1,150.174,716.615Z" fill="#fffcc2"/>
      <path id="Trazado_16776" data-name="Trazado 16776" d="M131.1,716.615h7.885A4.107,4.107,0,0,1,131.1,716.615Z" fill="#fffcc2"/>
      <path id="Trazado_16777" data-name="Trazado 16777" d="M112.035,716.615h7.885A4.108,4.108,0,0,1,112.035,716.615Z" fill="#fffcc2"/>
      <path id="Trazado_16778" data-name="Trazado 16778" d="M122.073,717.375h6.878a6.392,6.392,0,0,0,12.192,0h6.878a6.385,6.385,0,0,0,12.192,0h6.878a6.387,6.387,0,0,0,12.191,0h9.464v17.884H100.417V717.375h9.465A6.392,6.392,0,0,0,122.073,717.375Z" fill="#fffcc2"/>
      <path id="Trazado_16779" data-name="Trazado 16779" d="M210.79,725.557h-6.542v-5.152h6.542Z" fill="#beeb9f"/>
      <path id="Trazado_16780" data-name="Trazado 16780" d="M204.248,727.078h6.542v5.152h-6.542Z" fill="#beeb9f"/>
      <path id="Trazado_16781" data-name="Trazado 16781" d="M210.79,718.884h-6.542V714.71h6.542Z" fill="#beeb9f"/>
      <path id="Trazado_16782" data-name="Trazado 16782" d="M204.248,733.75h6.542v4.173h-6.542Z" fill="#beeb9f"/>
      <path id="Trazado_16783" data-name="Trazado 16783" d="M214.7,735.156a2.77,2.77,0,0,1-1.627,2.521V714.956a2.771,2.771,0,0,1,1.627,2.523Z" fill="#beeb9f"/>
      <path id="Trazado_16784" data-name="Trazado 16784" d="M113.623,754.63l7.9,7.9H88.715V711.325h7.9v43.3Z" fill="#beeb9f"/>
      <path id="Trazado_16785" data-name="Trazado 16785" d="M74.463,735.156V717.479a2.772,2.772,0,0,1,1.627-2.523v22.721A2.773,2.773,0,0,1,74.463,735.156Z" fill="#beeb9f"/>
      <rect id="Rectángulo_1911" data-name="Rectángulo 1911" width="6.542" height="5.152" transform="translate(78.371 727.078)" fill="#beeb9f"/>
      <rect id="Rectángulo_1912" data-name="Rectángulo 1912" width="6.542" height="5.152" transform="translate(78.371 720.405)" fill="#beeb9f"/>
      <path id="Trazado_16786" data-name="Trazado 16786" d="M78.371,733.75h6.542v4.173H78.371Z" fill="#beeb9f"/>
      <path id="Trazado_16787" data-name="Trazado 16787" d="M84.913,718.884H78.371V714.71h6.542Z" fill="#beeb9f"/>
      <path id="Trazado_16788" data-name="Trazado 16788" d="M133.063,698.249a2.449,2.449,0,1,0,2.654,2.227A2.449,2.449,0,0,0,133.063,698.249Z" fill="#009292"/>
      <path id="Trazado_16789" data-name="Trazado 16789" d="M131.716,682.85a3.173,3.173,0,1,0,3.438,2.885A3.173,3.173,0,0,0,131.716,682.85Z" fill="#009292"/>
      <path id="Trazado_16790" data-name="Trazado 16790" d="M130.369,667.451a3.9,3.9,0,1,0,4.222,3.543A3.9,3.9,0,0,0,130.369,667.451Z" fill="#009292"/>
      <path id="Trazado_16791" data-name="Trazado 16791" d="M129.022,652.052a4.621,4.621,0,1,0,5.006,4.2A4.62,4.62,0,0,0,129.022,652.052Z" fill="#009292"/>
      <path id="Trazado_16792" data-name="Trazado 16792" d="M128.606,647.3a5.345,5.345,0,1,0-5.791-4.86A5.345,5.345,0,0,0,128.606,647.3Z" fill="#009292"/>
      <path id="Trazado_16793" data-name="Trazado 16793" d="M111.054,698.7a2.449,2.449,0,1,0,2.921,1.861A2.449,2.449,0,0,0,111.054,698.7Z" fill="#009292"/>
      <path id="Trazado_16794" data-name="Trazado 16794" d="M107.708,683.61a3.173,3.173,0,1,0,3.785,2.412A3.173,3.173,0,0,0,107.708,683.61Z" fill="#009292"/>
      <path id="Trazado_16795" data-name="Trazado 16795" d="M104.362,668.519a3.9,3.9,0,1,0,4.649,2.961A3.9,3.9,0,0,0,104.362,668.519Z" fill="#009292"/>
      <path id="Trazado_16796" data-name="Trazado 16796" d="M101.017,653.427a4.621,4.621,0,1,0,5.511,3.512A4.622,4.622,0,0,0,101.017,653.427Z" fill="#009292"/>
      <path id="Trazado_16797" data-name="Trazado 16797" d="M99.985,648.773a5.345,5.345,0,1,0-6.376-4.062A5.345,5.345,0,0,0,99.985,648.773Z" fill="#009292"/>
      <circle id="Elipse_545" data-name="Elipse 545" cx="2.449" cy="2.449" r="2.449" transform="matrix(0.332, -0.943, 0.943, 0.332, 152.76, 702.185)" fill="#009292"/>
      <path id="Trazado_16798" data-name="Trazado 16798" d="M156.892,689.172a3.173,3.173,0,1,0-2.885-3.437A3.173,3.173,0,0,0,156.892,689.172Z" fill="#009292"/>
      <path id="Trazado_16799" data-name="Trazado 16799" d="M158.113,675.216a3.9,3.9,0,1,0-3.543-4.222A3.9,3.9,0,0,0,158.113,675.216Z" fill="#009292"/>
      <path id="Trazado_16800" data-name="Trazado 16800" d="M159.334,661.259a4.621,4.621,0,1,0-4.2-5.006A4.62,4.62,0,0,0,159.334,661.259Z" fill="#009292"/>
      <path id="Trazado_16801" data-name="Trazado 16801" d="M160.555,647.3a5.345,5.345,0,1,0-4.859-5.791A5.347,5.347,0,0,0,160.555,647.3Z" fill="#009292"/>
      <path id="Trazado_16802" data-name="Trazado 16802" d="M177.047,703.484a2.449,2.449,0,1,0-1.861-2.921A2.449,2.449,0,0,0,177.047,703.484Z" fill="#009292"/>
      <path id="Trazado_16803" data-name="Trazado 16803" d="M180.08,689.806a3.173,3.173,0,1,0-2.412-3.784A3.172,3.172,0,0,0,180.08,689.806Z" fill="#009292"/>
      <path id="Trazado_16804" data-name="Trazado 16804" d="M183.112,676.129a3.9,3.9,0,1,0-2.961-4.649A3.9,3.9,0,0,0,183.112,676.129Z" fill="#009292"/>
      <path id="Trazado_16805" data-name="Trazado 16805" d="M186.144,662.451a4.622,4.622,0,1,0-3.511-5.512A4.621,4.621,0,0,0,186.144,662.451Z" fill="#009292"/>
      <path id="Trazado_16806" data-name="Trazado 16806" d="M189.176,648.773a5.345,5.345,0,1,0-4.061-6.376A5.346,5.346,0,0,0,189.176,648.773Z" fill="#009292"/>
    </g>
    <rect id="Rectángulo_1913" data-name="Rectángulo 1913" width="253" height="44" rx="5" transform="translate(1277 2417)" fill="#70ad54"/>
    <path id="Trazado_16982" data-name="Trazado 16982" d="M-49.28,0l-5.176-14.9h-.1q.208,3.32.208,6.226V0h-2.649V-17.847h4.114l4.956,14.2h.073l5.1-14.2h4.126V0h-2.808V-8.826q0-1.331.067-3.467t.116-2.588h-.1L-46.7,0Zm23.5,0-.574-1.88h-.1A5.531,5.531,0,0,1-28.418-.2a6.215,6.215,0,0,1-2.539.446A4.3,4.3,0,0,1-34.064-.83a4.02,4.02,0,0,1-1.117-3.04,3.569,3.569,0,0,1,1.55-3.149,8.939,8.939,0,0,1,4.724-1.16l2.332-.073v-.72a2.73,2.73,0,0,0-.6-1.935,2.464,2.464,0,0,0-1.874-.641,6.479,6.479,0,0,0-1.99.305,15.015,15.015,0,0,0-1.831.72l-.928-2.051a9.984,9.984,0,0,1,2.4-.873,11.067,11.067,0,0,1,2.466-.3,5.84,5.84,0,0,1,3.888,1.123A4.4,4.4,0,0,1-23.73-9.094V0Zm-4.272-1.953a3.553,3.553,0,0,0,2.509-.873A3.164,3.164,0,0,0-26.6-5.273V-6.445l-1.733.073a5.931,5.931,0,0,0-2.948.677A2.058,2.058,0,0,0-32.2-3.845a1.8,1.8,0,0,0,.537,1.4A2.308,2.308,0,0,0-30.054-1.953ZM-7.849,0H-10.73V-8.3a3.633,3.633,0,0,0-.629-2.332,2.43,2.43,0,0,0-2-.769,3.174,3.174,0,0,0-2.661,1.074,5.931,5.931,0,0,0-.842,3.6V0h-2.869V-13.5h2.246l.4,1.77h.146A3.994,3.994,0,0,1-15.2-13.22a5.809,5.809,0,0,1,2.49-.525q4.858,0,4.858,4.944ZM7.544-13.5v1.575L5.237-11.5a3.724,3.724,0,0,1,.525,1.05,4.142,4.142,0,0,1,.208,1.318,4.039,4.039,0,0,1-1.44,3.284,6.028,6.028,0,0,1-3.967,1.2,6.433,6.433,0,0,1-1.172-.1,1.616,1.616,0,0,0-.928,1.343.746.746,0,0,0,.433.7,3.748,3.748,0,0,0,1.593.232H2.844a5.238,5.238,0,0,1,3.394.952A3.35,3.35,0,0,1,7.4,1.221a3.994,3.994,0,0,1-1.892,3.54A9.962,9.962,0,0,1,.037,6.006a7.547,7.547,0,0,1-4.211-.977A3.156,3.156,0,0,1-5.627,2.246,2.962,2.962,0,0,1-4.84.153a4.219,4.219,0,0,1,2.2-1.178,2.156,2.156,0,0,1-.946-.787,1.988,1.988,0,0,1-.372-1.141,1.965,1.965,0,0,1,.427-1.282,4.929,4.929,0,0,1,1.27-1.038,3.76,3.76,0,0,1-1.7-1.471,4.327,4.327,0,0,1-.653-2.386,4.278,4.278,0,0,1,1.385-3.406A5.825,5.825,0,0,1,.72-13.745a9.612,9.612,0,0,1,1.2.079,7.57,7.57,0,0,1,.946.165ZM-3.064,2.1a1.578,1.578,0,0,0,.836,1.428,4.6,4.6,0,0,0,2.35.5,7.1,7.1,0,0,0,3.491-.671A2.013,2.013,0,0,0,4.761,1.575,1.337,1.337,0,0,0,4.132.323,5.048,5.048,0,0,0,1.794-.049H-.378a3.053,3.053,0,0,0-1.959.58A1.9,1.9,0,0,0-3.064,2.1Zm1.233-11.23a2.717,2.717,0,0,0,.653,1.953A2.47,2.47,0,0,0,.7-6.494q2.49,0,2.49-2.661a3.018,3.018,0,0,0-.616-2.032A2.342,2.342,0,0,0,.7-11.9a2.415,2.415,0,0,0-1.886.708A2.976,2.976,0,0,0-1.831-9.131ZM15.942.244a6.531,6.531,0,0,1-4.926-1.837,6.974,6.974,0,0,1-1.776-5.06,7.652,7.652,0,0,1,1.648-5.2,5.692,5.692,0,0,1,4.529-1.892,5.563,5.563,0,0,1,4.224,1.624,6.2,6.2,0,0,1,1.55,4.468V-6.1h-9a4.434,4.434,0,0,0,1.062,3.021,3.7,3.7,0,0,0,2.82,1.056A10.41,10.41,0,0,0,18.3-2.252,11.678,11.678,0,0,0,20.52-3V-.671A8.808,8.808,0,0,1,18.4.037,13.024,13.024,0,0,1,15.942.244Zm-.525-11.816a2.882,2.882,0,0,0-2.191.867,4.13,4.13,0,0,0-.983,2.527h6.128a3.737,3.737,0,0,0-.806-2.533A2.756,2.756,0,0,0,15.417-11.572ZM31.3-13.745a6.906,6.906,0,0,1,1.428.122l-.281,2.673a5.422,5.422,0,0,0-1.27-.146,3.674,3.674,0,0,0-2.789,1.123,4.059,4.059,0,0,0-1.068,2.917V0H24.451V-13.5H26.7l.378,2.38h.146a5.349,5.349,0,0,1,1.752-1.917A4.164,4.164,0,0,1,31.3-13.745ZM43.176,0,42.6-1.88h-.1A5.531,5.531,0,0,1,40.54-.2,6.215,6.215,0,0,1,38,.244,4.3,4.3,0,0,1,34.894-.83a4.02,4.02,0,0,1-1.117-3.04,3.569,3.569,0,0,1,1.55-3.149,8.939,8.939,0,0,1,4.724-1.16l2.332-.073v-.72a2.73,2.73,0,0,0-.6-1.935,2.464,2.464,0,0,0-1.874-.641,6.479,6.479,0,0,0-1.99.305,15.015,15.015,0,0,0-1.831.72l-.928-2.051a9.984,9.984,0,0,1,2.4-.873,11.067,11.067,0,0,1,2.466-.3,5.84,5.84,0,0,1,3.888,1.123,4.4,4.4,0,0,1,1.312,3.528V0ZM38.9-1.953a3.553,3.553,0,0,0,2.509-.873,3.164,3.164,0,0,0,.946-2.448V-6.445l-1.733.073a5.931,5.931,0,0,0-2.948.677,2.058,2.058,0,0,0-.922,1.849,1.8,1.8,0,0,0,.537,1.4A2.308,2.308,0,0,0,38.9-1.953ZM58.3-3.845A3.533,3.533,0,0,1,56.86-.812,6.9,6.9,0,0,1,52.734.244,9.746,9.746,0,0,1,48.4-.574V-3.052a10.639,10.639,0,0,0,4.431,1.1q2.649,0,2.649-1.6a1.267,1.267,0,0,0-.293-.854,3.467,3.467,0,0,0-.964-.708,16.6,16.6,0,0,0-1.868-.83A8.639,8.639,0,0,1,49.2-7.751a3.343,3.343,0,0,1-.824-2.344,3.078,3.078,0,0,1,1.4-2.692,6.633,6.633,0,0,1,3.8-.958,10.77,10.77,0,0,1,4.5.964l-.928,2.161a10.018,10.018,0,0,0-3.674-.9q-2.271,0-2.271,1.294A1.3,1.3,0,0,0,51.8-9.155a13.02,13.02,0,0,0,2.582,1.208,11.8,11.8,0,0,1,2.429,1.184,3.539,3.539,0,0,1,1.123,1.239A3.586,3.586,0,0,1,58.3-3.845Z" transform="translate(1404 2447)" fill="#fff"/>
    <g id="Grupo_9772" data-name="Grupo 9772" transform="translate(806.292 2099.83)">
      <path id="Trazado_16807" data-name="Trazado 16807" d="M683.63,166.17v45.77h-4.18c-10.74,0-14.76-5-17.69-8.66-1.99-2.48-3.06-3.81-5.93-4v9.68a2,2,0,0,1-2,2h-5.26v18.31a1,1,0,0,1-1,1h-.16V266a49.738,49.738,0,0,1-8.57,28.59,51.3,51.3,0,0,1-21.83,18.2,48.6,48.6,0,0,1-19.6,4.18,46.2,46.2,0,0,1-7.05-.54,49.894,49.894,0,0,1-26.5-13.27l-.02-.02a45.17,45.17,0,0,1-12.91-22.64,47.908,47.908,0,0,1,.93-24.94,45.647,45.647,0,0,1,12.62-20.16,44.533,44.533,0,0,1,43.72-9.33,43.434,43.434,0,0,1,18.19,11.62l.06.07q1.56,1.755,2.86,3.49V230.27h-.15a1,1,0,0,1-1-1V205.3l-7.318-7.318a4,4,0,0,1-1.172-2.829v-6.1a10.2,10.2,0,0,1,10.2-10.2H655.1c3.43,0,4.51-1.35,6.66-4.03,2.93-3.65,6.95-8.65,17.69-8.65Z" fill="#4c4240"/>
      <path id="Trazado_16808" data-name="Trazado 16808" d="M614.556,307.225a44.826,44.826,0,0,1-5.294,1.943c-.305.091-.613.178-.92.26-.445.123-.893.237-1.341.342q-.412.1-.827.189c-.253.056-.505.108-.758.156-.322.066-.646.125-.968.181a40.575,40.575,0,0,1-10.922.408c-.164-.017-.327-.033-.491-.052-.247-.026-.491-.056-.736-.088s-.488-.067-.733-.1q-.977-.146-1.948-.337c-.324-.066-.647-.134-.969-.206-.161-.035-.322-.073-.484-.111q-.965-.228-1.92-.505c-.16-.045-.32-.092-.479-.141-.318-.1-.634-.2-.951-.3a42.273,42.273,0,0,1-6.048-2.524c-.3-.155-.605-.313-.906-.476q-1.13-.609-2.234-1.291c-.293-.182-.587-.368-.879-.558s-.582-.382-.871-.579a48.586,48.586,0,0,1-5.849-4.7c-11.034-10.493-15-26.348-10.353-41.377a38.073,38.073,0,0,1,30.77-26.942,36.407,36.407,0,0,1,5.913-.479,37.936,37.936,0,0,1,27.561,11.887,35.476,35.476,0,0,1,9.2,18.788c.054.341.105.682.15,1.019.011.079.022.158.031.238.019.147.038.3.053.442.027.228.052.455.073.681.012.114.023.228.032.341q.03.342.053.681c.015.221.029.44.04.659.025.5.041,1,.045,1.493a34.642,34.642,0,0,1-19.215,31.366c-10.344,5.207-25.979,6.066-38.854-7.118-6.427-7.388-9-15.6-7.87-25.09a29.537,29.537,0,0,1,14.7-21.908,28.719,28.719,0,0,1,25.612-1.307,25.064,25.064,0,0,1,9.126,6.669,25.777,25.777,0,0,1,6.487,13.761c1.257,8.588-1.53,16.407-8.061,22.618-10.031,8.443-23.895,8.143-32.253-.7l-.736-.779c-.014-.018-.027-.035-.041-.051-7.742-9.348-7.129-21.172,1.489-29.517l.035-.027c6.241-5.064,13.294-6.071,20.4-2.914a17.369,17.369,0,0,1,5.662,4.334l.076.079.006.006a16.32,16.32,0,0,1,3.834,8.464,15.4,15.4,0,0,1-4.474,13.407l-.072.073-.433.41-.3.279,0,0a14.184,14.184,0,0,1-9.8,3.342,13.183,13.183,0,0,1-7.681-2.929l-.394-.353a5.176,5.176,0,0,1-.587-.568c-.148-.162-.368-.4-.744-.8-.024-.035-.051-.07-.08-.105a13.335,13.335,0,0,1-2.43-6.755,10.561,10.561,0,0,1,3.931-8.712A8.727,8.727,0,0,1,595.325,259a9.64,9.64,0,0,1,5.841,3.368c.109.125.248.306.4.519l.013.018a6.094,6.094,0,0,1,.9,1.568c.008.017.015.033.022.052a5.639,5.639,0,0,1,.176.549v.009a5.783,5.783,0,0,1-.878,4.81,5.356,5.356,0,0,1-4.461,2.358,5.272,5.272,0,0,1-3.167-1.023,4.809,4.809,0,0,1-.379-7.486q3.2-2.628,6.107.491c-1.838-2.4-4.01-2.7-6.584-1.036a6.025,6.025,0,0,0-1.191,8.255l-.02.019c2.561,3.043,5.929,3.831,9.523,1.986a8.908,8.908,0,0,0,2.83-12.955,12.142,12.142,0,0,0-1.821-2.042c-.121-.109-.2-.176-.219-.191a12.279,12.279,0,0,0-6.692-3.051c-3.139-.328-6.247.745-9.238,3.19l-.058.051a14.376,14.376,0,0,0-5.233,11.793,17.307,17.307,0,0,0,3.11,8.721l.024.038c.091.125.2.263.324.409.405.432.634.683.783.847a8.259,8.259,0,0,0,.872.85c.112.1.254.227.441.392l.112.093a17,17,0,0,0,9.9,3.752h.072c.109,0,.217,0,.327,0a17.515,17.515,0,0,0,11.262-3.677h0c.464-.344.857-.674,1.155-.943l.038-.035c.417-.394.437-.412.5-.479l.011-.012.038-.04c.017-.015.032-.03.047-.045l0,0a19.124,19.124,0,0,0,5.534-16.589,20.1,20.1,0,0,0-4.636-10.33l-.035-.055-.243-.259a21.125,21.125,0,0,0-6.785-5.155l-.064-.03a22.8,22.8,0,0,0-12.49-1.963,23.873,23.873,0,0,0-11.882,5.381l0,0-.011-.012c-5.233,4.944-8.112,11-8.328,17.511-.007.253-.012.505-.012.757a26.3,26.3,0,0,0,6.3,16.664l.037.043-.007.006.913.967a25.716,25.716,0,0,0,17.722,8.031,28.842,28.842,0,0,0,19.626-6.934,1.864,1.864,0,0,0,.206-.174,29.177,29.177,0,0,0,9.282-26.015l-.005-.025a29.6,29.6,0,0,0-7.357-15.645l-.015-.019a28.949,28.949,0,0,0-10.44-7.644l-.042-.018a32.487,32.487,0,0,0-29,1.488,33.331,33.331,0,0,0-10.992,10.108,33.682,33.682,0,0,0-5.6,14.6l-.005.032c-1.273,10.648,1.609,19.839,8.811,28.1l.072.077a38.083,38.083,0,0,0,21.635,11.51,35.161,35.161,0,0,0,5.178.382,36.645,36.645,0,0,0,16.51-3.993,39.238,39.238,0,0,0,16.723-16.208,37.825,37.825,0,0,0,4.287-13.374q.15-1.2.223-2.4c.075-1.147.075-3.34.075-3.34v-37.6h5.932v38.048A44.477,44.477,0,0,1,614.556,307.225Z" fill="#beeb9f"/>
      <rect id="Rectángulo_1914" data-name="Rectángulo 1914" width="3.456" height="7.9" transform="translate(646.293 196.978)" fill="#fffcc2"/>
      <path id="Trazado_16809" data-name="Trazado 16809" d="M670.405,203.478a19.7,19.7,0,0,1-3.9-4c-2.279-2.836-4.849-6.037-10.674-6.283q-.355-.017-.73-.016H642.491v31.015h-8.247V202.783l-8.493-8.493v-5.238a4.127,4.127,0,0,1,4.124-4.122H655.1c6.345,0,9.032-3.347,11.4-6.3a19.685,19.685,0,0,1,3.9-4Z" fill="#fffcc2"/>
      <path id="Trazado_16810" data-name="Trazado 16810" d="M677.549,205.786a15.755,15.755,0,0,1-4.863-1.057V173.375a15.788,15.788,0,0,1,4.863-1.055Z" fill="#fffcc2"/>
      <path id="Trazado_16811" data-name="Trazado 16811" d="M602.673,265.071a5.639,5.639,0,0,0-.176-.549A2.85,2.85,0,0,1,602.673,265.071Z" fill="#beeb9f"/>
      <path id="Trazado_16812" data-name="Trazado 16812" d="M635.4,265.442v.156A1.131,1.131,0,0,1,635.4,265.442Z" fill="#beeb9f"/>
    </g>
    <g id="Grupo_9774" data-name="Grupo 9774" transform="translate(4 -51.765)">
      <path id="Trazado_16813" data-name="Trazado 16813" d="M11.158,795.852H-38.671c0-.009.009-.019.009-.028H-44.4c0,.009-.009.018-.009.028H-54.749A2.746,2.746,0,0,0-57.5,798.6v11.81l-19.872-11.049-7.042-14.584a2.962,2.962,0,0,0-2.5-1.559,2.768,2.768,0,0,0-2.477,1.624l-12.283,27.322a2.76,2.76,0,0,0,.408,2.9,2.748,2.748,0,0,0,2.793.881l12.766-3.331L-57.5,838.259V875.49a2.746,2.746,0,0,0,2.746,2.746H11.158A2.74,2.74,0,0,0,13.9,875.49V798.6A2.74,2.74,0,0,0,11.158,795.852Zm-.5,79.137H-54.248v-21.96H10.657Z" transform="translate(757.155 1750.102)" fill="#beeb9f"/>
      <path id="Trazado_16814" data-name="Trazado 16814" d="M10.906,792.352H-55a6,6,0,0,0-5.993,5.993v6.29l-14.148-7.867-6.587-13.656a6.211,6.211,0,0,0-5.149-3.386l-.167-.009h-.176a6.056,6.056,0,0,0-5.381,3.535l-12.283,27.322a6.049,6.049,0,0,0,.9,6.346,6.043,6.043,0,0,0,6.086,1.92l11.059-2.895,25.847,23.5v35.793A6,6,0,0,0-55,881.23H10.906a6,6,0,0,0,5.993-5.993V798.345A6,6,0,0,0,10.906,792.352Zm-.5,82.384H-54.5V836.568l-30.579-27.8-13.452,3.516L-87.12,786.9l7.023,14.547,25.6,14.232V798.846H10.4Z" transform="translate(757.407 1750.355)" fill="#4c4240"/>
      <rect id="Rectángulo_1915" data-name="Rectángulo 1915" width="64.905" height="21.96" transform="translate(702.907 2603.131)" fill="#fffcc2"/>
      <path id="Trazado_16815" data-name="Trazado 16815" d="M4.715,761.316a46.675,46.675,0,0,0-43.808,30.653h5.863A41.232,41.232,0,0,1,4.715,766.808,41.241,41.241,0,0,1,45.907,808a41.131,41.131,0,0,1-25.188,37.954v5.863A46.57,46.57,0,0,0,51.4,808,46.733,46.733,0,0,0,4.715,761.316Z" transform="translate(752.616 1751.684)" fill="#4c4240"/>
      <rect id="Rectángulo_1916" data-name="Rectángulo 1916" width="77.894" height="4.75" transform="translate(696.412 2598.381)" fill="#4c4240"/>
      <rect id="Rectángulo_1917" data-name="Rectángulo 1917" width="5.57" height="10.404" transform="translate(709.812 2547.847)" fill="#4c4240"/>
      <rect id="Rectángulo_1918" data-name="Rectángulo 1918" width="5.57" height="10.404" transform="translate(732.148 2547.847)" fill="#4c4240"/>
      <rect id="Rectángulo_1919" data-name="Rectángulo 1919" width="5.57" height="10.404" transform="translate(753.2 2547.847)" fill="#4c4240"/>
      <rect id="Rectángulo_1920" data-name="Rectángulo 1920" width="5.57" height="10.404" transform="translate(720.945 2547.847)" fill="#4c4240"/>
      <rect id="Rectángulo_1921" data-name="Rectángulo 1921" width="5.57" height="10.404" transform="translate(742.353 2547.847)" fill="#4c4240"/>
    </g>
    <rect id="Rectángulo_1922" data-name="Rectángulo 1922" width="253" height="44" rx="5" transform="translate(606 2580)" fill="#70ad54"/>
    <path id="Trazado_16983" data-name="Trazado 16983" d="M-57.587-9.546h2.026a4.627,4.627,0,0,0,2.954-.757,2.746,2.746,0,0,0,.916-2.246,2.417,2.417,0,0,0-.989-2.173,5.421,5.421,0,0,0-2.979-.659h-1.929Zm0,2.417V0H-60.5V-17.847h5.042a8.283,8.283,0,0,1,5.115,1.294,4.646,4.646,0,0,1,1.66,3.906q0,3.333-3.467,4.749L-47.113,0h-3.32l-4.272-7.129ZM-38.934.244A6.531,6.531,0,0,1-43.86-1.593a6.974,6.974,0,0,1-1.776-5.06,7.652,7.652,0,0,1,1.648-5.2,5.692,5.692,0,0,1,4.529-1.892,5.563,5.563,0,0,1,4.224,1.624,6.2,6.2,0,0,1,1.55,4.468V-6.1h-9A4.434,4.434,0,0,0-41.62-3.082,3.7,3.7,0,0,0-38.8-2.026a10.41,10.41,0,0,0,2.228-.226A11.677,11.677,0,0,0-34.357-3V-.671a8.808,8.808,0,0,1-2.124.708A13.024,13.024,0,0,1-38.934.244Zm-.525-11.816a2.882,2.882,0,0,0-2.191.867,4.13,4.13,0,0,0-.983,2.527h6.128a3.737,3.737,0,0,0-.806-2.533A2.756,2.756,0,0,0-39.459-11.572ZM-19.025-13.5v1.575l-2.307.427a3.724,3.724,0,0,1,.525,1.05A4.142,4.142,0,0,1-20.6-9.131a4.039,4.039,0,0,1-1.44,3.284,6.028,6.028,0,0,1-3.967,1.2,6.433,6.433,0,0,1-1.172-.1,1.616,1.616,0,0,0-.928,1.343.746.746,0,0,0,.433.7,3.748,3.748,0,0,0,1.593.232h2.356a5.238,5.238,0,0,1,3.394.952,3.35,3.35,0,0,1,1.16,2.747,3.994,3.994,0,0,1-1.892,3.54,9.962,9.962,0,0,1-5.469,1.245,7.547,7.547,0,0,1-4.211-.977A3.156,3.156,0,0,1-32.2,2.246,2.962,2.962,0,0,1-31.409.153a4.219,4.219,0,0,1,2.2-1.178,2.156,2.156,0,0,1-.946-.787,1.988,1.988,0,0,1-.372-1.141A1.965,1.965,0,0,1-30.1-4.236a4.929,4.929,0,0,1,1.27-1.038,3.76,3.76,0,0,1-1.7-1.471,4.327,4.327,0,0,1-.653-2.386A4.278,4.278,0,0,1-29.8-12.537a5.825,5.825,0,0,1,3.949-1.208,9.612,9.612,0,0,1,1.2.079,7.57,7.57,0,0,1,.946.165ZM-29.633,2.1A1.578,1.578,0,0,0-28.8,3.528a4.6,4.6,0,0,0,2.35.5,7.1,7.1,0,0,0,3.491-.671,2.013,2.013,0,0,0,1.147-1.782A1.337,1.337,0,0,0-22.437.323a5.048,5.048,0,0,0-2.338-.372h-2.173a3.053,3.053,0,0,0-1.959.58A1.9,1.9,0,0,0-29.633,2.1ZM-28.4-9.131a2.717,2.717,0,0,0,.653,1.953,2.47,2.47,0,0,0,1.874.684q2.49,0,2.49-2.661A3.018,3.018,0,0,0-24-11.188a2.342,2.342,0,0,0-1.874-.714,2.415,2.415,0,0,0-1.886.708A2.976,2.976,0,0,0-28.4-9.131ZM-8.075,0l-.574-1.88h-.1A5.531,5.531,0,0,1-10.712-.2a6.215,6.215,0,0,1-2.539.446A4.3,4.3,0,0,1-16.357-.83a4.02,4.02,0,0,1-1.117-3.04,3.569,3.569,0,0,1,1.55-3.149A8.939,8.939,0,0,1-11.2-8.179l2.332-.073v-.72a2.73,2.73,0,0,0-.6-1.935,2.464,2.464,0,0,0-1.874-.641,6.479,6.479,0,0,0-1.99.305,15.015,15.015,0,0,0-1.831.72l-.928-2.051a9.984,9.984,0,0,1,2.4-.873,11.067,11.067,0,0,1,2.466-.3,5.84,5.84,0,0,1,3.888,1.123A4.4,4.4,0,0,1-6.024-9.094V0Zm-4.272-1.953a3.553,3.553,0,0,0,2.509-.873,3.164,3.164,0,0,0,.946-2.448V-6.445l-1.733.073a5.931,5.931,0,0,0-2.948.677A2.058,2.058,0,0,0-14.5-3.845a1.8,1.8,0,0,0,.537,1.4A2.308,2.308,0,0,0-12.347-1.953ZM2.533.244A4.7,4.7,0,0,1-1.41-1.587,8.23,8.23,0,0,1-2.826-6.726,8.257,8.257,0,0,1-1.392-11.9a4.747,4.747,0,0,1,3.973-1.849A4.654,4.654,0,0,1,6.635-11.78h.146a17.2,17.2,0,0,1-.208-2.295v-4.919H9.454V0H7.208l-.5-1.77H6.573A4.586,4.586,0,0,1,2.533.244ZM3.3-2.075A3.122,3.122,0,0,0,5.878-3.07,5.238,5.238,0,0,0,6.708-6.3v-.4a6.051,6.051,0,0,0-.83-3.625,3.079,3.079,0,0,0-2.6-1.074A2.638,2.638,0,0,0,.946-10.175a6.287,6.287,0,0,0-.818,3.5A6.13,6.13,0,0,0,.922-3.253,2.679,2.679,0,0,0,3.3-2.075ZM19.452.244a6.531,6.531,0,0,1-4.926-1.837,6.974,6.974,0,0,1-1.776-5.06,7.652,7.652,0,0,1,1.648-5.2,5.692,5.692,0,0,1,4.529-1.892,5.563,5.563,0,0,1,4.224,1.624A6.2,6.2,0,0,1,24.7-7.654V-6.1h-9a4.434,4.434,0,0,0,1.062,3.021,3.7,3.7,0,0,0,2.82,1.056,10.41,10.41,0,0,0,2.228-.226A11.678,11.678,0,0,0,24.03-3V-.671a8.808,8.808,0,0,1-2.124.708A13.024,13.024,0,0,1,19.452.244Zm-.525-11.816a2.882,2.882,0,0,0-2.191.867,4.13,4.13,0,0,0-.983,2.527h6.128a3.737,3.737,0,0,0-.806-2.533A2.756,2.756,0,0,0,18.927-11.572Zm15.881-2.173a6.906,6.906,0,0,1,1.428.122l-.281,2.673a5.422,5.422,0,0,0-1.27-.146A3.674,3.674,0,0,0,31.9-9.973a4.059,4.059,0,0,0-1.068,2.917V0H27.96V-13.5h2.246l.378,2.38h.146a5.349,5.349,0,0,1,1.752-1.917A4.164,4.164,0,0,1,34.808-13.745ZM46.686,0l-.574-1.88h-.1A5.531,5.531,0,0,1,44.049-.2,6.215,6.215,0,0,1,41.51.244,4.3,4.3,0,0,1,38.4-.83a4.02,4.02,0,0,1-1.117-3.04,3.569,3.569,0,0,1,1.55-3.149,8.939,8.939,0,0,1,4.724-1.16l2.332-.073v-.72a2.73,2.73,0,0,0-.6-1.935,2.464,2.464,0,0,0-1.874-.641,6.479,6.479,0,0,0-1.99.305,15.015,15.015,0,0,0-1.831.72l-.928-2.051a9.984,9.984,0,0,1,2.4-.873,11.067,11.067,0,0,1,2.466-.3,5.84,5.84,0,0,1,3.888,1.123,4.4,4.4,0,0,1,1.312,3.528V0ZM42.413-1.953a3.553,3.553,0,0,0,2.509-.873,3.164,3.164,0,0,0,.946-2.448V-6.445l-1.733.073a5.931,5.931,0,0,0-2.948.677,2.058,2.058,0,0,0-.922,1.849,1.8,1.8,0,0,0,.537,1.4A2.308,2.308,0,0,0,42.413-1.953Zm19.4-1.892A3.533,3.533,0,0,1,60.37-.812,6.9,6.9,0,0,1,56.244.244,9.746,9.746,0,0,1,51.91-.574V-3.052a10.639,10.639,0,0,0,4.431,1.1q2.649,0,2.649-1.6a1.267,1.267,0,0,0-.293-.854,3.467,3.467,0,0,0-.964-.708,16.6,16.6,0,0,0-1.868-.83A8.639,8.639,0,0,1,52.71-7.751a3.343,3.343,0,0,1-.824-2.344,3.078,3.078,0,0,1,1.4-2.692,6.633,6.633,0,0,1,3.8-.958,10.77,10.77,0,0,1,4.5.964l-.928,2.161a10.018,10.018,0,0,0-3.674-.9q-2.271,0-2.271,1.294a1.3,1.3,0,0,0,.592,1.074,13.02,13.02,0,0,0,2.582,1.208,11.8,11.8,0,0,1,2.429,1.184,3.539,3.539,0,0,1,1.123,1.239A3.586,3.586,0,0,1,61.81-3.845Z" transform="translate(733 2610)" fill="#fff"/>
    <rect id="Rectángulo_1923" data-name="Rectángulo 1923" width="253" height="44" rx="5" transform="translate(1051 2580)" fill="#70ad54"/>
    <path id="Trazado_16984" data-name="Trazado 16984" d="M-45.953-17.847h5.3q3.687,0,5.328,1.074a3.761,3.761,0,0,1,1.642,3.394,4.112,4.112,0,0,1-.806,2.6A3.6,3.6,0,0,1-36.81-9.473v.122a4.605,4.605,0,0,1,2.765,1.4,4.228,4.228,0,0,1,.885,2.826,4.582,4.582,0,0,1-1.678,3.766A7.22,7.22,0,0,1-39.508,0h-6.445Zm2.917,7.373h2.808a4.807,4.807,0,0,0,2.673-.58,2.221,2.221,0,0,0,.842-1.971,1.975,1.975,0,0,0-.909-1.819,5.68,5.68,0,0,0-2.887-.562h-2.527Zm0,2.368v5.652h3.1a4.564,4.564,0,0,0,2.765-.7,2.591,2.591,0,0,0,.934-2.216,2.353,2.353,0,0,0-.952-2.063,5.046,5.046,0,0,0-2.893-.671ZM-17.78-6.775a7.369,7.369,0,0,1-1.7,5.164A6.08,6.08,0,0,1-24.2.244,6.473,6.473,0,0,1-27.545-.61a5.641,5.641,0,0,1-2.234-2.454,8.357,8.357,0,0,1-.781-3.711A7.319,7.319,0,0,1-28.876-11.9a6.108,6.108,0,0,1,4.749-1.843,5.948,5.948,0,0,1,4.639,1.886A7.285,7.285,0,0,1-17.78-6.775Zm-9.827,0q0,4.675,3.455,4.675,3.418,0,3.418-4.675,0-4.626-3.442-4.626a2.935,2.935,0,0,0-2.618,1.2A6.088,6.088,0,0,0-27.606-6.775Zm18.152,4.7a6.976,6.976,0,0,0,2.1-.33V-.244A5.791,5.791,0,0,1-8.582.1a8.452,8.452,0,0,1-1.556.14q-4.077,0-4.077-4.3v-7.275h-1.843V-12.6l1.978-1.05L-13.1-16.5h1.77v3h3.845v2.173h-3.845V-4.1a2.027,2.027,0,0,0,.519,1.532A1.891,1.891,0,0,0-9.454-2.075ZM1.239.244A6.531,6.531,0,0,1-3.687-1.593a6.974,6.974,0,0,1-1.776-5.06,7.652,7.652,0,0,1,1.648-5.2A5.692,5.692,0,0,1,.714-13.745a5.563,5.563,0,0,1,4.224,1.624,6.2,6.2,0,0,1,1.55,4.468V-6.1h-9A4.434,4.434,0,0,0-1.447-3.082a3.7,3.7,0,0,0,2.82,1.056A10.41,10.41,0,0,0,3.6-2.252,11.678,11.678,0,0,0,5.817-3V-.671A8.808,8.808,0,0,1,3.693.037,13.024,13.024,0,0,1,1.239.244ZM.714-11.572a2.882,2.882,0,0,0-2.191.867A4.13,4.13,0,0,0-2.46-8.179H3.668a3.737,3.737,0,0,0-.806-2.533A2.756,2.756,0,0,0,.714-11.572ZM12.616,0H9.747V-18.994h2.869Zm6.97,0H16.718V-18.994h2.869ZM32.135,0l-.574-1.88h-.1A5.531,5.531,0,0,1,29.5-.2a6.215,6.215,0,0,1-2.539.446A4.3,4.3,0,0,1,23.853-.83a4.02,4.02,0,0,1-1.117-3.04,3.569,3.569,0,0,1,1.55-3.149,8.939,8.939,0,0,1,4.724-1.16l2.332-.073v-.72a2.73,2.73,0,0,0-.6-1.935,2.464,2.464,0,0,0-1.874-.641,6.479,6.479,0,0,0-1.99.305,15.015,15.015,0,0,0-1.831.72l-.928-2.051a9.984,9.984,0,0,1,2.4-.873,11.067,11.067,0,0,1,2.466-.3,5.84,5.84,0,0,1,3.888,1.123,4.4,4.4,0,0,1,1.312,3.528V0ZM27.863-1.953a3.553,3.553,0,0,0,2.509-.873,3.164,3.164,0,0,0,.946-2.448V-6.445l-1.733.073a5.931,5.931,0,0,0-2.948.677,2.058,2.058,0,0,0-.922,1.849,1.8,1.8,0,0,0,.537,1.4A2.308,2.308,0,0,0,27.863-1.953Zm19.4-1.892a3.533,3.533,0,0,1-1.44,3.033A6.9,6.9,0,0,1,41.693.244,9.746,9.746,0,0,1,37.36-.574V-3.052a10.639,10.639,0,0,0,4.431,1.1q2.649,0,2.649-1.6a1.267,1.267,0,0,0-.293-.854,3.467,3.467,0,0,0-.964-.708,16.6,16.6,0,0,0-1.868-.83,8.639,8.639,0,0,1-3.156-1.807,3.343,3.343,0,0,1-.824-2.344,3.078,3.078,0,0,1,1.4-2.692,6.633,6.633,0,0,1,3.8-.958,10.77,10.77,0,0,1,4.5.964l-.928,2.161a10.018,10.018,0,0,0-3.674-.9q-2.271,0-2.271,1.294a1.3,1.3,0,0,0,.592,1.074,13.02,13.02,0,0,0,2.582,1.208A11.8,11.8,0,0,1,45.77-6.763a3.539,3.539,0,0,1,1.123,1.239A3.586,3.586,0,0,1,47.26-3.845Z" transform="translate(1178 2610)" fill="#fff"/>
    <g id="Grupo_9776" data-name="Grupo 9776">
      <g id="Grupo_9775" data-name="Grupo 9775" transform="translate(1331.564 1659.782)">
        <path id="Trazado_16816" data-name="Trazado 16816" d="M-190.471,860.633v51.634h-6.26c-2.076,0-5.05,4.142-7.241,4.142s-15.431.344-21.764-.574-11.717-2.076-11.717-7.262a28.252,28.252,0,0,1,1.909-9.734s-4.518-1.669-4.518-11.758,4.518-12.113,4.518-12.113a27.28,27.28,0,0,1-1.982-9.724c0-5.185,5.415-6.343,11.748-7.262s19.594-1.033,21.785-1.033,5.185,3.683,7.262,3.683Z" transform="translate(0.152 0.152)" fill="#fffcc2"/>
        <path id="Trazado_16817" data-name="Trazado 16817" d="M-70.638,895.668h-8.294c0,3.683-7.376,3.725-7.376,3.725v-3.725h-3.683c-2.421,5.53-18.79,20.282-32.625,20.282H-132.4c-1.158,0-1.847-1.847-3.12-3.683H-192.53V860.633h57.007c1.273-1.847,1.961-3.693,3.12-3.693h9.786c13.834,0,30.2,14.753,32.625,20.282h3.683v-3.558s7.376-.125,7.376,3.558h8.294c.949,0,.929,1.335.929,1.335v15.9S-69.48,895.668-70.638,895.668Z" transform="translate(2.211 0.152)" fill="#beeb9f"/>
        <path id="Trazado_16818" data-name="Trazado 16818" d="M-211.35,920.278a119.815,119.815,0,0,1-14.761-.677c-5.553-.807-14.844-2.159-14.844-10.875a31.022,31.022,0,0,1,1.284-8.472c-1.882-2.058-3.892-5.919-3.892-13.021s2.065-11.078,3.909-13.217a30.186,30.186,0,0,1-1.374-8.625c0-8.706,9.315-10.061,14.881-10.87,7.183-1.044,22.157-1.075,22.306-1.075,2.285,0,4.182,1.363,5.856,2.565a16.152,16.152,0,0,0,1.687,1.121h60.972c.961-1.574,2.406-3.689,5.129-3.689h9.8c12.578,0,26.245,10.248,32.652,17.659v-.882l3.591-.058c1.463-.034,6.465.106,9.23,2.826a6.609,6.609,0,0,1,.648.739h5.856a4.4,4.4,0,0,1,3.157,1.313,5.276,5.276,0,0,1,1.416,3.724v15.651a4.762,4.762,0,0,1-1.026,3.441,4.506,4.506,0,0,1-3.547,1.615h-5.869c-1.521,2.062-4.576,3.7-9.785,3.727l-3.671.019V902.1c-6.406,7.414-20.07,17.658-32.652,17.658h-9.8c-2.719,0-4.166-2.114-5.128-3.688H-196.2a18.158,18.158,0,0,0-1.6,1.215c-1.693,1.374-3.613,2.933-6.019,2.933-.309,0-.845.007-1.552.017C-206.847,920.251-208.965,920.278-211.35,920.278Zm-22.624-24.684,4.267.828-2.315,3.984a24.716,24.716,0,0,0-1.63,8.32c0,1.556,1.369,2.6,8.592,3.647,5.132.747,15.634.608,19.588.554.546-.007.994-.014,1.326-.016a16.946,16.946,0,0,0,1.74-1.3c1.644-1.335,3.509-2.848,5.827-2.848h65.187l1.089,1.578c.387.561.727,1.122,1.042,1.642.089.144.188.311.286.468h8.574c12.255,0,27.415-13.855,29.269-18.1l.958-2.188h9.728v3.084l.073-.033v-3.051h9.219V881.031h-9.219v-3c-.024-.009-.048-.02-.073-.028v3.032h-9.727l-.958-2.188c-1.856-4.24-17.02-18.1-29.27-18.1h-8.575c-.1.158-.2.321-.283.465-.315.522-.656,1.083-1.044,1.646l-1.089,1.578h-65.187c-2.2,0-4.041-1.324-5.666-2.491a15.578,15.578,0,0,0-1.823-1.194c-3.97.007-15.537.2-21.027,1-7.254,1.055-8.629,2.1-8.629,3.643a23.817,23.817,0,0,0,1.685,8.278l1.629,3.782-3.368.971c-.465.388-2.481,2.441-2.481,8.811C-236.26,893.3-234.451,895.2-233.975,895.594Zm162.821-16.881v0Zm-162.741-.258Zm29.73-17.743Z" transform="translate(0 0)" fill="#4c4240"/>
        <rect id="Rectángulo_1924" data-name="Rectángulo 1924" width="8.023" height="49.833" transform="translate(-190.319 862.586)" fill="#4c4240"/>
        <rect id="Rectángulo_1925" data-name="Rectángulo 1925" width="6.263" height="11.7" transform="translate(-171.219 898.02) rotate(90)" fill="#4c4240"/>
        <rect id="Rectángulo_1927" data-name="Rectángulo 1927" width="6.263" height="11.7" transform="translate(-171.219 872.262) rotate(90)" fill="#4c4240"/>
      </g>
      <rect id="Rectángulo_1928" data-name="Rectángulo 1928" width="4" height="48" transform="translate(1168 2523)" fill="#4c4240"/>
    </g>
  </g>
</svg>
