<svg xmlns="http://www.w3.org/2000/svg" width="140" height="140" viewBox="0 0 140 140">
  <g id="Grupo_9884" data-name="Grupo 9884" transform="translate(-462 -981)">
    <g id="Grupo_9862" data-name="Grupo 9862">
      <g id="Elipse_553" data-name="Elipse 553" transform="translate(462 981)" fill="#f0f0f0" stroke="#fdac29" stroke-width="2">
        <circle cx="70" cy="70" r="70" stroke="none"/>
        <circle cx="70" cy="70" r="69" fill="none"/>
      </g>
      <g id="Grupo_9842" data-name="Grupo 9842" transform="translate(-1734.003 758.976)">
        <g id="Grupo_9841" data-name="Grupo 9841" transform="translate(2209.003 252.403)">
          <path id="Trazado_16910" data-name="Trazado 16910" d="M2259.02,375.8a4.307,4.307,0,0,1-2.805,1.767,4.331,4.331,0,0,1-5-3.539l-2.206-12.885-.061.028.54,16.8a4.714,4.714,0,1,1-9.424.3l-.527-16.348-.024,0-2.02,18.069a4.715,4.715,0,0,1-9.37-1.057l2.058-18.269c-.031-.006-.062-.013-.095-.021l-3.812,14.514a4.714,4.714,0,1,1-9.118-2.4l6.123-22.023.812-7.192-.383-.043-5.757,11.712a4.715,4.715,0,0,1-8.464-4.156l.8-1.62c2.039-4.154,7.944-16.168,7.944-16.168,2.21-4.333,6.4-7.25,8.03-8.379,7.443-5.16,20.368-3.847,27,.932a11.951,11.951,0,0,1,4.684,11.2l-1.574,13.954a12.544,12.544,0,0,1-.353,1.81l3.74,19.777A4.309,4.309,0,0,1,2259.02,375.8Z" transform="translate(-2209.003 -304.378)" fill="#24753f"/>
          <g id="Grupo_9840" data-name="Grupo 9840">
            <path id="Trazado_16911" data-name="Trazado 16911" d="M2242.5,373.085l.132-.269Q2242.559,372.953,2242.5,373.085Z" transform="translate(-2234.029 -342.659)" fill="#123e1e"/>
            <path id="Trazado_16912" data-name="Trazado 16912" d="M2259.754,321.712l-3.74-19.777a12.545,12.545,0,0,0,.353-1.81l1.574-13.954c.025-.209.044-.414.059-.617,0-.052.007-.1.01-.154.013-.191.022-.381.026-.567,0-.01,0-.02,0-.03,0-.191,0-.378,0-.563,0-.056,0-.111,0-.166-.006-.158-.014-.314-.026-.467,0-.041-.006-.081-.01-.122-.013-.156-.03-.31-.049-.462-.008-.066-.017-.131-.026-.2q-.025-.174-.054-.345c-.016-.09-.031-.18-.049-.268-.02-.106-.042-.211-.065-.314-.018-.08-.037-.16-.056-.239s-.037-.144-.056-.215q-.059-.224-.126-.44c-.014-.047-.028-.095-.043-.141-.031-.095-.062-.188-.094-.28-.011-.033-.023-.065-.035-.1q-.107-.3-.224-.578h0c-.957-3.827,1.04-13.837,2.08-17.642l.5-2.4a2.066,2.066,0,0,0-1.676-2.394l-22.182-3.911a2.067,2.067,0,0,0-2.394,1.676l-1.267,9.455a17,17,0,0,1-3.446,7.954h0c-.2.09-.39.183-.582.279l-.138.07c-.163.084-.325.169-.484.257-.1.054-.192.11-.287.165-.117.068-.234.135-.348.206-.218.134-.433.274-.643.419a26.627,26.627,0,0,0-7.117,6.821l-.017.026c-.118.179-.233.362-.345.548-.194.32-.38.648-.551.985l-.622,1.264v0l-.139.284.006-.012-.009.019,0-.006c-1.662,3.381-5.6,11.386-7.184,14.621l-.8,1.62a4.715,4.715,0,1,0,8.464,4.156l5.757-11.712.383.043-.812,7.192-6.123,22.023a4.714,4.714,0,1,0,9.118,2.4l3.812-14.514c.032.008.064.014.095.021l-2.058,18.269a4.715,4.715,0,0,0,9.37,1.057l2.02-18.069.024,0,.527,16.348a4.714,4.714,0,1,0,9.424-.3l-.54-16.8.061-.028,2.206,12.885a4.331,4.331,0,0,0,5,3.54,4.332,4.332,0,0,0,3.54-5Zm-2.453,2.018a2.211,2.211,0,0,1-1.438.908,2.227,2.227,0,0,1-2.574-1.819l-2.206-12.885a2.117,2.117,0,0,0-2.974-1.549l.879,1.908-.912-1.893a2.1,2.1,0,0,0-1.235,1.985l.54,16.8a2.607,2.607,0,0,1-2.533,2.691,2.56,2.56,0,0,1-.534-.036,2.651,2.651,0,0,1-2.147-2.488l-.527-16.348a2.118,2.118,0,0,0-4.222-.169L2235.4,328.9a2.609,2.609,0,1,1-5.185-.585l2.058-18.269a2.158,2.158,0,0,0-4.224-.791l-3.812,14.514a2.616,2.616,0,0,1-2.962,1.91c-.073-.013-.146-.029-.224-.05a2.609,2.609,0,0,1-1.867-3.161l6.123-22.024a2.052,2.052,0,0,0,.063-.328l.812-7.192a2.106,2.106,0,0,0-1.857-2.328l-.382-.043a2.105,2.105,0,0,0-2.125,1.164l-5.758,11.713a2.609,2.609,0,0,1-4.683-2.3l.794-1.62c2.036-4.149,7.931-16.141,7.93-16.139,1.977-3.877,5.883-6.586,7.354-7.6a13.739,13.739,0,0,1,1.876-1.078,9.583,9.583,0,0,0,7.69,1.667l1.588-.338a9.585,9.585,0,0,1,7.71,1.679l2.363,1.755a9.587,9.587,0,0,0,4.05,1.743l1.32.233a19.05,19.05,0,0,1,1.821,4.262c-.008.081-.013.161-.023.243l-1.574,13.954a10.413,10.413,0,0,1-.3,1.509,2.108,2.108,0,0,0-.033.929l3.736,19.755A2.188,2.188,0,0,1,2257.3,323.729Z" transform="translate(-2209.003 -253.523)" fill="#123e1e"/>
          </g>
        </g>
        <path id="Trazado_16913" data-name="Trazado 16913" d="M2468.267,298.705l-.795-1.62c-1.588-3.235-5.521-11.239-7.183-14.62l0,0-.326-.664-.311-.633-.018-.036-.075-.153-.033-.067a15.79,15.79,0,0,0-.913-1.558,26.616,26.616,0,0,0-7.117-6.821,15.321,15.321,0,0,0-1.311-.809c-.085-.047-.17-.094-.256-.14-.3-.159-.605-.307-.916-.448a17.007,17.007,0,0,1-3.446-7.954l-1.267-9.455a2.066,2.066,0,0,0-2.394-1.676l-22.182,3.911a2.067,2.067,0,0,0-1.676,2.394l.5,2.4c1.04,3.8,3.207,12.523,2.25,16.35h0c-1.07,1.833-1.386,4.286-.993,7.556l1.055,9.352.52,4.6a12.406,12.406,0,0,0,.353,1.81L2418,320.213a4.332,4.332,0,1,0,8.54,1.462l2.206-12.885.061.028-.54,16.8a4.714,4.714,0,1,0,9.424.3l.527-16.348.024,0,2.02,18.069a4.715,4.715,0,0,0,9.37-1.057l-2.058-18.269.095-.021,3.812,14.514a4.714,4.714,0,1,0,9.118-2.4l-6.123-22.024-.811-7.192.382-.043,5.757,11.712a4.715,4.715,0,0,0,8.464-4.156Z" transform="translate(-156.115 0)" fill="#123e1e"/>
      </g>
    </g>
  </g>
</svg>
