<svg xmlns="http://www.w3.org/2000/svg" width="140" height="140" viewBox="0 0 140 140">
  <g id="Grupo_9860" data-name="Grupo 9860" transform="translate(-462 -1522)">
    <g id="Elipse_555" data-name="Elipse 555" transform="translate(462 1522)" fill="#f0f0f0" stroke="#fdac29" stroke-width="2">
      <circle cx="70" cy="70" r="70" stroke="none"/>
      <circle cx="70" cy="70" r="69" fill="none"/>
    </g>
    <g id="Grupo_9853" data-name="Grupo 9853" transform="translate(-231 -317.57)">
      <g id="Grupo_9852" data-name="Grupo 9852" transform="translate(734 1866.5)">
        <g id="Grupo_9850" data-name="Grupo 9850" transform="translate(9.986 0)">
          <path id="Trazado_16922" data-name="Trazado 16922" d="M1884.488,215.224s18.24,3.648,35.264,2.189c0,0-3.648,43.776-3.4,51.316s13.313,15.514,17.319,16.538c5.939,1.518,8.556,3.389,9.242,9.242,0,0-7.053,7.053-24.563.729a75.967,75.967,0,0,0-34.122-3.648s.751-10.458,3.427-17.511-1.126-17.761-2.586-30.164S1884.488,215.224,1884.488,215.224Z" transform="translate(-1884.223 -215.224)" fill="#e67700"/>
          <path id="Trazado_16923" data-name="Trazado 16923" d="M1887,595.77l.446-.775a.885.885,0,0,1,1.252,0l.449.775h2.281l.446-.775a.886.886,0,0,1,1.253,0l.449.775h2.29l.446-.775a.885.885,0,0,1,1.252,0l.449.775h2.981v-3.334a38.986,38.986,0,0,1,10.712,2.085c1.913.626,5.944,1.134,7.644,1.559a1.635,1.635,0,0,1,2.111.168l.677.468q2.059.419,3.9.653a2.554,2.554,0,0,1,3.184.045l.364.268a33.627,33.627,0,0,0,3.479-.022l.383-.246a1.791,1.791,0,0,1,2.161-.021,21.144,21.144,0,0,0,3.744-.914l.27-.507a1.638,1.638,0,0,1,2.214-.681l.37-.213c.475-.342.948-.706,1.416-1.11l-.708-2.807s-7.055,7.052-24.563.73a75.973,75.973,0,0,0-34.121-3.648v7.529Z" transform="translate(-1884.224 -511.876)" fill="#171414"/>
        </g>
        <g id="Grupo_9851" data-name="Grupo 9851" transform="translate(0 0)">
          <path id="Trazado_16924" data-name="Trazado 16924" d="M1835.424,215.224s18.24,3.648,35.264,2.189c0,0-3.648,43.776-3.4,51.316s13.313,15.514,17.319,16.538c5.939,1.518,8.556,3.389,9.242,9.242,0,0-7.053,7.053-24.564.729a75.967,75.967,0,0,0-34.122-3.648s.751-10.458,3.427-17.511-1.126-17.761-2.585-30.164S1835.424,215.224,1835.424,215.224Z" transform="translate(-1835.159 -215.224)" fill="#ff931e"/>
          <path id="Trazado_16925" data-name="Trazado 16925" d="M1837.935,595.77l.446-.775a.886.886,0,0,1,1.253,0l.449.775h2.281l.446-.775a.886.886,0,0,1,1.253,0l.449.775h2.29l.446-.775a.885.885,0,0,1,1.252,0l.449.775h2.981v-3.334a38.983,38.983,0,0,1,10.712,2.085c1.913.626,5.945,1.134,7.644,1.559a1.635,1.635,0,0,1,2.111.168l.677.468q2.058.419,3.9.653a2.554,2.554,0,0,1,3.183.045l.364.268a33.626,33.626,0,0,0,3.479-.022l.383-.246a1.79,1.79,0,0,1,2.16-.021,21.153,21.153,0,0,0,3.745-.914l.269-.507a1.639,1.639,0,0,1,2.214-.681l.37-.213c.475-.342.948-.706,1.416-1.11l-.708-2.807s-7.056,7.052-24.563.73a75.974,75.974,0,0,0-34.121-3.648v7.529Z" transform="translate(-1835.16 -511.876)" fill="#303030"/>
        </g>
      </g>
    </g>
  </g>
</svg>
