<svg xmlns="http://www.w3.org/2000/svg" width="140" height="140" viewBox="0 0 140 140">
  <g id="Grupo_9858" data-name="Grupo 9858" transform="translate(-462 -2028)">
    <g id="Elipse_558" data-name="Elipse 558" transform="translate(462 2028)" fill="#f0f0f0" stroke="#fdac29" stroke-width="2">
      <circle cx="70" cy="70" r="70" stroke="none"/>
      <circle cx="70" cy="70" r="69" fill="none"/>
    </g>
    <g id="Grupo_9857" data-name="Grupo 9857" transform="translate(475.342 1690.314)">
      <path id="Trazado_16942" data-name="Trazado 16942" d="M88.9,418.8c-2.933,0-3.3-3.117-3.3-3.117-3.665-17.6-11-26.945-13.014-28.6s-3.666-8.8-6.783-10.631-4.766,2.933-6.232,3.482a13.5,13.5,0,0,1-6.623,0c-1.467-.55-3.117-5.315-6.232-3.482s-4.766,8.982-6.782,10.631-9.348,11-13.014,28.6c0,0-.366,3.117-3.3,3.117s-19.613,1.65-19.613,1.65c-3.519,1.379,19.582,18.7,52.253,18.7,32.609,0,52.253-15.1,52.253-18.7C108.518,420.447,91.837,418.8,88.9,418.8Z" fill="#6d4829"/>
      <path id="Trazado_16943" data-name="Trazado 16943" d="M104.845,420.526a41.188,41.188,0,0,1-10.38,6.894c-14.613,7.4-57.1,11.724-79.8-3.448-.139-.093,14.8-3.226,14.96-6.259a56.667,56.667,0,0,1,5.334-21.1c1.13-2.214,6.413-8.77,7.971-10.668,1.5-1.834,3.514-8.725,7.553-8.6-.991-1.049-2.191-1.81-3.767-.883-3.117,1.832-4.766,8.982-6.782,10.631s-9.348,11-13.014,28.6c0,0-.366,3.117-3.3,3.117s-19.613,1.65-19.613,1.65c-3.519,1.379,19.582,18.7,52.253,18.7,32.609,0,52.253-15.1,52.253-18.7,0,0-1.319-.13-3.28-.319C105.106,420.261,104.979,420.4,104.845,420.526Z" transform="translate(0 0)" fill="#633f20"/>
      <g id="Grupo_9856" data-name="Grupo 9856" transform="translate(23.594 383.95)">
        <path id="Trazado_16944" data-name="Trazado 16944" d="M27.812,427.2s32.835,7.82,65.28,0l-1.918-3.056a135.886,135.886,0,0,1-61.1,0Z" transform="translate(-27.812 -392.35)" fill="#372814"/>
        <path id="Trazado_16945" data-name="Trazado 16945" d="M53.234,385.677a37.5,37.5,0,0,1-6.415,10.693c-4.277,4.811,4.811,7.217,6.415,2.138S55.907,384.875,53.234,385.677Z" transform="translate(-30.933 -385.624)" fill="#633f20"/>
        <path id="Trazado_16946" data-name="Trazado 16946" d="M79.807,385.677a37.489,37.489,0,0,0,6.416,10.693c4.276,4.811-4.812,7.217-6.416,2.138S77.133,384.875,79.807,385.677Z" transform="translate(-36.607 -385.624)" fill="#633f20"/>
      </g>
    </g>
  </g>
</svg>
