<svg xmlns="http://www.w3.org/2000/svg" width="220" height="220" viewBox="0 0 220 220">
  <g id="Grupo_9876" data-name="Grupo 9876" transform="translate(-390 -1447)">
    <g id="Elipse_560" data-name="Elipse 560" transform="translate(390 1447)" fill="#f4f4f4" stroke="#fdac29" stroke-width="2">
      <circle cx="110" cy="110" r="110" stroke="none"/>
      <circle cx="110" cy="110" r="109" fill="none"/>
    </g>
    <g id="Grupo_9671" data-name="Grupo 9671" transform="translate(-389 -52.458)">
      <g id="Grupo_9669" data-name="Grupo 9669" transform="translate(796 1600.082)">
        <path id="Trazado_14285" data-name="Trazado 14285" d="M291.217,1338.254c-4.144-.479-9.945-4.25-6-8.665,3.195-3.21,9.272-1.866,11.891,1.459C299.7,1335.008,295.3,1339.1,291.217,1338.254Z" transform="translate(-260.316 -1298.205)" fill="#513636"/>
        <path id="Trazado_14286" data-name="Trazado 14286" d="M329.048,1320.378c-8.159,2.279-11.263-9.324-2.862-10.993C334.513,1307,339,1321.447,329.048,1320.378Z" transform="translate(-285.843 -1285.45)" fill="#513636"/>
        <path id="Trazado_14287" data-name="Trazado 14287" d="M360.971,1312.485c-4.576-1.1-3.4-8.156,1.2-7.969C368.658,1304.668,367.321,1315.382,360.971,1312.485Z" transform="translate(-311.068 -1282.298)" fill="#513636"/>
        <path id="Trazado_14288" data-name="Trazado 14288" d="M383.869,1283.773a4.014,4.014,0,0,1-2.846-1.675c-3.572-2.157-.806-7.812.921-10.517,2.946-4.856,8.574-8.159,14.322-7.6,9.269.351,9.649,12.193,1.613,15.085C390.133,1279.328,390.368,1283.971,383.869,1283.773Z" transform="translate(-325.583 -1254.522)" fill="#513636"/>
        <path id="Trazado_14289" data-name="Trazado 14289" d="M452.959,1253.745a3.226,3.226,0,0,1-1.428-.479c-8.413-.577-7.931-12.2.223-12.82C460.735,1239.564,462.3,1253.807,452.959,1253.745Z" transform="translate(-370.843 -1238.432)" fill="#513636"/>
        <path id="Trazado_14290" data-name="Trazado 14290" d="M478.5,1244.449a6,6,0,0,1-1.962-3.012c-4.985-1.212,1.055-8.475,4.557-7.116C488.641,1235.85,486.437,1249.111,478.5,1244.449Z" transform="translate(-390.838 -1234.152)" fill="#513636"/>
        <path id="Trazado_14291" data-name="Trazado 14291" d="M497.337,1257.462a1.239,1.239,0,0,1,2.477,0A1.239,1.239,0,0,1,497.337,1257.462Z" transform="translate(-406.364 -1249.28)" fill="#513636"/>
        <path id="Trazado_14292" data-name="Trazado 14292" d="M509.157,1246.481c-4.393-1.616-2.507-9.922,2.557-8.2C517.377,1239.538,514.28,1247.873,509.157,1246.481Z" transform="translate(-412.77 -1236.818)" fill="#513636"/>
        <path id="Trazado_14293" data-name="Trazado 14293" d="M526.362,1255.711a1.872,1.872,0,0,1-.289-2.245c-2.233-.965-.309-2.924,1.428-2.083C530.509,1252.283,529.73,1258,526.362,1255.711Z" transform="translate(-425.337 -1245.803)" fill="#513636"/>
        <path id="Trazado_14294" data-name="Trazado 14294" d="M541.535,1261.669c-1.733-.824-2.492-2.858-4.175-3.812-1.272-.915-3.521-1.267-3.2-3.3a6.033,6.033,0,0,1,7.812-4.115C547.2,1251.505,548.228,1263.456,541.535,1261.669Z" transform="translate(-431.538 -1245.087)" fill="#513636"/>
        <path id="Trazado_14295" data-name="Trazado 14295" d="M565.359,1271.195c-2.136-.169-4.568-2.056-3.412-4.367-.4-3.408,3.882-6.1,6.8-4.316C574.122,1265.74,571.388,1272,565.359,1271.195Z" transform="translate(-450.372 -1253.168)" fill="#513636"/>
        <path id="Trazado_14296" data-name="Trazado 14296" d="M594.579,1276.176a2.233,2.233,0,0,1-1.479-1.264c-3.961-1.125-.961-6.383,2.331-5.674C600.863,1269.142,599.776,1277.761,594.579,1276.176Z" transform="translate(-470.602 -1258.116)" fill="#513636"/>
        <path id="Trazado_14297" data-name="Trazado 14297" d="M612.483,1289.752c-3.929-.3-11.354-3.769-8.481-8.6,1.954-5.661,10.968-3.207,13.633.759C620,1285.5,616.67,1290.346,612.483,1289.752Z" transform="translate(-478.912 -1264.035)" fill="#513636"/>
        <path id="Trazado_14298" data-name="Trazado 14298" d="M648.385,1300.836c-1.816-.2-3.573-2.238-2.576-4.024-.26-2.494,2.551-3.992,4.75-3.51C655.75,1295,653.593,1301.805,648.385,1300.836Z" transform="translate(-507.763 -1274.566)" fill="#513636"/>
        <path id="Trazado_14299" data-name="Trazado 14299" d="M677.373,1310.942c-.543-.436-.441-1.167-.655-1.728a2.084,2.084,0,0,1-3.337-1.072,1.615,1.615,0,0,0-.849.081.817.817,0,0,1-1.017.218l.017.008c-3.027-1.876,2.238-5.316,4.128-3.119C680.832,1302.494,683.2,1313.591,677.373,1310.942Z" transform="translate(-524.934 -1282.372)" fill="#513636"/>
        <path id="Trazado_14300" data-name="Trazado 14300" d="M667.517,1313.93a2.861,2.861,0,0,1-1.21-.7c.039.034.077.068.115.1a1.358,1.358,0,0,0-1.067-.417c.1.006.212.014.32.019-2.107.086-3.438-1.741-5.264-2.45-2.277.395-4.158-2.347-1.942-3.817h0c2.069-1.079,9.161,1.654,11.034,2.951C671.348,1311.219,670.071,1314.613,667.517,1313.93Z" transform="translate(-515.946 -1283.606)" fill="#513636"/>
        <path id="Trazado_14301" data-name="Trazado 14301" d="M696.846,1316.178c-9.409-2.407-2.46-11.994,4.212-8.077C706.159,1310.921,702.252,1319.563,696.846,1316.178Z" transform="translate(-539.75 -1284.119)" fill="#513636"/>
        <path id="Trazado_14302" data-name="Trazado 14302" d="M505.64,1282.861c-12.308-1.939-12.157-18.249,1.288-18.029C521.454,1265.326,519.9,1284.443,505.64,1282.861Z" transform="translate(-405.873 -1255.144)" fill="#513636"/>
        <path id="Trazado_14303" data-name="Trazado 14303" d="M415.659,1326.491c-9.668-2.8-5.6-16.171,3.691-15.169C429.464,1313.084,425.079,1328.811,415.659,1326.491Z" transform="translate(-346.674 -1286.922)" fill="#513636"/>
        <path id="Trazado_14304" data-name="Trazado 14304" d="M408.806,1314.825a8.771,8.771,0,0,0-.492-2.464q-.235-.061-.472-.116a2.52,2.52,0,0,0-.477.473A3.458,3.458,0,0,0,408.806,1314.825Zm1.709,3.07c-7.761-.006-10.829-10.15-2.03-11.048,4.343-.186,7.411,6.43,4.568,9.594a.927.927,0,0,1-.857,1.4,1.019,1.019,0,0,0,.195,0A6.841,6.841,0,0,1,410.515,1317.895Z" transform="translate(-341.911 -1283.893)" fill="#513636"/>
        <path id="Trazado_14305" data-name="Trazado 14305" d="M511.36,1257.546c-6.871-1.063-2.3-12.272,2.723-6.672C519.121,1252.164,515.5,1258.647,511.36,1257.546Z" transform="translate(-413.575 -1244.528)" fill="#634343"/>
        <path id="Trazado_14306" data-name="Trazado 14306" d="M488.111,1266.208c-2.211-2.228-1.019-6.988,2.569-6.155,2.13-1.9,6.045-.069,5.455,2.875C495.341,1265.938,490.635,1269.316,488.111,1266.208Z" transform="translate(-399.288 -1251.345)" fill="#634343"/>
        <path id="Trazado_14307" data-name="Trazado 14307" d="M466.873,1286.492c-.243-.864,1.177-1.26,1.407-.391S467.108,1287.367,466.873,1286.492Z" transform="translate(-385.5 -1269.367)" fill="#634343"/>
        <path id="Trazado_14308" data-name="Trazado 14308" d="M449.4,1289.073c-3.414-.384-6.1-4.078-6.123-7.35,0,.03,0,.06-.006.089-1.147-5.118,1.877-11.185,7.742-10.62,7.6-5.713,16.444,7.148,9.043,12.081C458.793,1287.7,453.642,1289.633,449.4,1289.073Z" transform="translate(-369.204 -1258.516)" fill="#634343"/>
        <path id="Trazado_14309" data-name="Trazado 14309" d="M555.454,1294.587c-8.5-2.371-5.459-17.522,3.815-14.677C568.844,1283.46,565.782,1296.621,555.454,1294.587Z" transform="translate(-442.711 -1265.221)" fill="#634343"/>
        <path id="Trazado_14310" data-name="Trazado 14310" d="M585.523,1289.426a2.79,2.79,0,0,1-.775-2.367c-5.675-2.864,1.545-9.016,5.279-5.146C594.4,1284.838,590.128,1293.11,585.523,1289.426Z" transform="translate(-464.742 -1265.984)" fill="#634343"/>
        <path id="Trazado_14311" data-name="Trazado 14311" d="M432.51,1308.591c-2.94-5.307,6.82-7.178,5.118-1.179C438.287,1310.539,433.692,1311.024,432.51,1308.591Z" transform="translate(-361.624 -1281.733)" fill="#634343"/>
        <path id="Trazado_14312" data-name="Trazado 14312" d="M375.923,1326.375c-8.439.833-13.121-9.718-3.039-11.414C380,1313.883,387.858,1327.7,375.923,1326.375Z" transform="translate(-317.292 -1289.407)" fill="#634343"/>
        <path id="Trazado_14313" data-name="Trazado 14313" d="M356.034,1329.223a2.732,2.732,0,0,1,.46-3.607l-.145.128c.061-.056.123-.109.185-.163l-.029.026C362.475,1322.424,360.472,1333.261,356.034,1329.223Z" transform="translate(-309.342 -1296.327)" fill="#634343"/>
        <path id="Trazado_14314" data-name="Trazado 14314" d="M643.409,1317.409c-2.209-.146-4.25-1.148-6.353-1.761l.164.059-.29-.1h0c-8.171-1.683-7.479-8.8.756-7.763,2.842.889,5.934,2.013,7.881,4.378,1.733,1.542,2.168,5.394-1.053,4.966A2.653,2.653,0,0,1,643.409,1317.409Z" transform="translate(-497.926 -1284.506)" fill="#634343"/>
        <path id="Trazado_14315" data-name="Trazado 14315" d="M511.762,1341.737c-3.865-1.344,1.6-5.464,1.722-1.315l.008-.037c-.013.067-.024.133-.041.2l.015-.07A1.55,1.55,0,0,1,511.762,1341.737Z" transform="translate(-415.29 -1305.636)" fill="#3f2828"/>
        <path id="Trazado_14316" data-name="Trazado 14316" d="M477.94,1317.2c-11.646-2.574-6.819-18.471,3.906-16.994C492.6,1303,491.791,1322.383,477.94,1317.2Z" transform="translate(-388.475 -1279.283)" fill="#3f2828"/>
        <path id="Trazado_14317" data-name="Trazado 14317" d="M436.366,1337.3a7.95,7.95,0,0,1-5.625-2.63c-13.038-2.079,8.518-24.406,13.634-8.471C448.893,1331.4,442.109,1338.312,436.366,1337.3Z" transform="translate(-357.969 -1293.241)" fill="#3f2828"/>
        <path id="Trazado_14318" data-name="Trazado 14318" d="M474.559,1355.622c-5.686-.9-4.889-8.133-.634-10.479C482.7,1341.48,484.889,1356.362,474.559,1355.622Z" transform="translate(-388.01 -1309.703)" fill="#3f2828"/>
        <path id="Trazado_14319" data-name="Trazado 14319" d="M530.358,1318.848c-13.293-1.764-6.833-15.8,3.636-13.15C541.127,1308.671,538.088,1319.961,530.358,1318.848Z" transform="translate(-423.843 -1282.883)" fill="#3f2828"/>
        <path id="Trazado_14320" data-name="Trazado 14320" d="M586.323,1315.924c-5.153-1.265-13.448-.8-17.018-4.852l.048.094c-.026-.053-.052-.108-.075-.164v0c-1.091-3.212,4.373-3.174,5.225-6.093l-.038.057c.055-.083.112-.164.168-.245l-.026.036a7.553,7.553,0,0,1,5.1-3.763l-.328.116c4.56-1.749,10.965,1.98,11.568,6.775C597.305,1312.21,592.194,1316.651,586.323,1315.924Z" transform="translate(-455.496 -1279.673)" fill="#3f2828"/>
        <path id="Trazado_14321" data-name="Trazado 14321" d="M660,1328.878c-10.1-2-12.567-13.483.608-11.1-.1-.007-.2-.015-.294-.02a5.291,5.291,0,0,0,.59,0l-.128.008a8.151,8.151,0,0,1,1.1,0l-.331-.022c3.1.071,5.93,1.6,8.561,3.113l-.164-.111c2.269.937,3.363,4.254,1.208,5.889C667.816,1328.289,663.667,1328.634,660,1328.878Z" transform="translate(-511.896 -1291.154)" fill="#3f2828"/>
        <path id="Trazado_14322" data-name="Trazado 14322" d="M325.739,1346.339c-14.4.572-10.507-14.173,1.753-10.862a3.86,3.86,0,0,1,6.3,1.732l-.116-.226C336.349,1342.678,331.632,1347.568,325.739,1346.339Z" transform="translate(-282.625 -1302.8)" fill="#3f2828"/>
        <path id="Trazado_14323" data-name="Trazado 14323" d="M412.975,1367.309c.2-.06.408-.125.61-.191A.984.984,0,0,0,412.975,1367.309Zm-1.378,5.981c-1.74-.557-3.675.078-5.306-.836-10.731.86-4.943-14.689,3.128-8.228,1.719-2.414,5.458-2.9,8.034-1.722C422.858,1366.331,417.083,1374.145,411.6,1373.289Z" transform="translate(-340.052 -1321.561)" fill="#3f2828"/>
        <path id="Trazado_14324" data-name="Trazado 14324" d="M509.382,1341.939c-10.961-2.089-4.693-16.917,4.874-12.586C523.247,1332.33,516.837,1343.092,509.382,1341.939Z" transform="translate(-410.639 -1298.757)" fill="#634343"/>
        <path id="Trazado_14325" data-name="Trazado 14325" d="M551.076,1340.751c-2.166-.334-4.511-1.627-5.21-3.822-5.729-7.531,7.211-14.114,13.634-11.5,4.674,1.507,14.625,7.092,9.4,12.678-2.342,1.472-5.3,1.085-7.931,1.061C557.67,1339.638,554.461,1340.927,551.076,1340.751Z" transform="translate(-438.595 -1296.21)" fill="#634343"/>
        <path id="Trazado_14326" data-name="Trazado 14326" d="M632.547,1336.878c-3.863.06-5.474-5.427-2.238-7.535,3.082-2.478,9.656-1.236,10.829,2.772C641.206,1335.944,635.607,1337.15,632.547,1336.878Z" transform="translate(-496.169 -1298.417)" fill="#634343"/>
        <path id="Trazado_14327" data-name="Trazado 14327" d="M361.975,1352.713c-3.382-.56-4.115-3.93-6.06-6.1-4.861-4.8,1.007-10.51,6.557-9.541,5.066.535,11.343.378,15.323,3.9,3.958,4.884-2.037,9.6-6.641,10.606C369.606,1352.76,364.1,1353.159,361.975,1352.713Z" transform="translate(-308.353 -1304.501)" fill="#4c3333"/>
        <path id="Trazado_14328" data-name="Trazado 14328" d="M421.8,1360.666c-3.441-.309-3.069-6.039.567-5.042C426.569,1354.454,425.51,1361.45,421.8,1360.666Z" transform="translate(-353.046 -1317.183)" fill="#4c3333"/>
        <path id="Trazado_14329" data-name="Trazado 14329" d="M620.371,1363.678c-5.036.325-9.567-4.771-4.764-8.681,4.434-3.127,13.852-2.6,15.113,3.655C630.537,1363.7,624.211,1364.064,620.371,1363.678Z" transform="translate(-485.898 -1315.565)" fill="#4c3333"/>
        <path id="Trazado_14330" data-name="Trazado 14330" d="M539.866,1370.917a5.489,5.489,0,0,1-3.54-.915c-4.869,1.731-11.533.028-10.431-6.332,2.2-4.326,9.922-4.758,12.534-.607C547.515,1359,549.994,1372.113,539.866,1370.917Z" transform="translate(-425.823 -1320.388)" fill="#4c3333"/>
        <path id="Trazado_14331" data-name="Trazado 14331" d="M726.852,1364.279a6.1,6.1,0,0,1-3.315-.882c-3.908-.032-3.487-4.655-.407-5.829-.066.044-.132.089-.2.136,2.639-1.639,7.836-2.667,8.484,1.555C735.578,1362.779,730.381,1365.226,726.852,1364.279Z" transform="translate(-559.217 -1317.721)" fill="#4c3333"/>
        <path id="Trazado_14332" data-name="Trazado 14332" d="M749.313,1330.217c-1.866-.277-4.616-.564-5.354-2.6-2.71-3.575,3.828-5.233,6.287-3.57h0C757.031,1324.229,755.347,1330.753,749.313,1330.217Z" transform="translate(-574.682 -1295.224)" fill="#634343"/>
        <path id="Trazado_14333" data-name="Trazado 14333" d="M790.5,1338.455c-2.1-2.219,1.751-5.111,3.683-3.125C796.34,1337.624,792.457,1340.922,790.5,1338.455Z" transform="translate(-606.555 -1302.932)" fill="#634343"/>
        <path id="Trazado_14334" data-name="Trazado 14334" d="M726.305,1342.746c-3.436-1.593.571-6.241,2.84-3.631C731.948,1340.522,728.471,1344.07,726.305,1342.746Z" transform="translate(-562.128 -1305.443)" fill="#634343"/>
        <path id="Trazado_14335" data-name="Trazado 14335" d="M617.037,1414.8c-5.253.178-4.874-5.194-.088-5.378l-.08-.006c1.214.034,2.476-.456,3.654-.017h0C625.019,1411.77,620.686,1415.409,617.037,1414.8Z" transform="translate(-485.666 -1353.944)" fill="#634343"/>
        <path id="Trazado_14336" data-name="Trazado 14336" d="M530.1,1386.509a2.91,2.91,0,0,1-1.781-.865c-6.46-3.643,4.746-9.984,8.285-6.179C539.66,1383.162,533.757,1387.5,530.1,1386.509Z" transform="translate(-426.218 -1332.783)" fill="#634343"/>
        <path id="Trazado_14337" data-name="Trazado 14337" d="M535.313,1421.65c-3.205-.7-.674-4.72,1.8-3.729C539.831,1418.921,537.593,1422.259,535.313,1421.65Z" transform="translate(-431.319 -1359.795)" fill="#634343"/>
        <path id="Trazado_14338" data-name="Trazado 14338" d="M509.046,1419.393c-.564-1.2.6-2.887,1.943-2.3C514.7,1417.805,510.734,1422.469,509.046,1419.393Z" transform="translate(-414.277 -1359.253)" fill="#634343"/>
        <path id="Trazado_14339" data-name="Trazado 14339" d="M484.762,1401.046c-4.861-2.476,1.1-6.793,4.466-6.5l-.207.014a2.88,2.88,0,0,1,2.2,5.309.57.57,0,0,0,.082-.037A14.661,14.661,0,0,1,484.762,1401.046Z" transform="translate(-396.504 -1343.82)" fill="#634343"/>
        <path id="Trazado_14340" data-name="Trazado 14340" d="M458.827,1407.221c-1.7-2.119,1.852-4.527,3.716-3.106,1.671,1.085.618,4.254-1.427,3.731A2.4,2.4,0,0,1,458.827,1407.221Z" transform="translate(-379.705 -1350.162)" fill="#634343"/>
        <path id="Trazado_14341" data-name="Trazado 14341" d="M413.985,1443.369c-4.419-.57.37-4.855,2.6-2.654C418.062,1442.344,415.5,1443.813,413.985,1443.369Z" transform="translate(-348.091 -1375.072)" fill="#634343"/>
        <path id="Trazado_14342" data-name="Trazado 14342" d="M391.207,1424.395c-.654-2.951,6.228-5.435,6.959-2.033C398.742,1424.95,392.144,1426.591,391.207,1424.395Z" transform="translate(-333.712 -1361.817)" fill="#634343"/>
        <path id="Trazado_14343" data-name="Trazado 14343" d="M408.118,1394.523c-11.468-.851-3.129-11.9,4.315-8.336C417.022,1389.114,412.947,1395.766,408.118,1394.523Z" transform="translate(-341.446 -1337.705)" fill="#634343"/>
        <path id="Trazado_14344" data-name="Trazado 14344" d="M364.671,1383.175c-12.27-2.129,4.047-17.822,8.336-7.624C375.565,1381.113,369.021,1383.175,364.671,1383.175Z" transform="translate(-312.512 -1328.573)" fill="#634343"/>
        <path id="Trazado_14345" data-name="Trazado 14345" d="M315.711,1362.785c-2.477.5-4.16-2.863-2.736-4.728,2.373-2.885,10.415-3.161,8.543,2.149-1.19,2.235-3.823,2.618-6.115,2.6C315.5,1362.8,315.606,1362.793,315.711,1362.785Z" transform="translate(-279.852 -1317.542)" fill="#634343"/>
        <path id="Trazado_14346" data-name="Trazado 14346" d="M291.635,1375.218c-1.583-1.684,1.575-3.858,2.728-1.972C295.335,1374.973,292.982,1376.354,291.635,1375.218Z" transform="translate(-265.308 -1328.832)" fill="#634343"/>
        <path id="Trazado_14347" data-name="Trazado 14347" d="M279.4,1391.647a5.975,5.975,0,0,1-2.276-.66l.1.055c-2.654-1.089-1-4.387,1.295-4.658,1.856.05,3.82-.879,5.588-.1C287.361,1388.931,281.922,1391.8,279.4,1391.647Z" transform="translate(-254.812 -1338.039)" fill="#634343"/>
        <path id="Trazado_14348" data-name="Trazado 14348" d="M235.8,1343.776a4.848,4.848,0,0,1-2.848-.736,1.872,1.872,0,0,1-1.822-2.3c.4-2.194,2.993-2.382,4.706-3.066l-.031.01c7.691-3.538,8.759,6.562.742,6.107l.259-.016A5.876,5.876,0,0,1,235.8,1343.776Z" transform="translate(-224.175 -1304.481)" fill="#634343"/>
        <path id="Trazado_14349" data-name="Trazado 14349" d="M241.493,1315.508c-1.608-.58-3.242.161-4.832-.164-5.263.8-3.33-3.755.206-4.782l-.121.059C246.218,1304.412,251.334,1314.423,241.493,1315.508Z" transform="translate(-225.768 -1285.098)" fill="#634343"/>
        <path id="Trazado_14350" data-name="Trazado 14350" d="M312.484,1302.362c-.852-2.027,2.609-3.518,3.978-2.215C318.429,1302.494,313.705,1304.282,312.484,1302.362Z" transform="translate(-279.781 -1278.976)" fill="#634343"/>
        <path id="Trazado_14351" data-name="Trazado 14351" d="M209.95,1333.3c-1.33-.425-.739-2.172.452-2.32l-.025.007a1.283,1.283,0,0,1,1.648.466.8.8,0,0,1,.285.123l-.033-.017.045.025h0C213.836,1332.983,210.989,1333.535,209.95,1333.3Z" transform="translate(-209.191 -1300.333)" fill="#634343"/>
        <path id="Trazado_14352" data-name="Trazado 14352" d="M711.348,1354.62c-1.848-.552-.36-3.292,1.138-2.334C715.149,1352.472,713.251,1355.379,711.348,1354.62Z" transform="translate(-552.22 -1314.851)" fill="#634343"/>
        <path id="Trazado_14353" data-name="Trazado 14353" d="M677.172,1361.231c-3.088-.32-.715-4.171,1.457-2.557C680.042,1359.6,678.474,1361.41,677.172,1361.231Z" transform="translate(-528.41 -1319.091)" fill="#634343"/>
        <path id="Trazado_14354" data-name="Trazado 14354" d="M693.312,1363.447c-.152-.063-.3-.126-.451-.2l.085.042a.958.958,0,0,1-.185-.105l.01,0c-.863-.749.335-1.687,1.159-1.25-.036-.005-.069-.014-.1-.019C696.023,1361.923,694.744,1365.068,693.312,1363.447Z" transform="translate(-539.892 -1321.516)" fill="#634343"/>
        <path id="Trazado_14355" data-name="Trazado 14355" d="M693.708,1365.205c-1.474-.1-.841-2.269.483-1.669l-.031-.005.111.022-.026-.006.127.026h-.005c.109.024.22.043.33.063h-.005C696.312,1364.257,694.91,1365.464,693.708,1365.205Z" transform="translate(-540.157 -1322.616)" fill="#634343"/>
        <path id="Trazado_14356" data-name="Trazado 14356" d="M604.7,1384.074c-1.248-.363-.627-2.105.479-2.119l-.09.006a1.017,1.017,0,0,1,.386,2c.036-.017.072-.035.108-.055A1.092,1.092,0,0,1,604.7,1384.074Z" transform="translate(-479.36 -1335.281)" fill="#634343"/>
        <path id="Trazado_14357" data-name="Trazado 14357" d="M465.874,1386.788l.05.01a1.021,1.021,0,0,1-.51-1.8h0a1.02,1.02,0,0,1,.346-.172C468.034,1382.92,468.756,1387.688,465.874,1386.788Z" transform="translate(-384.261 -1336.946)" fill="#634343"/>
        <path id="Trazado_14358" data-name="Trazado 14358" d="M452.428,1395.573c.189-3.26,6.76-1.081,2.463.982l.013-.006A1.62,1.62,0,0,1,452.428,1395.573Z" transform="translate(-375.634 -1343.469)" fill="#634343"/>
        <path id="Trazado_14359" data-name="Trazado 14359" d="M338.207,1381.815c-1.915-.8.181-2.272,1.438-1.76C341.1,1380.988,339.327,1382.124,338.207,1381.815Z" transform="translate(-296.946 -1333.918)" fill="#634343"/>
        <path id="Trazado_14360" data-name="Trazado 14360" d="M355.492,1377.669c-.278-1.073,1.574-1.816,2.011-.715C358.028,1378.159,355.854,1378.892,355.492,1377.669Z" transform="translate(-309.283 -1331.497)" fill="#634343"/>
        <path id="Trazado_14361" data-name="Trazado 14361" d="M341.187,1381.3a1.675,1.675,0,0,1-.713-.214c-1.558-.083-.789-2.4.553-1.929C342.652,1378.852,342.87,1381.465,341.187,1381.3Z" transform="translate(-298.434 -1333.331)" fill="#634343"/>
        <path id="Trazado_14362" data-name="Trazado 14362" d="M338.935,1381.4c-2.435-.321-.593-4,1.071-2.155h0C341.839,1379.51,340.172,1381.711,338.935,1381.4Z" transform="translate(-297.168 -1333.084)" fill="#634343"/>
        <path id="Trazado_14363" data-name="Trazado 14363" d="M347.871,1389.754c-2.011-.513-.2-3.15,1.245-1.855A1.122,1.122,0,0,1,347.871,1389.754Z" transform="translate(-303.476 -1339.116)" fill="#634343"/>
        <path id="Trazado_14364" data-name="Trazado 14364" d="M267.532,1366.364a.985.985,0,1,1,1.969,0A.985.985,0,0,1,267.532,1366.364Z" transform="translate(-249.113 -1323.93)" fill="#634343"/>
        <path id="Trazado_14365" data-name="Trazado 14365" d="M431.213,1262.64c-3.712-1.793-.026-6.451,3.109-5.8C440.795,1258.643,435.74,1264.189,431.213,1262.64Z" transform="translate(-360.051 -1249.635)" fill="#634343"/>
        <path id="Trazado_14366" data-name="Trazado 14366" d="M372.964,1296.631l.065,0c-5.542,0-3.2-6.434.512-7.447,3.431-2.091,9.411,1.036,7.34,5.258C379.352,1297.132,375.628,1296.725,372.964,1296.631Z" transform="translate(-319.049 -1271.356)" fill="#634343"/>
        <path id="Trazado_14367" data-name="Trazado 14367" d="M562.724,1266.384a.737.737,0,0,1,1.473,0A.737.737,0,0,1,562.724,1266.384Z" transform="translate(-451.108 -1255.718)" fill="#634343"/>
        <path id="Trazado_14368" data-name="Trazado 14368" d="M558.646,1258.061c-4.518-.9-6.01-10.576.477-5.506-.03-.028-.061-.052-.088-.08a4.147,4.147,0,0,1,1.277,1.509l-.039-.077.023.045-.027-.056.07.141-.042-.083a2.916,2.916,0,0,1,.379,1.229C561.795,1256.562,560.157,1258.278,558.646,1258.061Z" transform="translate(-445.65 -1245.745)" fill="#634343"/>
        <path id="Trazado_14369" data-name="Trazado 14369" d="M580.952,1267.921c-1.176-.855-3.5-2.242-2.388-3.93-1.5-2.243,2.425-.9,3.224-.216C584.09,1264.755,584.071,1269.254,580.952,1267.921Z" transform="translate(-461.714 -1253.72)" fill="#634343"/>
        <path id="Trazado_14370" data-name="Trazado 14370" d="M605.95,1274.01c-1.237-.507-3.146-1.394-3.547-2.725a.707.707,0,0,1-.159-.832l-.017.026c.769-1.259,2.837-.415,3.831.208-.039-.028-.08-.055-.118-.08a4,4,0,0,1,1.271,1.172l-.022-.024A1.374,1.374,0,0,1,605.95,1274.01Z" transform="translate(-478.102 -1258.563)" fill="#634343"/>
        <path id="Trazado_14371" data-name="Trazado 14371" d="M633.528,1286.921a15.719,15.719,0,0,1-3.117-2.4c.044.052.091.1.135.154-.676-.775-2.023-1.45-1.491-2.684-.352-1.917,2.458-.448,3.4-.331l-.058-.011.008,0-.082-.016a5.124,5.124,0,0,1,3.674,2.5l-.028-.04a3.262,3.262,0,0,1,.48,1.314l-.014-.064C636.817,1287.017,634.748,1287.894,633.528,1286.921Z" transform="translate(-496.414 -1266.22)" fill="#634343"/>
        <path id="Trazado_14372" data-name="Trazado 14372" d="M662.936,1299.872a2.914,2.914,0,0,1-1.454-1.26c.033.052.069.1.1.154-.52-.855-1.784-1.74-1.239-2.852a.754.754,0,0,1-.138-1.328l-.029.019.043-.025-.009,0a.824.824,0,0,1,.248-.084l-.018.006.032,0,0,0a5.716,5.716,0,0,1,3.674,2.119l-.012-.013C665.729,1297.675,664.981,1300.366,662.936,1299.872Z" transform="translate(-517.579 -1275.446)" fill="#634343"/>
        <path id="Trazado_14373" data-name="Trazado 14373" d="M705.054,1315.57c-1.21-2.226,2.534-2.619-1.272-6.027l.049.058c-.053-.048-.108-.1-.164-.144l.043.038-.008-.007a1.49,1.49,0,0,1,.2.2,5.294,5.294,0,0,0-4.223-.88l.1-.022a2.062,2.062,0,0,1-.555.058h0c-.03,0-.06,0-.091-.008l.092.008.008,0c-2.651-1.342,2.77-2.706,3.922-2.3l-.171-.011c3.872.018,7.281,5.32,4.063,8.3C706.559,1315.354,705.8,1316.143,705.054,1315.57Z" transform="translate(-544.029 -1283.631)" fill="#634343"/>
        <path id="Trazado_14374" data-name="Trazado 14374" d="M514.987,1243.523a3.324,3.324,0,0,1-1.1-1.572l.03.058c-.021-.04-.041-.08-.061-.121l.022.046c-.817-1.651-2.576-3.235-4.537-2.81l.052-.012-.135.027.059-.011a1.886,1.886,0,0,0-1.279.721.683.683,0,0,1-1.161.581.657.657,0,0,0,.127.1c-2.289-5.673,9.255-4.182,9.053,1.6-.008-.041-.019-.083-.027-.124C516.466,1242.824,516.1,1244.167,514.987,1243.523Z" transform="translate(-412.776 -1236.07)" fill="#634343"/>
        <path id="Trazado_14375" data-name="Trazado 14375" d="M461.042,1242.414c-.226-.113-.461-.21-.684-.325.039.022.08.041.121.063a6.709,6.709,0,0,0-3.172-.667l.092-.007a10.786,10.786,0,0,0-2.858.522.771.771,0,0,1-1.408-.607.735.735,0,0,0-.03.114c1.3-2.205,5.168-2.822,7.429-1.771l-.13-.066C461.929,1239.99,463.627,1242.642,461.042,1242.414Z" transform="translate(-376.085 -1237.631)" fill="#634343"/>
        <path id="Trazado_14376" data-name="Trazado 14376" d="M402.832,1266.111a.657.657,0,0,1,.129-.929l0,0,.019-.014-.015.01a16.012,16.012,0,0,1,7.507-3.017c2.053-.448,5.494,1.986,2.138,2.9l.028,0a18.311,18.311,0,0,0-4.3-.229l.152-.008a10.447,10.447,0,0,0-2.645.607c.036-.014.072-.025.108-.039-.757.277-1.523.548-2.259.874l.028-.017A.664.664,0,0,1,402.832,1266.111Z" transform="translate(-341.604 -1253.283)" fill="#634343"/>
        <path id="Trazado_14377" data-name="Trazado 14377" d="M336.341,1312.408a6.16,6.16,0,0,0-5.872-1.812l.063-.014c-.037.008-.074.016-.111.022l.045-.008a11.981,11.981,0,0,0-1.256.334l.091-.033c-.62.414-1.9.8-1.641-.43.953-1.359,2.926-1.672,4.471-1.942C337.676,1307.439,341.083,1312.956,336.341,1312.408Z" transform="translate(-290.234 -1284.947)" fill="#634343"/>
        <path id="Trazado_14378" data-name="Trazado 14378" d="M298.5,1330.976c-1.493-.6-2.807-1.666-4.441-1.909l.154.033a7.237,7.237,0,0,0-3.391.277l.017-.007c-.034.013-.07.023-.1.036l.074-.024c-.1.04-.2.082-.3.129l.066-.033c-.475.327-1.193.48-1.473-.169-.014-1.888,3.029-2.194,4.49-2.552,2.247-.131,5.027-.185,6.676,1.592A1.68,1.68,0,0,1,298.5,1330.976Z" transform="translate(-263.871 -1297.482)" fill="#634343"/>
        <path id="Trazado_14379" data-name="Trazado 14379" d="M438.559,1340.636a6.26,6.26,0,0,1-1.263-.31l.027.01c-6-1.225-5.578-9.776-.876-12.324l-.014.012c1.7-.841,1.768.988.848,1.987l.023-.069c-.017.05-.034.1-.052.149.009-.024.018-.048.026-.072a5.123,5.123,0,0,0,1.047,4.651c-.066-.1-.133-.2-.2-.3a24.136,24.136,0,0,0,1.914,2.447l-.037-.042C442.821,1338.816,442.328,1341.463,438.559,1340.636Z" transform="translate(-362.25 -1298.24)" fill="#392626"/>
        <path id="Trazado_14380" data-name="Trazado 14380" d="M476.191,1318.976c-8.8-3.723-.626-14.149-.267-9.486a21.143,21.143,0,0,0,.223,5.636c0-.033,0-.067-.006-.1.092.76.844,1.206,1.393,1.647A1.349,1.349,0,0,1,476.191,1318.976Z" transform="translate(-389.112 -1284.898)" fill="#392626"/>
        <path id="Trazado_14381" data-name="Trazado 14381" d="M475.893,1363.632a.649.649,0,0,1,1.241-.381A.649.649,0,0,1,475.893,1363.632Z" transform="translate(-391.666 -1322.176)" fill="#392626"/>
        <path id="Trazado_14382" data-name="Trazado 14382" d="M474.452,1357.607c-1.985-1.78-1.914-5.144-1.038-7.459.357-.88,1.989-1.146,1.934.075-.532,1.222.19,2.565.775,3.648s1.951.9,2.852.343C484.819,1354.208,478.515,1360.883,474.452,1357.607Z" transform="translate(-389.594 -1313.011)" fill="#392626"/>
        <path id="Trazado_14383" data-name="Trazado 14383" d="M317.206,1342.031c.027-3.655,4.124-5.748,7.417-5.1l-.015,0a.734.734,0,0,1-.091,1.461l.009,0,.1-.008-.01,0c.023,0,.048-.009.071-.016l-.008,0,.03-.006a10.227,10.227,0,0,0-1.4.621c.044-.019.086-.042.13-.064C321.474,1339.581,318.915,1345.436,317.206,1342.031Z" transform="translate(-283.104 -1304.403)" fill="#392626"/>
        <path id="Trazado_14384" data-name="Trazado 14384" d="M643.413,1334.762a.608.608,0,0,1-.3-.731v0a3.591,3.591,0,0,0-2.9-4.085l.088.029-.005,0,.025.008a12.25,12.25,0,0,0-1.752-.5c.033.009.066.014.1.022a9.922,9.922,0,0,0-2.77-.176c.019,0,.041,0,.063,0l-.5.033c.017,0,.036,0,.055-.005a6.629,6.629,0,0,0-.749.095h.015c-.513.282-1.251.071-.5-.331l-.027.008c3.113-1.962,9.575-1.644,10.4,2.681C644.843,1332.783,644.776,1334.853,643.413,1334.762Z" transform="translate(-499.853 -1298.35)" fill="#704c4c"/>
        <path id="Trazado_14385" data-name="Trazado 14385" d="M576.7,1332.894a2.128,2.128,0,0,1-.433-.519l.01.01c-.082-.095-.135-.208-.214-.306l.008.007a14.924,14.924,0,0,0-3.533-3.077c.044.03.091.061.138.091-3.293-1.986-6.883-4.1-10.865-3.9l.041,0-.118.009.1-.008c-.962.09-1.923.209-2.872.395l.058-.014c-.61.131-1.207.288-1.822.395h.007a6.177,6.177,0,0,0-.73.213l.021-.009c-.4.154-.8.292-1.189.458.011,0,.019-.008.027-.011-1.466.1.912-.95,1.541-1.056l-.01.005.028-.011h0c3.561-1.757,7.512-3.284,11.392-1.529l-.081-.03c3.848,1.245,8.507,3.587,8.9,8.1,0-.019,0-.041,0-.064a2.314,2.314,0,0,0,.058.3v0c0,.018.008.035.011.053l0-.009C577.305,1332.723,577.071,1333.162,576.7,1332.894Z" transform="translate(-445.733 -1295.126)" fill="#704c4c"/>
        <path id="Trazado_14386" data-name="Trazado 14386" d="M522.962,1331.921c-.036-.006-.071-.013-.106-.021l.029,0c-.138-.025-.267-.072-.4-.1l.025,0a1.785,1.785,0,0,1-.184-.052h0c-.2-.068-.395-.119-.587-.187.033.014.069.025.1.036-2.921-.69-5.824-2.071-8.9-1.487-.35.111-1.739.54-1.058-.176h0a9.934,9.934,0,0,1,3.645-1.385c-.033.008-.066.013-.1.022a7.7,7.7,0,0,1,6.825,1.261l-.034-.028.112.1-.012-.011.088.077-.013-.011a5.279,5.279,0,0,1,.578.576l0,0a2.868,2.868,0,0,1,.21.252l-.009-.012c.016.023.032.045.047.069l-.015-.023C523.648,1331.172,523.641,1331.953,522.962,1331.921Z" transform="translate(-416.19 -1298.564)" fill="#704c4c"/>
        <path id="Trazado_14387" data-name="Trazado 14387" d="M378.114,1379.116a1.491,1.491,0,0,0,.21-1.329c0,.019.006.036.008.055-.008-.05-.019-.1-.03-.152v.005a3.944,3.944,0,0,0-.354-.935l.041.088a4.029,4.029,0,0,0-2.355-2.375c.052.016.1.036.157.052a4.523,4.523,0,0,1-.484-.2l.04.02a.469.469,0,0,0-.134-.045l.03.006-.163-.036.062.015a9.348,9.348,0,0,0-2.385-.248l.072,0a15.851,15.851,0,0,0-3.556.646h0l-.163.055.007,0-.047.016.008,0a3.819,3.819,0,0,0-.392.152l.007-.009a.18.18,0,0,1-.02.022l.005,0-.024.03a.214.214,0,0,1,.013-.021l-.009.013,0-.01a.118.118,0,0,1-.01.021l0,0a.114.114,0,0,0-.006.011l0-.007c-1.28.639.565-1.617,1.026-1.739l-.032.023.072-.049-.006,0,.036-.024-.011.006c3.925-3.048,10.426-1.131,9.459,4.441.008-.022.014-.041.022-.061-.094.271-.168.549-.262.822,0-.011.008-.025.011-.036-.014.041-.028.083-.044.124.005-.011.008-.022.014-.033a2.035,2.035,0,0,1-.118.29l0,0C378.8,1379.106,378.071,1379.907,378.114,1379.116Z" transform="translate(-318.005 -1328.293)" fill="#704c4c"/>
        <path id="Trazado_14388" data-name="Trazado 14388" d="M420.136,1389.966a1.355,1.355,0,0,1-.21-.552c.005.03.011.058.016.086a1.748,1.748,0,0,0-.491-1l.059.053a16.779,16.779,0,0,0-4.863-2.146l.034.008a3.73,3.73,0,0,0-.494-.058l.063,0c-.333-.015-.669-.025-1-.047l.011,0c-.109.028-.216.057-.323.092l.013-.006-.021.008h0l-.033.014h0c-1.526-.139,2.241-1.41,2.671-1.462l-.063.012c1.924-.636,4.295-.309,5.321,1.627-.028-.044-.058-.085-.086-.129C421.55,1387.232,421.818,1390.794,420.136,1389.966Z" transform="translate(-348.34 -1337.153)" fill="#704c4c"/>
        <path id="Trazado_14389" data-name="Trazado 14389" d="M382.365,1322.242c-.014-.033-.025-.066-.039-.1.006.008.008.016.014.025a2.741,2.741,0,0,0-.167-.265l.007.011a5.218,5.218,0,0,0-.34-.45h0l-.03-.036.007.01c-1.576-1.251-2.961-2.74-4.552-3.965l.1.066a5.872,5.872,0,0,0-.651-.375l.113.055a5.363,5.363,0,0,0-2.846-.546l.116-.008c-.427.028-.853.059-1.279.083h.01a11.537,11.537,0,0,0-2.885.549c.022-.005.041-.014.063-.019a5.794,5.794,0,0,0-.678.281l.047-.022c-5.493,3.281,5.74-8.432,12,1.3l0-.007c.017.034.035.068.052.1l-.013-.023c.257.568.554,1.111.8,1.683-.009-.02-.017-.036-.025-.053a6.513,6.513,0,0,1,.568,1.457l-.006-.014C382.957,1322.26,382.523,1322.565,382.365,1322.242Z" transform="translate(-317.798 -1289.393)" fill="#704c4c"/>
        <path id="Trazado_14390" data-name="Trazado 14390" d="M469.941,1278.235a5.891,5.891,0,0,1-.378-.848l.005.012c-.271-.56-.491-1.136-.772-1.691.016.033.033.069.052.1-.166-.32-.32-.642-.48-.965.02.039.039.08.058.119a10.653,10.653,0,0,0-.662-1.186c.027.039.052.078.08.116a5.5,5.5,0,0,0-4.375-2.361l.152.008a30.62,30.62,0,0,0-5.862.543c.033-.009.066-.014.1-.022a20.179,20.179,0,0,0-3.267.812l.012-.012-.022.02.009-.008c-.446.475-.635-.282-.145-.481-.005.009-.014.017-.019.025a13.082,13.082,0,0,1,11.29-2.794l-.049-.009.007,0-.049-.009c.051.009.1.021.152.03l-.074-.016c3.077.364,4.869,3.683,4.846,6.548,0-.036.005-.069.008-.1,0,.286-.016.577-.041.864,0-.007,0-.014,0-.021C470.418,1277.3,470.691,1278.7,469.941,1278.235Z" transform="translate(-376.817 -1258.196)" fill="#704c4c"/>
        <path id="Trazado_14391" data-name="Trazado 14391" d="M508.278,1252.735c-.2-.144-.141-.416-.279-.607l.025.05c-.039-.077-.072-.157-.11-.234.011.022.022.044.033.064-1.091-4.279,5.867-4.669,7.521-1.492l-.024-.034a5.471,5.471,0,0,1,.414.7l-.016-.033c.589.708.27,1.755-.648.948l0,0-.058-.038a.431.431,0,0,1,.04.026l-.191-.138.025.016a.745.745,0,0,1-.063-.044.262.262,0,0,0,.027.021c-1.879-1.115-4.85-1.815-6.271.337l0,0-.006.008,0,0c-.007.012-.016.023-.024.035l.007-.009a1.325,1.325,0,0,1-.091.124A.23.23,0,0,1,508.278,1252.735Z" transform="translate(-413.546 -1243.916)" fill="#704c4c"/>
        <path id="Trazado_14392" data-name="Trazado 14392" d="M386,1296.978c-3.563-.417.316-.88,1.057-1.807l-.017.014a2.727,2.727,0,0,0-1.134-4.344l.086.058a6.164,6.164,0,0,0-1.572-.491l.075.016-.353-.072.014,0a3.95,3.95,0,0,0-.543-.077h.008c-.386-.019-.772-.016-1.158-.008h0a.964.964,0,0,0-.124.02l.031-.008c-.28.059-.56.113-.829.2l.007,0c-.322.328-.887-.016-.395-.314l-.017.013a4.623,4.623,0,0,1,1.262-.375h0a6.748,6.748,0,0,1,3.948-.415l-.1-.022c3.72.174,5.5,5.477,1.777,7.109l.041-.02-.066.032.014-.007A4.951,4.951,0,0,1,386,1296.978Z" transform="translate(-326.73 -1271.843)" fill="#704c4c"/>
        <path id="Trazado_14393" data-name="Trazado 14393" d="M437.219,1260.522a2.839,2.839,0,0,0-1.4-1.037l.108.036a5.243,5.243,0,0,0-3.365-.5l.036-.008a2.478,2.478,0,0,0-.677.214l.007,0-.028.014h0a4.179,4.179,0,0,0-.708.439l.022-.022c-.025.025-.05.047-.072.072h0a.5.5,0,0,0-.044.058l.017-.025c-.152.375-.679.063-.4-.223a3.173,3.173,0,0,1,1.218-.819h0C437.859,1255.021,440.181,1262.413,437.219,1260.522Z" transform="translate(-360.718 -1250.244)" fill="#704c4c"/>
        <path id="Trazado_14394" data-name="Trazado 14394" d="M573.27,1284.878a6.134,6.134,0,0,0-.863-1.409l.011.013c-1.409-1.5-3.707-1.172-5.553-1.321a.49.49,0,0,1-.693,0h0c-.375-.1-.735-.252-1.109-.365.03.011.058.019.086.03a4.3,4.3,0,0,0-.5-.133l.067.015c-1.53-.07-2.908-.935-4.47-.74l.026,0c-.032,0-.064,0-.1.006l.056,0-.393.03h.015c-.433.036-.863.1-1.3.113l.013,0a7.489,7.489,0,0,0-.86.1l.011,0a.994.994,0,0,0-.277.1l.012-.008a1.891,1.891,0,0,0-.456.3h0l-.022.019,0,0a.36.36,0,0,0-.026.026h0l0,0c-2.585.175,7.059-4.8,8.636-1.262l-.015-.016.014.017-.035-.039c.159.2.356.368.516.565,1.9-3.334,7.8-.863,7.866,2.734C574.17,1284.179,574.054,1285.723,573.27,1284.878Z" transform="translate(-446.858 -1264.924)" fill="#704c4c"/>
        <path id="Trazado_14395" data-name="Trazado 14395" d="M644.88,1309.957c-.176-.08-.343-.17-.516-.258l.016.009a8.268,8.268,0,0,0-.96-.422l.044.016a9.82,9.82,0,0,0-1.112-.328c.019.005.039.008.061.014l-.273-.058c.019.005.041.008.064.014a15.349,15.349,0,0,0-1.569-.251h.014l-.486-.033.094.008a16.257,16.257,0,0,1-2.753-.061h.006l-.01,0,.015,0-.05-.01.011,0a15.272,15.272,0,0,0-1.517-.182l.061.006a2.047,2.047,0,0,0-.508.036l.042-.008c-.089.021-.177.028-.266.043a.239.239,0,0,1-.462-.073c.692-1.1,2.317-1.377,3.534-1.534l-.031,0C639.367,1306.7,646.342,1309.071,644.88,1309.957Z" transform="translate(-500.446 -1283.919)" fill="#704c4c"/>
        <path id="Trazado_14396" data-name="Trazado 14396" d="M636.444,1285.41c-.182-.2-.319-.442-.5-.638l.028.029a10.484,10.484,0,0,0-.725-.775l.016.014-.052-.047.02.018c-.35-.3-.736-.561-1.112-.826.022.016.044.03.066.047a25.938,25.938,0,0,0-3.848-1.833l.022.007-.08-.027h0c-.278-.1-.555-.187-.83-.288l.045.017a3.285,3.285,0,0,1-.39-.132.23.23,0,1,1-.241-.392c2.509-1.631,6.374,1.364,7.763,3.582C636.915,1284.516,637.277,1285.8,636.444,1285.41Z" transform="translate(-496.284 -1265.605)" fill="#704c4c"/>
        <path id="Trazado_14397" data-name="Trazado 14397" d="M708.705,1311.407l-.025-.05.025.05a3.094,3.094,0,0,0-.187-.3c.014.017.025.036.038.052a4.064,4.064,0,0,0-1.689-1.275l.031.017a17.416,17.416,0,0,0-3.978-1.523l.074.017a6.81,6.81,0,0,0-1.271-.1c-.085.542-.736.034-.444-.324,2.126-1.74,6.128-.481,7.688,1.606-.017-.027-.033-.052-.05-.077C709.495,1309.95,709.9,1312.384,708.705,1311.407Z" transform="translate(-545.868 -1284.1)" fill="#704c4c"/>
        <path id="Trazado_14398" data-name="Trazado 14398" d="M745.625,1327.546h0a2.239,2.239,0,0,0-.165-.3l.008.01c-.006-.009-.013-.018-.019-.028l0,.007a1.258,1.258,0,0,1-.274-.647l.005.022c-.005-.022-.01-.044-.014-.066,0,0,0,.01,0,.015a1.644,1.644,0,0,1,.326-1.355c-.017.027-.033.052-.05.077,1.141-2.462,8.87-.992,9.539,1.34.43.949-.206,1.361-.882.558l.035.025a3.269,3.269,0,0,0-.833-.352l.005,0c-.449-.143-.912-.233-1.364-.36l.021.008-.116-.039.047.015-.159-.056.027.009-.113-.039.049.017c-.466-.136-.945-.243-1.4-.423l.06.02c-1.534-.694-3.75-.818-4.4,1.093.008-.011.014-.024.021-.038C745.944,1327.179,746.243,1328.033,745.625,1327.546Z" transform="translate(-575.922 -1295.639)" fill="#704c4c"/>
        <path id="Trazado_14399" data-name="Trazado 14399" d="M529.626,1383.956c-1.1-1.266.27-3.093,1.128-4.152l-.1.116c2.023-2.974,8.13-3.021,8.579,1.073v-.014c.248.886-.7,1.937-1.3.849l.05.074a4.3,4.3,0,0,1-.353-.585c.017.033.03.063.047.1-.215-.605-.912-.49-1.421-.416l.175-.037c-1.542.428-3.235.152-4.674.919l.052-.026a10.681,10.681,0,0,0-1.72,1.463c.019-.014.036-.03.052-.044-.056.06-.149.108-.149.2v-.008c0,.062-.009.124-.014.185C530.214,1383.909,529.815,1384.245,529.626,1383.956Z" transform="translate(-428.179 -1332.442)" fill="#704c4c"/>
        <path id="Trazado_14400" data-name="Trazado 14400" d="M493.641,1398.429c0-.059-.008-.12-.012-.18-1.974-1.526-4.63-.17-6.867-.063-1.525.544,1.083-1.754,1.541-1.8l-.015.01a3.708,3.708,0,0,1,1.2-.548l-.118.042C496.347,1394.18,495.653,1400.56,493.641,1398.429Z" transform="translate(-398.804 -1344.625)" fill="#704c4c"/>
        <path id="Trazado_14401" data-name="Trazado 14401" d="M622.752,1413.375c-.632-.545.045-1.175-.012-1.773a3.519,3.519,0,0,0-1.047-.293l.011,0a14.542,14.542,0,0,0-4.3-.189.233.233,0,0,1-.451-.073.147.147,0,0,0,0,.022.822.822,0,0,1,.29-.664l-.033.038a3.423,3.423,0,0,1,.949-.687l-.069.05a6.306,6.306,0,0,1,5.815,0C625.695,1410.656,624.828,1414.638,622.752,1413.375Z" transform="translate(-488.216 -1353.865)" fill="#704c4c"/>
      </g>
      <g id="Grupo_9670" data-name="Grupo 9670" transform="translate(809.789 1543.5)">
        <path id="Trazado_16638" data-name="Trazado 16638" d="M2056.309,695.9a12.255,12.255,0,0,0-21.575-8.319,9.647,9.647,0,0,0-14.377.11,8,8,0,0,0-11.855-.927l-8.86-1.144-.452,1.064,6.871,5c-.023.212-.039.427-.045.645a8,8,0,0,0,7.58,8.229,9.542,9.542,0,0,0,10.122,13.694,12.255,12.255,0,1,0,22.609-6.667A12.259,12.259,0,0,0,2056.309,695.9Z" transform="translate(-1999.19 -667.506)" fill="#a9d3df"/>
        <path id="Trazado_16639" data-name="Trazado 16639" d="M2337.036,821.428a7.892,7.892,0,0,0-5.006-13.73,7.957,7.957,0,0,0-.908.018,7.249,7.249,0,0,0-13.28-.986,3.449,3.449,0,1,0-.4,5.775,7.248,7.248,0,0,0,6.556,4.815h.035a7.909,7.909,0,0,0,3.614,5.016,7.246,7.246,0,1,0,9.391-.909Z" transform="translate(-2295.487 -780.636)" fill="#fff" opacity="0.69"/>
        <circle id="Elipse_537" data-name="Elipse 537" cx="1.02" cy="1.02" r="1.02" transform="matrix(0.957, -0.292, 0.292, 0.957, 12.956, 12.341)" fill="#a9d3df"/>
        <path id="Trazado_16640" data-name="Trazado 16640" d="M2097.927,951.775a.663.663,0,1,1-.274-.9A.663.663,0,0,1,2097.927,951.775Z" transform="translate(-2091.438 -920.648)" fill="#a9d3df"/>
        <circle id="Elipse_538" data-name="Elipse 538" cx="3.306" cy="3.306" r="3.306" transform="translate(56.659 13.724) rotate(-12.037)" fill="#a9d3df"/>
        <circle id="Elipse_539" data-name="Elipse 539" cx="3.306" cy="3.306" r="3.306" transform="translate(43.479 22.596) rotate(-12.037)" fill="#fff" opacity="0.69"/>
        <circle id="Elipse_540" data-name="Elipse 540" cx="7.71" cy="7.71" r="7.71" transform="translate(17.017 66.46) rotate(-45)" fill="#a9d3df"/>
        <circle id="Elipse_541" data-name="Elipse 541" cx="1.94" cy="1.94" r="1.94" transform="matrix(0.842, -0.54, 0.54, 0.842, 32.342, 2.093)" fill="#a9d3df"/>
        <circle id="Elipse_542" data-name="Elipse 542" cx="1.94" cy="1.94" r="1.94" transform="matrix(0.754, -0.657, 0.657, 0.754, 7.384, 42.418)" fill="#a9d3df"/>
        <circle id="Elipse_543" data-name="Elipse 543" cx="2.659" cy="2.659" r="2.659" transform="translate(32.857 10.813) rotate(-6.449)" fill="#a9d3df"/>
      </g>
    </g>
  </g>
</svg>
