<svg xmlns="http://www.w3.org/2000/svg" xmlns:xlink="http://www.w3.org/1999/xlink" width="1140" height="263.376" viewBox="0 0 1140 263.376">
  <defs>
    <linearGradient id="linear-gradient" x1="0.5" x2="0.5" y2="1" gradientUnits="objectBoundingBox">
      <stop offset="0" stop-color="#e01a1a"/>
      <stop offset="0.202" stop-color="#fd9025"/>
      <stop offset="0.473" stop-color="#f0dd4b"/>
      <stop offset="0.793" stop-color="#b9d52b"/>
      <stop offset="1" stop-color="#509b2d"/>
    </linearGradient>
    <linearGradient id="linear-gradient-2" x1="0.5" x2="0.5" y2="1" gradientUnits="objectBoundingBox">
      <stop offset="0" stop-color="#32d395"/>
      <stop offset="0.202" stop-color="#3289d3"/>
      <stop offset="0.473" stop-color="#3245d3"/>
      <stop offset="0.793" stop-color="#5132d3"/>
      <stop offset="1" stop-color="#6218b9"/>
    </linearGradient>
  </defs>
  <g id="Grupo_9868" data-name="Grupo 9868" transform="translate(-390 -1426.912)">
    <circle id="Elipse_514" data-name="Elipse 514" cx="28" cy="28" r="28" transform="translate(390 1494)" fill="#e01a1a"/>
    <circle id="Elipse_515" data-name="Elipse 515" cx="28" cy="28" r="28" transform="translate(467 1494)" fill="#ff900f"/>
    <circle id="Elipse_516" data-name="Elipse 516" cx="28" cy="28" r="28" transform="translate(545 1494)" fill="#fdc325"/>
    <circle id="Elipse_517" data-name="Elipse 517" cx="28" cy="28" r="28" transform="translate(622 1494)" fill="#f0dd4b"/>
    <circle id="Elipse_518" data-name="Elipse 518" cx="28" cy="28" r="28" transform="translate(700 1494)" fill="#d7f04b"/>
    <circle id="Elipse_519" data-name="Elipse 519" cx="28" cy="28" r="28" transform="translate(777 1494)" fill="#b9d521"/>
    <circle id="Elipse_520" data-name="Elipse 520" cx="28" cy="28" r="28" transform="translate(855 1494)" fill="#509b2d"/>
    <circle id="Elipse_521" data-name="Elipse 521" cx="28" cy="28" r="28" transform="translate(932 1494)" fill="#65d332"/>
    <circle id="Elipse_522" data-name="Elipse 522" cx="28" cy="28" r="28" transform="translate(1009 1494)" fill="#32d395"/>
    <circle id="Elipse_523" data-name="Elipse 523" cx="28" cy="28" r="28" transform="translate(1087 1494)" fill="#32c7d3"/>
    <circle id="Elipse_524" data-name="Elipse 524" cx="28" cy="28" r="28" transform="translate(1164 1494)" fill="#3289d3"/>
    <circle id="Elipse_525" data-name="Elipse 525" cx="28" cy="28" r="28" transform="translate(1242 1494)" fill="#3245d3"/>
    <circle id="Elipse_526" data-name="Elipse 526" cx="28" cy="28" r="28" transform="translate(1319 1494)" fill="#5132d3"/>
    <circle id="Elipse_527" data-name="Elipse 527" cx="28" cy="28" r="28" transform="translate(1397 1494)" fill="#8332d3"/>
    <circle id="Elipse_528" data-name="Elipse 528" cx="28" cy="28" r="28" transform="translate(1474 1494)" fill="#6209b9"/>
    <path id="Trazado_16970" data-name="Trazado 16970" d="M5.856-3.12V-7.008h7.8v-3.024h-7.8V-13.68h8.832V-16.8H1.992V0H15V-3.12ZM23.616.288c4.8,0,7.128-2.4,7.128-5.208,0-6.168-9.768-4.032-9.768-7.128,0-1.056.888-1.92,3.192-1.92a9.488,9.488,0,0,1,4.656,1.32l1.2-2.952a11.269,11.269,0,0,0-5.832-1.488c-4.776,0-7.08,2.376-7.08,5.232,0,6.24,9.768,4.08,9.768,7.224,0,1.032-.936,1.8-3.24,1.8A9.882,9.882,0,0,1,18.1-4.584l-1.32,2.928A11.974,11.974,0,0,0,23.616.288Zm17.832,0a8.632,8.632,0,0,0,6.936-3l-2.5-2.3a5.354,5.354,0,0,1-4.224,1.992A5.154,5.154,0,0,1,36.288-8.4a5.154,5.154,0,0,1,5.376-5.376,5.405,5.405,0,0,1,4.224,1.968l2.5-2.3a8.673,8.673,0,0,0-6.912-2.976c-5.232,0-9.12,3.624-9.12,8.688S36.24.288,41.448.288ZM63.216,0H67.3L59.784-16.8h-3.84L48.456,0H52.44l1.488-3.6h7.8Zm-8.04-6.552,2.664-6.432L60.5-6.552ZM69.048,0H81.36V-3.168H72.936V-16.8H69.048ZM96.24,0h4.08L92.808-16.8h-3.84L81.48,0h3.984l1.488-3.6h7.8ZM88.2-6.552l2.664-6.432,2.664,6.432ZM108.864,0H116.5c5.5,0,9.264-3.312,9.264-8.4s-3.768-8.4-9.264-8.4h-7.632Zm3.888-3.192V-13.608H116.3c3.336,0,5.52,1.992,5.52,5.208s-2.184,5.208-5.52,5.208Zm19.8.072V-7.008h7.8v-3.024h-7.8V-13.68h8.832V-16.8h-12.7V0H141.7V-3.12ZM144.792,0H157.1V-3.168H148.68V-16.8h-3.888Zm28.56-16.8H166.08V0h3.888V-4.632h3.384c4.488,0,7.3-2.328,7.3-6.072C180.648-14.472,177.84-16.8,173.352-16.8Zm-.216,9h-3.168v-5.832h3.168c2.376,0,3.576,1.08,3.576,2.928C176.712-8.88,175.512-7.8,173.136-7.8Zm21.792-9v6.624H187.3V-16.8h-3.888V0H187.3V-6.888h7.632V0h3.888V-16.8Z" transform="translate(860 1444)" fill="#00223d"/>
    <path id="Trazado_16952" data-name="Trazado 16952" d="M10.17.36c5.19,0,9-3.93,9-10.86s-3.81-10.86-9-10.86c-5.16,0-9,3.93-9,10.86S5.01.36,10.17.36Zm0-4.11c-2.4,0-4.08-1.98-4.08-6.75s1.68-6.75,4.08-6.75c2.43,0,4.11,1.98,4.11,6.75S12.6-3.75,10.17-3.75Z" transform="translate(408 1531)" fill="#fff"/>
    <path id="Trazado_16953" data-name="Trazado 16953" d="M.21-21v3.9h4.2V0H9.27V-21Z" transform="translate(489 1531)" fill="#fff"/>
    <path id="Trazado_16954" data-name="Trazado 16954" d="M7.83-3.96l4.83-4.56c2.94-2.73,3.51-4.59,3.51-6.63,0-3.81-3.12-6.21-7.8-6.21-3.78,0-6.72,1.53-8.34,3.9l3.54,2.28a5.135,5.135,0,0,1,4.35-2.1c2.22,0,3.36.96,3.36,2.61,0,1.02-.33,2.1-2.19,3.87L.99-3.15V0H16.86V-3.96Z" transform="translate(565 1531)" fill="#fff"/>
    <path id="Trazado_16955" data-name="Trazado 16955" d="M10.98-12.45l4.74-5.4V-21H1.02v3.9H9.96L5.64-12.21V-9H7.86c2.76,0,3.93.99,3.93,2.58,0,1.71-1.5,2.7-3.93,2.7a10.2,10.2,0,0,1-6-1.89L-.03-1.89A14.439,14.439,0,0,0,7.98.36c5.97,0,8.7-3.24,8.7-6.78C16.68-9.51,14.76-11.85,10.98-12.45Z" transform="translate(642 1531)" fill="#fff"/>
    <path id="Trazado_16956" data-name="Trazado 16956" d="M20.4-8.37H16.98V-12.3H12.39v3.93H6.75L15.93-21h-5.1L.93-7.68v3.27H12.24V0h4.74V-4.41H20.4Z" transform="translate(718 1531)" fill="#fff"/>
    <path id="Trazado_16957" data-name="Trazado 16957" d="M8.37-13.11H6.66l.33-3.99h8.76V-21H2.94L1.86-9.18H7.23c3.81,0,4.89,1.08,4.89,2.73,0,1.71-1.5,2.73-3.93,2.73A10.106,10.106,0,0,1,2.22-5.61L.3-1.89A14.511,14.511,0,0,0,8.31.36c6,0,8.73-3.24,8.73-6.96S14.58-13.11,8.37-13.11Z" transform="translate(797 1531)" fill="#fff"/>
    <path id="Trazado_16958" data-name="Trazado 16958" d="M11.28-13.17a7.088,7.088,0,0,0-5.19,1.86c.15-4.02,2.4-6.09,5.91-6.09a6.916,6.916,0,0,1,3.93,1.05l1.8-3.57a11.339,11.339,0,0,0-5.85-1.44c-6.33,0-10.71,4.05-10.71,11.31C1.17-3.27,4.77.36,10.56.36c4.44,0,7.95-2.7,7.95-6.99C18.51-10.59,15.33-13.17,11.28-13.17Zm-.99,9.9C7.95-3.27,6.6-4.59,6.6-6.39c0-1.83,1.5-3.15,3.63-3.15,2.16,0,3.57,1.23,3.57,3.15S12.36-3.27,10.29-3.27Z" transform="translate(873 1531)" fill="#fff"/>
    <path id="Trazado_16959" data-name="Trazado 16959" d="M.78-21v7.38H5.1v-3.42h6.96L4.53,0H9.81l7.8-17.85V-21Z" transform="translate(951 1531)" fill="#fff"/>
    <path id="Trazado_16960" data-name="Trazado 16960" d="M15.54-11.04A4.877,4.877,0,0,0,18-15.36c0-3.69-3.3-6-8.13-6-4.77,0-8.07,2.31-8.07,6a4.851,4.851,0,0,0,2.43,4.32A5.339,5.339,0,0,0,1.05-6.09C1.05-2.13,4.56.36,9.87.36c5.34,0,8.88-2.49,8.88-6.45A5.319,5.319,0,0,0,15.54-11.04ZM9.87-17.79c1.98,0,3.3.99,3.3,2.64,0,1.59-1.29,2.58-3.3,2.58-1.98,0-3.24-.99-3.24-2.58C6.63-16.8,7.92-17.79,9.87-17.79Zm0,14.58c-2.4,0-3.9-1.17-3.9-3.03s1.5-3,3.9-3c2.43,0,3.96,1.14,3.96,3S12.3-3.21,9.87-3.21Z" transform="translate(1029 1531)" fill="#fff"/>
    <path id="Trazado_16961" data-name="Trazado 16961" d="M8.55-21.36C4.11-21.36.6-18.66.6-14.37c0,3.96,3.18,6.54,7.23,6.54a7.177,7.177,0,0,0,5.22-1.89C12.9-5.67,10.62-3.6,7.14-3.6A6.792,6.792,0,0,1,3.21-4.65L1.41-1.08A11.225,11.225,0,0,0,7.23.36c6.36,0,10.71-4.05,10.71-11.31C17.94-17.73,14.37-21.36,8.55-21.36Zm.36,9.9c-2.16,0-3.57-1.23-3.57-3.15s1.44-3.12,3.51-3.12c2.31,0,3.66,1.32,3.66,3.12C12.51-12.78,11.04-11.46,8.91-11.46Z" transform="translate(1105 1531)" fill="#fff"/>
    <path id="Trazado_16962" data-name="Trazado 16962" d="M.21-21v3.9h4.2V0H9.27V-21ZM21.93.36c5.19,0,9-3.93,9-10.86s-3.81-10.86-9-10.86c-5.16,0-9,3.93-9,10.86S16.77.36,21.93.36Zm0-4.11c-2.4,0-4.08-1.98-4.08-6.75s1.68-6.75,4.08-6.75c2.43,0,4.11,1.98,4.11,6.75S24.36-3.75,21.93-3.75Z" transform="translate(1178 1531)" fill="#fff"/>
    <path id="Trazado_16963" data-name="Trazado 16963" d="M.21-21v3.9h4.2V0H9.27V-21Zm11.76,0v3.9h4.2V0h4.86V-21Z" transform="translate(1259 1531)" fill="#fff"/>
    <path id="Trazado_16964" data-name="Trazado 16964" d="M.21-21v3.9h4.2V0H9.27V-21ZM19.59-3.96l4.83-4.56c2.94-2.73,3.51-4.59,3.51-6.63,0-3.81-3.12-6.21-7.8-6.21-3.78,0-6.72,1.53-8.34,3.9l3.54,2.28a5.135,5.135,0,0,1,4.35-2.1c2.22,0,3.36.96,3.36,2.61,0,1.02-.33,2.1-2.19,3.87l-8.1,7.65V0H28.62V-3.96Z" transform="translate(1333 1531)" fill="#fff"/>
    <path id="Trazado_16965" data-name="Trazado 16965" d="M.21-21v3.9h4.2V0H9.27V-21Zm22.53,8.55,4.74-5.4V-21H12.78v3.9h8.94L17.4-12.21V-9h2.22c2.76,0,3.93.99,3.93,2.58,0,1.71-1.5,2.7-3.93,2.7a10.2,10.2,0,0,1-6-1.89L11.73-1.89A14.439,14.439,0,0,0,19.74.36c5.97,0,8.7-3.24,8.7-6.78C28.44-9.51,26.52-11.85,22.74-12.45Z" transform="translate(1412 1531)" fill="#fff"/>
    <path id="Trazado_16966" data-name="Trazado 16966" d="M.21-21v3.9h4.2V0H9.27V-21ZM32.16-8.37H28.74V-12.3H24.15v3.93H18.51L27.69-21h-5.1L12.69-7.68v3.27H24V0h4.74V-4.41h3.42Z" transform="translate(1487 1531)" fill="#fff"/>
    <rect id="Rectángulo_1881" data-name="Rectángulo 1881" width="5" height="91" transform="translate(958 1550)" fill="#65d332"/>
    <path id="Trazado_16968" data-name="Trazado 16968" d="M13.56-16.8V-6.6L5.208-16.8H1.992V0h3.84V-10.2L14.208,0H17.4V-16.8ZM25.248-3.12V-7.008h7.8v-3.024h-7.8V-13.68H34.08V-16.8h-12.7V0H34.392V-3.12ZM44.952.288c4.776,0,7.608-2.736,7.608-7.68V-16.8H48.72v9.264c0,3.192-1.368,4.512-3.744,4.512-2.352,0-3.744-1.32-3.744-4.512V-16.8H37.344v9.408C37.344-2.448,40.176.288,44.952.288ZM59.592,0H63.48V-13.632h5.376V-16.8H54.216v3.168h5.376ZM85.824,0,82.056-5.4a5.462,5.462,0,0,0,3.456-5.3c0-3.768-2.808-6.1-7.3-6.1H70.944V0h3.888V-4.68h3.576L81.648,0ZM81.576-10.7c0,1.824-1.2,2.928-3.576,2.928H74.832v-5.856H78C80.376-13.632,81.576-12.552,81.576-10.7ZM101.136,0h4.08L97.7-16.8h-3.84L86.376,0H90.36l1.488-3.6h7.8ZM93.1-6.552l2.664-6.432,2.664,6.432ZM106.968,0H119.28V-3.168h-8.424V-16.8h-3.888Z" transform="translate(901 1690)" fill="#65d332"/>
    <rect id="Rectángulo_1882" data-name="Rectángulo 1882" width="5" height="518" transform="translate(401 1641) rotate(-90)" fill="url(#linear-gradient)"/>
    <path id="Polígono_5" data-name="Polígono 5" d="M10,0,20,18H0Z" transform="translate(390 1649) rotate(-90)" fill="#e01a1a"/>
    <rect id="Rectángulo_1883" data-name="Rectángulo 1883" width="5" height="518" transform="translate(1002 1641) rotate(-90)" fill="url(#linear-gradient-2)"/>
    <path id="Polígono_6" data-name="Polígono 6" d="M10,0,20,18H0Z" transform="translate(1530 1629) rotate(90)" fill="#6218b9"/>
    <path id="Trazado_16969" data-name="Trazado 16969" d="M14.544,0h4.08L11.112-16.8H7.272L-.216,0H3.768L5.256-3.6h7.8ZM6.5-6.552l2.664-6.432,2.664,6.432ZM28.176.288a8.632,8.632,0,0,0,6.936-3l-2.5-2.3a5.354,5.354,0,0,1-4.224,1.992A5.154,5.154,0,0,1,23.016-8.4a5.154,5.154,0,0,1,5.376-5.376,5.405,5.405,0,0,1,4.224,1.968l2.5-2.3A8.673,8.673,0,0,0,28.2-17.088c-5.232,0-9.12,3.624-9.12,8.688S22.968.288,28.176.288ZM37.728,0h3.888V-16.8H37.728ZM45.6,0h7.632c5.5,0,9.264-3.312,9.264-8.4s-3.768-8.4-9.264-8.4H45.6Zm3.888-3.192V-13.608H53.04c3.336,0,5.52,1.992,5.52,5.208s-2.184,5.208-5.52,5.208ZM73.56.288c5.28,0,9.192-3.672,9.192-8.688s-3.912-8.688-9.192-8.688c-5.3,0-9.192,3.7-9.192,8.688S68.256.288,73.56.288Zm0-3.312A5.125,5.125,0,0,1,68.3-8.4a5.125,5.125,0,0,1,5.256-5.376A5.125,5.125,0,0,1,78.816-8.4,5.125,5.125,0,0,1,73.56-3.024Z" transform="translate(609 1690)" fill="#e01a1a"/>
    <path id="Trazado_16967" data-name="Trazado 16967" d="M14.544,0h4.08L11.112-16.8H7.272L-.216,0H3.768L5.256-3.6h7.8ZM6.5-6.552l2.664-6.432,2.664,6.432ZM20.376,0H32.688V-3.168H24.264V-16.8H20.376ZM42.624.288a8.632,8.632,0,0,0,6.936-3l-2.5-2.3A5.354,5.354,0,0,1,42.84-3.024,5.154,5.154,0,0,1,37.464-8.4a5.154,5.154,0,0,1,5.376-5.376,5.405,5.405,0,0,1,4.224,1.968l2.5-2.3a8.673,8.673,0,0,0-6.912-2.976c-5.232,0-9.12,3.624-9.12,8.688S37.416.288,42.624.288ZM64.392,0h4.08L60.96-16.8H57.12L49.632,0h3.984L55.1-3.6h7.8Zm-8.04-6.552,2.664-6.432L61.68-6.552ZM70.224,0H82.536V-3.168H74.112V-16.8H70.224Zm14.5,0h3.888V-16.8H84.72Zm19.44-16.8V-6.6L95.808-16.8H92.592V0h3.84V-10.2L104.808,0H108V-16.8ZM120.12.288c5.28,0,9.192-3.672,9.192-8.688s-3.912-8.688-9.192-8.688c-5.3,0-9.192,3.7-9.192,8.688S114.816.288,120.12.288Zm0-3.312A5.125,5.125,0,0,1,114.864-8.4a5.125,5.125,0,0,1,5.256-5.376A5.125,5.125,0,0,1,125.376-8.4,5.125,5.125,0,0,1,120.12-3.024Z" transform="translate(1235 1690)" fill="#6218b9"/>
  </g>
</svg>
