<?xml version="1.0" encoding="utf-8"?>
<!-- Generator: Adobe Illustrator 22.0.1, SVG Export Plug-In . SVG Version: 6.00 Build 0)  -->
<svg version="1.1" id="Capa_1" xmlns="http://www.w3.org/2000/svg" xmlns:xlink="http://www.w3.org/1999/xlink" x="0px" y="0px"
	 viewBox="0 0 1140 263.4" style="enable-background:new 0 0 1140 263.4;" xml:space="preserve">
<style type="text/css">
	.st0{fill:#E01A1A;}
	.st1{fill:#FF900F;}
	.st2{fill:#FDC325;}
	.st3{fill:#F0DD4B;}
	.st4{fill:#D7F04B;}
	.st5{fill:#B9D521;}
	.st6{fill:#509B2D;}
	.st7{fill:#65D332;}
	.st8{fill:#32D395;}
	.st9{fill:#32C7D3;}
	.st10{fill:#3289D3;}
	.st11{fill:#3245D3;}
	.st12{fill:#5132D3;}
	.st13{fill:#8332D3;}
	.st14{fill:#6209B9;}
	.st15{fill:#00223D;}
	.st16{fill:#FFFFFF;}
	.st17{fill:url(#Rectángulo_1882_1_);}
	.st18{fill:url(#Rectángulo_1883_1_);}
	.st19{fill:#6218B9;}
</style>
<g id="Grupo_9868" transform="translate(-390 -1426.912)">
	<circle id="Elipse_514" class="st0" cx="418" cy="1522" r="28"/>
	<circle id="Elipse_515" class="st1" cx="495" cy="1522" r="28"/>
	<circle id="Elipse_516" class="st2" cx="573" cy="1522" r="28"/>
	<circle id="Elipse_517" class="st3" cx="650" cy="1522" r="28"/>
	<circle id="Elipse_518" class="st4" cx="728" cy="1522" r="28"/>
	<circle id="Elipse_519" class="st5" cx="805" cy="1522" r="28"/>
	<circle id="Elipse_520" class="st6" cx="883" cy="1522" r="28"/>
	<circle id="Elipse_521" class="st7" cx="960" cy="1522" r="28"/>
	<circle id="Elipse_522" class="st8" cx="1037" cy="1522" r="28"/>
	<circle id="Elipse_523" class="st9" cx="1115" cy="1522" r="28"/>
	<circle id="Elipse_524" class="st10" cx="1192" cy="1522" r="28"/>
	<circle id="Elipse_525" class="st11" cx="1270" cy="1522" r="28"/>
	<circle id="Elipse_526" class="st12" cx="1347" cy="1522" r="28"/>
	<circle id="Elipse_527" class="st13" cx="1425" cy="1522" r="28"/>
	<circle id="Elipse_528" class="st14" cx="1502" cy="1522" r="28"/>
	<path id="Trazado_16970" class="st15" d="M865.9,1440.9v-3.9h7.8v-3h-7.8v-3.6h8.8v-3.1H862v16.8h13v-3.1H865.9z M883.6,1444.3
		c4.8,0,7.1-2.4,7.1-5.2c0-6.2-9.8-4-9.8-7.1c0-1.1,0.9-1.9,3.2-1.9c1.6,0,3.2,0.5,4.7,1.3l1.2-3c-1.8-1-3.8-1.5-5.8-1.5
		c-4.8,0-7.1,2.4-7.1,5.2c0,6.2,9.8,4.1,9.8,7.2c0,1-0.9,1.8-3.2,1.8c-2,0-3.9-0.6-5.5-1.8l-1.3,2.9
		C878.8,1443.7,881.2,1444.3,883.6,1444.3z M901.4,1444.3c2.7,0.1,5.2-1,6.9-3l-2.5-2.3c-1,1.3-2.6,2-4.2,2
		c-2.8,0.1-5.2-2.1-5.4-4.9c0-0.2,0-0.3,0-0.5c-0.1-2.8,2.1-5.3,4.9-5.4c0.2,0,0.3,0,0.5,0c1.6,0,3.2,0.7,4.2,2l2.5-2.3
		c-1.7-2-4.3-3.1-6.9-3c-5.2,0-9.1,3.6-9.1,8.7S896.2,1444.3,901.4,1444.3z M923.2,1444h4.1l-7.5-16.8h-3.8l-7.5,16.8h4l1.5-3.6h7.8
		L923.2,1444z M915.2,1437.4l2.7-6.4l2.7,6.4H915.2z M929,1444h12.3v-3.2h-8.4v-13.6H929V1444z M956.2,1444h4.1l-7.5-16.8H949
		l-7.5,16.8h4l1.5-3.6h7.8L956.2,1444z M948.2,1437.4l2.7-6.4l2.7,6.4H948.2z M968.9,1444h7.6c5.5,0,9.3-3.3,9.3-8.4
		s-3.8-8.4-9.3-8.4h-7.6L968.9,1444z M972.8,1440.8v-10.4h3.5c3.3,0,5.5,2,5.5,5.2c0,3.2-2.2,5.2-5.5,5.2H972.8z M992.6,1440.9v-3.9
		h7.8v-3h-7.8v-3.6h8.8v-3.1h-12.7v16.8h13v-3.1H992.6z M1004.8,1444h12.3v-3.2h-8.4v-13.6h-3.9V1444z M1034.4,1432.2h-7.3v16.8h3.9
		v-4.6h3.4c4.5,0,7.3-2.3,7.3-6.1C1041.6,1434.5,1038.8,1432.2,1034.4,1432.2z M1034.1,1441.5h-3.2v-5.8h3.2c2.4,0,3.6,1.1,3.6,2.9
		C1037.7,1440.4,1036.5,1441.5,1034.1,1441.5z M1054.9,1427.2v6.6h-7.6v-6.6h-3.9v16.8h3.9v-6.9h7.6v6.9h3.9v-16.8H1054.9z"/>
	<path id="Trazado_16952" class="st16" d="M418.2,1531.4c5.2,0,9-3.9,9-10.9s-3.8-10.9-9-10.9c-5.2,0-9,3.9-9,10.9
		S413,1531.4,418.2,1531.4z M418.2,1527.2c-2.4,0-4.1-2-4.1-6.8s1.7-6.8,4.1-6.8c2.4,0,4.1,2,4.1,6.8S420.6,1527.2,418.2,1527.2z"/>
	<path id="Trazado_16953" class="st16" d="M489.2,1510v3.9h4.2v17.1h4.9v-21H489.2z"/>
	<path id="Trazado_16954" class="st16" d="M572.8,1527l4.8-4.6c2.9-2.7,3.5-4.6,3.5-6.6c0-3.8-3.1-6.2-7.8-6.2
		c-3.8,0-6.7,1.5-8.3,3.9l3.5,2.3c1-1.4,2.6-2.2,4.3-2.1c2.2,0,3.4,1,3.4,2.6c0,1-0.3,2.1-2.2,3.9l-8.1,7.7v3.2h15.9v-4H572.8z"/>
	<path id="Trazado_16955" class="st16" d="M653,1518.6l4.7-5.4v-3.2H643v3.9h8.9l-4.3,4.9v3.2h2.2c2.8,0,3.9,1,3.9,2.6
		c0,1.7-1.5,2.7-3.9,2.7c-2.1,0-4.2-0.6-6-1.9l-1.9,3.7c2.4,1.5,5.2,2.3,8,2.2c6,0,8.7-3.2,8.7-6.8
		C658.7,1521.5,656.8,1519.2,653,1518.6z"/>
	<path id="Trazado_16956" class="st16" d="M738.4,1522.6H735v-3.9h-4.6v3.9h-5.6l9.2-12.6h-5.1l-9.9,13.3v3.3h11.3v4.4h4.7v-4.4h3.4
		V1522.6z"/>
	<path id="Trazado_16957" class="st16" d="M805.4,1517.9h-1.7l0.3-4h8.8v-3.9h-12.8l-1.1,11.8h5.4c3.8,0,4.9,1.1,4.9,2.7
		c0,1.7-1.5,2.7-3.9,2.7c-2.1,0-4.2-0.6-6-1.9l-1.9,3.7c2.4,1.5,5.2,2.3,8,2.2c6,0,8.7-3.2,8.7-7S811.6,1517.9,805.4,1517.9z"/>
	<path id="Trazado_16958" class="st16" d="M884.3,1517.8c-1.9-0.1-3.8,0.6-5.2,1.9c0.1-4,2.4-6.1,5.9-6.1c1.4-0.1,2.8,0.3,3.9,1.1
		l1.8-3.6c-1.8-1-3.8-1.5-5.8-1.4c-6.3,0-10.7,4-10.7,11.3c0,6.8,3.6,10.4,9.4,10.4c4.4,0,8-2.7,8-7
		C891.5,1520.4,888.3,1517.8,884.3,1517.8z M883.3,1527.7c-2.3,0-3.7-1.3-3.7-3.1c0-1.8,1.5-3.2,3.6-3.2c2.2,0,3.6,1.2,3.6,3.2
		S885.4,1527.7,883.3,1527.7z"/>
	<path id="Trazado_16959" class="st16" d="M951.8,1510v7.4h4.3v-3.4h7l-7.5,17h5.3l7.8-17.8v-3.2H951.8z"/>
	<path id="Trazado_16960" class="st16" d="M1044.5,1520c1.5-0.9,2.5-2.5,2.5-4.3c0-3.7-3.3-6-8.1-6c-4.8,0-8.1,2.3-8.1,6
		c0,1.8,0.9,3.4,2.4,4.3c-2,0.9-3.2,2.8-3.2,5c0,4,3.5,6.4,8.8,6.4c5.3,0,8.9-2.5,8.9-6.4C1047.8,1522.8,1046.5,1520.8,1044.5,1520z
		 M1038.9,1513.2c2,0,3.3,1,3.3,2.6c0,1.6-1.3,2.6-3.3,2.6c-2,0-3.2-1-3.2-2.6C1035.6,1514.2,1036.9,1513.2,1038.9,1513.2z
		 M1038.9,1527.8c-2.4,0-3.9-1.2-3.9-3s1.5-3,3.9-3c2.4,0,4,1.1,4,3S1041.3,1527.8,1038.9,1527.8z"/>
	<path id="Trazado_16961" class="st16" d="M1113.6,1509.6c-4.4,0-8,2.7-8,7c0,4,3.2,6.5,7.2,6.5c1.9,0.1,3.8-0.6,5.2-1.9
		c-0.2,4-2.4,6.1-5.9,6.1c-1.4,0.1-2.8-0.3-3.9-1.1l-1.8,3.6c1.8,1,3.8,1.5,5.8,1.4c6.4,0,10.7-4,10.7-11.3
		C1122.9,1513.3,1119.4,1509.6,1113.6,1509.6z M1113.9,1519.5c-2.2,0-3.6-1.2-3.6-3.2s1.4-3.1,3.5-3.1c2.3,0,3.7,1.3,3.7,3.1
		C1117.5,1518.2,1116,1519.5,1113.9,1519.5z"/>
	<path id="Trazado_16962" class="st16" d="M1178.2,1510v3.9h4.2v17.1h4.9v-21H1178.2z M1199.9,1531.4c5.2,0,9-3.9,9-10.9
		s-3.8-10.9-9-10.9c-5.2,0-9,3.9-9,10.9S1194.8,1531.4,1199.9,1531.4z M1199.9,1527.2c-2.4,0-4.1-2-4.1-6.8s1.7-6.8,4.1-6.8
		c2.4,0,4.1,2,4.1,6.8S1202.4,1527.2,1199.9,1527.2z"/>
	<path id="Trazado_16963" class="st16" d="M1259.2,1510v3.9h4.2v17.1h4.9v-21H1259.2z M1271,1510v3.9h4.2v17.1h4.9v-21H1271z"/>
	<path id="Trazado_16964" class="st16" d="M1333.2,1510v3.9h4.2v17.1h4.9v-21H1333.2z M1352.6,1527l4.8-4.6c2.9-2.7,3.5-4.6,3.5-6.6
		c0-3.8-3.1-6.2-7.8-6.2c-3.8,0-6.7,1.5-8.3,3.9l3.5,2.3c1-1.4,2.6-2.2,4.4-2.1c2.2,0,3.4,1,3.4,2.6c0,1-0.3,2.1-2.2,3.9l-8.1,7.7
		v3.2h15.9v-4H1352.6z"/>
	<path id="Trazado_16965" class="st16" d="M1412.2,1510v3.9h4.2v17.1h4.9v-21H1412.2z M1434.7,1518.6l4.7-5.4v-3.2h-14.7v3.9h8.9
		l-4.3,4.9v3.2h2.2c2.8,0,3.9,1,3.9,2.6c0,1.7-1.5,2.7-3.9,2.7c-2.1,0-4.2-0.6-6-1.9l-1.9,3.7c2.4,1.5,5.2,2.3,8,2.2
		c6,0,8.7-3.2,8.7-6.8C1440.4,1521.5,1438.5,1519.2,1434.7,1518.6z"/>
	<path id="Trazado_16966" class="st16" d="M1487.2,1510v3.9h4.2v17.1h4.9v-21H1487.2z M1519.2,1522.6h-3.4v-3.9h-4.6v3.9h-5.6
		l9.2-12.6h-5.1l-9.9,13.3v3.3h11.3v4.4h4.7v-4.4h3.4V1522.6z"/>
	<rect id="Rectángulo_1881" x="958" y="1550" class="st7" width="5" height="91"/>
	<path id="Trazado_16968" class="st7" d="M914.6,1673.2v10.2l-8.4-10.2H903v16.8h3.8v-10.2l8.4,10.2h3.2v-16.8H914.6z M926.2,1686.9
		v-3.9h7.8v-3h-7.8v-3.6h8.8v-3.1h-12.7v16.8h13v-3.1H926.2z M946,1690.3c4.8,0,7.6-2.7,7.6-7.7v-9.4h-3.8v9.3
		c0,3.2-1.4,4.5-3.7,4.5c-2.4,0-3.7-1.3-3.7-4.5v-9.3h-3.9v9.4C938.3,1687.6,941.2,1690.3,946,1690.3z M960.6,1690h3.9v-13.6h5.4
		v-3.2h-14.6v3.2h5.4V1690z M986.8,1690l-3.8-5.4c2.2-0.9,3.5-3,3.5-5.3c0-3.8-2.8-6.1-7.3-6.1h-7.3v16.8h3.9v-4.7h3.6l3.2,4.7
		H986.8z M982.6,1679.3c0,1.8-1.2,2.9-3.6,2.9h-3.2v-5.9h3.2C981.4,1676.4,982.6,1677.4,982.6,1679.3z M1002.1,1690h4.1l-7.5-16.8
		h-3.8l-7.5,16.8h4l1.5-3.6h7.8L1002.1,1690z M994.1,1683.4l2.7-6.4l2.7,6.4H994.1z M1008,1690h12.3v-3.2h-8.4v-13.6h-3.9V1690z"/>
	
		<linearGradient id="Rectángulo_1882_1_" gradientUnits="userSpaceOnUse" x1="601.9" y1="1956.4216" x2="601.9" y2="1955.4216" gradientTransform="matrix(3.061617e-16 -5 -518 -3.171835e-14 1013827.4375 4648)">
		<stop  offset="0" style="stop-color:#E01A1A"/>
		<stop  offset="0.202" style="stop-color:#FD9025"/>
		<stop  offset="0.473" style="stop-color:#F0DD4B"/>
		<stop  offset="0.793" style="stop-color:#B9D52B"/>
		<stop  offset="1" style="stop-color:#509B2D"/>
	</linearGradient>
	<rect id="Rectángulo_1882" x="401" y="1636" class="st17" width="518" height="5"/>
	<path id="Polígono_5" class="st0" d="M390,1639l18-10v20L390,1639z"/>
	
		<linearGradient id="Rectángulo_1883_1_" gradientUnits="userSpaceOnUse" x1="601.9" y1="1956.4216" x2="601.9" y2="1955.4216" gradientTransform="matrix(3.061617e-16 -5 -518 -3.171835e-14 1014428.4375 4648)">
		<stop  offset="0" style="stop-color:#32D395"/>
		<stop  offset="0.202" style="stop-color:#3289D3"/>
		<stop  offset="0.473" style="stop-color:#3245D3"/>
		<stop  offset="0.793" style="stop-color:#5132D3"/>
		<stop  offset="1" style="stop-color:#6218B9"/>
	</linearGradient>
	<rect id="Rectángulo_1883" x="1002" y="1636" class="st18" width="518" height="5"/>
	<path id="Polígono_6" class="st19" d="M1530,1639l-18,10v-20L1530,1639z"/>
	<path id="Trazado_16969" class="st0" d="M623.5,1690h4.1l-7.5-16.8h-3.8l-7.5,16.8h4l1.5-3.6h7.8L623.5,1690z M615.5,1683.4
		l2.7-6.4l2.7,6.4H615.5z M637.2,1690.3c2.7,0.1,5.2-1,6.9-3l-2.5-2.3c-1,1.3-2.6,2-4.2,2c-2.8,0.1-5.2-2.1-5.4-4.9
		c0-0.2,0-0.3,0-0.5c-0.1-2.8,2.1-5.3,4.9-5.4c0.2,0,0.3,0,0.5,0c1.6,0,3.2,0.7,4.2,2l2.5-2.3c-1.7-2-4.3-3.1-6.9-3
		c-5.2,0-9.1,3.6-9.1,8.7S632,1690.3,637.2,1690.3z M646.7,1690h3.9v-16.8h-3.9V1690z M654.6,1690h7.6c5.5,0,9.3-3.3,9.3-8.4
		s-3.8-8.4-9.3-8.4h-7.6V1690z M658.5,1686.8v-10.4h3.6c3.3,0,5.5,2,5.5,5.2c0,3.2-2.2,5.2-5.5,5.2H658.5z M682.6,1690.3
		c5.3,0,9.2-3.7,9.2-8.7s-3.9-8.7-9.2-8.7c-5.3,0-9.2,3.7-9.2,8.7C673.4,1686.6,677.3,1690.3,682.6,1690.3z M682.6,1687
		c-2.8,0.1-5.2-2.2-5.3-5c0-0.1,0-0.3,0-0.4c-0.1-2.8,2-5.2,4.9-5.4c0.1,0,0.3,0,0.4,0c2.8-0.1,5.2,2.2,5.3,5c0,0.1,0,0.3,0,0.4
		c0.1,2.8-2,5.2-4.9,5.4C682.8,1687,682.7,1687,682.6,1687z"/>
	<path id="Trazado_16967" class="st19" d="M1249.5,1690h4.1l-7.5-16.8h-3.8l-7.5,16.8h4l1.5-3.6h7.8L1249.5,1690z M1241.5,1683.4
		l2.7-6.4l2.7,6.4H1241.5z M1255.4,1690h12.3v-3.2h-8.4v-13.6h-3.9V1690z M1277.6,1690.3c2.7,0.1,5.2-1,6.9-3l-2.5-2.3
		c-1,1.3-2.6,2-4.2,2c-2.8,0.1-5.3-2.1-5.4-4.9c0-0.2,0-0.3,0-0.5c-0.1-2.8,2.1-5.3,4.9-5.4c0.2,0,0.3,0,0.5,0c1.6,0,3.2,0.7,4.2,2
		l2.5-2.3c-1.7-2-4.3-3.1-6.9-3c-5.2,0-9.1,3.6-9.1,8.7S1272.4,1690.3,1277.6,1690.3z M1299.4,1690h4.1l-7.5-16.8h-3.8l-7.5,16.8h4
		l1.5-3.6h7.8L1299.4,1690z M1291.4,1683.4l2.7-6.4l2.7,6.4H1291.4z M1305.2,1690h12.3v-3.2h-8.4v-13.6h-3.9V1690z M1319.7,1690h3.9
		v-16.8h-3.9L1319.7,1690z M1339.2,1673.2v10.2l-8.4-10.2h-3.2v16.8h3.8v-10.2l8.4,10.2h3.2v-16.8H1339.2z M1355.1,1690.3
		c5.3,0,9.2-3.7,9.2-8.7s-3.9-8.7-9.2-8.7c-5.3,0-9.2,3.7-9.2,8.7C1345.9,1686.6,1349.8,1690.3,1355.1,1690.3z M1355.1,1687
		c-2.8,0.1-5.2-2.2-5.3-5c0-0.1,0-0.3,0-0.4c-0.1-2.8,2-5.2,4.9-5.4c0.1,0,0.3,0,0.4,0c2.8-0.1,5.2,2.2,5.3,5c0,0.1,0,0.3,0,0.4
		c0.1,2.8-2,5.2-4.9,5.4C1355.4,1687,1355.2,1687,1355.1,1687z"/>
</g>
</svg>
