<svg xmlns="http://www.w3.org/2000/svg" xmlns:xlink="http://www.w3.org/1999/xlink" width="1140" height="275" viewBox="0 0 1140 275">
  <defs>
    <linearGradient id="linear-gradient" x1="0.5" x2="0.5" y2="1" gradientUnits="objectBoundingBox">
      <stop offset="0" stop-color="#e01a1a"/>
      <stop offset="0.202" stop-color="#fd9025"/>
      <stop offset="0.473" stop-color="#f0dd4b"/>
      <stop offset="0.793" stop-color="#b9d52b"/>
      <stop offset="1" stop-color="#509b2d"/>
    </linearGradient>
    <linearGradient id="linear-gradient-2" x1="0.5" x2="0.5" y2="1" gradientUnits="objectBoundingBox">
      <stop offset="0" stop-color="#32d395"/>
      <stop offset="0.202" stop-color="#3289d3"/>
      <stop offset="0.473" stop-color="#3245d3"/>
      <stop offset="0.793" stop-color="#5132d3"/>
      <stop offset="1" stop-color="#6218b9"/>
    </linearGradient>
  </defs>
  <g id="Grupo_9866" data-name="Grupo 9866" transform="translate(-390 -1421)">
    <circle id="Elipse_514" data-name="Elipse 514" cx="28" cy="28" r="28" transform="translate(390 1494)" fill="#e01a1a"/>
    <circle id="Elipse_515" data-name="Elipse 515" cx="28" cy="28" r="28" transform="translate(467 1494)" fill="#ff900f"/>
    <circle id="Elipse_516" data-name="Elipse 516" cx="28" cy="28" r="28" transform="translate(545 1494)" fill="#fdc325"/>
    <circle id="Elipse_517" data-name="Elipse 517" cx="28" cy="28" r="28" transform="translate(622 1494)" fill="#f0dd4b"/>
    <circle id="Elipse_518" data-name="Elipse 518" cx="28" cy="28" r="28" transform="translate(700 1494)" fill="#d7f04b"/>
    <circle id="Elipse_519" data-name="Elipse 519" cx="28" cy="28" r="28" transform="translate(777 1494)" fill="#b9d521"/>
    <circle id="Elipse_520" data-name="Elipse 520" cx="28" cy="28" r="28" transform="translate(855 1494)" fill="#509b2d"/>
    <circle id="Elipse_521" data-name="Elipse 521" cx="28" cy="28" r="28" transform="translate(932 1494)" fill="#65d332"/>
    <circle id="Elipse_522" data-name="Elipse 522" cx="28" cy="28" r="28" transform="translate(1009 1494)" fill="#32d395"/>
    <circle id="Elipse_523" data-name="Elipse 523" cx="28" cy="28" r="28" transform="translate(1087 1494)" fill="#32c7d3"/>
    <circle id="Elipse_524" data-name="Elipse 524" cx="28" cy="28" r="28" transform="translate(1164 1494)" fill="#3289d3"/>
    <circle id="Elipse_525" data-name="Elipse 525" cx="28" cy="28" r="28" transform="translate(1242 1494)" fill="#3245d3"/>
    <circle id="Elipse_526" data-name="Elipse 526" cx="28" cy="28" r="28" transform="translate(1319 1494)" fill="#5132d3"/>
    <circle id="Elipse_527" data-name="Elipse 527" cx="28" cy="28" r="28" transform="translate(1397 1494)" fill="#8332d3"/>
    <circle id="Elipse_528" data-name="Elipse 528" cx="28" cy="28" r="28" transform="translate(1474 1494)" fill="#6209b9"/>
    <text id="Escalas_del_pH" data-name="Escalas del pH" transform="translate(860 1444)" fill="#00223d" font-size="24" font-family="Montserrat-Bold, Montserrat" font-weight="700"><tspan x="0" y="0">Escalas del pH</tspan></text>
    <text id="_0" data-name="0" transform="translate(408 1531)" fill="#fff" font-size="30" font-family="Montserrat-Bold, Montserrat" font-weight="700"><tspan x="0" y="0">0</tspan></text>
    <text id="_1" data-name="1" transform="translate(489 1531)" fill="#fff" font-size="30" font-family="Montserrat-Bold, Montserrat" font-weight="700"><tspan x="0" y="0">1</tspan></text>
    <text id="_2" data-name="2" transform="translate(565 1531)" fill="#fff" font-size="30" font-family="Montserrat-Bold, Montserrat" font-weight="700"><tspan x="0" y="0">2</tspan></text>
    <text id="_3" data-name="3" transform="translate(642 1531)" fill="#fff" font-size="30" font-family="Montserrat-Bold, Montserrat" font-weight="700"><tspan x="0" y="0">3</tspan></text>
    <text id="_4" data-name="4" transform="translate(718 1531)" fill="#fff" font-size="30" font-family="Montserrat-Bold, Montserrat" font-weight="700"><tspan x="0" y="0">4</tspan></text>
    <text id="_5" data-name="5" transform="translate(797 1531)" fill="#fff" font-size="30" font-family="Montserrat-Bold, Montserrat" font-weight="700"><tspan x="0" y="0">5</tspan></text>
    <text id="_6" data-name="6" transform="translate(873 1531)" fill="#fff" font-size="30" font-family="Montserrat-Bold, Montserrat" font-weight="700"><tspan x="0" y="0">6</tspan></text>
    <text id="_7" data-name="7" transform="translate(951 1531)" fill="#fff" font-size="30" font-family="Montserrat-Bold, Montserrat" font-weight="700"><tspan x="0" y="0">7</tspan></text>
    <text id="_8" data-name="8" transform="translate(1029 1531)" fill="#fff" font-size="30" font-family="Montserrat-Bold, Montserrat" font-weight="700"><tspan x="0" y="0">8</tspan></text>
    <text id="_9" data-name="9" transform="translate(1105 1531)" fill="#fff" font-size="30" font-family="Montserrat-Bold, Montserrat" font-weight="700"><tspan x="0" y="0">9</tspan></text>
    <text id="_10" data-name="10" transform="translate(1178 1531)" fill="#fff" font-size="30" font-family="Montserrat-Bold, Montserrat" font-weight="700"><tspan x="0" y="0">10</tspan></text>
    <text id="_11" data-name="11" transform="translate(1259 1531)" fill="#fff" font-size="30" font-family="Montserrat-Bold, Montserrat" font-weight="700"><tspan x="0" y="0">11</tspan></text>
    <text id="_12" data-name="12" transform="translate(1333 1531)" fill="#fff" font-size="30" font-family="Montserrat-Bold, Montserrat" font-weight="700"><tspan x="0" y="0">12</tspan></text>
    <text id="_13" data-name="13" transform="translate(1412 1531)" fill="#fff" font-size="30" font-family="Montserrat-Bold, Montserrat" font-weight="700"><tspan x="0" y="0">13</tspan></text>
    <text id="_14" data-name="14" transform="translate(1487 1531)" fill="#fff" font-size="30" font-family="Montserrat-Bold, Montserrat" font-weight="700"><tspan x="0" y="0">14</tspan></text>
    <rect id="Rectángulo_1881" data-name="Rectángulo 1881" width="5" height="91" transform="translate(958 1550)" fill="#65d332"/>
    <text id="Neutral" transform="translate(901 1690)" fill="#65d332" font-size="24" font-family="Montserrat-Bold, Montserrat" font-weight="700"><tspan x="0" y="0">Neutral</tspan></text>
    <rect id="Rectángulo_1882" data-name="Rectángulo 1882" width="5" height="518" transform="translate(401 1641) rotate(-90)" fill="url(#linear-gradient)"/>
    <path id="Polígono_5" data-name="Polígono 5" d="M10,0,20,18H0Z" transform="translate(390 1649) rotate(-90)" fill="#e01a1a"/>
    <rect id="Rectángulo_1883" data-name="Rectángulo 1883" width="5" height="518" transform="translate(1002 1641) rotate(-90)" fill="url(#linear-gradient-2)"/>
    <path id="Polígono_6" data-name="Polígono 6" d="M10,0,20,18H0Z" transform="translate(1530 1629) rotate(90)" fill="#6218b9"/>
    <text id="Ácido" transform="translate(609 1690)" fill="#e01a1a" font-size="24" font-family="Montserrat-Bold, Montserrat" font-weight="700"><tspan x="0" y="0">Ácido</tspan></text>
    <text id="Alcalino" transform="translate(1235 1690)" fill="#6218b9" font-size="24" font-family="Montserrat-Bold, Montserrat" font-weight="700"><tspan x="0" y="0">Alcalino</tspan></text>
  </g>
</svg>
