<svg xmlns="http://www.w3.org/2000/svg" width="327.684" height="241.601" viewBox="0 0 327.684 241.601">
  <g id="Grupo_9869" data-name="Grupo 9869" transform="translate(-796 -2078.399)">
    <g id="Grupo_9235" data-name="Grupo 9235" transform="translate(0 17)">
      <g id="Grupo_8724" data-name="Grupo 8724" transform="translate(796 2183.985)">
        <path id="Trazado_14285" data-name="Trazado 14285" d="M296.633,1346.026c-7.213-.834-17.31-7.4-10.437-15.081,5.561-5.588,16.139-3.248,20.7,2.541C311.4,1340.377,303.735,1347.5,296.633,1346.026Z" transform="translate(-242.847 -1276.319)" fill="#513636"/>
        <path id="Trazado_14286" data-name="Trazado 14286" d="M334.852,1328.717c-14.2,3.966-19.6-16.229-4.981-19.135C344.365,1305.426,352.176,1330.578,334.852,1328.717Z" transform="translate(-259.652 -1267.922)" fill="#513636"/>
        <path id="Trazado_14287" data-name="Trazado 14287" d="M363.119,1318.389c-7.964-1.912-5.926-14.2,2.085-13.872C376.5,1304.785,374.171,1323.432,363.119,1318.389Z" transform="translate(-276.257 -1265.847)" fill="#513636"/>
        <path id="Trazado_14288" data-name="Trazado 14288" d="M387.264,1298.476a6.988,6.988,0,0,1-4.954-2.916c-6.218-3.754-1.4-13.6,1.6-18.3,5.128-8.452,14.924-14.2,24.928-13.227,16.134.612,16.794,21.223,2.808,26.258C398.166,1290.738,398.576,1298.82,387.264,1298.476Z" transform="translate(-285.813 -1247.562)" fill="#513636"/>
        <path id="Trazado_14289" data-name="Trazado 14289" d="M458.537,1263.623a5.617,5.617,0,0,1-2.486-.833c-14.643-1-13.805-21.229.389-22.314C472.073,1238.94,474.789,1263.731,458.537,1263.623Z" transform="translate(-315.608 -1236.97)" fill="#513636"/>
        <path id="Trazado_14290" data-name="Trazado 14290" d="M481.357,1252.074a10.448,10.448,0,0,1-3.414-5.242c-8.677-2.109,1.837-14.752,7.932-12.387C499,1237.108,495.169,1260.189,481.357,1252.074Z" transform="translate(-328.771 -1234.152)" fill="#513636"/>
        <path id="Trazado_14291" data-name="Trazado 14291" d="M497.337,1258.352c-.02-2.789,4.331-2.789,4.312,0C501.668,1261.141,497.317,1261.141,497.337,1258.352Z" transform="translate(-338.992 -1244.111)" fill="#513636"/>
        <path id="Trazado_14292" data-name="Trazado 14292" d="M510.978,1252.725c-7.646-2.813-4.364-17.27,4.451-14.269C525.285,1240.64,519.9,1255.148,510.978,1252.725Z" transform="translate(-343.209 -1235.907)" fill="#513636"/>
        <path id="Trazado_14293" data-name="Trazado 14293" d="M527.323,1259.068a3.259,3.259,0,0,1-.5-3.907c-3.886-1.681-.538-5.089,2.486-3.626C534.542,1253.1,533.186,1263.059,527.323,1259.068Z" transform="translate(-351.482 -1241.822)" fill="#513636"/>
        <path id="Trazado_14294" data-name="Trazado 14294" d="M547.022,1270.214c-3.016-1.435-4.338-4.975-7.268-6.634-2.213-1.594-6.129-2.205-5.576-5.752,1.672-6,7.658-8.99,13.6-7.162C556.888,1252.523,558.671,1273.323,547.022,1270.214Z" transform="translate(-355.564 -1241.35)" fill="#513636"/>
        <path id="Trazado_14295" data-name="Trazado 14295" d="M568.107,1278.047c-3.719-.294-7.951-3.579-5.938-7.6-.692-5.933,6.756-10.623,11.829-7.513C583.359,1268.552,578.6,1279.449,568.107,1278.047Z" transform="translate(-367.963 -1246.671)" fill="#513636"/>
        <path id="Trazado_14296" data-name="Trazado 14296" d="M597.073,1281.363a3.887,3.887,0,0,1-2.574-2.2c-6.894-1.958-1.673-11.111,4.057-9.875C608.009,1269.119,606.119,1284.123,597.073,1281.363Z" transform="translate(-381.28 -1249.928)" fill="#513636"/>
        <path id="Trazado_14297" data-name="Trazado 14297" d="M619.241,1298.587c-6.839-.528-19.762-6.56-14.761-14.972,3.4-9.854,19.09-5.582,23.729,1.321C632.317,1291.19,626.529,1299.621,619.241,1298.587Z" transform="translate(-386.751 -1253.824)" fill="#513636"/>
        <path id="Trazado_14298" data-name="Trazado 14298" d="M650.507,1306.482c-3.161-.356-6.218-3.9-4.485-7-.453-4.342,4.44-6.949,8.268-6.109C663.327,1296.323,659.572,1308.169,650.507,1306.482Z" transform="translate(-405.744 -1260.757)" fill="#513636"/>
        <path id="Trazado_14299" data-name="Trazado 14299" d="M682.38,1315.624c-.945-.759-.768-2.031-1.141-3.008-2.013,1.572-5.252.756-5.809-1.866a2.813,2.813,0,0,0-1.478.141,1.422,1.422,0,0,1-1.77.379l.03.014c-5.269-3.266,3.9-9.252,7.186-5.429C688.4,1300.918,692.528,1320.234,682.38,1315.624Z" transform="translate(-417.047 -1265.896)" fill="#513636"/>
        <path id="Trazado_14300" data-name="Trazado 14300" d="M674.951,1319.489a4.978,4.978,0,0,1-2.106-1.217c.068.059.135.119.2.18a2.363,2.363,0,0,0-1.858-.725c.182.01.369.024.557.034-3.666.149-5.985-3.031-9.162-4.264-3.963.687-7.237-4.086-3.38-6.643h0c3.6-1.878,15.946,2.879,19.206,5.136C681.619,1314.771,679.4,1320.679,674.951,1319.489Z" transform="translate(-411.131 -1266.708)" fill="#513636"/>
        <path id="Trazado_14301" data-name="Trazado 14301" d="M700.239,1322.848c-16.377-4.19-4.282-20.876,7.332-14.059C716.45,1313.7,709.648,1328.739,700.239,1322.848Z" transform="translate(-426.801 -1267.045)" fill="#513636"/>
        <path id="Trazado_14302" data-name="Trazado 14302" d="M512.321,1296.214c-21.423-3.374-21.161-31.763,2.243-31.381C539.846,1265.693,537.142,1298.968,512.321,1296.214Z" transform="translate(-338.669 -1247.971)" fill="#513636"/>
        <path id="Trazado_14303" data-name="Trazado 14303" d="M419.772,1337.765c-16.827-4.867-9.748-28.147,6.425-26.4C443.8,1314.428,436.168,1341.8,419.772,1337.765Z" transform="translate(-299.697 -1268.891)" fill="#513636"/>
        <path id="Trazado_14304" data-name="Trazado 14304" d="M413,1320.737a15.264,15.264,0,0,0-.856-4.288q-.409-.106-.821-.2a4.386,4.386,0,0,0-.831.823A6.019,6.019,0,0,0,413,1320.737Zm2.975,5.343c-13.509-.011-18.848-17.667-3.534-19.23,7.56-.323,12.9,11.192,7.951,16.7a1.613,1.613,0,0,1-1.491,2.441,1.789,1.789,0,0,0,.339-.005A11.921,11.921,0,0,1,415.973,1326.08Z" transform="translate(-296.562 -1266.897)" fill="#513636"/>
        <path id="Trazado_14305" data-name="Trazado 14305" d="M513.941,1263.641c-11.959-1.85-4-21.36,4.74-11.612C527.45,1254.274,521.144,1265.558,513.941,1263.641Z" transform="translate(-343.739 -1240.983)" fill="#634343"/>
        <path id="Trazado_14306" data-name="Trazado 14306" d="M488.936,1271.34c-3.849-3.877-1.774-12.163,4.472-10.713,3.708-3.3,10.522-.121,9.495,5C501.522,1270.871,493.331,1276.75,488.936,1271.34Z" transform="translate(-334.334 -1245.47)" fill="#634343"/>
        <path id="Trazado_14307" data-name="Trazado 14307" d="M466.894,1287.142c-.424-1.5,2.049-2.194,2.449-.681C469.761,1287.965,467.3,1288.665,466.894,1287.142Z" transform="translate(-325.257 -1257.334)" fill="#634343"/>
        <path id="Trazado_14308" data-name="Trazado 14308" d="M454.118,1303.377c-5.941-.668-10.612-7.1-10.658-12.793,0,.052-.007.1-.01.156-2-8.908,3.268-19.468,13.475-18.485,13.225-9.943,28.622,12.442,15.74,21.028C470.465,1300.98,461.5,1304.352,454.118,1303.377Z" transform="translate(-314.53 -1250.191)" fill="#634343"/>
        <path id="Trazado_14309" data-name="Trazado 14309" d="M559.157,1305.719c-14.792-4.128-9.5-30.5,6.641-25.547C582.464,1286.352,577.134,1309.259,559.157,1305.719Z" transform="translate(-362.92 -1254.605)" fill="#634343"/>
        <path id="Trazado_14310" data-name="Trazado 14310" d="M587.652,1295.91a4.856,4.856,0,0,1-1.348-4.12c-9.877-4.984,2.69-15.693,9.189-8.957C603.1,1287.925,595.667,1302.322,587.652,1295.91Z" transform="translate(-377.422 -1255.107)" fill="#634343"/>
        <path id="Trazado_14311" data-name="Trazado 14311" d="M432.922,1312.224c-5.117-9.236,11.87-12.493,8.908-2.052C442.977,1315.615,434.979,1316.459,432.922,1312.224Z" transform="translate(-309.539 -1265.475)" fill="#634343"/>
        <path id="Trazado_14312" data-name="Trazado 14312" d="M382.407,1334.873c-14.689,1.451-22.837-16.915-5.29-19.868C389.511,1313.129,403.181,1337.179,382.407,1334.873Z" transform="translate(-280.355 -1270.527)" fill="#634343"/>
        <path id="Trazado_14313" data-name="Trazado 14313" d="M356.393,1332.34a4.755,4.755,0,0,1,.8-6.278c-.086.075-.169.148-.253.223.107-.1.214-.19.322-.283l-.051.044C367.6,1320.506,364.117,1339.37,356.393,1332.34Z" transform="translate(-275.122 -1275.082)" fill="#634343"/>
        <path id="Trazado_14314" data-name="Trazado 14314" d="M652.493,1324.569c-3.845-.254-7.4-2-11.059-3.065.095.034.19.067.285.1l-.5-.177h0c-14.222-2.93-13.017-15.314,1.316-13.512,4.947,1.548,10.329,3.5,13.717,7.62,3.016,2.683,3.773,9.389-1.832,8.644A4.613,4.613,0,0,1,652.493,1324.569Z" transform="translate(-399.268 -1267.301)" fill="#634343"/>
        <path id="Trazado_14315" data-name="Trazado 14315" d="M512.784,1344.048c-6.727-2.339,2.784-9.511,3-2.289l.013-.064c-.022.116-.042.232-.072.346l.025-.122A2.7,2.7,0,0,1,512.784,1344.048Z" transform="translate(-344.868 -1281.21)" fill="#3f2828"/>
        <path id="Trazado_14316" data-name="Trazado 14316" d="M482.937,1329.854c-20.272-4.48-11.869-32.15,6.8-29.58C508.455,1305.151,507.045,1338.881,482.937,1329.854Z" transform="translate(-327.215 -1263.862)" fill="#3f2828"/>
        <path id="Trazado_14317" data-name="Trazado 14317" d="M443.589,1349.744a13.837,13.837,0,0,1-9.791-4.577c-22.694-3.618,14.827-42.481,23.73-14.744C465.394,1339.473,453.585,1351.5,443.589,1349.744Z" transform="translate(-307.133 -1273.051)" fill="#3f2828"/>
        <path id="Trazado_14318" data-name="Trazado 14318" d="M477.554,1363.813c-9.9-1.564-8.51-14.156-1.1-18.24C491.717,1339.2,495.536,1365.1,477.554,1363.813Z" transform="translate(-326.909 -1283.888)" fill="#3f2828"/>
        <path id="Trazado_14319" data-name="Trazado 14319" d="M535.9,1328.832c-23.138-3.071-11.894-27.5,6.328-22.888C554.64,1311.119,549.35,1330.769,535.9,1328.832Z" transform="translate(-350.499 -1266.232)" fill="#3f2828"/>
        <path id="Trazado_14320" data-name="Trazado 14320" d="M599.051,1327.217c-8.969-2.2-23.407-1.394-29.621-8.445q.041.081.084.163c-.046-.093-.091-.187-.13-.285l0,.007c-1.9-5.591,7.611-5.526,9.095-10.605l-.066.1c.1-.144.2-.285.293-.427l-.045.063a13.147,13.147,0,0,1,8.884-6.55l-.572.2c7.937-3.044,19.086,3.447,20.134,11.792C618.167,1320.753,609.27,1328.482,599.051,1327.217Z" transform="translate(-371.336 -1264.119)" fill="#3f2828"/>
        <path id="Trazado_14321" data-name="Trazado 14321" d="M666.247,1337.338c-17.582-3.489-21.874-23.467,1.058-19.32-.17-.013-.342-.026-.511-.035a9.132,9.132,0,0,0,1.028,0l-.223.013a14.206,14.206,0,0,1,1.913,0c-.192-.014-.384-.024-.577-.039,5.4.124,10.321,2.786,14.9,5.418l-.286-.194c3.949,1.631,5.853,7.405,2.1,10.25C679.855,1336.312,672.634,1336.914,666.247,1337.338Z" transform="translate(-408.465 -1271.677)" fill="#3f2828"/>
        <path id="Trazado_14322" data-name="Trazado 14322" d="M332.576,1355.127c-25.07,1-18.288-24.67,3.052-18.906a6.718,6.718,0,0,1,10.968,3.014c-.067-.13-.135-.264-.2-.393C351.045,1348.754,342.835,1357.265,332.576,1355.127Z" transform="translate(-257.533 -1279.344)" fill="#3f2828"/>
        <path id="Trazado_14323" data-name="Trazado 14323" d="M422.266,1371.322c.356-.1.71-.218,1.062-.332A1.714,1.714,0,0,0,422.266,1371.322Zm-2.4,10.41c-3.028-.969-6.4.136-9.235-1.455-18.677,1.5-8.6-25.567,5.444-14.321,2.992-4.2,9.5-5.046,13.984-3C439.468,1369.619,429.416,1383.22,419.867,1381.731Z" transform="translate(-295.338 -1291.694)" fill="#3f2828"/>
        <path id="Trazado_14324" data-name="Trazado 14324" d="M513.675,1351.844c-19.079-3.637-8.168-29.445,8.484-21.907C537.809,1335.119,526.651,1353.85,513.675,1351.844Z" transform="translate(-341.807 -1276.682)" fill="#634343"/>
        <path id="Trazado_14325" data-name="Trazado 14325" d="M555.992,1352.532c-3.771-.582-7.852-2.832-9.069-6.653-9.971-13.107,12.552-24.567,23.731-20.023,8.136,2.623,25.455,12.344,16.369,22.067-4.076,2.561-9.217,1.889-13.8,1.846C567.469,1350.594,561.883,1352.839,555.992,1352.532Z" transform="translate(-360.21 -1275.006)" fill="#634343"/>
        <path id="Trazado_14326" data-name="Trazado 14326" d="M635.487,1343.4c-6.724.1-9.528-9.446-3.9-13.115,5.365-4.313,16.806-2.151,18.849,4.824C650.56,1341.777,640.813,1343.875,635.487,1343.4Z" transform="translate(-398.111 -1276.458)" fill="#634343"/>
        <path id="Trazado_14327" data-name="Trazado 14327" d="M367.8,1364.38c-5.887-.975-7.163-6.841-10.548-10.626-8.461-8.359,1.754-18.293,11.413-16.606,8.818.932,19.744.657,26.67,6.792,6.89,8.5-3.546,16.705-11.56,18.462C381.085,1364.463,371.508,1365.157,367.8,1364.38Z" transform="translate(-274.471 -1280.463)" fill="#4c3333"/>
        <path id="Trazado_14328" data-name="Trazado 14328" d="M423.565,1364.5c-5.989-.539-5.341-10.511.987-8.776C431.865,1353.687,430.021,1365.864,423.565,1364.5Z" transform="translate(-303.892 -1288.812)" fill="#4c3333"/>
        <path id="Trazado_14329" data-name="Trazado 14329" d="M625.411,1371.492c-8.765.565-16.652-8.3-8.291-15.11,7.718-5.443,24.11-4.531,26.305,6.362C643.106,1371.527,632.095,1372.164,625.411,1371.492Z" transform="translate(-391.35 -1287.747)" fill="#4c3333"/>
        <path id="Trazado_14330" data-name="Trazado 14330" d="M550.3,1378.871a9.553,9.553,0,0,1-6.162-1.593c-8.474,3.014-20.073.049-18.156-11.021,3.83-7.53,17.27-8.282,21.817-1.056C563.617,1358.125,567.932,1380.953,550.3,1378.871Z" transform="translate(-351.802 -1290.922)" fill="#4c3333"/>
        <path id="Trazado_14331" data-name="Trazado 14331" d="M731.4,1370.2c-1.96-.178-4.172-.272-5.77-1.536-6.8-.056-6.07-8.1-.708-10.145-.115.077-.23.154-.346.236,4.594-2.853,13.639-4.642,14.766,2.707C746.587,1367.594,737.541,1371.852,731.4,1370.2Z" transform="translate(-439.616 -1289.167)" fill="#4c3333"/>
        <path id="Trazado_14332" data-name="Trazado 14332" d="M753.756,1335.265c-3.248-.481-8.035-.981-9.318-4.521-4.718-6.222,6.663-9.109,10.943-6.214h0C767.191,1324.842,764.259,1336.2,753.756,1335.265Z" transform="translate(-449.797 -1274.356)" fill="#634343"/>
        <path id="Trazado_14333" data-name="Trazado 14333" d="M790.951,1341.261c-3.65-3.862,3.047-8.9,6.41-5.44C801.115,1339.814,794.356,1345.555,790.951,1341.261Z" transform="translate(-470.779 -1279.43)" fill="#634343"/>
        <path id="Trazado_14334" data-name="Trazado 14334" d="M727.3,1346.012c-5.981-2.772.994-10.863,4.943-6.32C737.116,1342.142,731.065,1348.317,727.3,1346.012Z" transform="translate(-441.533 -1281.083)" fill="#634343"/>
        <path id="Trazado_14335" data-name="Trazado 14335" d="M619.858,1418.935c-9.144.31-8.484-9.04-.153-9.361l-.14-.01c2.112.059,4.31-.793,6.36-.03h-.005C633.751,1413.663,626.209,1420,619.858,1418.935Z" transform="translate(-391.197 -1313.012)" fill="#634343"/>
        <path id="Trazado_14336" data-name="Trazado 14336" d="M532.878,1392.6a5.065,5.065,0,0,1-3.1-1.506c-11.244-6.34,8.26-17.378,14.421-10.755C549.516,1386.77,539.241,1394.322,532.878,1392.6Z" transform="translate(-352.062 -1299.082)" fill="#634343"/>
        <path id="Trazado_14337" data-name="Trazado 14337" d="M536.429,1424.527c-5.579-1.224-1.174-8.216,3.126-6.49C544.294,1419.777,540.4,1425.588,536.429,1424.527Z" transform="translate(-355.42 -1316.864)" fill="#634343"/>
        <path id="Trazado_14338" data-name="Trazado 14338" d="M509.154,1421.185c-.981-2.09,1.052-5.025,3.381-4C518.989,1418.422,512.091,1426.541,509.154,1421.185Z" transform="translate(-344.201 -1316.507)" fill="#634343"/>
        <path id="Trazado_14339" data-name="Trazado 14339" d="M486.121,1405.954c-8.462-4.309,1.912-11.823,7.773-11.316-.12.009-.24.014-.36.024,6-1.738,9.424,6.351,3.833,9.24a1.014,1.014,0,0,0,.142-.065A25.521,25.521,0,0,1,486.121,1405.954Z" transform="translate(-332.501 -1306.348)" fill="#634343"/>
        <path id="Trazado_14340" data-name="Trazado 14340" d="M459.16,1409.837c-2.966-3.687,3.224-7.88,6.467-5.406,2.909,1.889,1.075,7.4-2.484,6.495A4.185,4.185,0,0,1,459.16,1409.837Z" transform="translate(-321.442 -1310.523)" fill="#634343"/>
        <path id="Trazado_14341" data-name="Trazado 14341" d="M415.325,1445.8c-7.692-.991.645-8.451,4.527-4.62C422.421,1444.013,417.958,1446.569,415.325,1445.8Z" transform="translate(-300.63 -1326.921)" fill="#634343"/>
        <path id="Trazado_14342" data-name="Trazado 14342" d="M391.24,1427.116c-1.139-5.137,10.841-9.46,12.113-3.539C404.355,1428.083,392.87,1430.94,391.24,1427.116Z" transform="translate(-291.164 -1318.195)" fill="#634343"/>
        <path id="Trazado_14343" data-name="Trazado 14343" d="M412.3,1401.219c-19.961-1.482-5.447-20.707,7.51-14.509C427.8,1391.8,420.709,1403.382,412.3,1401.219Z" transform="translate(-296.256 -1302.322)" fill="#634343"/>
        <path id="Trazado_14344" data-name="Trazado 14344" d="M367.994,1391.349c-21.358-3.706,7.044-31.02,14.509-13.269C386.958,1387.76,375.567,1391.349,367.994,1391.349Z" transform="translate(-277.208 -1296.31)" fill="#634343"/>
        <path id="Trazado_14345" data-name="Trazado 14345" d="M318.123,1367.8c-4.311.869-7.24-4.983-4.763-8.229,4.131-5.021,18.127-5.5,14.87,3.741-2.071,3.89-6.655,4.557-10.644,4.526C317.763,1367.821,317.941,1367.811,318.123,1367.8Z" transform="translate(-255.708 -1289.049)" fill="#634343"/>
        <path id="Trazado_14346" data-name="Trazado 14346" d="M291.957,1377.219c-2.755-2.932,2.742-6.716,4.749-3.433C298.4,1376.793,294.3,1379.2,291.957,1377.219Z" transform="translate(-246.134 -1296.481)" fill="#634343"/>
        <path id="Trazado_14347" data-name="Trazado 14347" d="M282.013,1395.851a10.4,10.4,0,0,1-3.961-1.148l.181.1c-4.619-1.9-1.744-7.635,2.254-8.108,3.231.087,6.648-1.53,9.727-.179C295.879,1391.123,286.411,1396.112,282.013,1395.851Z" transform="translate(-239.224 -1302.542)" fill="#634343"/>
        <path id="Trazado_14348" data-name="Trazado 14348" d="M239.287,1348.846c-1.708-.118-3.549-.145-4.958-1.281a3.259,3.259,0,0,1-3.171-4.005c.688-3.819,5.21-4.147,8.192-5.337l-.054.018c13.387-6.158,15.245,11.421,1.292,10.63l.451-.029A10.222,10.222,0,0,1,239.287,1348.846Z" transform="translate(-219.055 -1280.45)" fill="#634343"/>
        <path id="Trazado_14349" data-name="Trazado 14349" d="M247.474,1320.621c-2.8-1.01-5.643.281-8.411-.285-9.161,1.4-5.8-6.536.359-8.324-.071.035-.142.068-.211.1C255.7,1301.307,264.6,1318.732,247.474,1320.621Z" transform="translate(-220.104 -1267.69)" fill="#634343"/>
        <path id="Trazado_14350" data-name="Trazado 14350" d="M312.582,1304.365c-1.482-3.529,4.541-6.123,6.924-3.855C322.93,1304.6,314.709,1307.706,312.582,1304.365Z" transform="translate(-255.661 -1263.66)" fill="#634343"/>
        <path id="Trazado_14351" data-name="Trazado 14351" d="M210.512,1335.105c-2.316-.74-1.286-3.781.787-4.038l-.043.013a2.233,2.233,0,0,1,2.869.811,1.393,1.393,0,0,1,.5.215l-.057-.029c.027.014.053.028.079.043h0C217.276,1334.549,212.321,1335.511,210.512,1335.105Z" transform="translate(-209.191 -1277.72)" fill="#634343"/>
        <path id="Trazado_14352" data-name="Trazado 14352" d="M711.984,1356.5c-3.217-.96-.626-5.73,1.98-4.063C718.6,1352.759,715.3,1357.82,711.984,1356.5Z" transform="translate(-435.01 -1287.277)" fill="#634343"/>
        <path id="Trazado_14353" data-name="Trazado 14353" d="M678.267,1363.416c-5.375-.557-1.245-7.259,2.536-4.451C683.263,1360.58,680.533,1363.727,678.267,1363.416Z" transform="translate(-419.336 -1290.068)" fill="#634343"/>
        <path id="Trazado_14354" data-name="Trazado 14354" d="M693.933,1364.648c-.265-.109-.53-.219-.785-.349.048.024.1.049.149.073a1.66,1.66,0,0,1-.321-.183l.018.006c-1.5-1.3.582-2.937,2.018-2.176-.062-.009-.12-.024-.182-.034C698.652,1362,696.426,1367.469,693.933,1364.648Z" transform="translate(-426.895 -1291.665)" fill="#634343"/>
        <path id="Trazado_14355" data-name="Trazado 14355" d="M694.336,1366.519c-2.565-.166-1.464-3.95.841-2.905l-.053-.009c.065.012.128.024.192.039l-.045-.01.222.046-.009,0c.19.042.383.075.574.109h-.009C698.868,1364.868,696.428,1366.969,694.336,1366.519Z" transform="translate(-427.069 -1292.388)" fill="#634343"/>
        <path id="Trazado_14356" data-name="Trazado 14356" d="M605.212,1385.654c-2.173-.632-1.092-3.665.833-3.689l-.156.011c2.333-.407,2.793,2.831.672,3.476.063-.029.125-.062.187-.1A1.9,1.9,0,0,1,605.212,1385.654Z" transform="translate(-387.046 -1300.726)" fill="#634343"/>
        <path id="Trazado_14357" data-name="Trazado 14357" d="M466.495,1388.576l.087.016a1.776,1.776,0,0,1-.888-3.127h0a1.778,1.778,0,0,1,.6-.3C470.255,1381.844,471.511,1390.143,466.495,1388.576Z" transform="translate(-324.441 -1301.822)" fill="#634343"/>
        <path id="Trazado_14358" data-name="Trazado 14358" d="M452.428,1396.807c.33-5.675,11.767-1.882,4.287,1.709l.023-.011C455.2,1399.446,452.638,1398.816,452.428,1396.807Z" transform="translate(-318.762 -1306.117)" fill="#634343"/>
        <path id="Trazado_14359" data-name="Trazado 14359" d="M338.78,1383.2c-3.334-1.4.314-3.956,2.5-3.063C343.807,1381.757,340.728,1383.734,338.78,1383.2Z" transform="translate(-266.961 -1299.829)" fill="#634343"/>
        <path id="Trazado_14360" data-name="Trazado 14360" d="M355.513,1378.6c-.485-1.868,2.739-3.161,3.5-1.244C359.927,1379.454,356.142,1380.729,355.513,1378.6Z" transform="translate(-275.083 -1298.235)" fill="#634343"/>
        <path id="Trazado_14361" data-name="Trazado 14361" d="M342.356,1382.93a2.919,2.919,0,0,1-1.241-.372c-2.712-.145-1.373-4.178.963-3.358C344.9,1378.676,345.286,1383.225,342.356,1382.93Z" transform="translate(-267.94 -1299.442)" fill="#634343"/>
        <path id="Trazado_14362" data-name="Trazado 14362" d="M339.806,1383.375c-4.239-.559-1.031-6.957,1.863-3.75h0C344.861,1380.088,341.958,1383.92,339.806,1383.375Z" transform="translate(-267.107 -1299.28)" fill="#634343"/>
        <path id="Trazado_14363" data-name="Trazado 14363" d="M348.533,1391.391c-3.5-.893-.343-5.484,2.167-3.229C352.619,1389.556,350.548,1392.624,348.533,1391.391Z" transform="translate(-271.26 -1303.251)" fill="#634343"/>
        <path id="Trazado_14364" data-name="Trazado 14364" d="M267.533,1367.113a1.715,1.715,0,1,1,3.428,0A1.715,1.715,0,0,1,267.533,1367.113Z" transform="translate(-235.472 -1293.254)" fill="#634343"/>
        <path id="Trazado_14365" data-name="Trazado 14365" d="M432.367,1266.979c-6.461-3.12-.045-11.229,5.411-10.091C449.044,1260.022,440.246,1269.677,432.367,1266.979Z" transform="translate(-308.504 -1244.345)" fill="#634343"/>
        <path id="Trazado_14366" data-name="Trazado 14366" d="M375.355,1302.636l.113.007c-9.646,0-5.565-11.2.891-12.961,5.972-3.64,16.381,1.8,12.776,9.152C386.474,1303.509,379.992,1302.8,375.355,1302.636Z" transform="translate(-281.512 -1258.644)" fill="#634343"/>
        <path id="Trazado_14367" data-name="Trazado 14367" d="M562.724,1266.914a1.282,1.282,0,0,1,2.564,0A1.282,1.282,0,0,1,562.724,1266.914Z" transform="translate(-368.447 -1248.349)" fill="#634343"/>
        <path id="Trazado_14368" data-name="Trazado 14368" d="M561.532,1263.221c-7.863-1.566-10.461-18.409.831-9.583-.053-.048-.106-.092-.154-.14a7.214,7.214,0,0,1,2.223,2.626c-.022-.045-.044-.089-.068-.134l.04.079-.046-.1c.041.083.081.164.121.245l-.074-.143a5.077,5.077,0,0,1,.659,2.139C567.013,1260.612,564.163,1263.6,561.532,1263.221Z" transform="translate(-364.855 -1241.784)" fill="#634343"/>
        <path id="Trazado_14369" data-name="Trazado 14369" d="M582.972,1271.751c-2.047-1.488-6.089-3.9-4.157-6.84-2.615-3.9,4.221-1.565,5.611-.376C588.434,1266.241,588.4,1274.072,582.972,1271.751Z" transform="translate(-375.43 -1247.033)" fill="#634343"/>
        <path id="Trazado_14370" data-name="Trazado 14370" d="M608.748,1277.108c-2.154-.883-5.475-2.426-6.174-4.743a1.231,1.231,0,0,1-.277-1.448l-.03.044c1.338-2.192,4.939-.723,6.668.362-.067-.048-.139-.1-.206-.139a6.969,6.969,0,0,1,2.213,2.04l-.038-.042A2.391,2.391,0,0,1,608.748,1277.108Z" transform="translate(-386.217 -1250.222)" fill="#634343"/>
        <path id="Trazado_14371" data-name="Trazado 14371" d="M636.931,1291.294a27.365,27.365,0,0,1-5.426-4.172c.077.091.159.182.235.269-1.176-1.35-3.521-2.524-2.595-4.671-.612-3.336,4.279-.779,5.918-.576l-.1-.019.014,0-.143-.027a8.921,8.921,0,0,1,6.4,4.355c-.017-.022-.032-.046-.048-.069a5.676,5.676,0,0,1,.836,2.286l-.024-.111C642.655,1291.461,639.053,1292.989,636.931,1291.294Z" transform="translate(-398.273 -1255.263)" fill="#634343"/>
        <path id="Trazado_14372" data-name="Trazado 14372" d="M665.21,1303.853a5.072,5.072,0,0,1-2.53-2.194c.057.091.12.178.178.268-.906-1.489-3.1-3.029-2.156-4.964a1.313,1.313,0,0,1-.24-2.312l-.051.034.074-.043-.015.006a1.438,1.438,0,0,1,.432-.147l-.031.01.056-.008-.008-.005a9.95,9.95,0,0,1,6.4,3.689l-.021-.023C670.071,1300.027,668.771,1304.711,665.21,1303.853Z" transform="translate(-412.206 -1261.336)" fill="#634343"/>
        <path id="Trazado_14373" data-name="Trazado 14373" d="M709.895,1322.316c-2.105-3.875,4.41-4.558-2.214-10.491l.085.1c-.092-.083-.188-.167-.285-.25l.075.066-.014-.013a2.608,2.608,0,0,1,.351.341c-1.946-1.662-4.9-1.941-7.351-1.531.062-.015.12-.024.182-.039a3.6,3.6,0,0,1-.966.1h0c-.052,0-.1-.008-.159-.014l.159.014.014-.009c-4.614-2.336,4.821-4.709,6.827-4-.1,0-.2-.014-.3-.019,6.739.031,12.673,9.26,7.072,14.447C712.514,1321.94,711.2,1323.313,709.895,1322.316Z" transform="translate(-429.618 -1266.725)" fill="#634343"/>
        <path id="Trazado_14374" data-name="Trazado 14374" d="M521.119,1248.388a5.785,5.785,0,0,1-1.91-2.737c.017.033.034.066.052.1-.036-.07-.071-.14-.106-.212.013.027.026.054.038.081-1.423-2.874-4.483-5.632-7.9-4.89l.09-.02c-.078.017-.157.033-.235.048l.1-.019a3.284,3.284,0,0,0-2.226,1.255,1.19,1.19,0,0,1-2.02,1.011,1.142,1.142,0,0,0,.221.168c-3.984-9.875,16.109-7.28,15.758,2.789-.014-.072-.033-.144-.048-.216C523.694,1247.17,523.054,1249.508,521.119,1248.388Z" transform="translate(-343.213 -1235.414)" fill="#634343"/>
        <path id="Trazado_14375" data-name="Trazado 14375" d="M466.933,1244.767c-.393-.2-.8-.365-1.19-.567.067.038.139.072.211.11a11.673,11.673,0,0,0-5.521-1.161l.16-.013a18.785,18.785,0,0,0-4.975.909,1.342,1.342,0,0,1-2.451-1.056,1.277,1.277,0,0,0-.052.2c2.262-3.838,8.995-4.912,12.93-3.082-.072-.038-.149-.077-.226-.116C468.477,1240.548,471.432,1245.165,466.933,1244.767Z" transform="translate(-319.059 -1236.442)" fill="#634343"/>
        <path id="Trazado_14376" data-name="Trazado 14376" d="M402.932,1269.075a1.144,1.144,0,0,1,.225-1.618l-.006,0,.033-.024-.026.016c3.866-2.585,8.367-4.929,13.067-5.251,3.574-.78,9.562,3.458,3.721,5.053l.048,0c-2.5-.224-4.963-.763-7.485-.4l.264-.014a18.184,18.184,0,0,0-4.6,1.056c.062-.024.125-.044.187-.067-1.318.483-2.651.954-3.932,1.522.017-.009.033-.02.049-.03A1.156,1.156,0,0,1,402.932,1269.075Z" transform="translate(-296.36 -1246.746)" fill="#634343"/>
        <path id="Trazado_14377" data-name="Trazado 14377" d="M342.8,1315.39a10.722,10.722,0,0,0-10.221-3.155l.109-.024c-.064.014-.128.028-.192.039l.078-.014a20.785,20.785,0,0,0-2.186.581l.158-.058c-1.079.72-3.311,1.4-2.857-.749,1.66-2.366,5.094-2.911,7.783-3.38C345.12,1306.741,351.049,1316.343,342.8,1315.39Z" transform="translate(-262.542 -1267.591)" fill="#634343"/>
        <path id="Trazado_14378" data-name="Trazado 14378" d="M305.461,1334.142c-2.6-1.05-4.886-2.9-7.73-3.323l.269.058a12.6,12.6,0,0,0-5.9.482l.03-.011c-.059.023-.121.041-.182.063.043-.013.087-.027.129-.042-.18.069-.353.142-.526.225l.114-.058c-.826.569-2.076.835-2.564-.293-.024-3.286,5.273-3.818,7.815-4.441,3.912-.229,8.75-.322,11.62,2.771A2.924,2.924,0,0,1,305.461,1334.142Z" transform="translate(-245.187 -1275.843)" fill="#634343"/>
        <path id="Trazado_14379" data-name="Trazado 14379" d="M442.773,1350.135a10.9,10.9,0,0,1-2.2-.54l.047.017c-10.448-2.133-9.709-17.015-1.526-21.45l-.025.021c2.96-1.464,3.078,1.719,1.476,3.458.014-.04.028-.08.041-.12-.029.088-.06.173-.091.26.016-.042.031-.083.046-.125-1.03,2.808.168,5.795,1.822,8.094-.115-.173-.231-.346-.351-.518a41.99,41.99,0,0,0,3.332,4.258l-.064-.073C450.191,1346.968,449.333,1351.575,442.773,1350.135Z" transform="translate(-309.951 -1276.341)" fill="#392626"/>
        <path id="Trazado_14380" data-name="Trazado 14380" d="M479.2,1326.874c-15.323-6.479-1.089-24.628-.465-16.511a36.8,36.8,0,0,0,.388,9.81c0-.058-.006-.116-.01-.174.159,1.323,1.469,2.1,2.425,2.866C483.683,1324.449,481.623,1327.977,479.2,1326.874Z" transform="translate(-327.635 -1267.558)" fill="#392626"/>
        <path id="Trazado_14381" data-name="Trazado 14381" d="M475.92,1364.256a1.13,1.13,0,0,1,2.16-.663A1.13,1.13,0,0,1,475.92,1364.256Z" transform="translate(-329.316 -1292.099)" fill="#392626"/>
        <path id="Trazado_14382" data-name="Trazado 14382" d="M475.654,1363.688c-3.455-3.1-3.331-8.953-1.806-12.983.622-1.532,3.462-2,3.366.13-.927,2.126.331,4.465,1.35,6.35s3.4,1.574,4.964.6C493.7,1357.771,482.726,1369.39,475.654,1363.688Z" transform="translate(-327.952 -1286.066)" fill="#392626"/>
        <path id="Trazado_14383" data-name="Trazado 14383" d="M317.206,1345.894c.047-6.361,7.178-10.005,12.91-8.873l-.025,0a1.277,1.277,0,0,1-.159,2.543l.015.008.169-.014a.091.091,0,0,0-.018,0c.04-.008.084-.015.124-.027l-.014,0,.053-.01a17.774,17.774,0,0,0-2.439,1.08c.077-.033.149-.072.226-.111C324.635,1341.629,320.181,1351.82,317.206,1345.894Z" transform="translate(-257.849 -1280.399)" fill="#392626"/>
        <path id="Trazado_14384" data-name="Trazado 14384" d="M650.414,1339.793a1.059,1.059,0,0,1-.528-1.273v.005c.69-3.506-1.813-6.237-5.056-7.11.051.015.1.034.153.051l-.009,0,.043.014a21.3,21.3,0,0,0-3.049-.874c.058.015.115.024.173.038a17.269,17.269,0,0,0-4.821-.307c.034,0,.072-.005.11-.005l-.864.058c.029,0,.063,0,.1-.009a11.63,11.63,0,0,0-1.3.165l.026,0c-.894.491-2.178.124-.865-.577a.392.392,0,0,1-.048.014c5.418-3.416,16.667-2.861,18.1,4.667C652.9,1336.348,652.787,1339.951,650.414,1339.793Z" transform="translate(-400.536 -1276.414)" fill="#704c4c"/>
        <path id="Trazado_14385" data-name="Trazado 14385" d="M592.868,1340.029a3.7,3.7,0,0,1-.753-.9l.017.018c-.143-.165-.236-.363-.373-.532l.013.011a25.976,25.976,0,0,0-6.149-5.355c.077.053.159.105.24.158-5.732-3.458-11.98-7.141-18.912-6.784l.071-.006c-.069.005-.138.009-.205.015l.182-.014c-1.674.156-3.347.365-5,.687.034-.01.067-.015.1-.024-1.062.228-2.1.5-3.171.688h.012a10.747,10.747,0,0,0-1.271.371.362.362,0,0,0,.036-.015c-.689.268-1.393.508-2.069.8.019-.005.034-.014.048-.019-2.553.176,1.587-1.654,2.683-1.838l-.018.009.048-.019h0c6.2-3.059,13.074-5.716,19.828-2.661-.047-.016-.093-.033-.141-.052,6.7,2.167,14.807,6.243,15.5,14.1,0-.034,0-.072,0-.111a4.023,4.023,0,0,0,.1.524v-.006c.006.031.013.061.019.092l0-.016C593.92,1339.732,593.513,1340.5,592.868,1340.029Z" transform="translate(-364.909 -1274.292)" fill="#704c4c"/>
        <path id="Trazado_14386" data-name="Trazado 14386" d="M531.305,1334.615c-.062-.01-.124-.023-.185-.037l.05.008c-.24-.043-.465-.125-.7-.173l.044.008a3.047,3.047,0,0,1-.32-.091h0c-.339-.119-.687-.207-1.023-.326.058.024.12.043.177.062-5.084-1.2-10.137-3.6-15.491-2.588-.609.194-3.026.94-1.841-.306h0a17.3,17.3,0,0,1,6.345-2.411c-.058.014-.115.023-.168.039a13.4,13.4,0,0,1,11.88,2.2l-.06-.049.2.169-.021-.02c.051.045.1.091.154.135l-.022-.019a9.184,9.184,0,0,1,1.006,1l0,0a5,5,0,0,1,.366.438l-.015-.02c.028.04.057.079.082.12l-.025-.041C532.5,1333.312,532.488,1334.672,531.305,1334.615Z" transform="translate(-345.461 -1276.555)" fill="#704c4c"/>
        <path id="Trazado_14387" data-name="Trazado 14387" d="M385.449,1384.587a2.6,2.6,0,0,0,.365-2.314c0,.034.01.063.014.1-.014-.086-.033-.177-.053-.264l0,.009a6.859,6.859,0,0,0-.617-1.626c.024.053.048.1.072.153-.861-1.791-2.085-3.574-4.1-4.133.091.029.182.062.274.091a7.915,7.915,0,0,1-.842-.342l.069.035a.819.819,0,0,0-.234-.078l.052.01c-.095-.019-.19-.041-.284-.062l.109.025a16.262,16.262,0,0,0-4.152-.431l.125.007a27.562,27.562,0,0,0-6.189,1.124h0l-.284.1.012,0-.082.029.014,0a6.658,6.658,0,0,0-.683.265l.011-.016a.324.324,0,0,1-.034.038l.009-.006-.041.052a.362.362,0,0,1,.023-.036c-.006.008-.012.016-.016.023a.172.172,0,0,0,.006-.018.208.208,0,0,1-.018.036l0-.008a.181.181,0,0,0-.011.02l.008-.013c-2.227,1.112.983-2.814,1.786-3.028l-.056.039c.042-.029.083-.058.125-.086l-.01.006.062-.042-.019.011c6.831-5.305,18.147-1.969,16.463,7.73.014-.039.024-.072.038-.106-.163.471-.293.955-.456,1.431,0-.019.014-.043.019-.063-.024.072-.048.144-.077.216.009-.019.014-.038.024-.057a3.539,3.539,0,0,1-.2.5l0-.005C386.641,1384.57,385.373,1385.965,385.449,1384.587Z" transform="translate(-280.825 -1296.126)" fill="#704c4c"/>
        <path id="Trazado_14388" data-name="Trazado 14388" d="M425.762,1393.884a2.359,2.359,0,0,1-.365-.96c.009.053.019.1.029.149a3.043,3.043,0,0,0-.855-1.733c.034.031.068.062.1.093a29.2,29.2,0,0,0-8.464-3.735l.06.013a6.519,6.519,0,0,0-.859-.1c.038,0,.072.005.11.005-.58-.026-1.164-.044-1.743-.082l.02-.006c-.19.049-.376.1-.563.159l.023-.01-.037.015.006,0-.057.025h0c-2.655-.242,3.9-2.455,4.649-2.545l-.109.021c3.348-1.107,7.475-.538,9.262,2.832-.048-.076-.1-.148-.149-.225C428.223,1389.124,428.689,1395.325,425.762,1393.884Z" transform="translate(-300.794 -1301.958)" fill="#704c4c"/>
        <path id="Trazado_14389" data-name="Trazado 14389" d="M393.072,1327.694c-.024-.058-.043-.115-.067-.173.01.014.014.029.024.043a4.853,4.853,0,0,0-.29-.462l.012.02a9.063,9.063,0,0,0-.591-.783h0l-.053-.063.012.017c-2.744-2.177-5.154-4.769-7.924-6.9.058.038.12.076.177.115a10.166,10.166,0,0,0-1.133-.653l.2.1a9.333,9.333,0,0,0-4.955-.951l.2-.014c-.742.049-1.484.1-2.227.144h.018a20.088,20.088,0,0,0-5.022.955c.038-.009.072-.024.11-.034a10.068,10.068,0,0,0-1.181.49c.024-.01.052-.024.081-.039-9.56,5.71,9.99-14.676,20.891,2.254l-.006-.011c.03.059.062.118.091.178l-.022-.039c.447.989.964,1.933,1.4,2.93-.015-.034-.029-.063-.043-.092a11.336,11.336,0,0,1,.989,2.536l-.01-.025C394.1,1327.725,393.348,1328.256,393.072,1327.694Z" transform="translate(-280.688 -1270.518)" fill="#704c4c"/>
        <path id="Trazado_14390" data-name="Trazado 14390" d="M481.63,1284.861a10.26,10.26,0,0,1-.658-1.476l.009.021c-.471-.975-.855-1.978-1.344-2.943.029.058.058.12.091.177-.289-.556-.557-1.118-.836-1.68.034.068.068.14.1.207a18.522,18.522,0,0,0-1.152-2.064c.048.068.091.135.14.2-1.509-2.689-4.7-3.8-7.615-4.11l.264.015c-3.433-.254-6.815.542-10.2.946.058-.015.115-.024.173-.038a35.113,35.113,0,0,0-5.687,1.413.272.272,0,0,0,.021-.021.484.484,0,0,1-.038.034.117.117,0,0,0,.016-.013c-.777.827-1.1-.491-.252-.837-.009.015-.024.029-.034.043a22.769,22.769,0,0,1,19.651-4.864l-.085-.015.012,0-.085-.016c.088.015.175.036.264.053l-.128-.028c5.356.633,8.475,6.41,8.434,11.4,0-.062.009-.12.014-.178,0,.5-.028,1-.072,1.5,0-.013,0-.025,0-.037C482.46,1283.233,482.936,1285.667,481.63,1284.861Z" transform="translate(-319.541 -1249.98)" fill="#704c4c"/>
        <path id="Trazado_14391" data-name="Trazado 14391" d="M508.608,1255.931c-.342-.251-.245-.724-.485-1.056l.043.086c-.067-.134-.125-.274-.192-.408.019.039.038.076.058.111-1.9-7.448,10.212-8.126,13.091-2.6l-.042-.059a9.489,9.489,0,0,1,.72,1.21c-.009-.02-.018-.039-.027-.058,1.024,1.232.469,3.055-1.129,1.651l.009.006c-.033-.023-.067-.045-.1-.067a.8.8,0,0,1,.069.045c-.111-.079-.222-.159-.333-.241l.043.027c-.038-.024-.075-.05-.11-.077a.5.5,0,0,0,.048.037c-3.271-1.942-8.442-3.159-10.916.587l0,0-.01.014,0,0c-.013.02-.027.041-.041.06l.013-.016a2.289,2.289,0,0,1-.158.215A.4.4,0,0,1,508.608,1255.931Z" transform="translate(-343.72 -1240.58)" fill="#704c4c"/>
        <path id="Trazado_14392" data-name="Trazado 14392" d="M389.733,1302.714c-6.2-.725.55-1.531,1.84-3.146l-.03.025c2.306-2.469,1.049-6.349-1.973-7.562.048.033.1.067.149.1a10.727,10.727,0,0,0-2.737-.854l.13.029-.615-.125.024.006a6.857,6.857,0,0,0-.946-.135h.013c-.672-.033-1.344-.029-2.015-.015h0a1.648,1.648,0,0,0-.217.035l.053-.014c-.487.1-.974.2-1.443.344l.012,0c-.56.572-1.544-.029-.687-.547l-.03.023a8.042,8.042,0,0,1,2.2-.652l-.005,0c2.2-.74,4.573-1.366,6.871-.723-.058-.014-.11-.024-.168-.039,6.476.3,9.568,9.533,3.092,12.373l.071-.035-.115.057.025-.012A8.614,8.614,0,0,1,389.733,1302.714Z" transform="translate(-286.568 -1258.964)" fill="#704c4c"/>
        <path id="Trazado_14393" data-name="Trazado 14393" d="M442.1,1262.635a4.941,4.941,0,0,0-2.444-1.806c.063.02.125.043.187.063a9.126,9.126,0,0,0-5.857-.865l.063-.014a4.312,4.312,0,0,0-1.178.372l.011-.007c-.016.008-.032.017-.048.024h0a7.25,7.25,0,0,0-1.233.765l.039-.039c-.043.043-.087.082-.125.125h0a.854.854,0,0,0-.077.1l.029-.043c-.264.652-1.181.109-.7-.388a5.526,5.526,0,0,1,2.121-1.425l-.007,0C443.213,1253.061,447.254,1265.927,442.1,1262.635Z" transform="translate(-308.943 -1244.745)" fill="#704c4c"/>
        <path id="Trazado_14394" data-name="Trazado 14394" d="M585.678,1289.141a10.674,10.674,0,0,0-1.5-2.452l.019.022c-2.453-2.606-6.452-2.04-9.665-2.3a.853.853,0,0,1-1.206.007h0c-.652-.177-1.279-.438-1.93-.636.053.019.1.033.149.053a7.424,7.424,0,0,0-.871-.232l.117.025c-2.663-.121-5.062-1.628-7.78-1.288l.045,0c-.056.006-.112.006-.168.01.032,0,.065,0,.1,0-.226.018-.455.036-.684.052h.026c-.755.063-1.5.18-2.261.2l.023,0a13.027,13.027,0,0,0-1.5.18l.02,0a1.739,1.739,0,0,0-.483.182l.021-.014a3.3,3.3,0,0,0-.794.53h0l-.038.033.006-.008a.6.6,0,0,0-.046.045h0l0,0c-4.5.3,12.287-8.355,15.031-2.2l-.026-.028.025.029-.061-.069c.277.346.62.641.9.984,3.309-5.8,13.573-1.5,13.692,4.759C587.245,1287.924,587.043,1290.612,585.678,1289.141Z" transform="translate(-365.65 -1254.41)" fill="#704c4c"/>
        <path id="Trazado_14395" data-name="Trazado 14395" d="M652.326,1312.235c-.305-.139-.6-.3-.9-.448l.029.016a14.445,14.445,0,0,0-1.671-.734l.077.029a17.088,17.088,0,0,0-1.935-.571c.034.009.068.014.106.024l-.475-.1c.034.009.072.014.111.024a26.806,26.806,0,0,0-2.732-.437h.025c-.284-.02-.567-.037-.846-.058l.163.014c-1.6-.09-3.215.255-4.791-.106l.01,0-.018,0,.027.005-.086-.018.019,0a26.519,26.519,0,0,0-2.64-.317c.039.005.072.005.106.01a3.541,3.541,0,0,0-.884.062l.072-.014c-.156.036-.308.049-.463.075a.416.416,0,0,1-.8-.127c1.2-1.913,4.033-2.4,6.15-2.67l-.054,0C642.731,1306.568,654.871,1310.692,652.326,1312.235Z" transform="translate(-400.927 -1266.914)" fill="#704c4c"/>
        <path id="Trazado_14396" data-name="Trazado 14396" d="M642.146,1289.33c-.317-.346-.555-.769-.87-1.111l.049.05a18.2,18.2,0,0,0-1.261-1.349l.027.024c-.031-.026-.061-.055-.091-.081l.035.032c-.609-.524-1.281-.977-1.936-1.439.038.029.077.052.115.081a45.171,45.171,0,0,0-6.7-3.19l.038.011-.139-.048,0,0c-.483-.166-.966-.325-1.445-.5.025.011.053.022.079.03a5.766,5.766,0,0,1-.68-.23.4.4,0,1,1-.42-.683c4.367-2.839,11.094,2.375,13.513,6.235C642.966,1287.774,643.6,1290.011,642.146,1289.33Z" transform="translate(-398.187 -1254.858)" fill="#704c4c"/>
        <path id="Trazado_14397" data-name="Trazado 14397" d="M714.26,1314.563l-.043-.087.043.087a5.442,5.442,0,0,0-.326-.524c.024.029.043.063.067.091a7.074,7.074,0,0,0-2.939-2.219l.054.03a30.306,30.306,0,0,0-6.923-2.65l.13.029a11.84,11.84,0,0,0-2.213-.181c-.148.944-1.282.06-.773-.564,3.7-3.028,10.667-.837,13.381,2.8-.029-.048-.058-.091-.086-.134C715.634,1312.027,716.344,1316.263,714.26,1314.563Z" transform="translate(-430.828 -1267.033)" fill="#704c4c"/>
        <path id="Trazado_14398" data-name="Trazado 14398" d="M745.994,1330.167h0a3.938,3.938,0,0,0-.287-.521.11.11,0,0,0,.014.017c-.011-.016-.024-.031-.033-.048l.007.012a2.189,2.189,0,0,1-.478-1.127l.009.039c-.009-.038-.017-.076-.024-.115,0,.008,0,.017,0,.025a2.861,2.861,0,0,1,.568-2.359c-.029.048-.058.091-.086.134,1.987-4.286,15.438-1.727,16.6,2.333.749,1.652-.358,2.369-1.535.971l.061.043a5.7,5.7,0,0,0-1.45-.613l.009,0c-.781-.25-1.587-.406-2.374-.627l.036.013c-.067-.023-.134-.043-.2-.068l.081.026-.276-.1.046.015-.2-.067.085.031c-.811-.237-1.645-.423-2.433-.736l.1.035c-2.669-1.208-6.527-1.424-7.661,1.9.014-.019.024-.042.037-.065C746.55,1329.527,747.07,1331.015,745.994,1330.167Z" transform="translate(-450.614 -1274.629)" fill="#704c4c"/>
        <path id="Trazado_14399" data-name="Trazado 14399" d="M529.929,1388.52c-1.912-2.2.469-5.383,1.964-7.226l-.173.2c3.52-5.176,14.151-5.259,14.932,1.868l0-.024c.432,1.542-1.218,3.371-2.255,1.478l.087.13a7.5,7.5,0,0,1-.615-1.018c.029.058.053.11.082.168-.374-1.054-1.587-.853-2.473-.725l.3-.063c-2.684.745-5.631.264-8.135,1.6l.09-.046c-1.2.577-1.952,1.743-2.994,2.547.034-.024.062-.053.091-.077-.1.1-.259.188-.259.346v-.014c-.007.108-.016.215-.025.323C530.952,1388.439,530.258,1389.024,529.929,1388.52Z" transform="translate(-353.353 -1298.857)" fill="#704c4c"/>
        <path id="Trazado_14400" data-name="Trazado 14400" d="M499.085,1400.527c-.008-.1-.014-.208-.02-.314-3.436-2.657-8.059-.3-11.952-.109-2.654.948,1.885-3.052,2.682-3.129l-.025.018a6.459,6.459,0,0,1,2.094-.954l-.206.072C503.8,1393.132,502.589,1404.237,499.085,1400.527Z" transform="translate(-334.015 -1306.878)" fill="#704c4c"/>
        <path id="Trazado_14401" data-name="Trazado 14401" d="M627.046,1416.542c-1.1-.949.078-2.045-.021-3.086a6.122,6.122,0,0,0-1.823-.51l.02,0a25.308,25.308,0,0,0-7.477-.329.4.4,0,0,1-.786-.127.263.263,0,0,0,0,.038,1.43,1.43,0,0,1,.505-1.156c-.019.024-.038.043-.057.067a5.954,5.954,0,0,1,1.651-1.2l-.12.086a10.975,10.975,0,0,1,10.121,0C632.168,1411.809,630.659,1418.74,627.046,1416.542Z" transform="translate(-392.876 -1312.96)" fill="#704c4c"/>
      </g>
      <g id="Grupo_9233" data-name="Grupo 9233" transform="translate(36.768 1647.05)">
        <g id="Grupo_9232" data-name="Grupo 9232" transform="translate(791.232 414.35)">
          <path id="Trazado_14737" data-name="Trazado 14737" d="M884.668,490.323c-3.96.759-9.133,2.607-16.335,2.668l-21.9-.416a7.286,7.286,0,0,1-3.192-.671c-2.695-1.376-6.03-4.336-1.832-12.827l13.13-13.131q1.115-.914,2.159-1.953a29.081,29.081,0,1,0-47.975-10.841L792.38,469.494a3.918,3.918,0,0,0,0,5.541l26.535,26.535,42.994.144s5.418-.246,5.418,4.1a3.912,3.912,0,0,0,2.759,4.124,1.933,1.933,0,0,0,1.962-.473l15.357-15.357a1.918,1.918,0,0,0,.564-1.468C887.9,491.507,887.365,489.806,884.668,490.323ZM819.88,427.177a22.989,22.989,0,0,1,36.067,27.917,7.6,7.6,0,0,1-8.343,3.747l-1.23-1.23-18.285-18.285a3.918,3.918,0,0,0-5.541,0l-8.892,8.892A22.961,22.961,0,0,1,819.88,427.177Z" transform="translate(-791.232 -414.35)" fill="#fdac29"/>
        </g>
        <circle id="Elipse_534" data-name="Elipse 534" cx="1.705" cy="1.705" r="1.705" transform="translate(887.72 499.239)" fill="#fd5d5d"/>
        <path id="Trazado_14738" data-name="Trazado 14738" d="M957.3,574.38a1.7,1.7,0,1,1-1.7-1.7A1.7,1.7,0,0,1,957.3,574.38Z" transform="translate(-70.748 -68.862)" fill="#fd5d5d"/>
        <path id="Trazado_14739" data-name="Trazado 14739" d="M948.889,582.794a1.7,1.7,0,1,1-1.7-1.7A1.705,1.705,0,0,1,948.889,582.794Z" transform="translate(-67.088 -72.522)" fill="#fd5d5d"/>
        <circle id="Elipse_535" data-name="Elipse 535" cx="1.705" cy="1.705" r="1.705" transform="translate(893.038 504.557)" fill="#fd5d5d"/>
        <path id="Trazado_14740" data-name="Trazado 14740" d="M966.715,583.791a1.7,1.7,0,1,1-1.7-1.7A1.7,1.7,0,0,1,966.715,583.791Z" transform="translate(-74.842 -72.955)" fill="#fd5d5d"/>
        <path id="Trazado_14741" data-name="Trazado 14741" d="M958.3,592.206a1.7,1.7,0,1,1-1.7-1.7A1.7,1.7,0,0,1,958.3,592.206Z" transform="translate(-71.182 -76.615)" fill="#fd5d5d"/>
        <path id="Trazado_14742" data-name="Trazado 14742" d="M984.374,585.261a1.7,1.7,0,1,1-1.7-1.7A1.7,1.7,0,0,1,984.374,585.261Z" transform="translate(-82.522 -73.595)" fill="#fd5d5d"/>
        <path id="Trazado_14743" data-name="Trazado 14743" d="M976.28,593.356a1.7,1.7,0,1,1-1.7-1.7A1.7,1.7,0,0,1,976.28,593.356Z" transform="translate(-79.002 -77.116)" fill="#fd5d5d"/>
        <circle id="Elipse_536" data-name="Elipse 536" cx="1.705" cy="1.705" r="1.705" transform="translate(889.114 519.291)" fill="#fd5d5d"/>
      </g>
      <g id="Grupo_9234" data-name="Grupo 9234" transform="translate(-577.788 -2876.302)">
        <path id="Trazado_14730" data-name="Trazado 14730" d="M1489.582,5066.121V5038.8a4.365,4.365,0,0,0-4.6-3.982,4.321,4.321,0,0,0-4.6,3.982v27.317a9.343,9.343,0,0,0-5.546,8.9,10.143,10.143,0,0,0,20.286,0C1495.128,5070.646,1492.793,5067.4,1489.582,5066.121Z" transform="translate(-27.205)" fill="#dae6ea"/>
        <g id="Grupo_9224" data-name="Grupo 9224" transform="translate(1444.341 5040.312)">
          <path id="Trazado_14731" data-name="Trazado 14731" d="M1447.8,5087.472h-2.536a.922.922,0,0,1,0-1.843h2.536a.922.922,0,0,1,0,1.843Z" transform="translate(-1444.341 -5085.629)" fill="#8791c1"/>
        </g>
        <g id="Grupo_9225" data-name="Grupo 9225" transform="translate(1444.341 5046.397)">
          <path id="Trazado_14732" data-name="Trazado 14732" d="M1447.8,5143.788h-2.536a.921.921,0,1,1,0-1.843h2.536a.921.921,0,1,1,0,1.843Z" transform="translate(-1444.341 -5141.945)" fill="#8791c1"/>
        </g>
        <g id="Grupo_9226" data-name="Grupo 9226" transform="translate(1444.341 5052.482)">
          <path id="Trazado_14733" data-name="Trazado 14733" d="M1447.8,5200.1h-2.536a.921.921,0,0,1,0-1.843h2.536a.921.921,0,0,1,0,1.843Z" transform="translate(-1444.341 -5198.259)" fill="#8791c1"/>
        </g>
        <g id="Grupo_9227" data-name="Grupo 9227" transform="translate(1444.341 5058.568)">
          <path id="Trazado_14734" data-name="Trazado 14734" d="M1447.8,5256.418h-2.536a.921.921,0,0,1,0-1.843h2.536a.921.921,0,0,1,0,1.843Z" transform="translate(-1444.341 -5254.575)" fill="#8791c1"/>
        </g>
        <circle id="Elipse_533" data-name="Elipse 533" cx="6.022" cy="6.022" r="6.022" transform="matrix(0.23, -0.973, 0.973, 0.23, 1450.535, 5079.181)" fill="#f45151"/>
        <g id="Grupo_9228" data-name="Grupo 9228" transform="translate(1455.937 5058.149)">
          <path id="Trazado_14735" data-name="Trazado 14735" d="M1553.49,5263.634a1.843,1.843,0,0,1-1.843-1.843v-9.253a1.843,1.843,0,0,1,3.686,0v9.253A1.843,1.843,0,0,1,1553.49,5263.634Z" transform="translate(-1551.647 -5250.695)" fill="#f45151"/>
        </g>
      </g>
    </g>
  </g>
</svg>
